<?xml version="1.0" encoding="iso-8859-1"?>
<!-- Generator: Adobe Illustrator 19.0.0, SVG Export Plug-In . SVG Version: 6.00 Build 0)  -->
<svg version="1.1" id="Layer_1" xmlns="http://www.w3.org/2000/svg" xmlns:xlink="http://www.w3.org/1999/xlink" x="0px" y="0px"
	 viewBox="0 0 512 512" style="enable-background:new 0 0 512 512;" xml:space="preserve">
<path style="fill:#FF8095;" d="M504.386,218.703l-33.84-22.002l14.407-37.749c3.687-9.605-2.121-20.325-12.175-22.337
	c-44.002-9.157-83.428-11.392-117.491-6.701c-6.141-33.952-20.55-70.696-42.775-109.785c-5.027-8.935-16.976-11.168-25.129-4.691
	L256,40.902l-31.384-25.464c-8.153-6.589-20.102-4.132-25.129,4.691c-22.225,39.089-36.521,75.945-42.662,109.674
	c-34.063-4.579-73.6-2.345-117.602,6.813c-10.053,2.011-15.861,12.732-12.175,22.337l14.519,37.749L7.614,218.703
	c-8.711,5.696-10.163,17.758-3.239,25.352c30.266,33.282,60.755,58.187,91.134,74.493c-14.966,30.936-25.017,69.244-29.932,113.918
	c-1.227,10.387,7.371,19.098,17.536,18.54l40.318-2.122l10.499,38.978c2.68,10.052,13.625,15.189,23.006,10.945
	c40.988-18.428,74.158-39.871,99.064-63.66c24.906,23.789,58.076,45.232,99.064,63.66c9.381,4.243,20.325-0.893,23.117-10.945
	l10.388-38.978l40.318,2.122c10.163,0.67,18.762-8.265,17.535-18.54c-4.915-44.785-14.967-82.87-29.932-113.806
	c30.379-16.418,60.981-41.435,91.134-74.606C514.549,236.46,513.097,224.399,504.386,218.703z"/>
<path style="fill:#FF6680;" d="M507.625,244.055c-30.155,33.17-60.755,58.187-91.134,74.606
	c14.966,30.936,25.017,69.021,29.932,113.806c1.227,10.275-7.371,19.21-17.535,18.54l-40.318-2.122l-10.388,38.978
	c-2.792,10.052-13.737,15.189-23.117,10.945c-40.988-18.428-74.158-39.871-99.064-63.66V40.903l31.384-25.464
	c8.153-6.478,20.102-4.244,25.129,4.691c22.225,39.089,36.632,75.833,42.775,109.785c34.063-4.691,73.488-2.457,117.491,6.701
	c10.053,2.011,15.861,12.732,12.175,22.337l-14.407,37.749l33.84,22.002C513.097,224.399,514.549,236.46,507.625,244.055z"/>
<g>
	<path style="fill:#FFE0B2;" d="M224.567,265.727c-1.712,0-3.458-0.267-5.181-0.823l-63.728-20.706
		c-8.791-2.862-13.611-12.313-10.754-21.109c2.868-8.791,12.292-13.601,21.115-10.76l63.728,20.706
		c8.791,2.862,13.612,12.313,10.754,21.109C238.201,261.223,231.636,265.727,224.567,265.727z"/>
	<path style="fill:#FFE0B2;" d="M197.344,357.398c-3.414,0-6.861-1.036-9.838-3.201c-7.482-5.437-9.14-15.913-3.708-23.4
		l39.384-54.211c5.442-7.487,15.902-9.167,23.406-3.702c7.482,5.437,9.14,15.913,3.708,23.4l-39.384,54.211
		C207.629,355.004,202.525,357.398,197.344,357.398z"/>
</g>
<g>
	<path style="fill:#FDCD99;" d="M315.53,357.398c-5.181,0-10.285-2.395-13.567-6.904l-39.384-54.211
		c-5.431-7.487-3.774-17.963,3.708-23.4c7.504-5.437,17.963-3.779,23.406,3.702l39.384,54.211c5.431,7.487,3.774,17.963-3.708,23.4
		C322.389,356.357,318.943,357.398,315.53,357.398z"/>
	<path style="fill:#FDCD99;" d="M288.307,265.727c-7.067,0-13.633-4.499-15.935-11.583c-2.858-8.796,1.963-18.247,10.754-21.109
		l63.728-20.706c8.823-2.858,18.258,1.958,21.115,10.76c2.858,8.796-1.963,18.247-10.754,21.109l-63.728,20.706
		C291.763,265.46,290.019,265.727,288.307,265.727z"/>
</g>
<path style="fill:#FFE0B2;" d="M256.437,242.573c-9.249,0-16.753-7.498-16.753-16.753v-67.01c0-9.254,7.504-16.753,16.753-16.753
	s16.641,7.498,16.641,16.753v67.01C273.078,235.074,265.686,242.573,256.437,242.573z"/>
<path style="fill:#FDCD99;" d="M256.437,142.057c-0.15,0-0.288,0.04-0.437,0.045v100.427c0.149,0.004,0.286,0.045,0.437,0.045
	c9.249,0,16.641-7.498,16.641-16.753v-67.01C273.078,149.556,265.686,142.057,256.437,142.057z"/>
<path style="fill:#FFE0B2;" d="M256.437,309.583c-27.713,0-50.258-22.545-50.258-50.258s22.545-50.258,50.258-50.258
	s50.258,22.545,50.258,50.258S284.151,309.583,256.437,309.583z"/>
<path style="fill:#FDCD99;" d="M256.437,209.068c-0.15,0-0.286,0.042-0.437,0.045V309.54c0.15,0.001,0.286,0.045,0.437,0.045
	c27.713,0,50.258-22.545,50.258-50.258C306.695,231.613,284.151,209.068,256.437,209.068z"/>
<path style="fill:#FFC033;" d="M256.437,242.573c-9.237,0-16.753,7.515-16.753,16.753c0,9.237,7.515,16.753,16.753,16.753
	c9.237,0,16.753-7.515,16.753-16.753C273.19,250.088,265.675,242.573,256.437,242.573z"/>
<path style="fill:#F9A926;" d="M256.437,242.573c-0.15,0-0.288,0.04-0.437,0.045v33.417c0.149,0.004,0.286,0.045,0.437,0.045
	c9.237,0,16.753-7.515,16.753-16.753C273.19,250.089,265.675,242.573,256.437,242.573z"/>
<g>
</g>
<g>
</g>
<g>
</g>
<g>
</g>
<g>
</g>
<g>
</g>
<g>
</g>
<g>
</g>
<g>
</g>
<g>
</g>
<g>
</g>
<g>
</g>
<g>
</g>
<g>
</g>
<g>
</g>
</svg>
