<?xml version="1.0" encoding="iso-8859-1"?>
<!-- Generator: Adobe Illustrator 19.0.0, SVG Export Plug-In . SVG Version: 6.00 Build 0)  -->
<svg version="1.1" id="Layer_1" xmlns="http://www.w3.org/2000/svg" xmlns:xlink="http://www.w3.org/1999/xlink" x="0px" y="0px"
	 viewBox="0 0 512 512" style="enable-background:new 0 0 512 512;" xml:space="preserve">
<path style="fill:#15E3A6;" d="M311.681,119.427c92.208,0,167.044,85.971,167.044,192.1s-74.835,192.101-167.044,192.101
	c-19.6,0-38.197-4.009-55.681-11.136c-17.483,7.128-36.081,11.136-55.681,11.136c-92.208,0-167.044-85.971-167.044-192.1
	s74.835-192.1,167.044-192.1c19.6,0,38.197,4.009,55.681,11.136C273.483,123.435,292.081,119.427,311.681,119.427z"/>
<path style="fill:#05CA8F;" d="M178.046,311.527c0-99.638,65.966-181.488,150.339-191.13c-5.497-0.628-11.066-0.97-16.704-0.97
	c-19.6,0-38.197,4.009-55.681,11.136c-17.485-7.128-36.081-11.136-55.681-11.136c-92.208,0-167.044,85.971-167.044,192.1
	s74.835,192.1,167.044,192.1c19.6,0,38.197-4.009,55.681-11.136c17.485,7.128,36.081,11.136,55.681,11.136
	c5.638,0,11.209-0.343,16.704-0.97C244.012,493.016,178.046,411.165,178.046,311.527z"/>
<path d="M311.681,512c-18.815,0-37.53-3.532-55.681-10.504C237.849,508.468,219.134,512,200.319,512
	c-96.725,0-175.416-89.931-175.416-200.472c0-60.098,23.283-116.503,63.88-154.754l11.482,12.187
	c-37.252,35.101-58.618,87.064-58.618,142.568c0,101.308,71.179,183.728,158.671,183.728c17.731,0,35.402-3.539,52.521-10.517
	l3.16-1.288l3.161,1.288c17.118,6.978,34.789,10.517,52.521,10.517c87.492,0,158.672-82.419,158.672-183.728
	s-71.182-183.729-158.674-183.729c-17.731,0-35.402,3.539-52.521,10.517l-3.161,1.288l-3.16-1.288
	c-17.118-6.978-34.789-10.517-52.521-10.517c-29.87,0-58.975,9.676-84.171,27.981l-9.841-13.546
	c28.075-20.398,60.584-31.179,94.012-31.179c18.815,0,37.53,3.532,55.681,10.504c18.151-6.972,36.866-10.504,55.681-10.504
	c96.725,0,175.417,89.932,175.417,200.472S408.406,512,311.681,512z"/>
<g>
	<path style="fill:#FFFFFF;" d="M97.328,308.743H80.583c0-45.857,19.357-85.887,55.978-115.762
		c27.376-22.333,54.525-31.064,55.669-31.425l5.042,15.967l-2.521-7.984l2.532,7.98c-0.255,0.08-25.658,8.323-50.575,28.794
		C113.941,233.237,97.328,267.698,97.328,308.743z"/>
	<rect x="80.585" y="331.015" style="fill:#FFFFFF;" width="16.744" height="22.272"/>
</g>
<path d="M244.712,104.62c-15.664-66.708-90.434-88.281-91.188-88.491L158.023,0c0.87,0.242,21.559,6.113,44.541,21.286
	c30.799,20.332,51.009,47.825,58.448,79.507L244.712,104.62z"/>
<rect x="311.681" y="200.141" width="27.84" height="16.744"/>
<rect x="339.521" y="222.422" width="27.84" height="16.744"/>
<g>
</g>
<g>
</g>
<g>
</g>
<g>
</g>
<g>
</g>
<g>
</g>
<g>
</g>
<g>
</g>
<g>
</g>
<g>
</g>
<g>
</g>
<g>
</g>
<g>
</g>
<g>
</g>
<g>
</g>
</svg>
