<?xml version="1.0" encoding="iso-8859-1"?>
<!-- Generator: Adobe Illustrator 19.0.0, SVG Export Plug-In . SVG Version: 6.00 Build 0)  -->
<svg version="1.1" id="Layer_1" xmlns="http://www.w3.org/2000/svg" xmlns:xlink="http://www.w3.org/1999/xlink" x="0px" y="0px"
	 viewBox="0 0 512 512" style="enable-background:new 0 0 512 512;" xml:space="preserve">
<path style="fill:#A58868;" d="M278.925,145.194h-45.851C233.075,65.134,298.209,0,378.269,0v45.851
	C323.491,45.851,278.925,90.416,278.925,145.194z"/>
<path style="fill:#6DC180;" d="M164.299,22.925c50.686,0,91.701,41.015,91.701,91.701v30.567h-30.567
	c-50.686,0-91.701-41.015-91.701-91.701V22.925H164.299z"/>
<path style="fill:#FF4F19;" d="M347.702,114.627c-22.18,0-42.971,5.913-60.899,16.243c-19.143,11.03-42.462,11.03-61.607,0
	c-17.926-10.33-38.718-16.243-60.897-16.243c-67.527,0-122.269,54.741-122.269,122.269C42.03,380.508,117.224,512,210.149,512
	c17.211,0,33.083-5.678,45.851-15.261C268.768,506.322,284.64,512,301.851,512c92.926,0,168.119-131.492,168.119-275.104
	C469.97,169.368,415.229,114.627,347.702,114.627z"/>
<path style="fill:#AF2E08;" d="M347.702,114.627c-22.18,0-42.971,5.913-60.899,16.243c-9.572,5.516-20.188,8.273-30.803,8.273
	v357.596C268.768,506.322,284.64,512,301.851,512c92.926,0,168.119-131.492,168.119-275.104
	C469.97,169.368,415.229,114.627,347.702,114.627z"/>
<g>
</g>
<g>
</g>
<g>
</g>
<g>
</g>
<g>
</g>
<g>
</g>
<g>
</g>
<g>
</g>
<g>
</g>
<g>
</g>
<g>
</g>
<g>
</g>
<g>
</g>
<g>
</g>
<g>
</g>
</svg>
