<?xml version="1.0" encoding="iso-8859-1"?>
<!-- Generator: Adobe Illustrator 19.0.0, SVG Export Plug-In . SVG Version: 6.00 Build 0)  -->
<svg version="1.1" id="Layer_1" xmlns="http://www.w3.org/2000/svg" xmlns:xlink="http://www.w3.org/1999/xlink" x="0px" y="0px"
	 viewBox="0 0 488.394 488.394" style="enable-background:new 0 0 488.394 488.394;" xml:space="preserve">
<g transform="translate(0 -1020.36)">
	<g shape-rendering="auto" image-rendering="auto" color-rendering="auto" color-interpolation="sRGB">
		<path style="fill:#464C63;" d="M339.804,1152.481v0.16c-12.314,0-24.67,0.512-36.75,0.992l-192.312,7.938
			c-1.376,0-55.899-1.605-91.875,25.563c-9.822,7.412-17.206,19.178-18.656,32.969c-1.328,12.629,3.635,26.598,14.718,39.154
			l-0.848,117.377h217.157c85.706-2.916,171.44-5.551,257.157-8.281l-8.688-95.031c9.542-27.773,10.616-50.467,3.501-68.281
			c-7.341-18.377-22.746-30.693-41.563-38.438c-18.819-7.748-41.406-11.52-65.312-13.094c-11.952-0.783-24.219-1.057-36.531-0.992
			L339.804,1152.481z M110.585,1177.575c0.304,0,39.379,4.035,71.906,16.377c16.326,6.193,30.563,14.656,37.157,23.906
			c6.595,9.252,7.87,18.707-3,34.813l-1.376,2v105.938H30.239l-1.376-108.656l-1.875-2.813c-8.779-9.684-11.69-19.059-10.813-27.406
			c0.944-9.014,6.042-17.117,12.344-21.875c29.339-22.154,81.413-22.281,82.062-22.281L110.585,1177.575z M303.742,1257.169
			c10.878-0.447,22.429,6.906,35.374,15.533c12.947,8.629,27.582,18.602,45.469,16.25c10.146-1.328,16.234-8.516,21.062-13.938
			s8.722-9.299,11.968-10.156c7.525-1.984,23.278-0.561,36.251,2.031c4.13,0.816,7.197,1.635,10.562,2.469
			c-0.16,0.336-0.16,0.607-0.288,0.943l-0.592,1.656l7.376,80.875l-239.656,7.063v-78.219c1.726,0.16,1.674,0.225,3.749,0.32
			c7,0.32,15.146,0.576,22.125-1.057c10.986-2.576,19.23-9.227,26.658-14.469c7.426-5.242,13.739-8.963,19.938-9.219
			L303.742,1257.169z"/>
		<path style="fill:#FFB900;" d="M339.958,1168.645c36.197,0,71.267,2.695,95.624,12.719c16.24,6.686,27.352,16,32.782,29.594
			c4.243,10.623,4.954,24.695,0.56,43.031c-3.734-0.928-7.274-1.852-11.938-2.783c-13.877-2.766-30.15-5.316-43.438-1.811
			c-9.661,2.551-15.182,9.768-19.843,15c-4.661,5.234-8.125,8.279-11.219,8.686c-10.632,1.393-21.696-5.154-34.499-13.686
			c-12.795-8.527-27.058-18.951-44.907-18.219l0,0c-11.686,0.496-20.698,6.67-28.469,12.156
			c-7.778,5.49-14.642,10.424-21.093,11.938c-3.419,0.801-11.294,1.008-17.718,0.721c-2.494-0.16-2.614-0.207-4.501-0.352v-7.938
			c10.662-18.33,10.637-36.18,1.408-49.125c-9.904-13.891-26.765-22.854-44.531-29.594c-4.01-1.52-8.08-2.9-12.157-4.188
			l127.75-5.281c11.96-0.496,24.154-0.848,36.219-0.881L339.958,1168.645z"/>
	</g>
	<g>
		<path style="fill:#464C63;" d="M110.314,1272.585c0,4.398,3.609,7.965,8.062,7.965c0,0,0,0,0,0c4.453,0,8.062-3.566,8.062-7.965
			l0,0c-0.001-4.398-3.61-7.963-8.062-7.963S110.315,1268.186,110.314,1272.585z"/>
		<path style="fill:#464C63;" d="M150.628,1224.797c0,4.398,3.609,7.965,8.061,7.965c4.453,0,8.063-3.564,8.064-7.963v-0.002
			c-0.001-4.398-3.611-7.963-8.064-7.963C154.237,1216.835,150.629,1220.401,150.628,1224.797z"/>
		<path style="fill:#464C63;" d="M61.942,1208.868c0,4.398,3.609,7.965,8.062,7.965c0,0,0,0,0,0c4.453,0,8.062-3.566,8.062-7.965
			l0,0c-0.001-4.398-3.61-7.963-8.062-7.963S61.942,1204.469,61.942,1208.868z"/>
		<path style="fill:#464C63;" d="M142.564,1328.333c0,4.398,3.609,7.965,8.062,7.965c0.001,0,0.001,0,0.002,0
			c4.452,0,8.061-3.566,8.061-7.965c0-4.398-3.609-7.965-8.061-7.965c-4.453,0-8.063,3.564-8.064,7.963V1328.333z"/>
		<path style="fill:#464C63;" d="M166.753,1272.585c0,4.398,3.609,7.965,8.062,7.965c0,0,0,0,0,0c4.453,0,8.062-3.566,8.062-7.965
			l0,0c-0.001-4.398-3.61-7.963-8.062-7.963S166.754,1268.186,166.753,1272.585z"/>
		<path style="fill:#464C63;" d="M61.94,1304.438c0,4.398,3.609,7.965,8.062,7.965c0,0,0,0,0,0c4.453,0,8.062-3.566,8.062-7.965l0,0
			c0-4.398-3.609-7.965-8.062-7.965c0,0,0,0,0,0C65.55,1296.473,61.94,1300.04,61.94,1304.438L61.94,1304.438z"/>
	</g>
</g>
<g>
</g>
<g>
</g>
<g>
</g>
<g>
</g>
<g>
</g>
<g>
</g>
<g>
</g>
<g>
</g>
<g>
</g>
<g>
</g>
<g>
</g>
<g>
</g>
<g>
</g>
<g>
</g>
<g>
</g>
</svg>
