<?xml version="1.0" encoding="iso-8859-1"?>
<!-- Generator: Adobe Illustrator 19.0.0, SVG Export Plug-In . SVG Version: 6.00 Build 0)  -->
<svg version="1.1" id="Layer_1" xmlns="http://www.w3.org/2000/svg" xmlns:xlink="http://www.w3.org/1999/xlink" x="0px" y="0px"
	 viewBox="0 0 512.001 512.001" style="enable-background:new 0 0 512.001 512.001;" xml:space="preserve">
<path style="fill:#CCE6FF;" d="M124.94,496.302c-19.939,19.939-52.381,19.939-72.32,0c-6.746-6.746-11.367-15.115-13.542-24.124
	c-9.009-2.175-17.376-6.796-24.124-13.542c-19.939-19.939-19.939-52.382,0-72.32c15.93-15.93,39.849-19.114,58.983-9.591
	l46.46-46.46c8.038-8.038,21.084-8.038,29.122,0l32.568,32.568c8.048,8.048,8.038,21.084,0,29.122l-46.839,46.839
	C143.899,457.677,140.462,480.781,124.94,496.302z"/>
<path style="fill:#BDDEFF;" d="M124.94,496.302c-19.939,19.939-52.381,19.939-72.32,0c-6.746-6.746-11.367-15.115-13.542-24.124
	l126.178-126.178l16.832,16.832c8.048,8.048,8.038,21.084,0,29.122l-46.839,46.839C143.899,457.677,140.462,480.781,124.94,496.302z
	"/>
<path style="fill:#E6563A;" d="M463.731,282.467l-37.384,37.384c-23.997,23.997-54.391,39.79-87.902,45.673
	c-27.928,4.902-56.236,2.63-82.708-6.465l-29.277,29.277c-14.445,14.445-37.966,14.455-52.421,0l-49.372-49.373
	c-14.455-14.455-14.445-37.976,0-52.421l29.161-29.161c-20.435-59.226-5.572-126.352,39.063-170.987l37.384-37.384
	c64.108-64.108,168.269-64.36,232.698-0.728c0.262,0.243,0.505,0.486,0.758,0.737C528.091,113.382,528.091,218.107,463.731,282.467z
	"/>
<path style="fill:#D9472B;" d="M463.731,282.467l-37.384,37.384c-23.997,23.997-54.391,39.79-87.902,45.673
	c-27.928,4.902-56.236,2.63-82.708-6.465l-29.277,29.277c-14.445,14.445-37.966,14.455-52.421,0l-25.56-25.56L462.973,48.284
	c0.262,0.243,0.505,0.486,0.758,0.737C528.091,113.382,528.091,218.107,463.731,282.467z"/>
<g>
</g>
<g>
</g>
<g>
</g>
<g>
</g>
<g>
</g>
<g>
</g>
<g>
</g>
<g>
</g>
<g>
</g>
<g>
</g>
<g>
</g>
<g>
</g>
<g>
</g>
<g>
</g>
<g>
</g>
</svg>
