<?xml version="1.0" encoding="iso-8859-1"?>
<!-- Generator: Adobe Illustrator 19.0.0, SVG Export Plug-In . SVG Version: 6.00 Build 0)  -->
<svg version="1.1" id="Layer_1" xmlns="http://www.w3.org/2000/svg" xmlns:xlink="http://www.w3.org/1999/xlink" x="0px" y="0px"
	 viewBox="0 0 511.999 511.999" style="enable-background:new 0 0 511.999 511.999;" xml:space="preserve">
<path style="fill:#E95353;" d="M432.154,203.675c-25.384-25.386-60.519-38.421-96.396-35.77c-0.555,0.043-1.124,0.063-1.691,0.054
	c-24.87-0.252-71.86-5.942-107.145-41.23c-7.747-7.746-14.529-16.576-20.155-26.244c-0.492-0.85-0.919-1.72-1.271-2.598
	c-4.219-10.431-10.432-19.792-18.466-27.827c-32.73-32.73-85.982-32.73-118.71-0.002c-32.73,32.732-32.731,85.987-0.002,118.715
	l2.355-2.355l19.404,19.314l-2.356,2.355l169.966,170.054c23.265,23.266,54.245,36.077,87.234,36.077s63.968-12.811,87.234-36.077
	C480.255,330.043,480.255,251.776,432.154,203.675z"/>
<path style="fill:#C13636;" d="M37.352,217.519l189.369,189.368c65.175,65.174,171.223,65.174,236.397,0
	c25.65-25.65,41.197-57.63,46.659-90.958c8.414,51.357-7.135,105.914-46.659,145.441c-65.174,65.174-171.223,65.174-236.397,0
	L37.352,272.004C5.494,240.145-5.983,195.509,2.917,154.442C7.93,177.574,19.407,199.575,37.352,217.519z"/>
<path style="fill:#D33D3D;" d="M37.354,39.097c49.8-49.799,130.835-49.799,180.637,0.002c11.766,11.767,20.972,25.432,27.382,40.642
	c3.576,5.911,7.78,11.296,12.512,16.028c24.681,24.684,60.503,28.123,75.717,28.392c48.217-3.26,95.367,14.401,129.516,48.55
	c65.176,65.174,65.176,171.221,0,236.397c-65.174,65.174-171.223,65.174-236.397,0L37.352,219.74
	C-12.452,169.938-12.45,88.9,37.354,39.097z M90.074,205.736L260.039,375.79c46.802,46.802,122.956,46.802,169.758,0
	s46.805-122.956,0-169.76c-24.699-24.699-58.883-37.385-93.79-34.803c-0.657,0.05-1.319,0.07-1.977,0.063
	c-25.38-0.255-73.348-6.083-109.465-42.206c-7.945-7.943-14.907-17.005-20.681-26.926c-0.564-0.971-1.06-1.98-1.479-3.021
	c-4.05-10.015-10.018-19.005-17.733-26.72c-31.432-31.431-82.57-31.431-114.001-0.002c-31.43,31.432-31.434,82.574-0.002,114.005"/>
<path style="opacity:0.15;fill:#202020;enable-background:new    ;" d="M273.64,362.399L103.675,192.345l-19.404-19.314
	c-29.289-29.288-31.269-75.685-5.972-107.308c-2.644,2.052-5.199,4.268-7.626,6.694c-31.43,31.432-31.434,82.574-0.002,114.005
	l19.404,19.314L260.039,375.79c46.802,46.802,122.956,46.802,169.758,0c2.05-2.052,4.004-4.159,5.874-6.317
	C388.562,409.061,317.951,406.708,273.64,362.399z"/>
<path style="fill:#FFF1CE;" d="M345.05,242.63c-28.505,0-51.61,23.106-51.61,51.608c0,28.503,23.106,51.61,51.61,51.61
	c28.503,0,51.608-23.108,51.608-51.61C396.657,265.736,373.552,242.63,345.05,242.63z M345.05,309.648
	c-8.511,0-15.409-6.898-15.409-15.407c0-8.511,6.898-15.409,15.409-15.409c8.509,0,15.407,6.898,15.407,15.409
	C360.457,302.75,353.559,309.648,345.05,309.648z"/>
<g>
</g>
<g>
</g>
<g>
</g>
<g>
</g>
<g>
</g>
<g>
</g>
<g>
</g>
<g>
</g>
<g>
</g>
<g>
</g>
<g>
</g>
<g>
</g>
<g>
</g>
<g>
</g>
<g>
</g>
</svg>
