<?xml version="1.0" encoding="iso-8859-1"?>
<!-- Generator: Adobe Illustrator 19.0.0, SVG Export Plug-In . SVG Version: 6.00 Build 0)  -->
<svg version="1.1" id="Layer_1" xmlns="http://www.w3.org/2000/svg" xmlns:xlink="http://www.w3.org/1999/xlink" x="0px" y="0px"
	 viewBox="0 0 511.999 511.999" style="enable-background:new 0 0 511.999 511.999;" xml:space="preserve">
<g>
	<path style="fill:#75CCDC;" d="M107.172,188.166c0,0-23.921-21.709-23.921-48.487s23.921-48.487,23.921-48.487
		s23.921,21.709,23.921,48.487S107.172,188.166,107.172,188.166z"/>
	<path style="fill:#75CCDC;" d="M107.172,188.166c0,0-21.709,23.921-48.487,23.921s-48.487-23.921-48.487-23.921
		s21.709-23.921,48.487-23.921S107.172,188.166,107.172,188.166z"/>
	<path style="fill:#75CCDC;" d="M440.275,266.392h48.977l1.443,1.104c3.816-8.726,7.032-17.776,9.585-27.1
		c7.287-26.614-12.714-52.877-40.309-52.877H107.818c0,69.548,35.548,130.785,89.458,166.561
		c84.73-84.545,186.796-88.636,214.764-88.031C421.451,266.252,430.863,266.392,440.275,266.392z"/>
</g>
<path style="fill:#DDE9ED;" d="M490.695,267.496l-1.443-1.104h-48.977c-9.413,0-18.824-0.14-28.235-0.344
	c-27.968-0.605-130.035,3.486-214.764,88.031c31.611,20.977,69.53,33.207,110.31,33.207
	C389.476,387.287,459.852,338.011,490.695,267.496z"/>
<path style="fill:#75CCDC;" d="M242.799,420.777c0,0-1.565-32.265,17.371-51.2c18.936-18.936,51.2-17.371,51.2-17.371
	s1.565,32.265-17.371,51.2C275.064,422.34,242.799,420.777,242.799,420.777z"/>
<path d="M501.3,197.77c-9.917-12.997-24.979-20.45-41.328-20.45H129.118c6.299-9.858,12.175-22.977,12.175-37.642
	c0-30.94-26.153-55.03-27.265-56.04c-3.889-3.529-9.821-3.529-13.709,0c-1.113,1.011-27.264,25.1-27.264,56.04
	c0,5.917,0.962,11.582,2.517,16.884c-5.303-1.555-10.967-2.517-16.886-2.517c-30.94,0-55.029,26.152-56.04,27.265
	c-3.529,3.889-3.529,9.821,0,13.709c1.011,1.113,25.1,27.265,56.04,27.265c15.869,0,29.924-6.879,39.999-13.731
	c6.237,62.364,39.983,118.871,92.953,154.023c14.605,9.693,30.297,17.476,46.757,23.221c-6.521,17.569-5.832,34.446-5.782,35.471
	c0.254,5.245,4.449,9.439,9.693,9.693c0.201,0.01,1.014,0.044,2.323,0.044c8.46,0,37.639-1.446,56.583-20.391
	c4.025-4.025,7.254-8.512,9.852-13.163c82.073-1.351,155.988-50.452,188.976-125.871c4.04-9.237,7.43-18.823,10.079-28.494
	C514.442,227.299,511.227,210.781,501.3,197.77z M107.172,106.349c5.989,7.548,13.722,19.896,13.722,33.329
	c0,13.433-7.732,25.78-13.722,33.329c-5.989-7.548-13.721-19.895-13.721-33.329C93.451,126.242,101.186,113.893,107.172,106.349z
	 M58.684,201.887c-13.424,0-25.765-7.723-33.311-13.705c7.573-5.988,19.954-13.737,33.311-13.737c13.421,0,25.76,7.72,33.31,13.706
	C84.423,194.139,72.041,201.887,58.684,201.887z M118.289,197.718h341.684c9.933,0,19.085,4.528,25.11,12.425
	c6.037,7.91,7.99,17.955,5.361,27.559c-1.705,6.23-3.753,12.422-6.113,18.49h-44.054c-8.357,0-17.26-0.108-28.016-0.341
	c-29.365-0.633-130.137,3.783-216.067,85.06C149.841,307.223,121.336,254.771,118.289,197.718z M253.519,410.057
	c1.103-9.573,4.365-23.771,13.866-33.27c9.5-9.5,23.703-12.763,33.269-13.866c-1.103,9.573-4.365,23.772-13.866,33.271
	C277.288,405.692,263.09,408.955,253.519,410.057z M318.912,376.729c3.127-13.293,2.685-24.2,2.646-25.018
	c-0.254-5.244-4.449-9.439-9.693-9.693c-1.5-0.074-37.027-1.533-58.906,20.347c-1.682,1.682-3.21,3.45-4.626,5.272
	c-11.964-3.935-23.498-9.056-34.453-15.302c79.464-72.664,170.984-76.668,197.94-76.089c10.906,0.236,19.949,0.346,28.456,0.346
	h34.696C443.991,334.775,384.851,372.797,318.912,376.729z"/>
<path d="M420.767,236.178c6.467,0,11.729-5.262,11.729-11.729c0-6.467-5.262-11.729-11.729-11.729s-11.729,5.262-11.729,11.729
	C409.038,230.916,414.299,236.178,420.767,236.178z"/>
<path d="M273.332,216.224c0-5.633-4.567-10.199-10.199-10.199H148.904c-5.632,0-10.199,4.566-10.199,10.199
	c0,5.633,4.567,10.199,10.199,10.199h114.229C268.766,226.423,273.332,221.857,273.332,216.224z"/>
<path d="M294.75,226.423h2.04c5.632,0,10.199-4.566,10.199-10.199c0-5.633-4.567-10.199-10.199-10.199h-2.04
	c-5.632,0-10.199,4.566-10.199,10.199C284.551,221.857,289.118,226.423,294.75,226.423z"/>
<g>
</g>
<g>
</g>
<g>
</g>
<g>
</g>
<g>
</g>
<g>
</g>
<g>
</g>
<g>
</g>
<g>
</g>
<g>
</g>
<g>
</g>
<g>
</g>
<g>
</g>
<g>
</g>
<g>
</g>
</svg>
