<?xml version="1.0" encoding="iso-8859-1"?>
<!-- Generator: Adobe Illustrator 19.0.0, SVG Export Plug-In . SVG Version: 6.00 Build 0)  -->
<svg version="1.1" id="Layer_1" xmlns="http://www.w3.org/2000/svg" xmlns:xlink="http://www.w3.org/1999/xlink" x="0px" y="0px"
	 viewBox="0 0 512 512" style="enable-background:new 0 0 512 512;" xml:space="preserve">
<g>
	<path style="fill:#211915;" d="M235.697,88.984H203.11c0-27.053-21.87-57.886-30.297-67.484L197.3,0
		C198.868,1.787,235.697,44.245,235.697,88.984z"/>
	<path style="fill:#211915;" d="M308.892,88.984h-32.586c0-44.739,36.828-87.198,38.396-88.983l24.505,21.479
		C338.903,21.828,308.892,56.613,308.892,88.984z"/>
	<path style="fill:#211915;" d="M353.378,201.397c3.76-10.848,5.668-22.201,5.668-33.744c0-56.819-46.226-103.043-103.043-103.043
		c-56.818,0-103.043,46.226-103.043,103.043c0,11.543,1.907,22.896,5.668,33.744H353.378z"/>
	
		<rect x="419.579" y="194.446" transform="matrix(-0.5 -0.866 0.866 -0.5 447.1015 735.5135)" style="fill:#211915;" width="32.586" height="88.492"/>
	<rect x="417.334" y="318.379" style="fill:#211915;" width="88.493" height="32.586"/>
	
		<rect x="391.607" y="414.344" transform="matrix(-0.866 -0.5 0.5 -0.866 597.9977 1021.5098)" style="fill:#211915;" width="88.502" height="32.586"/>
	
		<rect x="31.887" y="222.404" transform="matrix(-0.866 -0.5 0.5 -0.866 22.7149 483.4803)" style="fill:#211915;" width="88.492" height="32.586"/>
	<rect x="6.173" y="318.379" style="fill:#211915;" width="88.493" height="32.586"/>
	
		<rect x="59.854" y="386.391" transform="matrix(-0.5 -0.866 0.866 -0.5 -258.7234 711.9117)" style="fill:#211915;" width="32.586" height="88.502"/>
</g>
<path style="fill:#E71B3F;" d="M256.001,512c-97.777,0-177.324-79.546-177.324-177.324s79.546-177.324,177.324-177.324
	s177.324,79.546,177.324,177.324S353.778,512,256.001,512z"/>
<g>
	<circle style="fill:#211915;" cx="182.799" cy="261.331" r="21.26"/>
	<circle style="fill:#211915;" cx="133.616" cy="334.672" r="21.26"/>
	<circle style="fill:#211915;" cx="182.799" cy="408.013" r="21.26"/>
</g>
<path style="fill:#AB142F;" d="M256.001,512c0-135.21,0-249.183,0-354.647c97.777,0,177.324,79.546,177.324,177.324
	S353.778,512,256.001,512z"/>
<g>
	<circle style="fill:#211915;" cx="329.209" cy="261.331" r="21.26"/>
	<circle style="fill:#211915;" cx="378.382" cy="334.672" r="21.26"/>
	<circle style="fill:#211915;" cx="329.209" cy="408.013" r="21.26"/>
	<path style="fill:#211915;" d="M239.708,511.244c5.368,0.491,10.8,0.756,16.293,0.756c5.493,0,10.925-0.265,16.293-0.756V158.109
		c-5.368-0.491-10.8-0.756-16.293-0.756c-5.493,0-10.925,0.265-16.293,0.756V511.244z"/>
</g>
<g>
</g>
<g>
</g>
<g>
</g>
<g>
</g>
<g>
</g>
<g>
</g>
<g>
</g>
<g>
</g>
<g>
</g>
<g>
</g>
<g>
</g>
<g>
</g>
<g>
</g>
<g>
</g>
<g>
</g>
</svg>
