<?xml version="1.0" encoding="iso-8859-1"?>
<!-- Generator: Adobe Illustrator 19.0.0, SVG Export Plug-In . SVG Version: 6.00 Build 0)  -->
<svg version="1.1" id="Layer_1" xmlns="http://www.w3.org/2000/svg" xmlns:xlink="http://www.w3.org/1999/xlink" x="0px" y="0px"
	 viewBox="0 0 491.08 491.08" style="enable-background:new 0 0 491.08 491.08;" xml:space="preserve">
<g id="XMLID_1151_">
	<g id="XMLID_1148_">
		<path style="fill:#66C5EE;" d="M450.362,178.592h-67.465c-18.345,0-33.216-14.871-33.216-33.216v-33.733l52.067,7.439h29.759
			l52.07-7.439v33.733C483.578,163.721,468.707,178.592,450.362,178.592z"/>
	</g>
	<g id="XMLID_1130_">
		<path style="fill:#66C5EE;" d="M267.855,349.682H7.5l0,0c0-82.166,66.608-148.774,148.774-148.774H416.63l0,0
			C416.63,283.074,350.021,349.682,267.855,349.682z"/>
	</g>
	<g id="XMLID_1144_">
		<rect x="156.275" y="200.908" style="fill:#FFED00;" width="52.071" height="148.774"/>
	</g>
	<g id="XMLID_1150_">
		<circle style="fill:#FFFFFF;" cx="111.642" cy="260.418" r="14.877"/>
	</g>
	<g id="XMLID_1145_">
		<polygon style="fill:#66C5EE;" points="186.029,327.366 252.978,327.366 252.978,379.437 208.346,371.998 		"/>
	</g>
	<g id="XMLID_1149_">
		<polygon style="fill:#66C5EE;" points="186.029,200.908 252.978,200.908 252.978,126.521 208.346,133.959 186.029,171.153 		"/>
	</g>
	<g id="XMLID_1146_">
		<rect x="260.417" y="200.908" style="fill:#FFED00;" width="52.071" height="148.774"/>
	</g>
	<g id="XMLID_1147_">
		<polygon style="fill:#FFED00;" points="409.191,252.979 364.559,312.489 364.559,200.908 416.63,200.908 		"/>
	</g>
	<g id="XMLID_145_">
		<path style="fill:#1D1D1B;" d="M267.855,357.182v-15c75.384,0,137.167-59.347,141.078-133.774l-252.659-0.001
			c-75.384,0-137.167,59.348-141.078,133.774h155.955v15H0v-7.5c0-86.17,70.104-156.274,156.275-156.274H424.13v7.5
			C424.13,287.078,354.025,357.182,267.855,357.182z"/>
	</g>
	<g id="XMLID_325_">
		<path style="fill:#1D1D1B;" d="M260.478,186.03h-15v-52.01c-28.649,0.034-51.948,23.352-51.948,52.01h-15
			c0-36.949,30.061-67.01,67.01-67.01h14.939v67.01H260.478z"/>
	</g>
	<g id="XMLID_328_">
		<path style="fill:#1D1D1B;" d="M260.478,386.937h-14.939c-36.949,0-67.01-30.061-67.01-67.01h15
			c0,28.657,23.299,51.976,51.948,52.01v-52.01h15v67.01H260.478z"/>
	</g>
	<path style="fill:#1D1D1B;" d="M444.308,104.143c-11.226,0-21.233,5.292-27.678,13.505c-6.446-8.213-16.453-13.505-27.678-13.505
		h-46.77v46.771c0,19.397,15.78,35.178,35.178,35.178h31.771h15h31.77c19.397,0,35.179-15.781,35.179-35.178v-46.771H444.308z
		 M409.13,171.092h-31.771c-11.126,0-20.178-9.052-20.178-20.178v-31.771h31.77c11.127,0,20.179,9.052,20.179,20.178V171.092z
		 M476.078,150.914c0,11.126-9.052,20.178-20.179,20.178h-31.77v-31.771c0-11.126,9.052-20.178,20.178-20.178h31.77v31.771H476.078z
		"/>
	<g id="XMLID_147_">
		<rect x="148.775" y="215.785" style="fill:#1D1D1B;" width="15" height="119.02"/>
	</g>
	<g id="XMLID_144_">
		<path style="fill:#1D1D1B;" d="M111.643,282.795c-12.339,0-22.378-10.039-22.378-22.377c0-12.339,10.039-22.377,22.378-22.377
			s22.377,10.039,22.377,22.377C134.02,272.756,123.981,282.795,111.643,282.795z M111.643,253.04c-4.068,0-7.378,3.31-7.378,7.377
			c0,4.068,3.31,7.377,7.378,7.377c4.067,0,7.377-3.31,7.377-7.377S115.71,253.04,111.643,253.04z"/>
	</g>
	<g id="XMLID_148_">
		<rect x="200.846" y="215.785" style="fill:#1D1D1B;" width="15" height="96.703"/>
	</g>
	<g id="XMLID_149_">
		<rect x="252.917" y="215.785" style="fill:#1D1D1B;" width="15" height="96.703"/>
	</g>
	<g id="XMLID_150_">
		<rect x="304.987" y="215.785" style="fill:#1D1D1B;" width="15" height="111.581"/>
	</g>
	<g id="XMLID_151_">
		<rect x="357.059" y="215.785" style="fill:#1D1D1B;" width="15" height="74.387"/>
	</g>
</g>
<g>
</g>
<g>
</g>
<g>
</g>
<g>
</g>
<g>
</g>
<g>
</g>
<g>
</g>
<g>
</g>
<g>
</g>
<g>
</g>
<g>
</g>
<g>
</g>
<g>
</g>
<g>
</g>
<g>
</g>
</svg>
