<?xml version="1.0" encoding="iso-8859-1"?>
<!-- Generator: Adobe Illustrator 19.0.0, SVG Export Plug-In . SVG Version: 6.00 Build 0)  -->
<svg version="1.1" id="Layer_1" xmlns="http://www.w3.org/2000/svg" xmlns:xlink="http://www.w3.org/1999/xlink" x="0px" y="0px"
	 viewBox="0 0 512.001 512.001" style="enable-background:new 0 0 512.001 512.001;" xml:space="preserve">
<path style="fill:#FFC878;" d="M73.535,242.863C65.442,251.205,61.664,252.9,56,244c-7-11-37-67-40-64s-8,3-8,16s16,57,16,72
	c0,14.961-16,58.844-16,71.811c0,12.965,5,12.965,8,15.957s33-52.859,40-63.831c5.669-8.884,9.449-7.183,17.556,1.155
	L73.535,242.863z"/>
<path style="fill:#FFEBD2;" d="M504,228l-11.705-23.41c-4.525-9.053-5.549-19.226-4.471-29.289c0.238-2.224,0.239-4.521-0.028-6.877
	c-1.173-10.346-8.059-19.229-17.128-24.343c-4.135-2.331-8.065-3.532-11.802-3.93c-9.399-0.998-18.198-4.704-24.59-11.647
	c-3.698-4.088-7.589-7.994-11.598-11.777c-0.093-0.087-0.184-0.176-0.277-0.264C385.183,81.475,335.113,60,280,60
	C165.125,60,72,153.125,72,268s93.125,208,208,208s208-93.125,208-208c0-0.531-0.036-1.053-0.04-1.582l0.117,0.242
	C488.498,248.361,497.17,234.83,504,228z"/>
<path style="fill:#FFD77D;" d="M504,228l-11.705-23.41c-4.525-9.053-5.549-19.226-4.471-29.289c0.238-2.224,0.239-4.521-0.028-6.877
	c-1.173-10.346-8.059-19.229-17.128-24.343c-4.135-2.331-8.065-3.532-11.802-3.93c-9.399-0.998-18.198-4.704-24.59-11.647
	c-3.698-4.088-7.589-7.994-11.598-11.777c-0.093-0.087-0.184-0.176-0.277-0.264C385.183,81.475,335.113,60,280,60
	C165.125,60,72,153.125,72,268c0,24.914,4.394,48.799,12.426,70.938C136,324,114.358,198.266,240,164c88-24,160,8,192,80
	c21.795,49.04,40,48,55.805,31.704c0.094-2.562,0.195-5.12,0.195-7.704c0-0.531-0.036-1.053-0.04-1.582l0.117,0.242
	C488.498,248.361,497.17,234.83,504,228z"/>
<g>
	<path style="fill:#FFC878;" d="M368,124l24-72c0,0-23.669-16-48-16c-10.667,0,0,72,0,72"/>
	<circle style="fill:#FFC878;" cx="456" cy="172" r="32"/>
	<path style="fill:#FFC878;" d="M144,108c-12-20-26-40-56-40c0,0,24,24,24,72"/>
</g>
<path d="M511.921,226.938c-0.011-0.08-0.023-0.158-0.037-0.238c-0.126-0.771-0.362-1.504-0.692-2.184
	c-0.015-0.031-0.022-0.063-0.037-0.093l-11.704-23.41c-3.462-6.925-4.698-15.289-3.672-24.859c0.305-2.845,0.293-5.748-0.033-8.631
	c-1.402-12.365-9.308-23.733-21.148-30.41c-4.837-2.728-9.846-4.381-14.886-4.916c-5.716-0.607-13.774-2.701-19.697-9.234
	c-14.496-15.986-31.204-29.649-49.682-40.659l9.257-27.772c1.135-3.405-0.136-7.148-3.109-9.158C395.431,44.663,370.477,28,344,28
	c-3.051,0-5.875,1.326-7.954,3.735c-2.745,3.181-5.104,8.872-4.751,26.411c-23.535-5.744-47.869-7.479-72.467-5.136
	c-41.748,3.98-80.207,20.097-111.725,44.769C134.47,77.87,118.605,60,88,60c-3.236,0-6.153,1.949-7.391,4.938
	c-1.238,2.989-0.554,6.431,1.734,8.719C82.56,73.873,104,95.824,104,140c0,0.814,0.124,1.6,0.35,2.341
	c-20.14,28.051-33.729,61.081-38.415,96.812c-0.95,0.918-1.667,1.552-2.204,1.988c-0.274-0.367-0.601-0.838-0.981-1.436
	c-1.882-2.957-5.727-9.714-10.179-17.537c-5.374-9.444-12.062-21.197-17.667-30.395c-9.994-16.396-12.988-19.208-17.47-19.813
	c-2.633-0.355-5.22,0.513-7.087,2.38c-0.142,0.136-0.634,0.478-0.994,0.727C4.827,178.2,0,182.661,0,196
	c0,7.352,3.642,20.546,7.859,35.824C11.675,245.647,16,261.315,16,268c0,6.661-4.324,22.284-8.139,36.068
	C3.643,319.31,0,332.473,0,339.811c0,13.319,4.832,17.771,9.36,20.899c0.359,0.249,0.852,0.589,0.991,0.722
	c1.869,1.864,4.45,2.723,7.083,2.375c4.477-0.604,7.47-3.409,17.466-19.766c5.606-9.174,12.294-20.896,17.668-30.314
	c4.451-7.802,8.295-14.539,10.176-17.486c0.382-0.6,0.71-1.069,0.985-1.437c0.542,0.439,1.269,1.079,2.235,2.011
	C80.219,403.725,171.742,484,280,484c57.696,0,111.938-22.468,152.735-63.265S496,325.695,496,268
	c0-19.194,10.453-31.14,13.657-34.343c0.001-0.001,0.002-0.003,0.004-0.005c0.269-0.27,0.511-0.563,0.74-0.867
	c0.043-0.058,0.087-0.113,0.128-0.172c0.211-0.299,0.402-0.611,0.572-0.938c0.027-0.053,0.051-0.107,0.078-0.161
	c0.156-0.317,0.293-0.644,0.406-0.982c0.009-0.026,0.02-0.051,0.028-0.076c0.112-0.349,0.197-0.71,0.261-1.077
	c0.013-0.075,0.023-0.149,0.034-0.225c0.048-0.334,0.08-0.672,0.086-1.018c0-0.035,0.005-0.068,0.005-0.104
	c0-0.012,0.002-0.021,0.002-0.033C512,227.639,511.968,227.286,511.921,226.938z M134.759,108.213
	c-5.479,4.984-10.701,10.246-15.646,15.761c-2.181-19.624-8.073-34.574-13.654-44.825
	C118.357,84.311,126.765,95.305,134.759,108.213z M449.808,241.065c1.582,1.934,3.879,2.935,6.197,2.935
	c1.781,0,3.575-0.592,5.061-1.809C466.3,237.909,472.139,236,480,236h8.257c-3.436,6.209-6.601,14.276-7.77,24.029
	c-0.163-0.01-0.325-0.024-0.488-0.024c-2.11,0-4.17,0.85-5.66,2.34c-1.48,1.48-2.34,3.54-2.34,5.65c0,2.109,0.86,4.17,2.34,5.66
	c1.449,1.448,3.438,2.286,5.487,2.331c-1.141,28.883-8.432,56.207-20.603,80.701c-1.01-0.446-2.109-0.692-3.224-0.692
	c-2.11,0-4.17,0.859-5.66,2.35s-2.34,3.55-2.34,5.66c0,2.1,0.85,4.16,2.34,5.65c0.378,0.378,0.794,0.714,1.237,1.005
	c-4.163,6.933-8.733,13.593-13.68,19.947c-0.08-0.087-0.154-0.179-0.238-0.263c-1.49-1.49-3.56-2.35-5.66-2.35
	c-2.11,0-4.17,0.859-5.66,2.35s-2.34,3.55-2.34,5.65c0,2.109,0.85,4.17,2.34,5.66c0.408,0.408,0.861,0.763,1.344,1.069
	c-5.648,6.188-11.684,12.012-18.06,17.451c-0.532-0.111-1.076-0.171-1.624-0.171c-2.11,0-4.17,0.85-5.66,2.34
	c-1.454,1.464-2.305,3.478-2.334,5.55c-16.918,12.729-35.911,22.84-56.375,29.725c-0.383-1.226-1.055-2.358-1.971-3.274
	c-1.49-1.49-3.55-2.35-5.66-2.35c-2.11,0-4.17,0.859-5.66,2.35s-2.34,3.55-2.34,5.66c0,0.708,0.104,1.409,0.29,2.087
	c-12.374,3.08-25.195,5.014-38.35,5.66c1.396-0.354,2.694-1.071,3.72-2.097c1.49-1.49,2.34-3.551,2.34-5.65
	c0-2.11-0.85-4.169-2.34-5.66c-1.49-1.49-3.55-2.35-5.66-2.35c-2.11,0-4.17,0.859-5.66,2.35s-2.34,3.55-2.34,5.66
	c0,2.1,0.85,4.16,2.34,5.65c1.166,1.165,2.688,1.938,4.301,2.223C284.435,467.951,282.224,468,280,468
	c-11.52,0-22.831-0.992-33.856-2.88c1.188-1.429,1.856-3.256,1.856-5.115c0-2.11-0.85-4.169-2.34-5.66
	c-1.49-1.49-3.55-2.35-5.66-2.35s-4.17,0.859-5.66,2.35s-2.34,3.55-2.34,5.66c0,0.761,0.115,1.516,0.328,2.241
	c-22.154-5.434-42.926-14.568-61.58-26.75c1.085-0.396,2.087-1.017,2.912-1.841c1.48-1.49,2.34-3.551,2.34-5.65
	c0-2.11-0.86-4.169-2.34-5.66c-1.49-1.49-3.55-2.34-5.66-2.34s-4.17,0.85-5.66,2.34c-1.481,1.481-2.328,3.525-2.338,5.622
	c-29.781-22.353-53.207-52.875-66.81-88.492c0.893,0.335,1.844,0.521,2.808,0.521c2.11,0,4.17-0.851,5.66-2.34
	c1.49-1.49,2.34-3.551,2.34-5.66c0-2.101-0.85-4.159-2.34-5.65c-1.5-1.49-3.56-2.35-5.66-2.35s-4.17,0.859-5.66,2.35
	c-0.457,0.46-0.846,0.979-1.178,1.532c-3.588-11.479-6.182-23.424-7.664-35.741c-0.209-1.74-0.985-3.364-2.207-4.621
	c-5.226-5.374-10.485-10.142-17.361-9.438c-6.305,0.644-10.253,5.762-12.675,9.557c-2.094,3.281-5.841,9.849-10.585,18.163
	c-6.133,10.749-16.34,28.639-22.463,37.924c-0.136-0.969-0.208-2.23-0.208-3.91c0-5.165,3.868-19.143,7.281-31.474
	C27.765,292.137,32,276.835,32,268c0-8.852-4.234-24.192-8.717-40.433C19.869,215.2,16,201.184,16,196
	c0-1.688,0.072-2.957,0.208-3.932c6.125,9.313,16.326,27.239,22.456,38.012c4.745,8.338,8.493,14.925,10.587,18.215
	c2.421,3.805,6.369,8.937,12.68,9.582c6.877,0.688,12.13-4.067,17.346-9.443c1.223-1.261,1.998-2.89,2.203-4.635
	c1.447-12.281,4.039-24.225,7.645-35.73c0.338,0.574,0.74,1.111,1.215,1.587c1.49,1.489,3.56,2.35,5.66,2.35s4.16-0.86,5.66-2.35
	c1.49-1.49,2.34-3.551,2.34-5.65c0-2.11-0.85-4.169-2.34-5.66c-1.49-1.49-3.55-2.35-5.66-2.35c-0.985,0-1.957,0.194-2.867,0.546
	c13.563-35.414,37.005-66.049,66.868-88.515c0.008,2.099,0.856,4.146,2.338,5.629c1.49,1.489,3.55,2.34,5.66,2.34
	s4.17-0.851,5.66-2.34c1.48-1.49,2.34-3.551,2.34-5.66c0-2.101-0.85-4.159-2.34-5.65c-0.829-0.829-1.837-1.454-2.929-1.853
	c18.652-12.217,39.434-21.392,61.616-26.813c-0.228,0.748-0.347,1.529-0.347,2.315c0,2.109,0.85,4.17,2.34,5.66
	c1.49,1.489,3.55,2.34,5.66,2.34s4.17-0.851,5.66-2.34c1.49-1.49,2.34-3.551,2.34-5.66c0-1.881-0.686-3.726-1.898-5.161
	c4.698-0.797,9.446-1.438,14.245-1.896c8.82-0.841,17.601-1.103,26.316-0.819c-1.621,0.28-3.152,1.055-4.323,2.226
	c-1.49,1.491-2.34,3.55-2.34,5.65c0,2.109,0.85,4.17,2.34,5.66c1.49,1.489,3.55,2.34,5.66,2.34c2.11,0,4.17-0.851,5.66-2.34
	c1.49-1.49,2.34-3.551,2.34-5.66c0-2.101-0.85-4.159-2.34-5.65c-1.025-1.025-2.328-1.743-3.723-2.097
	c14.324,0.699,28.455,2.921,42.266,6.649c0.039,0.483,0.075,0.954,0.116,1.449c1.399,16.755,3.672,32.178,3.768,32.826
	c0.647,4.37,4.717,7.392,9.086,6.741c4.371-0.647,7.389-4.716,6.741-9.087c-3.576-24.139-5.809-52.991-4.102-62.682
	c13.942,1.047,27.464,7.487,34.567,11.419l-21.968,65.905c-1.397,4.192,0.868,8.723,5.06,10.12c0.839,0.279,1.692,0.412,2.531,0.412
	c3.35,0,6.471-2.12,7.588-5.472l9.553-28.659c5.108,3.166,10.066,6.551,14.859,10.153c0.008,2.099,0.855,4.147,2.338,5.631
	c1.49,1.489,3.55,2.34,5.66,2.34c0.576,0,1.146-0.069,1.704-0.191c6.349,5.42,12.37,11.239,18.029,17.441
	c-0.5,0.314-0.971,0.679-1.393,1.1c-1.49,1.491-2.34,3.55-2.34,5.65c0,2.109,0.85,4.17,2.34,5.66c1.49,1.489,3.55,2.34,5.66,2.34
	c2.11,0,4.17-0.851,5.66-2.34c0.864-0.864,1.505-1.924,1.898-3.069c5.452,2.926,11.67,4.8,18.465,5.521
	c2.898,0.308,5.75,1.271,8.716,2.943c7.383,4.163,12.283,10.995,13.108,18.275c0.195,1.719,0.203,3.442,0.022,5.123
	c-1.357,12.666,0.417,24.011,5.271,33.72L491.056,220H480c-11.492,0-20.999,3.209-29.066,9.809
	C447.515,232.606,447.011,237.646,449.808,241.065z"/>
<path d="M144,260.005c-2.11,0-4.17,0.85-5.66,2.34c-1.49,1.48-2.34,3.55-2.34,5.65c0,2.109,0.85,4.17,2.34,5.66
	c1.49,1.489,3.55,2.34,5.66,2.34c2.1,0,4.17-0.851,5.66-2.34c1.49-1.49,2.34-3.551,2.34-5.66c0-2.101-0.85-4.159-2.34-5.65
	C148.17,260.854,146.11,260.005,144,260.005z"/>
<path d="M96,260.005c-2.11,0-4.17,0.85-5.66,2.34c-1.49,1.491-2.34,3.55-2.34,5.65c0,2.109,0.85,4.17,2.34,5.66
	c1.49,1.489,3.55,2.34,5.66,2.34s4.17-0.851,5.66-2.34c1.49-1.49,2.34-3.551,2.34-5.66c0-2.101-0.85-4.159-2.34-5.65
	C100.17,260.854,98.11,260.005,96,260.005z"/>
<path d="M192,260.005c-2.11,0-4.17,0.85-5.66,2.34c-1.49,1.48-2.34,3.55-2.34,5.65c0,2.109,0.85,4.17,2.34,5.66
	c1.49,1.489,3.56,2.34,5.66,2.34s4.17-0.851,5.66-2.34c1.49-1.49,2.34-3.551,2.34-5.66c0-2.101-0.85-4.159-2.34-5.65
	C196.17,260.854,194.11,260.005,192,260.005z"/>
<path d="M240,260.005c-2.11,0-4.17,0.85-5.66,2.34c-1.49,1.491-2.34,3.55-2.34,5.65c0,2.109,0.85,4.17,2.34,5.66
	c1.49,1.489,3.56,2.34,5.66,2.34s4.17-0.851,5.66-2.34c1.49-1.49,2.34-3.551,2.34-5.66c0-2.101-0.85-4.159-2.34-5.65
	C244.17,260.854,242.11,260.005,240,260.005z"/>
<path d="M288,260.005c-2.11,0-4.17,0.85-5.66,2.34c-1.49,1.491-2.34,3.55-2.34,5.65c0,2.109,0.85,4.17,2.34,5.66
	c1.49,1.489,3.56,2.34,5.66,2.34c2.11,0,4.17-0.851,5.66-2.34c1.49-1.49,2.34-3.551,2.34-5.66c0-2.101-0.85-4.17-2.34-5.65
	C292.17,260.854,290.11,260.005,288,260.005z"/>
<path d="M336,260.005c-2.11,0-4.17,0.85-5.66,2.34c-1.49,1.491-2.34,3.55-2.34,5.65c0,2.109,0.85,4.17,2.34,5.66
	c1.49,1.489,3.56,2.34,5.66,2.34c2.11,0,4.17-0.851,5.66-2.34c1.49-1.49,2.34-3.551,2.34-5.66c0-2.101-0.85-4.17-2.34-5.65
	C340.17,260.854,338.11,260.005,336,260.005z"/>
<path d="M384,260.005c-2.11,0-4.17,0.85-5.66,2.34c-1.49,1.491-2.34,3.55-2.34,5.65c0,2.109,0.85,4.17,2.34,5.66
	c1.49,1.489,3.55,2.34,5.66,2.34c2.11,0,4.17-0.851,5.66-2.34c1.49-1.49,2.34-3.551,2.34-5.66c0-2.101-0.85-4.159-2.34-5.65
	S386.11,260.005,384,260.005z"/>
<path d="M432,260.005c-2.11,0-4.17,0.85-5.66,2.34c-1.49,1.491-2.34,3.55-2.34,5.65c0,2.109,0.85,4.17,2.34,5.66
	c1.49,1.489,3.55,2.34,5.66,2.34c2.11,0,4.17-0.851,5.66-2.34c1.49-1.49,2.34-3.551,2.34-5.66c0-2.101-0.85-4.159-2.34-5.65
	S434.11,260.005,432,260.005z"/>
<path d="M168,227.995c-2.1,0-4.17,0.859-5.66,2.35c-1.49,1.491-2.34,3.55-2.34,5.65c0,2.109,0.85,4.17,2.34,5.66
	c1.49,1.489,3.56,2.35,5.66,2.35s4.17-0.86,5.66-2.35s2.34-3.551,2.34-5.66c0-2.101-0.85-4.159-2.34-5.65
	C172.17,228.854,170.1,227.995,168,227.995z"/>
<path d="M120,227.995c-2.1,0-4.17,0.859-5.66,2.35c-1.49,1.491-2.34,3.55-2.34,5.65c0,2.109,0.85,4.17,2.34,5.66
	c1.49,1.489,3.56,2.35,5.66,2.35c2.11,0,4.17-0.86,5.66-2.35c1.49-1.49,2.34-3.551,2.34-5.66c0-2.101-0.85-4.159-2.34-5.65
	C124.17,228.854,122.1,227.995,120,227.995z"/>
<path d="M216,227.995c-2.11,0-4.17,0.859-5.66,2.35c-1.49,1.491-2.34,3.55-2.34,5.65c0,2.109,0.85,4.17,2.34,5.66
	c1.49,1.489,3.55,2.35,5.66,2.35c2.1,0,4.17-0.86,5.66-2.35s2.34-3.551,2.34-5.66c0-2.101-0.85-4.159-2.34-5.65
	C220.16,228.854,218.1,227.995,216,227.995z"/>
<path d="M264,227.995c-2.11,0-4.17,0.859-5.66,2.35c-1.49,1.491-2.34,3.55-2.34,5.65c0,2.109,0.85,4.17,2.34,5.66
	c1.49,1.489,3.55,2.35,5.66,2.35c2.11,0,4.17-0.86,5.66-2.35s2.34-3.551,2.34-5.66c0-2.101-0.85-4.159-2.34-5.65
	S266.11,227.995,264,227.995z"/>
<path d="M312,227.995c-2.1,0-4.16,0.859-5.66,2.35c-1.49,1.491-2.34,3.55-2.34,5.65c0,2.109,0.85,4.17,2.34,5.66
	c1.49,1.489,3.56,2.35,5.66,2.35c2.11,0,4.17-0.86,5.66-2.35c1.48-1.49,2.34-3.551,2.34-5.66c0-2.101-0.86-4.159-2.34-5.65
	C316.17,228.854,314.11,227.995,312,227.995z"/>
<path d="M360,227.995c-2.1,0-4.17,0.859-5.66,2.35c-1.49,1.491-2.34,3.55-2.34,5.65c0,2.109,0.85,4.17,2.34,5.66
	c1.49,1.489,3.56,2.35,5.66,2.35c2.11,0,4.17-0.86,5.66-2.35s2.34-3.551,2.34-5.66c0-2.101-0.85-4.159-2.34-5.65
	S362.1,227.995,360,227.995z"/>
<path d="M408,227.995c-2.1,0-4.17,0.859-5.66,2.35c-1.49,1.491-2.34,3.55-2.34,5.65c0,2.109,0.85,4.17,2.34,5.66
	c1.49,1.489,3.56,2.35,5.66,2.35s4.17-0.86,5.66-2.35s2.34-3.551,2.34-5.66c0-2.101-0.85-4.159-2.34-5.65S410.1,227.995,408,227.995
	z"/>
<path d="M144,323.995c-2.1,0-4.17,0.859-5.66,2.35s-2.34,3.55-2.34,5.65c0,2.109,0.85,4.17,2.34,5.66
	c1.49,1.489,3.55,2.34,5.66,2.34s4.17-0.851,5.66-2.34c1.48-1.48,2.34-3.551,2.34-5.66c0-2.101-0.86-4.159-2.34-5.65
	C148.17,324.854,146.1,323.995,144,323.995z"/>
<path d="M192,323.995c-2.11,0-4.17,0.859-5.66,2.35s-2.34,3.55-2.34,5.65c0,2.109,0.85,4.17,2.34,5.66
	c1.49,1.489,3.55,2.34,5.66,2.34s4.17-0.851,5.66-2.34c1.49-1.49,2.34-3.551,2.34-5.66c0-2.101-0.85-4.159-2.34-5.65
	C196.17,324.854,194.11,323.995,192,323.995z"/>
<path d="M240,323.995c-2.11,0-4.17,0.859-5.66,2.35s-2.34,3.55-2.34,5.65c0,2.109,0.85,4.17,2.34,5.66
	c1.49,1.489,3.55,2.34,5.66,2.34s4.17-0.851,5.66-2.34c1.49-1.49,2.34-3.551,2.34-5.66c0-2.101-0.85-4.159-2.34-5.65
	C244.16,324.854,242.1,323.995,240,323.995z"/>
<path d="M288,323.995c-2.1,0-4.17,0.859-5.66,2.35s-2.34,3.55-2.34,5.65c0,2.109,0.85,4.17,2.34,5.66
	c1.49,1.489,3.55,2.34,5.66,2.34c2.11,0,4.17-0.851,5.66-2.34c1.49-1.49,2.34-3.551,2.34-5.66c0-2.101-0.85-4.159-2.34-5.65
	S290.1,323.995,288,323.995z"/>
<path d="M336,323.995c-2.11,0-4.17,0.859-5.66,2.35s-2.34,3.55-2.34,5.65c0,2.109,0.85,4.17,2.34,5.66
	c1.49,1.489,3.55,2.34,5.66,2.34c2.11,0,4.17-0.851,5.66-2.34c1.48-1.49,2.34-3.551,2.34-5.66c0-2.101-0.86-4.159-2.34-5.65
	C340.17,324.854,338.1,323.995,336,323.995z"/>
<path d="M384,323.995c-2.11,0-4.17,0.859-5.66,2.35s-2.34,3.55-2.34,5.65c0,2.109,0.85,4.17,2.34,5.66
	c1.49,1.489,3.55,2.34,5.66,2.34c2.11,0,4.17-0.851,5.66-2.34c1.49-1.49,2.34-3.551,2.34-5.66c0-2.101-0.85-4.159-2.34-5.65
	S386.11,323.995,384,323.995z"/>
<path d="M432,323.995c-2.1,0-4.17,0.859-5.66,2.35c-1.48,1.491-2.34,3.55-2.34,5.65c0,2.109,0.86,4.18,2.34,5.66
	c1.49,1.489,3.55,2.34,5.66,2.34c2.11,0,4.17-0.851,5.66-2.34c1.49-1.49,2.34-3.551,2.34-5.66c0-2.101-0.85-4.159-2.34-5.65
	C436.16,324.854,434.1,323.995,432,323.995z"/>
<path d="M168,291.995c-2.11,0-4.17,0.859-5.66,2.35s-2.34,3.55-2.34,5.66c0,2.1,0.85,4.16,2.34,5.65c1.49,1.489,3.55,2.34,5.66,2.34
	s4.17-0.851,5.66-2.34c1.49-1.49,2.34-3.551,2.34-5.65c0-2.11-0.85-4.169-2.34-5.66C172.17,292.854,170.11,291.995,168,291.995z"/>
<path d="M120,291.995c-2.11,0-4.17,0.859-5.66,2.35c-1.49,1.491-2.34,3.55-2.34,5.66c0,2.1,0.85,4.16,2.34,5.65
	c1.49,1.489,3.55,2.34,5.66,2.34s4.17-0.851,5.66-2.34c1.49-1.49,2.34-3.551,2.34-5.65c0-2.11-0.85-4.169-2.34-5.66
	C124.17,292.854,122.11,291.995,120,291.995z"/>
<path d="M216,291.995c-2.11,0-4.17,0.859-5.66,2.35s-2.34,3.55-2.34,5.66c0,2.1,0.85,4.16,2.34,5.65c1.49,1.489,3.55,2.34,5.66,2.34
	s4.17-0.851,5.66-2.34c1.49-1.49,2.34-3.551,2.34-5.65c0-2.11-0.85-4.169-2.34-5.66C220.17,292.854,218.11,291.995,216,291.995z"/>
<path d="M264,291.995c-2.11,0-4.17,0.859-5.66,2.35s-2.34,3.55-2.34,5.66c0,2.1,0.85,4.16,2.34,5.65c1.49,1.489,3.55,2.34,5.66,2.34
	c2.11,0,4.17-0.851,5.66-2.34c1.48-1.49,2.34-3.551,2.34-5.65c0-2.11-0.86-4.169-2.34-5.66
	C268.17,292.854,266.11,291.995,264,291.995z"/>
<path d="M312,291.995c-2.11,0-4.17,0.859-5.66,2.35s-2.34,3.55-2.34,5.66c0,2.1,0.85,4.16,2.34,5.65c1.49,1.489,3.55,2.34,5.66,2.34
	c2.11,0,4.17-0.851,5.66-2.34c1.49-1.49,2.34-3.551,2.34-5.65c0-2.11-0.85-4.169-2.34-5.66S314.11,291.995,312,291.995z"/>
<path d="M360,291.995c-2.11,0-4.17,0.859-5.66,2.35s-2.34,3.55-2.34,5.66c0,2.1,0.85,4.16,2.34,5.65c1.49,1.489,3.55,2.34,5.66,2.34
	c2.1,0,4.17-0.851,5.66-2.34c1.49-1.49,2.34-3.551,2.34-5.65c0-2.11-0.85-4.169-2.34-5.66S362.1,291.995,360,291.995z"/>
<path d="M408,291.995c-2.11,0-4.17,0.859-5.66,2.35s-2.34,3.55-2.34,5.66c0,2.1,0.85,4.16,2.34,5.65c1.49,1.489,3.56,2.34,5.66,2.34
	c2.11,0,4.17-0.851,5.66-2.34c1.49-1.49,2.34-3.551,2.34-5.65c0-2.11-0.85-4.169-2.34-5.66S410.11,291.995,408,291.995z"/>
<path d="M456,307.995c2.11,0,4.17-0.851,5.66-2.34c1.49-1.49,2.34-3.551,2.34-5.65c0-2.11-0.85-4.169-2.34-5.66
	c-1.49-1.49-3.55-2.35-5.66-2.35c-2.11,0-4.17,0.859-5.66,2.35s-2.34,3.55-2.34,5.66c0,2.1,0.85,4.16,2.34,5.65
	S453.9,307.995,456,307.995z"/>
<path d="M144,132.005c-2.11,0-4.17,0.85-5.66,2.34c-1.49,1.48-2.34,3.55-2.34,5.65c0,2.109,0.85,4.17,2.34,5.66
	c1.49,1.489,3.55,2.34,5.66,2.34s4.17-0.851,5.66-2.34c1.48-1.49,2.34-3.551,2.34-5.66c0-2.101-0.86-4.17-2.34-5.65
	C148.17,132.854,146.11,132.005,144,132.005z"/>
<path d="M192,132.005c-2.11,0-4.17,0.85-5.66,2.34c-1.49,1.48-2.34,3.55-2.34,5.65c0,2.109,0.85,4.17,2.34,5.66
	c1.49,1.489,3.55,2.34,5.66,2.34s4.17-0.851,5.66-2.34c1.49-1.49,2.34-3.551,2.34-5.66c0-2.101-0.85-4.159-2.34-5.65
	C196.17,132.854,194.11,132.005,192,132.005z"/>
<path d="M240,132.005c-2.11,0-4.17,0.85-5.66,2.34c-1.49,1.491-2.34,3.55-2.34,5.65c0,2.109,0.85,4.17,2.34,5.66
	c1.49,1.489,3.55,2.34,5.66,2.34s4.17-0.851,5.66-2.34c1.49-1.49,2.34-3.551,2.34-5.66c0-2.101-0.85-4.159-2.34-5.65
	C244.17,132.854,242.11,132.005,240,132.005z"/>
<path d="M288,132.005c-2.11,0-4.17,0.85-5.66,2.34c-1.49,1.491-2.34,3.55-2.34,5.65c0,2.109,0.85,4.17,2.34,5.66
	c1.49,1.489,3.55,2.34,5.66,2.34c2.11,0,4.17-0.851,5.66-2.34c1.49-1.49,2.34-3.551,2.34-5.66c0-2.101-0.85-4.17-2.34-5.65
	C292.17,132.854,290.11,132.005,288,132.005z"/>
<path d="M336,132.005c-2.11,0-4.17,0.85-5.66,2.34c-1.48,1.48-2.34,3.55-2.34,5.65c0,2.109,0.86,4.17,2.34,5.66
	c1.49,1.489,3.55,2.34,5.66,2.34c2.11,0,4.17-0.851,5.66-2.34c1.48-1.49,2.34-3.551,2.34-5.66c0-2.101-0.86-4.17-2.34-5.65
	C340.17,132.854,338.11,132.005,336,132.005z"/>
<path d="M384,132.005c-2.11,0-4.17,0.85-5.66,2.34c-1.49,1.48-2.34,3.55-2.34,5.65c0,2.109,0.85,4.17,2.34,5.66
	c1.49,1.489,3.55,2.34,5.66,2.34c2.11,0,4.17-0.851,5.66-2.34c1.49-1.49,2.34-3.551,2.34-5.66c0-2.101-0.85-4.159-2.34-5.65
	S386.11,132.005,384,132.005z"/>
<path d="M216,99.995c-2.1,0-4.17,0.859-5.66,2.35s-2.34,3.55-2.34,5.65c0,2.109,0.85,4.17,2.34,5.66c1.49,1.489,3.55,2.34,5.66,2.34
	s4.17-0.851,5.66-2.34c1.49-1.49,2.34-3.551,2.34-5.66c0-2.101-0.85-4.159-2.34-5.65C220.17,100.854,218.11,99.995,216,99.995z"/>
<path d="M264,99.995c-2.1,0-4.17,0.859-5.66,2.35s-2.34,3.55-2.34,5.65c0,2.109,0.85,4.17,2.34,5.66c1.49,1.489,3.55,2.34,5.66,2.34
	c2.11,0,4.17-0.851,5.66-2.34c1.49-1.49,2.34-3.551,2.34-5.66c0-2.101-0.85-4.159-2.34-5.65
	C268.17,100.854,266.11,99.995,264,99.995z"/>
<path d="M312,99.995c-2.11,0-4.17,0.859-5.66,2.35s-2.34,3.55-2.34,5.65c0,2.109,0.85,4.17,2.34,5.66
	c1.49,1.489,3.55,2.34,5.66,2.34c2.11,0,4.17-0.851,5.66-2.34c1.49-1.49,2.34-3.551,2.34-5.66c0-2.101-0.85-4.159-2.34-5.65
	C316.17,100.854,314.1,99.995,312,99.995z"/>
<path d="M144,195.995c-2.11,0-4.17,0.859-5.66,2.35c-1.49,1.491-2.34,3.55-2.34,5.66c0,2.1,0.85,4.16,2.34,5.65
	c1.5,1.489,3.56,2.35,5.66,2.35s4.16-0.86,5.66-2.35c1.49-1.49,2.34-3.551,2.34-5.65c0-2.11-0.85-4.169-2.34-5.66
	C148.17,196.854,146.11,195.995,144,195.995z"/>
<path d="M192,195.995c-2.11,0-4.17,0.859-5.66,2.35c-1.49,1.491-2.34,3.55-2.34,5.66c0,2.1,0.85,4.16,2.34,5.65
	c1.49,1.489,3.55,2.35,5.66,2.35c2.1,0,4.17-0.86,5.66-2.35s2.34-3.551,2.34-5.65c0-2.11-0.85-4.169-2.34-5.66
	C196.17,196.854,194.11,195.995,192,195.995z"/>
<path d="M240,195.995c-2.11,0-4.17,0.859-5.66,2.35c-1.49,1.491-2.34,3.55-2.34,5.66c0,2.1,0.85,4.16,2.34,5.65
	c1.49,1.489,3.56,2.35,5.66,2.35s4.16-0.86,5.66-2.35c1.49-1.49,2.34-3.551,2.34-5.65c0-2.11-0.85-4.169-2.34-5.66
	C244.17,196.854,242.11,195.995,240,195.995z"/>
<path d="M288,195.995c-2.11,0-4.17,0.859-5.66,2.35c-1.49,1.491-2.34,3.55-2.34,5.66c0,2.1,0.85,4.16,2.34,5.65
	c1.5,1.489,3.56,2.35,5.66,2.35s4.16-0.86,5.66-2.35c1.49-1.49,2.34-3.551,2.34-5.65c0-2.11-0.85-4.169-2.34-5.66
	S290.11,195.995,288,195.995z"/>
<path d="M336,195.995c-2.11,0-4.17,0.859-5.66,2.35c-1.49,1.491-2.34,3.55-2.34,5.66c0,2.1,0.85,4.16,2.34,5.65
	c1.5,1.489,3.56,2.35,5.66,2.35s4.17-0.86,5.66-2.35s2.34-3.551,2.34-5.65c0-2.11-0.85-4.169-2.34-5.66S338.11,195.995,336,195.995z
	"/>
<path d="M384,195.995c-2.11,0-4.17,0.859-5.66,2.35c-1.49,1.491-2.34,3.55-2.34,5.66c0,2.1,0.85,4.16,2.34,5.65
	c1.49,1.489,3.56,2.35,5.66,2.35s4.16-0.86,5.66-2.35c1.49-1.49,2.34-3.551,2.34-5.65c0-2.11-0.85-4.169-2.34-5.66
	S386.11,195.995,384,195.995z"/>
<path d="M432,195.995c-2.11,0-4.17,0.859-5.66,2.35c-1.49,1.491-2.34,3.55-2.34,5.66c0,2.1,0.85,4.16,2.34,5.65
	c1.49,1.489,3.56,2.35,5.66,2.35s4.16-0.86,5.66-2.35c1.49-1.49,2.34-3.551,2.34-5.65c0-2.11-0.85-4.169-2.34-5.66
	S434.11,195.995,432,195.995z"/>
<path d="M168,163.995c-2.11,0-4.17,0.859-5.66,2.35c-1.49,1.48-2.34,3.54-2.34,5.65c0,2.109,0.85,4.17,2.34,5.66
	c1.49,1.489,3.55,2.35,5.66,2.35s4.17-0.86,5.66-2.35s2.34-3.551,2.34-5.66c0-2.101-0.85-4.159-2.34-5.65
	C172.17,164.854,170.11,163.995,168,163.995z"/>
<path d="M120,163.995c-2.11,0-4.17,0.859-5.66,2.35c-1.49,1.491-2.34,3.55-2.34,5.65c0,2.109,0.85,4.17,2.34,5.66
	c1.49,1.489,3.55,2.35,5.66,2.35s4.17-0.86,5.66-2.35c1.48-1.49,2.34-3.551,2.34-5.66c0-2.11-0.86-4.17-2.34-5.65
	C124.17,164.854,122.1,163.995,120,163.995z"/>
<path d="M216,163.995c-2.11,0-4.17,0.859-5.66,2.35c-1.49,1.491-2.34,3.55-2.34,5.65c0,2.109,0.85,4.17,2.34,5.66
	c1.49,1.489,3.55,2.35,5.66,2.35s4.17-0.86,5.66-2.35s2.34-3.551,2.34-5.66c0-2.101-0.85-4.159-2.34-5.65
	C220.17,164.854,218.11,163.995,216,163.995z"/>
<path d="M264,163.995c-2.11,0-4.17,0.859-5.66,2.35c-1.49,1.491-2.34,3.55-2.34,5.65c0,2.109,0.85,4.17,2.34,5.66
	c1.49,1.489,3.55,2.35,5.66,2.35c2.11,0,4.17-0.86,5.66-2.35s2.34-3.551,2.34-5.66c0-2.101-0.85-4.17-2.34-5.65
	C268.17,164.854,266.11,163.995,264,163.995z"/>
<path d="M312,163.995c-2.11,0-4.17,0.859-5.66,2.35c-1.49,1.491-2.34,3.55-2.34,5.65c0,2.109,0.85,4.17,2.34,5.66
	c1.49,1.489,3.55,2.35,5.66,2.35c2.11,0,4.17-0.86,5.66-2.35s2.34-3.551,2.34-5.66c0-2.101-0.85-4.159-2.34-5.65
	S314.11,163.995,312,163.995z"/>
<path d="M360,163.995c-2.11,0-4.17,0.859-5.66,2.35c-1.49,1.491-2.34,3.55-2.34,5.65c0,2.109,0.85,4.17,2.34,5.66
	c1.49,1.489,3.55,2.35,5.66,2.35c2.11,0,4.17-0.86,5.66-2.35s2.34-3.551,2.34-5.66c0-2.101-0.85-4.159-2.34-5.65
	S362.1,163.995,360,163.995z"/>
<path d="M408,163.995c-2.1,0-4.17,0.859-5.66,2.35c-1.49,1.48-2.34,3.55-2.34,5.65c0,2.109,0.85,4.17,2.34,5.66
	c1.49,1.489,3.55,2.35,5.66,2.35c2.11,0,4.17-0.86,5.66-2.35s2.34-3.551,2.34-5.66c0-2.101-0.85-4.17-2.34-5.65
	C412.17,164.854,410.11,163.995,408,163.995z"/>
<path d="M144,387.995c-2.1,0-4.17,0.859-5.66,2.35c-1.49,1.48-2.34,3.55-2.34,5.65c0,2.109,0.85,4.18,2.34,5.66
	c1.49,1.489,3.56,2.34,5.66,2.34c2.11,0,4.17-0.851,5.66-2.34c1.49-1.49,2.34-3.551,2.34-5.66c0-2.101-0.85-4.159-2.34-5.65
	C148.17,388.854,146.11,387.995,144,387.995z"/>
<path d="M192,387.995c-2.11,0-4.17,0.859-5.66,2.35s-2.34,3.55-2.34,5.65c0,2.109,0.85,4.17,2.34,5.66
	c1.49,1.489,3.55,2.34,5.66,2.34s4.17-0.851,5.66-2.34c1.49-1.49,2.34-3.551,2.34-5.66c0-2.101-0.85-4.159-2.34-5.65
	C196.17,388.854,194.11,387.995,192,387.995z"/>
<path d="M240,387.995c-2.11,0-4.17,0.859-5.66,2.35s-2.34,3.55-2.34,5.65c0,2.109,0.85,4.17,2.34,5.66
	c1.49,1.489,3.55,2.34,5.66,2.34c2.1,0,4.17-0.851,5.66-2.34c1.49-1.49,2.34-3.551,2.34-5.66c0-2.101-0.85-4.159-2.34-5.65
	C244.17,388.854,242.1,387.995,240,387.995z"/>
<path d="M288,387.995c-2.1,0-4.16,0.859-5.66,2.35c-1.49,1.48-2.34,3.55-2.34,5.65c0,2.109,0.85,4.17,2.34,5.66
	c1.5,1.489,3.56,2.34,5.66,2.34s4.16-0.851,5.66-2.34c1.49-1.49,2.34-3.551,2.34-5.66c0-2.101-0.85-4.17-2.34-5.65
	C292.16,388.854,290.1,387.995,288,387.995z"/>
<path d="M336,387.995c-2.1,0-4.17,0.859-5.66,2.35c-1.49,1.48-2.34,3.55-2.34,5.65c0,2.109,0.85,4.18,2.34,5.66
	c1.49,1.489,3.56,2.34,5.66,2.34c2.11,0,4.17-0.851,5.66-2.34c1.49-1.49,2.34-3.551,2.34-5.66c0-2.101-0.85-4.159-2.34-5.65
	S338.11,387.995,336,387.995z"/>
<path d="M384,387.995c-2.11,0-4.17,0.859-5.66,2.35s-2.34,3.55-2.34,5.65c0,2.109,0.85,4.17,2.34,5.66
	c1.49,1.489,3.55,2.34,5.66,2.34c2.11,0,4.17-0.851,5.66-2.34c1.49-1.49,2.34-3.551,2.34-5.66c0-2.101-0.85-4.159-2.34-5.65
	S386.11,387.995,384,387.995z"/>
<path d="M168,355.995c-2.11,0-4.17,0.859-5.66,2.35s-2.34,3.55-2.34,5.66c0,2.1,0.85,4.16,2.34,5.65c1.49,1.489,3.55,2.34,5.66,2.34
	s4.17-0.851,5.66-2.34c1.49-1.49,2.34-3.551,2.34-5.65c0-2.11-0.85-4.169-2.34-5.66C172.17,356.854,170.11,355.995,168,355.995z"/>
<path d="M120,355.995c-2.11,0-4.17,0.859-5.66,2.35c-1.49,1.491-2.34,3.55-2.34,5.66c0,2.1,0.85,4.16,2.34,5.65
	c1.49,1.489,3.55,2.34,5.66,2.34s4.17-0.851,5.66-2.34c1.49-1.49,2.34-3.551,2.34-5.65c0-2.11-0.85-4.169-2.34-5.66
	C124.17,356.854,122.11,355.995,120,355.995z"/>
<path d="M216,355.995c-2.11,0-4.17,0.859-5.66,2.35s-2.34,3.55-2.34,5.66c0,2.1,0.85,4.16,2.34,5.65c1.49,1.489,3.55,2.34,5.66,2.34
	s4.17-0.851,5.66-2.34c1.49-1.49,2.34-3.551,2.34-5.65c0-2.11-0.85-4.169-2.34-5.66C220.17,356.854,218.11,355.995,216,355.995z"/>
<path d="M264,355.995c-2.11,0-4.17,0.859-5.66,2.35s-2.34,3.55-2.34,5.66c0,2.1,0.85,4.16,2.34,5.65c1.49,1.489,3.55,2.34,5.66,2.34
	c2.11,0,4.17-0.851,5.66-2.34c1.48-1.49,2.34-3.551,2.34-5.65c0-2.11-0.86-4.169-2.34-5.66
	C268.17,356.854,266.11,355.995,264,355.995z"/>
<path d="M312,355.995c-2.11,0-4.17,0.859-5.66,2.35c-1.48,1.491-2.34,3.55-2.34,5.66c0,2.1,0.86,4.16,2.34,5.65
	c1.49,1.489,3.55,2.34,5.66,2.34c2.11,0,4.17-0.851,5.66-2.34c1.49-1.49,2.34-3.551,2.34-5.65c0-2.11-0.85-4.169-2.34-5.66
	S314.11,355.995,312,355.995z"/>
<path d="M360,355.995c-2.11,0-4.17,0.859-5.66,2.35s-2.34,3.55-2.34,5.66c0,2.1,0.85,4.16,2.34,5.65c1.49,1.489,3.55,2.34,5.66,2.34
	c2.11,0,4.17-0.851,5.66-2.34c1.49-1.49,2.34-3.551,2.34-5.65c0-2.11-0.85-4.169-2.34-5.66S362.11,355.995,360,355.995z"/>
<path d="M408,355.995c-2.11,0-4.17,0.859-5.66,2.35c-1.49,1.48-2.34,3.55-2.34,5.66c0,2.1,0.85,4.16,2.34,5.65
	c1.49,1.489,3.55,2.34,5.66,2.34c2.1,0,4.17-0.851,5.66-2.34c1.49-1.49,2.34-3.551,2.34-5.65c0-2.11-0.85-4.169-2.34-5.66
	S410.11,355.995,408,355.995z"/>
<path d="M216,420.005c-2.11,0-4.17,0.85-5.66,2.34c-1.48,1.491-2.34,3.55-2.34,5.66c0,2.1,0.86,4.16,2.34,5.65
	c1.49,1.489,3.55,2.34,5.66,2.34s4.17-0.851,5.66-2.34c1.49-1.49,2.34-3.551,2.34-5.65c0-2.11-0.85-4.169-2.34-5.66
	C220.17,420.854,218.11,420.005,216,420.005z"/>
<path d="M264,420.005c-2.11,0-4.17,0.85-5.66,2.34c-1.49,1.491-2.34,3.55-2.34,5.66c0,2.1,0.85,4.16,2.34,5.65
	c1.49,1.489,3.56,2.34,5.66,2.34c2.11,0,4.17-0.851,5.66-2.34c1.49-1.49,2.34-3.551,2.34-5.65c0-2.11-0.85-4.169-2.34-5.66
	S266.11,420.005,264,420.005z"/>
<path d="M312,420.005c-2.11,0-4.17,0.85-5.66,2.34c-1.49,1.491-2.34,3.55-2.34,5.66c0,2.1,0.85,4.16,2.34,5.65
	c1.49,1.489,3.55,2.34,5.66,2.34c2.1,0,4.17-0.851,5.66-2.34c1.49-1.49,2.34-3.551,2.34-5.65c0-2.11-0.85-4.169-2.34-5.66
	S314.11,420.005,312,420.005z"/>
<path d="M360,420.005c-2.11,0-4.17,0.85-5.66,2.34c-1.49,1.491-2.34,3.55-2.34,5.66c0,2.1,0.85,4.16,2.34,5.65
	c1.49,1.489,3.55,2.34,5.66,2.34c2.11,0,4.17-0.851,5.66-2.34c1.48-1.49,2.34-3.551,2.34-5.65c0-2.11-0.86-4.169-2.34-5.66
	C364.17,420.854,362.11,420.005,360,420.005z"/>
<path d="M472,172c0-8.822-7.178-16-16-16s-16,7.178-16,16s7.178,16,16,16S472,180.822,472,172z"/>
<g>
</g>
<g>
</g>
<g>
</g>
<g>
</g>
<g>
</g>
<g>
</g>
<g>
</g>
<g>
</g>
<g>
</g>
<g>
</g>
<g>
</g>
<g>
</g>
<g>
</g>
<g>
</g>
<g>
</g>
</svg>
