<?xml version="1.0" encoding="iso-8859-1"?>
<!-- Generator: Adobe Illustrator 19.0.0, SVG Export Plug-In . SVG Version: 6.00 Build 0)  -->
<svg version="1.1" id="Layer_1" xmlns="http://www.w3.org/2000/svg" xmlns:xlink="http://www.w3.org/1999/xlink" x="0px" y="0px"
	 viewBox="0 0 512.474 512.474" style="enable-background:new 0 0 512.474 512.474;" xml:space="preserve">
<g transform="translate(1 1)">
	<g>
		<path style="fill:#FFE100;" d="M164.552,251.135c-1.736,0-3.471,0-4.339-0.868l-43.39-26.034c-2.603-1.736-4.339-4.339-4.339-7.81
			c0-165.749,52.936-212.61,55.539-215.214c3.471-3.471,9.546-2.603,12.149,0.868c3.471,3.471,2.603,8.678-0.868,12.149
			c-0.868,0.868-47.729,44.258-49.464,196.99l39.051,23.431c4.339,2.603,5.207,7.81,2.603,12.149
			C170.627,249.4,167.156,251.135,164.552,251.135z"/>
		<path style="fill:#FFE100;" d="M216.62,337.915c-1.736,0-2.603,0-4.339-0.868L64.756,258.945
			c-1.736-0.868-3.471-2.603-4.339-5.207C28.308,144.396,85.583,67.162,88.186,63.691c2.603-3.471,8.678-4.339,12.149-1.736
			c3.471,2.603,4.339,8.678,1.736,12.149c-0.868,0.868-52.936,72.027-26.034,170.956l144.054,76.366
			c4.339,2.603,6.075,7.81,3.471,12.149C222.695,336.179,220.091,337.915,216.62,337.915z"/>
		<path style="fill:#FFE100;" d="M112.485,502.796c-3.471,0-6.075-1.736-7.81-4.339c-1.736-3.471-46.861-91.986-17.356-163.146
			c0.868-4.339,4.339-6.075,7.81-6.075h112.814c5.207,0,8.678,3.471,8.678,8.678c0,5.207-3.471,8.678-8.678,8.678H101.203
			c-21.695,63.349,18.224,143.186,19.092,143.186c2.603,4.339,0.868,9.546-3.471,11.281
			C115.088,502.796,114.22,502.796,112.485,502.796z"/>
		<path style="fill:#FFE100;" d="M181.908,511.474c-1.736,0-4.339-0.868-6.075-2.603c-2.603-2.603-71.159-67.688-36.447-140.583
			c0.868-2.603,3.471-4.339,6.942-5.207l60.746-8.678c5.207-0.868,9.546,2.603,9.546,6.942c0,4.339-2.603,9.546-6.942,9.546
			l-56.407,7.81c-25.166,59.878,33.844,115.417,34.712,116.285c3.471,3.471,3.471,8.678,0.868,12.149
			C186.247,510.606,184.512,511.474,181.908,511.474z"/>
		<path style="fill:#FFE100;" d="M242.654,476.762c-19.092,0-34.712-15.62-34.712-34.712c0-19.092,15.62-34.712,34.712-34.712
			c5.207,0,8.678,3.471,8.678,8.678s-3.471,8.678-8.678,8.678c-9.546,0-17.356,7.81-17.356,17.356s7.81,17.356,17.356,17.356
			c5.207,0,8.678,3.471,8.678,8.678C251.332,473.291,247.861,476.762,242.654,476.762z"/>
		<path style="fill:#FFE100;" d="M277.366,476.762c-5.207,0-8.678-3.471-8.678-8.678c0-5.207,3.471-8.678,8.678-8.678
			c9.546,0,17.356-7.81,17.356-17.356s-7.81-17.356-17.356-17.356c-5.207,0-8.678-3.471-8.678-8.678s3.471-8.678,8.678-8.678
			c19.092,0,34.712,15.62,34.712,34.712C312.078,461.142,296.457,476.762,277.366,476.762z"/>
		<path style="fill:#FFE100;" d="M355.468,251.135c-2.603,0-6.075-1.736-7.81-4.339c-2.603-4.339-0.868-9.546,2.603-12.149
			l39.051-23.431c0-153.6-47.729-196.122-47.729-196.122c-3.471-3.471-4.339-8.678-0.868-12.149
			c3.471-3.471,8.678-4.339,12.149-0.868c1.736,1.736,54.671,48.597,54.671,214.346c0,3.471-1.736,6.075-4.339,7.81l-43.39,26.034
			C358.939,251.135,357.203,251.135,355.468,251.135z"/>
		<path style="fill:#FFE100;" d="M303.4,337.915c-3.471,0-6.075-1.736-7.81-4.339c-2.603-4.339-0.868-9.546,3.471-12.149
			l144.054-76.366c27.77-98.929-25.166-170.088-26.034-170.956c-2.603-3.471-1.736-9.546,1.736-12.149
			c3.471-2.603,9.546-1.736,12.149,1.736c2.603,3.471,59.878,80.705,27.77,190.047c-0.868,2.603-2.603,4.339-4.339,5.207
			l-147.525,78.102C306.003,337.915,305.135,337.915,303.4,337.915z"/>
		<path style="fill:#FFE100;" d="M407.535,502.796c-1.736,0-2.603,0-4.339-0.868c-4.339-2.603-6.075-7.81-3.471-11.281
			c0-0.868,40.786-80.705,19.092-143.186H312.078c-5.207,0-8.678-3.471-8.678-8.678s3.471-8.678,8.678-8.678h112.814
			c3.471,0,6.942,1.736,7.81,5.207c28.637,71.159-15.62,159.675-17.356,163.146C413.61,501.061,411.007,502.796,407.535,502.796z"/>
		<path style="fill:#FFE100;" d="M338.112,511.474c-2.603,0-4.339-0.868-6.075-2.603c-3.471-3.471-3.471-8.678,0.868-12.149
			c0.868-0.868,59.01-56.407,34.712-116.285l-56.407-7.81c-4.339-0.868-7.81-5.207-6.942-9.546s5.207-7.81,9.546-6.942l60.746,8.678
			c2.603,0,5.207,2.603,6.942,5.207c34.712,72.895-33.844,137.98-36.447,140.583C342.451,510.606,339.847,511.474,338.112,511.474z"
			/>
		<path style="fill:#FFE100;" d="M346.79,216.423c0,52.936-42.522,95.458-95.458,95.458s-95.458-42.522-95.458-95.458
			s42.522-95.458,95.458-95.458S346.79,163.488,346.79,216.423"/>
	</g>
	<path style="fill:#FFA800;" d="M251.332,120.966c-4.339,0-8.678,0-13.017,0.868c46.861,6.075,82.441,45.993,82.441,94.59
		s-35.58,88.515-82.441,94.59c4.339,0.868,8.678,0.868,13.017,0.868c52.936,0,95.458-42.522,95.458-95.458
		S304.268,120.966,251.332,120.966"/>
	<path style="fill:#FFFFFF;" d="M251.332,120.966c4.339,0,8.678,0,13.017,0.868c-46.861,6.075-82.441,45.993-82.441,94.59
		s35.58,88.515,82.441,94.59c-4.339,0.868-8.678,0.868-13.017,0.868c-52.936,0-95.458-42.522-95.458-95.458
		S198.396,120.966,251.332,120.966"/>
	<path style="fill:#FFE100;" d="M303.4,363.949c0,28.637-23.431,52.068-52.068,52.068s-52.068-23.431-52.068-52.068
		c0-28.637,23.431-52.068,52.068-52.068S303.4,335.311,303.4,363.949"/>
	<path style="fill:#FFA800;" d="M251.332,311.881c-2.603,0-6.075,0-8.678,0.868c24.298,4.339,43.39,25.166,43.39,51.2
		c0,26.034-19.092,46.861-43.39,51.2c2.603,0.868,6.075,0.868,8.678,0.868c28.637,0,52.068-23.431,52.068-52.068
		C303.4,335.311,279.969,311.881,251.332,311.881"/>
	<path style="fill:#FFFFFF;" d="M251.332,311.881c2.603,0,6.075,0,8.678,0.868c-24.298,4.339-43.39,25.166-43.39,51.2
		c0,26.034,19.092,46.861,43.39,51.2c-2.603,0.868-6.075,0.868-8.678,0.868c-28.637,0-52.068-23.431-52.068-52.068
		C199.264,335.311,222.695,311.881,251.332,311.881"/>
	<path d="M251.332,320.559c-57.275,0-104.136-46.861-104.136-104.136s46.861-104.136,104.136-104.136
		s104.136,46.861,104.136,104.136S308.607,320.559,251.332,320.559z M251.332,129.644c-47.729,0-86.78,39.051-86.78,86.78
		s39.051,86.78,86.78,86.78s86.78-39.051,86.78-86.78S299.061,129.644,251.332,129.644z"/>
	<path d="M251.332,424.694c-33.844,0-60.746-26.902-60.746-60.746s26.902-60.746,60.746-60.746s60.746,26.902,60.746,60.746
		S285.176,424.694,251.332,424.694z M251.332,320.559c-24.298,0-43.39,19.092-43.39,43.39c0,24.298,19.092,43.39,43.39,43.39
		s43.39-19.092,43.39-43.39C294.722,339.65,275.63,320.559,251.332,320.559z"/>
	<path d="M155.874,251.135c-1.736,0-3.471,0-4.339-0.868l-43.39-26.034c-2.603-1.736-4.339-4.339-4.339-7.81
		c0-165.749,52.936-212.61,55.539-215.214c3.471-3.471,9.546-2.603,12.149,0.868c3.471,3.471,2.603,8.678-0.868,12.149
		c-0.868,0.868-48.597,45.125-49.464,196.99l39.051,23.431c4.339,2.603,5.207,7.81,2.603,12.149
		C161.949,249.4,158.478,251.135,155.874,251.135z"/>
	<path d="M207.942,337.915c-1.736,0-2.603,0-4.339-0.868L56.078,258.945c-1.736-0.868-3.471-2.603-4.339-5.207
		C19.63,144.396,76.905,67.162,79.508,63.691c2.603-3.471,8.678-4.339,12.149-1.736c3.471,2.603,4.339,8.678,1.736,12.149
		c-0.868,0.868-52.936,72.027-26.034,170.956l144.054,76.366c4.339,2.603,6.075,7.81,3.471,12.149
		C214.017,336.179,211.413,337.915,207.942,337.915z"/>
	<path d="M103.807,502.796c-3.471,0-6.075-1.736-7.81-4.339c-1.736-3.471-46.861-91.986-17.356-163.146
		c0.868-4.339,4.339-6.075,7.81-6.075h112.814c5.207,0,8.678,3.471,8.678,8.678c0,5.207-3.471,8.678-8.678,8.678H92.525
		c-21.695,63.349,18.224,143.186,19.092,143.186c2.603,4.339,0.868,9.546-3.471,11.281
		C106.41,502.796,105.542,502.796,103.807,502.796z"/>
	<path d="M173.23,511.474c-1.736,0-4.339-0.868-6.075-2.603c-2.603-2.603-71.159-67.688-36.447-140.583
		c0.868-2.603,3.471-4.339,6.942-5.207l60.746-8.678c4.339-0.868,9.546,2.603,9.546,6.942c0.868,4.339-2.603,9.546-6.942,9.546
		l-56.407,7.81c-25.166,59.878,33.844,115.417,34.712,116.285c3.471,3.471,3.471,8.678,0.868,12.149
		C177.569,510.606,175.834,511.474,173.23,511.474z"/>
	<path d="M233.976,476.762c-19.092,0-34.712-15.62-34.712-34.712c0-19.092,15.62-34.712,34.712-34.712
		c5.207,0,8.678,3.471,8.678,8.678s-3.471,8.678-8.678,8.678c-9.546,0-17.356,7.81-17.356,17.356s7.81,17.356,17.356,17.356
		c5.207,0,8.678,3.471,8.678,8.678C242.654,473.291,239.183,476.762,233.976,476.762z"/>
	<path d="M268.688,476.762c-5.207,0-8.678-3.471-8.678-8.678c0-5.207,3.471-8.678,8.678-8.678c9.546,0,17.356-7.81,17.356-17.356
		s-7.81-17.356-17.356-17.356c-5.207,0-8.678-3.471-8.678-8.678s3.471-8.678,8.678-8.678c19.092,0,34.712,15.62,34.712,34.712
		C303.4,461.142,287.779,476.762,268.688,476.762z"/>
	<path d="M346.79,251.135c-2.603,0-6.075-1.736-7.81-4.339c-2.603-4.339-0.868-9.546,2.603-12.149l39.051-23.431
		c0-153.6-47.729-196.122-47.729-196.122c-3.471-3.471-4.339-8.678-0.868-12.149c3.471-3.471,8.678-4.339,12.149-0.868
		c1.736,1.736,54.671,48.597,54.671,214.346c0,3.471-1.736,6.075-4.339,7.81l-43.39,26.034
		C350.261,251.135,348.525,251.135,346.79,251.135z"/>
	<path d="M294.722,337.915c-3.471,0-6.075-1.736-7.81-4.339c-2.603-4.339-0.868-9.546,3.471-12.149l144.054-76.366
		c27.77-98.929-25.166-170.088-26.034-170.956c-2.603-3.471-1.736-9.546,1.736-12.149s9.546-1.736,12.149,1.736
		c2.603,3.471,59.878,80.705,27.77,190.047c-0.868,2.603-2.603,4.339-4.339,5.207l-147.525,78.102
		C297.325,337.915,296.457,337.915,294.722,337.915z"/>
	<path d="M398.857,502.796c-1.736,0-2.603,0-4.339-0.868c-4.339-2.603-6.075-7.81-3.471-11.281
		c0-0.868,40.786-80.705,19.092-143.186H303.4c-5.207,0-8.678-3.471-8.678-8.678s3.471-8.678,8.678-8.678h112.814
		c3.471,0,6.942,1.736,7.81,5.207c28.637,71.159-15.62,159.675-17.356,163.146C404.932,501.061,402.329,502.796,398.857,502.796z"/>
	<path d="M329.434,511.474c-2.603,0-4.339-0.868-6.075-2.603c-3.471-3.471-3.471-8.678,0.868-12.149
		c0.868-0.868,59.01-56.407,34.712-116.285l-56.407-7.81c-4.339-0.868-7.81-5.207-6.942-9.546s5.207-7.81,9.546-6.942l60.746,8.678
		c2.603,0,5.207,2.603,6.942,5.207c34.712,72.895-33.844,137.98-36.447,140.583C333.773,510.606,331.169,511.474,329.434,511.474z"
		/>
</g>
<g>
</g>
<g>
</g>
<g>
</g>
<g>
</g>
<g>
</g>
<g>
</g>
<g>
</g>
<g>
</g>
<g>
</g>
<g>
</g>
<g>
</g>
<g>
</g>
<g>
</g>
<g>
</g>
<g>
</g>
</svg>
