<?xml version="1.0" encoding="iso-8859-1"?>
<!-- Generator: Adobe Illustrator 19.0.0, SVG Export Plug-In . SVG Version: 6.00 Build 0)  -->
<svg version="1.1" id="Layer_1" xmlns="http://www.w3.org/2000/svg" xmlns:xlink="http://www.w3.org/1999/xlink" x="0px" y="0px"
	 viewBox="0 0 512.009 512.009" style="enable-background:new 0 0 512.009 512.009;" xml:space="preserve">
<circle style="fill:#F7B239;" cx="256.004" cy="256.004" r="256.004"/>
<path style="fill:#F2F2F2;" d="M395.475,299.47c0,2.138-0.114,4.251-0.329,6.326c-1.468,13.98-7.768,26.53-17.181,35.943
	c-5.137,5.137-11.209,9.35-17.94,12.361c-4.011,1.784-8.249,3.138-12.664,4.011c-3.77,0.746-7.667,1.139-11.665,1.139H176.3
	c-3.808,0-7.54-0.354-11.146-1.037c-4.415-0.835-8.654-2.151-12.664-3.897c-19.319-8.401-33.337-26.707-35.639-48.519
	c-0.215-2.075-0.329-4.188-0.329-6.326s0.114-4.251,0.329-6.326c1.468-13.98,7.768-26.53,17.181-35.943
	c5.149-5.149,11.235-9.362,17.991-12.373c3.998-1.784,8.236-3.138,12.639-3.998c3.77-0.746,7.654-1.139,11.639-1.139h159.397
	c4.162,0,8.236,0.43,12.158,1.24c4.415,0.911,8.641,2.303,12.639,4.124c18.813,8.59,32.401,26.657,34.653,48.089
	C395.361,295.219,395.475,297.332,395.475,299.47z"/>
<path style="fill:#E6E6E6;" d="M117.886,312.069c2.471-11.407,8.189-21.609,16.145-29.564c5.149-5.149,11.235-9.362,17.991-12.373
	c3.998-1.784,8.236-3.138,12.639-3.998c3.77-0.746,7.654-1.139,11.639-1.139h159.397c4.162,0,8.236,0.43,12.158,1.24
	c4.415,0.911,8.641,2.303,12.639,4.124c16.94,7.735,29.614,23.165,33.619,41.806c0.452-2.086,0.807-4.208,1.034-6.369
	c0.215-2.075,0.329-4.188,0.329-6.326s-0.114-4.251-0.329-6.326c-2.252-21.432-15.84-39.498-34.653-48.089
	c-3.998-1.822-8.224-3.213-12.639-4.124c-3.922-0.81-7.996-1.24-12.158-1.24H176.3c-3.985,0-7.869,0.392-11.639,1.139
	c-4.403,0.86-8.641,2.214-12.639,3.998c-6.756,3.011-12.841,7.224-17.991,12.373c-9.413,9.413-15.713,21.963-17.181,35.943
	c-0.215,2.075-0.329,4.188-0.329,6.326s0.114,4.251,0.329,6.326C117.074,307.925,117.443,310.01,117.886,312.069z"/>
<g>
	<path style="fill:#4D4D4D;" d="M395.475,299.47c0,0.595-0.013,1.189-0.038,1.771c0,0.367-0.013,0.721-0.038,1.075
		c0,0.177-0.013,0.367-0.025,0.544c-0.013,0.405-0.038,0.81-0.076,1.202c0,0.051-0.013,0.101-0.013,0.164
		c-0.038,0.531-0.089,1.05-0.139,1.569h-34.906l-0.215,48.304c-4.011,1.784-8.249,3.138-12.664,4.011l0.228-52.314h-30.946
		l-0.24,53.453h-12.652l0.24-53.453h-41.636l0.228,53.453h-12.652l-0.228-53.453h-41.181l0.24,53.453h-12.652l-0.24-53.453h-30.946
		l0.228,52.415c-4.415-0.835-8.654-2.151-12.664-3.897l-0.215-48.519H116.85c-0.051-0.519-0.101-1.037-0.139-1.569
		c0-0.063-0.013-0.114-0.013-0.164c-0.038-0.392-0.063-0.797-0.076-1.202l-0.025-0.544c-0.025-0.354-0.038-0.708-0.038-1.075
		l-0.038-1.771c0-0.62,0.013-1.24,0.038-1.847c0-0.455,0.025-0.898,0.051-1.341c0.051-1.05,0.139-2.1,0.24-3.138h35.374
		l-0.063-16.118l-0.139-32.198c0.013,0,0.038-0.013,0.063-0.025c0.43-0.19,0.86-0.38,1.29-0.557
		c0.342-0.139,0.683-0.278,1.025-0.418c0.443-0.177,0.898-0.342,1.354-0.506c0.797-0.291,1.607-0.569,2.429-0.835
		c0.531-0.177,1.063-0.329,1.594-0.481c1.189-0.342,2.404-0.645,3.631-0.924c0.418-0.089,0.835-0.177,1.253-0.253l0.127,32.224
		l0.089,20.091h30.946l-0.089-21.191l-0.139-32.261h12.652l0.139,32.261l0.089,21.191h41.181l-0.101-21.191l-0.139-32.261h12.652
		l0.139,32.261l0.101,21.191h41.738l0.089-21.191l0.139-32.261h12.652l-0.139,32.261l-0.089,21.191h30.946l0.089-19.977
		l0.127-32.236c0.557,0.114,1.101,0.24,1.645,0.367c0.633,0.139,1.265,0.304,1.885,0.481c0.455,0.114,0.911,0.24,1.354,0.38
		c0.519,0.152,1.037,0.316,1.543,0.481c0.025,0,0.051,0.013,0.076,0.025c0.519,0.164,1.037,0.342,1.543,0.531
		c0.19,0.063,0.392,0.139,0.582,0.215c0.38,0.139,0.759,0.278,1.139,0.43c0.962,0.38,1.923,0.784,2.872,1.215l-0.139,32.211
		l-0.063,15.878h34.855l0.24,3.138c0.025,0.443,0.051,0.886,0.051,1.341L395.475,299.47z"/>
	<circle style="fill:#4D4D4D;" cx="142.672" cy="181.727" r="25.618"/>
	<circle style="fill:#4D4D4D;" cx="369.325" cy="181.727" r="25.618"/>
</g>
<path style="fill:#E09B2D;" d="M121.499,390.501C29.407,298.407,22.15,153.608,99.723,53.204
	c-8.593,6.638-16.861,13.895-24.743,21.777c-99.974,99.974-99.974,262.065,0,362.038s262.065,99.974,362.038,0
	c7.881-7.881,15.138-16.15,21.777-24.743C358.392,489.85,213.593,482.593,121.499,390.501z"/>
<g>
</g>
<g>
</g>
<g>
</g>
<g>
</g>
<g>
</g>
<g>
</g>
<g>
</g>
<g>
</g>
<g>
</g>
<g>
</g>
<g>
</g>
<g>
</g>
<g>
</g>
<g>
</g>
<g>
</g>
</svg>
