<?xml version="1.0" encoding="iso-8859-1"?>
<!-- Generator: Adobe Illustrator 19.0.0, SVG Export Plug-In . SVG Version: 6.00 Build 0)  -->
<svg version="1.1" id="Layer_1" xmlns="http://www.w3.org/2000/svg" xmlns:xlink="http://www.w3.org/1999/xlink" x="0px" y="0px"
	 viewBox="0 0 512 512" style="enable-background:new 0 0 512 512;" xml:space="preserve">
<circle style="fill:#FFC200;" cx="256" cy="256" r="256"/>
<g>
	<path style="fill:#F2B800;" d="M256,0c-6.74,0-13.396,0.34-20,0.852C368.032,11.068,472,121.348,472,256
		S368.032,500.932,236,511.148c6.604,0.512,13.26,0.852,20,0.852c141.392,0,256-114.608,256-256S397.392,0,256,0z"/>
	<path style="fill:#F2B800;" d="M255.956,479.82c-29.988-0.184-60.012-6.728-86.816-18.924
		c-27.364-12.708-51.86-30.704-70.892-52.076c-19.276-21.192-34.592-46.968-44.236-74.492c-9.552-27.9-13.272-57.184-10.784-84.736
		c0.912-10.084,9.224-17.68,19.332-17.68c0.584,0,1.168,0.024,1.756,0.08c9.348,0.844,16.748,8.244,17.592,17.592
		c4.28,46.408,24.42,89.224,56.708,120.552c31.864,31.076,74.1,48.896,115.908,48.896h2.948c41.808,0,84.052-17.816,115.896-48.876
		c32.308-31.42,52.444-74.288,56.704-120.72c0.924-10.06,9.236-17.64,19.32-17.64c0.588,0,1.188,0.032,1.784,0.084
		c9.332,0.856,16.716,8.248,17.56,17.572c2.536,27.752-1.188,56.988-10.744,84.832c-9.644,27.564-24.956,53.344-44.296,74.596
		c-18.972,21.312-43.468,39.312-70.78,51.992c-26.856,12.224-56.876,18.756-86.868,18.944c-0.016,0-0.036,0-0.056,0
		C255.984,479.82,255.972,479.82,255.956,479.82z"/>
</g>
<path style="fill:#F5F5F5;" d="M460.8,250.452c2.448,26.836-1.364,54.98-10.364,81.236c-9.2,26.256-23.656,50.928-42.652,71.812
	c-18.784,21.1-42.296,38.08-68.236,50.116C313.5,465.468,284.748,471.64,256,471.82c-28.752-0.176-57.508-6.356-83.556-18.208
	c-25.928-12.048-49.44-29.02-68.232-50.112c-19-20.884-33.456-45.556-42.656-71.812c-9.008-26.312-12.82-54.252-10.372-81.376
	c0.572-6.284,6.12-10.916,12.412-10.352c5.58,0.504,9.86,4.964,10.348,10.352c4.472,48.424,25.836,93.284,59.096,125.564
	c33.096,32.28,77.74,51.58,122.952,51.148c45.216,0.424,89.852-18.86,122.952-51.14c33.252-32.344,54.608-76.992,59.084-125.712
	c0.584-6.28,6.128-10.9,12.412-10.324c5.572,0.512,9.836,4.94,10.32,10.324L460.8,250.452z"/>
<path style="fill:#263740;" d="M124.328,200.624c-5.632,0-10.752-2.584-14.032-7.1c-2.076-2.852-5.108-8.996-2.164-18.076
	l5.252-16.184l-13.76-10c-8.912-6.468-9.984-15.204-8.032-21.216c1.948-6.012,7.956-12.432,18.956-12.432h17.016l5.256-16.176
	c3.4-10.468,11.368-14.204,17.688-14.204c6.328,0,14.296,3.736,17.696,14.204l5.252,16.176h17.016
	c11.008,0,17.016,6.42,18.968,12.432c1.948,6.012,0.868,14.748-8.036,21.216l-13.76,10l5.252,16.184
	c2.944,9.08-0.088,15.22-2.164,18.076c-3.276,4.512-8.4,7.1-14.04,7.1c-4.244,0-8.416-1.476-12.416-4.388l-13.764-10l-13.764,10
	c-4,2.912-8.18,4.388-12.416,4.388C124.336,200.624,124.336,200.624,124.328,200.624z"/>
<path style="fill:#F5F5F5;" d="M148.048,104.384c1.36-4.188,3.584-4.188,4.944,0l6.376,19.624c1.36,4.188,6.076,7.608,10.468,7.608
	h20.64c4.4,0,5.084,2.112,1.532,4.704l-16.696,12.128c-3.568,2.584-5.36,8.124-4,12.312l6.376,19.624
	c1.36,4.188-0.444,5.492-4,2.912l-16.696-12.128c-3.564-2.584-9.392-2.584-12.944,0l-16.696,12.128c-3.564,2.584-5.36,1.276-4-2.912
	l6.376-19.624c1.36-4.188-0.44-9.732-4-12.312l-16.696-12.128c-3.564-2.584-2.876-4.704,1.524-4.704h20.64
	c4.404,0,9.116-3.42,10.476-7.608L148.048,104.384z"/>
<path style="fill:#263740;" d="M335.296,200.624c-5.64,0-10.756-2.584-14.032-7.1c-2.084-2.852-5.116-8.996-2.172-18.076
	l5.252-16.184l-13.752-10c-8.912-6.468-9.992-15.204-8.044-21.216c1.952-6.012,7.96-12.432,18.968-12.432h17.016l5.252-16.176
	c3.4-10.468,11.368-14.204,17.696-14.204c6.32,0,14.288,3.736,17.688,14.204l5.256,16.176h17.016c11,0,17.008,6.42,18.956,12.432
	c1.952,6.012,0.88,14.748-8.032,21.216l-13.76,10l5.252,16.184c2.944,9.08-0.088,15.22-2.164,18.076
	c-3.276,4.512-8.4,7.1-14.032,7.1c-4.244,0-8.42-1.476-12.428-4.388l-13.752-10l-13.764,10
	C343.72,199.148,339.54,200.624,335.296,200.624L335.296,200.624z"/>
<path style="fill:#F5F5F5;" d="M359.008,104.384c1.36-4.188,3.584-4.188,4.944,0l6.376,19.624c1.36,4.188,6.08,7.608,10.476,7.608
	h20.64c4.4,0,5.084,2.112,1.524,4.704l-16.696,12.128c-3.56,2.584-5.364,8.124-4,12.312l6.376,19.624
	c1.36,4.188-0.436,5.492-4,2.912l-16.696-12.128c-3.56-2.584-9.388-2.584-12.944,0l-16.696,12.128c-3.556,2.584-5.36,1.276-4-2.912
	l6.376-19.624c1.36-4.188-0.436-9.732-4-12.312l-16.696-12.128c-3.556-2.584-2.868-4.704,1.532-4.704h20.64
	c4.4,0,9.108-3.42,10.468-7.608L359.008,104.384z"/>
<g>
</g>
<g>
</g>
<g>
</g>
<g>
</g>
<g>
</g>
<g>
</g>
<g>
</g>
<g>
</g>
<g>
</g>
<g>
</g>
<g>
</g>
<g>
</g>
<g>
</g>
<g>
</g>
<g>
</g>
</svg>
