<?xml version="1.0" encoding="iso-8859-1"?>
<!-- Generator: Adobe Illustrator 19.1.0, SVG Export Plug-In . SVG Version: 6.00 Build 0)  -->
<svg version="1.1" id="Capa_1" xmlns="http://www.w3.org/2000/svg" xmlns:xlink="http://www.w3.org/1999/xlink" x="0px" y="0px"
	 viewBox="0 0 445.55 445.55" style="enable-background:new 0 0 445.55 445.55;" xml:space="preserve">
<g>
	<g>
		<path style="fill:#D4B783;" d="M39.237,256.786c-9.662,20.759-15.053,46.223-13.258,64.766c1.234,1.404,2.708,2.694,4.504,3.764
			c4.736,2.822,10.59,3.25,15.661,1.143c2.631-1.093,7.281-3.872,8.871-10.206c2.529-10.07,6.633-19.346,11.974-27.303
			C55.179,278.287,45.873,266.497,39.237,256.786z"/>
		<path style="fill:#D4B783;" d="M294.441,157.777c-23.417-20.699-52.142-31.744-83.428-31.744c-24.74,0-48.605,7.107-69.09,20.313
			c-1.375,1.112-2.732,2.249-4.066,3.421c-0.476,7.267-1.019,25.299,2.633,50.059c0.807,5.463-2.97,10.546-8.434,11.352
			c-5.462,0.802-10.546-2.97-11.351-8.434c-1.403-9.51-2.225-18.071-2.687-25.561c-16.496,1.7-32.729,8.144-40.574,14.622
			c-15.672,12.942-20.869,22.578-24.749,32.645c7.281,13.837,21.266,36.07,41.878,50.474c11.713,3.515,26.013,2.028,37.667-3.981
			c1.69-0.871,3.325-1.846,4.91-2.898c-3.809-10.671-7.105-21.462-9.83-32.253c-1.353-5.355,1.892-10.792,7.247-12.145
			c5.352-1.351,10.792,1.893,12.143,7.247c3.803,15.056,8.77,30.127,14.773,44.828c16.69,15.607,38.377,24.178,61.291,24.178
			c16.505,0,32.361-4.469,46.183-12.789c1.057-0.906,2.098-1.838,3.118-2.798C297.467,221.769,295.294,171.235,294.441,157.777z"/>
		<path style="fill:#D4B783;" d="M399.225,249.367c-1.19,0.479-2.465,0.732-3.752,0.732c-1.781,0-3.585-0.476-5.216-1.476
			c-4.709-2.886-6.186-9.042-3.301-13.751c3.083-5.029,5.562-9.639,7.441-13.391c-9.092-14.981-27.442-30.342-41.569-37.673
			c-7.946-4.124-16.452-6.792-25.174-7.947c-1.256,22.24-5.782,54.531-19.245,92.189c1.582,1.049,3.214,2.022,4.901,2.892
			c11.654,6.008,25.953,7.496,37.665,3.982c1.899-1.328,3.781-2.763,5.647-4.278c1.465-1.486,2.915-3.026,4.344-4.626
			c1.059-1.185,2.335-2.049,3.71-2.609c1.762-1.739,3.503-3.552,5.214-5.455c3.693-4.107,10.015-4.442,14.122-0.749
			c4.106,3.693,4.442,10.016,0.749,14.122c-3.591,3.993-7.305,7.689-11.113,11.082c7.768,9.209,13.628,20.872,16.885,33.842
			c1.59,6.333,6.24,9.113,8.871,10.206c4.718,1.961,10.116,1.723,14.658-0.592c1.943-3.965,2.604-8.107,2.807-10.954
			C418.188,296.415,410.842,270.309,399.225,249.367z"/>
	</g>
	<path d="M417.43,219.133c0.861-2.238,0.89-4.711,0.078-6.969c-8.266-23.02-24.792-41.869-46.532-53.077
		c-13.503-6.962-28.298-10.598-43.318-10.716c-0.185-2.668-0.371-4.251-0.417-4.616c-0.29-2.328-1.39-4.48-3.105-6.079
		c-27.615-25.73-63.612-39.9-101.361-39.9s-73.746,14.17-101.361,39.9c-1.716,1.599-2.815,3.751-3.105,6.079
		c-0.03,0.236-0.22,1.821-0.409,4.615c-15.022,0.116-29.82,3.754-43.325,10.716c-21.741,11.208-38.268,30.058-46.533,53.077
		c-0.812,2.258-0.783,4.73,0.078,6.969c-18.231,25.72-29.818,61.964-27.916,88.48c1.093,15.233,8.398,27.948,20.044,34.886
		c5.871,3.497,12.548,5.274,19.241,5.274c4.869,0,9.748-0.941,14.329-2.844c10.373-4.31,17.88-12.986,20.597-23.804
		c3.297-13.129,9.116-21.828,13.986-27.19c6.105,1.875,12.682,2.809,19.373,2.809c11.52,0,23.359-2.73,33.631-8.025
		c1.102-0.568,2.185-1.17,3.256-1.794c0.401,0.619,0.864,1.197,1.394,1.715c20.634,20.159,47.88,31.261,76.72,31.261
		s56.086-11.102,76.72-31.261c0.53-0.518,0.993-1.097,1.394-1.716c1.071,0.624,2.155,1.227,3.257,1.795
		c10.271,5.296,22.109,8.025,33.63,8.025c6.69,0,13.269-0.934,19.374-2.809c4.87,5.361,10.689,14.06,13.986,27.19
		c2.717,10.818,10.224,19.495,20.597,23.804c4.582,1.904,9.459,2.844,14.329,2.844c6.693-0.001,13.371-1.777,19.241-5.274
		c11.646-6.938,18.951-19.653,20.044-34.886C447.247,281.097,435.661,244.853,417.43,219.133z M20.153,306.183
		c-1.338-18.654,6.303-45.168,18.289-66.047c7.219,12.62,18.294,28.783,33.453,42.283c-1.735,2.057-3.368,4.243-4.905,6.532
		c-5.342,7.957-9.446,17.233-11.974,27.303c-1.59,6.333-6.24,9.113-8.871,10.206c-5.071,2.108-10.925,1.679-15.661-1.143
		c-1.797-1.07-3.271-2.36-4.504-3.764C21.622,316.592,20.436,310.129,20.153,306.183z M268.958,287.111
		c-13.823,8.32-29.678,12.789-46.183,12.789c-22.914,0-44.601-8.571-61.291-24.178c-6.004-14.702-10.971-29.772-14.773-44.828
		c-1.352-5.354-6.791-8.598-12.143-7.247c-5.355,1.353-8.6,6.79-7.247,12.145c2.725,10.79,6.021,21.582,9.83,32.253
		c-1.585,1.052-3.22,2.027-4.91,2.898c-11.654,6.009-25.954,7.496-37.667,3.981c-20.611-14.404-34.597-36.637-41.878-50.474
		c-1.977-3.757-3.464-6.899-4.45-9.092c6.915-16.619,19.401-30.197,35.494-38.493c10.566-5.448,22.129-8.322,33.87-8.483
		c0.08,2.728,0.216,5.682,0.409,8.802c0.462,7.49,1.284,16.051,2.687,25.561c0.806,5.464,5.89,9.236,11.351,8.434
		c5.464-0.806,9.24-5.889,8.434-11.352c-3.651-24.76-3.108-42.792-2.633-50.059c1.334-1.172,2.691-2.31,4.066-3.421
		c22.852-18.481,51.228-28.568,80.851-28.568c31.403,0,61.405,11.329,84.91,31.984c0.855,13.43,1.866,63.55-23.619,125.961
		C279.397,280.087,274.326,283.88,268.958,287.111z M425.397,306.183c-0.363,5.064-2.188,14.283-10.331,19.134
		c-0.329,0.196-0.664,0.378-1.003,0.55c-4.542,2.315-9.94,2.553-14.658,0.592c-2.631-1.093-7.281-3.872-8.871-10.206
		c-3.257-12.97-9.117-24.634-16.885-33.842c3.808-3.393,7.523-7.089,11.113-11.082c3.693-4.107,3.357-10.429-0.749-14.122
		c-4.107-3.693-10.429-3.358-14.122,0.749c-1.711,1.903-3.452,3.716-5.214,5.455c-2.636,2.603-5.325,5.017-8.054,7.234
		c-1.866,1.516-3.747,2.951-5.647,4.278c-11.712,3.514-26.011,2.026-37.665-3.982c-1.687-0.87-3.319-1.843-4.901-2.892
		c13.463-37.658,17.989-69.949,19.245-92.189c0.149-2.634,0.254-5.135,0.321-7.479c11.729,0.167,23.279,3.039,33.835,8.482
		c16.094,8.296,28.581,21.876,35.495,38.499c-0.711,1.587-1.683,3.672-2.908,6.118c-1.879,3.752-4.359,8.362-7.441,13.391
		c-2.886,4.709-1.408,10.866,3.301,13.751c1.631,1,3.435,1.476,5.216,1.476c1.287,0,2.562-0.253,3.752-0.732
		c1.92-0.773,3.62-2.143,4.784-4.044c1.097-1.79,2.125-3.531,3.086-5.21C419.089,260.995,426.736,287.522,425.397,306.183z"/>
</g>
<g>
</g>
<g>
</g>
<g>
</g>
<g>
</g>
<g>
</g>
<g>
</g>
<g>
</g>
<g>
</g>
<g>
</g>
<g>
</g>
<g>
</g>
<g>
</g>
<g>
</g>
<g>
</g>
<g>
</g>
</svg>
