<?xml version="1.0" encoding="iso-8859-1"?>
<!-- Generator: Adobe Illustrator 18.0.0, SVG Export Plug-In . SVG Version: 6.00 Build 0)  -->
<!DOCTYPE svg PUBLIC "-//W3C//DTD SVG 1.1//EN" "http://www.w3.org/Graphics/SVG/1.1/DTD/svg11.dtd">
<svg version="1.1" id="Capa_1" xmlns="http://www.w3.org/2000/svg" xmlns:xlink="http://www.w3.org/1999/xlink" x="0px" y="0px"
	 viewBox="0 0 363.8 363.8" style="enable-background:new 0 0 363.8 363.8;" xml:space="preserve">
<g>
	<path style="fill:#FDD44B;" d="M239.574,198.178v26.861h47.083c7.405,0,13.431-6.025,13.431-13.432
		c0-7.405-6.025-13.429-13.431-13.429H239.574z"/>
	<path style="fill:#FDD44B;" d="M286.657,156.275h-47.083v26.861h47.083c7.405,0,13.431-6.025,13.431-13.43
		C300.088,162.301,294.062,156.275,286.657,156.275z"/>
	<path style="fill:#FDD44B;" d="M180.049,168.816c0-8.117-6.604-14.72-14.721-14.72s-14.72,6.603-14.72,14.72v14.321h29.442V168.816
		z"/>
	<g>
		<path style="fill:#84BD93;" d="M347.626,284.486c0.114,0.159,0.21,0.33,0.309,0.5C347.836,284.816,347.74,284.645,347.626,284.486
			z"/>
		<path style="fill:#84BD93;" d="M348.185,285.448c0.085,0.182,0.151,0.373,0.218,0.565
			C348.336,285.821,348.27,285.63,348.185,285.448z"/>
		<path style="fill:#84BD93;" d="M348.559,286.514c0.05,0.199,0.082,0.405,0.111,0.611
			C348.641,286.918,348.609,286.714,348.559,286.514z"/>
		<path style="fill:#84BD93;" d="M347.281,284.068c-0.124-0.143-0.241-0.289-0.378-0.419
			C347.039,283.78,347.159,283.926,347.281,284.068z"/>
		<path style="fill:#84BD93;" d="M346.038,282.959c0.148,0.097,0.281,0.214,0.42,0.323
			C346.319,283.172,346.187,283.056,346.038,282.959z"/>
		<path style="fill:#84BD93;" d="M345.049,282.435c0.151,0.062,0.288,0.147,0.431,0.221
			C345.337,282.582,345.2,282.497,345.049,282.435z"/>
		<path style="fill:#84BD93;" d="M348.702,288.103H294.84H85.326H29.189c-3.288,0-5.964,2.942-5.964,6.23
			c0,0.17,0.012-1.23,0.026,0.77h319.539c3.288,0,5.964-2.941,5.964-6.23C348.753,288.701,348.716,288.103,348.702,288.103z"/>
		<path style="fill:#84BD93;" d="M343.958,282.102c0.135,0.027,0.259,0.079,0.39,0.115
			C344.217,282.181,344.093,282.129,343.958,282.102z"/>
	</g>
	<g>
		<path style="fill:#CE593F;" d="M130.973,71.997c0.462,0.279,0.909,0.58,1.337,0.906C131.881,72.577,131.435,72.276,130.973,71.997
			z"/>
		<path style="fill:#CE593F;" d="M125.726,70.088c0.446,0.071,0.887,0.16,1.319,0.271C126.613,70.249,126.173,70.159,125.726,70.088
			z"/>
		<path style="fill:#CE593F;" d="M127.488,70.474c1.149,0.332,2.241,0.797,3.256,1.385
			C129.728,71.272,128.638,70.805,127.488,70.474z"/>
		<path style="fill:#CE593F;" d="M135.054,75.623c-0.758-0.978-1.633-1.857-2.608-2.617
			C133.419,73.766,134.297,74.645,135.054,75.623z"/>
		<path style="fill:#CE593F;" d="M123.422,69.889c0.611,0,1.21,0.049,1.802,0.122C124.632,69.939,124.033,69.889,123.422,69.889z"/>
		<path style="fill:#CE593F;" d="M109.601,89.628c-0.265-0.725-0.481-1.473-0.629-2.245
			C109.119,88.156,109.336,88.903,109.601,89.628z"/>
		<path style="fill:#CE593F;" d="M135.055,75.624c0.384,0.497,0.738,1.019,1.057,1.564c-0.757-0.12-1.527-0.201-2.317-0.201
			c-8.117,0-14.72,6.604-14.72,14.721c0,2.708,0.748,5.239,2.029,7.421c-3.488-0.555-6.57-2.339-8.79-4.89
			c2.701,3.111,6.674,5.091,11.108,5.091c8.117,0,14.72-6.603,14.72-14.721C138.142,81.226,136.982,78.114,135.055,75.624z"/>
		<path style="fill:#CE593F;" d="M112.253,94.173c-0.514-0.598-0.974-1.243-1.387-1.919
			C111.279,92.931,111.739,93.574,112.253,94.173z"/>
		<path style="fill:#CE593F;" d="M110.719,92.015c-0.386-0.657-0.72-1.347-1.001-2.065
			C109.999,90.668,110.334,91.356,110.719,92.015z"/>
		<path style="fill:#CE593F;" d="M108.929,87.107c-0.14-0.813-0.228-1.644-0.228-2.496C108.701,85.463,108.79,86.294,108.929,87.107
			z"/>
	</g>
	<g>
		<path style="fill:#FDD44B;" d="M76.17,139.438c0,0.615,0.059,1.602,0.14,2.195c0.281,0.017,0.547,0.471,0.833,0.471h15.035v-16
			H89.6C82.195,126.103,76.17,132.032,76.17,139.438z"/>
	</g>
	<g>
		<path style="fill:#EF8829;" d="M109.223,196.543c0.442,0.569,0.921,1.106,1.44,1.605
			C110.144,197.65,109.665,197.111,109.223,196.543z"/>
		<path style="fill:#EF8829;" d="M106.125,187.542c0,0.754,0.075,1.49,0.185,2.214C106.2,189.032,106.125,188.297,106.125,187.542z"
			/>
		<path style="fill:#EF8829;" d="M106.89,192.194c-0.22-0.657-0.392-1.335-0.518-2.03
			C106.498,190.859,106.67,191.536,106.89,192.194z"/>
		<path style="fill:#EF8829;" d="M109.052,196.315c-0.433-0.58-0.834-1.185-1.179-1.826
			C108.218,195.131,108.62,195.735,109.052,196.315z"/>
		<path style="fill:#EF8829;" d="M107.866,194.474c-0.334-0.621-0.61-1.275-0.853-1.946
			C107.255,193.198,107.532,193.852,107.866,194.474z"/>
		<path style="fill:#EF8829;" d="M114.468,200.789c-1.365-0.659-2.611-1.521-3.703-2.548
			C111.856,199.27,113.103,200.129,114.468,200.789z"/>
	</g>
	<g>
		<path style="fill:#EF8829;" d="M203.19,241.602c-0.372-0.189-0.725-0.406-1.078-0.623
			C202.462,241.201,202.82,241.41,203.19,241.602z"/>
		<path style="fill:#EF8829;" d="M116.178,126.103v72.904c0,0.911,0.255,1.799,0.414,2.664c-0.744-0.216-1.382-0.494-2.074-0.819
			c1.9,0.895,3.857,1.41,6.092,1.41c8.117,0,14.567-6.603,14.567-14.72v-18.726c0-16.411,13.664-29.762,30.074-29.762
			c11.585,0,22.13,6.667,27.198,16.352c8.102,5.324,13.728,14.477,13.728,24.875v59.679c0,0.909-0.262,1.796-0.103,2.661
			c1.295,0.381,2.429,0.595,3.857,0.595c8.117,0,14.246-6.604,14.246-14.722V126.103H116.178z"/>
		<path style="fill:#EF8829;" d="M205.683,242.612c-0.665-0.195-1.304-0.451-1.927-0.733
			C204.376,242.166,205.017,242.414,205.683,242.612z"/>
	</g>
	<path style="fill:#FDD44B;" d="M286.657,239.103h-49.431c-4.526,11-15.11,18.177-27.413,18.177
		c-12.305,0-22.888-7.177-27.415-18.177H90.791c-7.405,0-13.43,6.094-13.43,13.499c0,7.406,6.025,13.501,13.43,13.501h195.866
		c7.405,0,13.431-6.095,13.431-13.501C300.088,245.197,294.062,239.103,286.657,239.103z"/>
	<path style="fill:#FDD44B;" d="M148.636,198.103c-4.29,10-15.126,19.126-27.791,19.126c-12.664,0-23.499-9.126-27.789-19.126
		h-2.264c-7.405,0-13.43,5.594-13.43,12.999c0,7.406,6.025,13.001,13.43,13.001h88.386v-26H148.636z"/>
	<g>
		<path style="fill:#FDD44B;" d="M93.425,156.103c-7.405,0-13.43,5.594-13.43,12.999c0,7.406,6.025,13.001,13.43,13.001h-1.247v-26
			H93.425z"/>
	</g>
	<g>
		<path style="fill:#FDD44B;" d="M286.657,124.103h-46.479v18h46.479c5.834,0,10.761-3.844,12.611-9.052
			C297.392,127.89,292.457,124.103,286.657,124.103z"/>
		<path style="fill:#FDD44B;" d="M299.54,131.39c0.103-0.369,0.226-0.728,0.297-1.109C299.764,130.66,299.644,131.021,299.54,131.39
			z"/>
	</g>
	<g>
		<path style="fill:#CE593F;" d="M175.457,71.997c0.462,0.279,0.909,0.58,1.336,0.906C176.365,72.577,175.919,72.276,175.457,71.997
			z"/>
		<path style="fill:#CE593F;" d="M171.972,70.474c1.149,0.332,2.241,0.797,3.256,1.385
			C174.212,71.272,173.122,70.805,171.972,70.474z"/>
		<path style="fill:#CE593F;" d="M170.21,70.088c0.446,0.071,0.887,0.16,1.319,0.271C171.096,70.249,170.657,70.159,170.21,70.088z"
			/>
		<path style="fill:#CE593F;" d="M167.905,69.889c0.611,0,1.21,0.049,1.802,0.122C169.116,69.939,168.517,69.889,167.905,69.889z"/>
		<path style="fill:#CE593F;" d="M179.538,75.623c-0.758-0.978-1.633-1.857-2.608-2.617
			C177.903,73.766,178.781,74.645,179.538,75.623z"/>
		<path style="fill:#CE593F;" d="M155.204,92.015c-0.386-0.657-0.72-1.347-1.001-2.065
			C154.483,90.668,154.818,91.356,155.204,92.015z"/>
		<path style="fill:#CE593F;" d="M179.539,75.624c0.384,0.497,0.738,1.019,1.057,1.564c-0.757-0.12-1.527-0.201-2.317-0.201
			c-8.117,0-14.72,6.604-14.72,14.721c0,2.708,0.748,5.239,2.029,7.421c-3.488-0.555-6.57-2.339-8.79-4.89
			c2.701,3.111,6.674,5.091,11.108,5.091c8.117,0,14.721-6.603,14.721-14.721C182.626,81.226,181.466,78.114,179.539,75.624z"/>
		<path style="fill:#CE593F;" d="M156.737,94.173c-0.514-0.598-0.974-1.243-1.387-1.919
			C155.763,92.931,156.223,93.574,156.737,94.173z"/>
		<path style="fill:#CE593F;" d="M154.084,89.628c-0.264-0.725-0.481-1.473-0.629-2.245
			C153.604,88.156,153.82,88.903,154.084,89.628z"/>
		<path style="fill:#CE593F;" d="M153.413,87.107c-0.14-0.813-0.228-1.644-0.228-2.496
			C153.185,85.463,153.274,86.294,153.413,87.107z"/>
	</g>
	<path style="fill:#3F2D20;" d="M342.795,266.942h-31.042c2.151-4.003,3.376-8.577,3.376-13.432c0-8.279-3.552-15.744-9.212-20.95
		c5.66-5.208,9.212-12.673,9.212-20.953c0-8.279-3.552-15.744-9.212-20.95c5.66-5.208,9.212-12.673,9.212-20.951
		c0-8.279-3.552-15.744-9.212-20.952c5.66-5.208,9.212-12.673,9.212-20.951c0-15.7-12.772-28.472-28.472-28.472h-92.901
		c2.483-4.344,3.911-9.368,3.911-14.72c0-16.412-13.351-29.763-29.762-29.763c-8.839,0-16.787,3.878-22.242,10.017
		c-5.456-6.139-13.403-10.017-22.242-10.017c-16.411,0-29.762,13.351-29.762,29.763c0,5.353,1.428,10.376,3.911,14.72H77.142
		c-15.698,0-28.471,12.773-28.471,28.472c0,8.279,3.552,15.744,9.212,20.951c-5.66,5.208-9.212,12.673-9.212,20.952
		c0,8.279,3.552,15.744,9.211,20.951c-5.659,5.207-9.211,12.672-9.211,20.95c0,8.28,3.552,15.745,9.212,20.953
		c-5.66,5.207-9.212,12.672-9.212,20.95c0,4.855,1.224,9.429,3.376,13.432H21.005C9.422,266.942,0,276.364,0,287.947
		s9.422,21.005,21.005,21.005h321.79c11.583,0,21.005-9.422,21.005-21.005S354.378,266.942,342.795,266.942z M342.795,293.911
		H21.005c-3.288,0-5.964-2.675-5.964-5.964s2.675-5.963,5.964-5.963h56.137h209.515h56.138c3.288,0,5.964,2.675,5.964,5.963
		S346.084,293.911,342.795,293.911z M77.142,114.373h13.941v26.861H77.142c-7.405,0-13.429-6.025-13.429-13.431
		C63.713,120.398,69.737,114.373,77.142,114.373z M123.422,69.89c8.117,0,14.72,6.604,14.72,14.721s-6.603,14.72-14.72,14.72
		c-8.117,0-14.721-6.603-14.721-14.72S115.304,69.89,123.422,69.89z M167.905,69.89c8.117,0,14.72,6.604,14.72,14.721
		s-6.603,14.72-14.72,14.72c-8.117,0-14.72-6.603-14.72-14.72S159.788,69.89,167.905,69.89z M300.088,127.803
		c0,7.406-6.025,13.431-13.431,13.431h-47.083v-26.861h47.083C294.062,114.373,300.088,120.398,300.088,127.803z M286.657,266.942
		H77.142c-7.405,0-13.429-6.026-13.429-13.432c0-7.405,6.024-13.429,13.429-13.429h105.255c4.527,10.672,15.11,18.177,27.415,18.177
		c12.303,0,22.887-7.505,27.413-18.177h49.431c7.405,0,13.431,6.024,13.431,13.429C300.088,260.917,294.062,266.942,286.657,266.942
		z M106.125,114.373h118.408v114.122c0,8.117-6.603,14.721-14.72,14.721c-8.117,0-14.721-6.604-14.721-14.721v-59.679
		c0-16.411-13.351-29.762-29.763-29.762c-16.411,0-29.762,13.351-29.762,29.762v18.726c0,8.117-6.604,14.72-14.721,14.72
		c-8.117,0-14.72-6.603-14.72-14.72V114.373z M150.608,168.816c0-8.117,6.603-14.72,14.72-14.72s14.721,6.603,14.721,14.72v14.321
		h-29.442V168.816z M300.088,211.608c0,7.406-6.025,13.432-13.431,13.432h-47.083v-26.861h47.083
		C294.062,198.178,300.088,204.203,300.088,211.608z M286.657,183.137h-47.083v-26.861h47.083c7.405,0,13.431,6.025,13.431,13.431
		C300.088,177.112,294.062,183.137,286.657,183.137z M77.142,156.275h13.941v26.861H77.142c-7.405,0-13.429-6.025-13.429-13.43
		C63.713,162.301,69.737,156.275,77.142,156.275z M77.142,198.178h15.913c4.29,11.171,15.126,19.126,27.789,19.126
		c12.665,0,23.5-7.954,27.791-19.126h31.414v26.861H77.142c-7.405,0-13.429-6.025-13.429-13.432
		C63.713,204.203,69.737,198.178,77.142,198.178z"/>
</g>
<g>
</g>
<g>
</g>
<g>
</g>
<g>
</g>
<g>
</g>
<g>
</g>
<g>
</g>
<g>
</g>
<g>
</g>
<g>
</g>
<g>
</g>
<g>
</g>
<g>
</g>
<g>
</g>
<g>
</g>
</svg>
