<?xml version="1.0" encoding="iso-8859-1"?>
<!-- Generator: Adobe Illustrator 19.0.0, SVG Export Plug-In . SVG Version: 6.00 Build 0)  -->
<svg version="1.1" id="Layer_1" xmlns="http://www.w3.org/2000/svg" xmlns:xlink="http://www.w3.org/1999/xlink" x="0px" y="0px"
	 viewBox="0 0 498.4 498.4" style="enable-background:new 0 0 498.4 498.4;" xml:space="preserve">
<polygon style="fill:#4AD324;" points="365.2,215.2 338.8,212 277.2,290.4 273.2,202.4 223.6,202.4 219.6,290.4 158,212.8 
	131.6,215.2 215.6,364.8 209.2,498.4 287.6,498.4 281.2,364.8 "/>
<polygon style="fill:#34B515;" points="365.2,215.2 338.8,212 277.2,290.4 273.2,202.4 223.6,202.4 233.2,311.2 158,212.8 
	131.6,215.2 235.6,352.8 209.2,498.4 287.6,498.4 281.2,364.8 "/>
<polyline style="fill:#239B02;" points="287.6,498.4 281.2,366.4 365.2,215.2 338.8,212 277.2,290.4 273.2,202.4 224.4,202.4 "/>
<path style="fill:#1F7C00;" d="M435.6,161.6c1.6-4,2.4-8,2.4-12.8c0-16-10.4-28.8-24.8-32.8c8.8-4.8,14.4-14.4,14.4-24.8
	c0-16-12.8-28.8-28.8-28.8c-8,0-15.2,3.2-20,8c-0.8-16-13.6-28-29.6-28c-4.8,0-8.8,0.8-12.8,3.2C330.8,19.2,307.6,0,280.4,0
	c-12,0-23.2,4-32,9.6c-9.6-6.4-20-9.6-32-9.6c-28,0-51.2,20-56,45.6c-4-1.6-8-3.2-12.8-3.2c-16,0-28,12-28.8,28c-5.6-4.8-12-8-20-8
	c-16,0-28.8,12.8-28.8,28.8c0,10.4,5.6,20,14.4,24.8c-14.4,4-24.8,16.8-24.8,32.8c0,4.8,0.8,8.8,2.4,12.8c-9.6,4.8-16,14.4-16,25.6
	c0,16,12.8,28.8,28.8,28.8c4,0,8-0.8,11.2-2.4c8,16,24.8,26.4,44,26.4c15.2,0,28.8-7.2,38.4-18.4c4,2.4,8.8,3.2,13.6,3.2
	c8.8,0,16-4,21.6-9.6c6.4,4.8,14.4,8,23.2,8c8,0,16-2.4,22.4-7.2c6.4,4.8,13.6,7.2,22.4,7.2s16.8-3.2,23.2-8
	c5.6,5.6,12.8,9.6,21.6,9.6c4.8,0,9.6-1.6,13.6-3.2c8.8,11.2,22.4,18.4,38.4,18.4c19.2,0,35.2-10.4,44-26.4
	c3.2,1.6,7.2,2.4,11.2,2.4c16,0,28.8-12.8,28.8-28.8C451.6,176,445.2,166.4,435.6,161.6z"/>
<path style="fill:#1A6000;" d="M435.6,161.6c1.6-4,2.4-8,2.4-12.8c0-16-10.4-28.8-24.8-32.8c8.8-4.8,14.4-14.4,14.4-24.8
	c0-16-12.8-28.8-28.8-28.8c-8,0-15.2,3.2-20,8c-0.8-16-13.6-28-29.6-28c-4.8,0-8.8,0.8-12.8,3.2C330.8,19.2,307.6,0,280.4,0
	c-12,0-24,4-32,9.6v207.2c8,4.8,13.6,7.2,22.4,7.2s16.8-3.2,23.2-8c5.6,5.6,12.8,9.6,21.6,9.6c4.8,0,9.6-1.6,13.6-3.2
	c8.8,11.2,22.4,18.4,38.4,18.4c19.2,0,35.2-10.4,44-26.4c3.2,1.6,7.2,2.4,11.2,2.4c16,0,28.8-12.8,28.8-28.8
	C451.6,176,445.2,166.4,435.6,161.6z"/>
<g>
	
		<ellipse transform="matrix(0.7073 -0.707 0.707 0.7073 33.747 146.8339)" style="fill:#3B9B13;" cx="194.171" cy="32.668" rx="25.602" ry="12.801"/>
	
		<ellipse transform="matrix(0.7073 -0.707 0.707 0.7073 12.011 173.4789)" style="fill:#3B9B13;" cx="215.476" cy="72.237" rx="25.602" ry="12.801"/>
	
		<ellipse transform="matrix(0.7073 -0.707 0.707 0.7073 -48.5448 176.7719)" style="fill:#3B9B13;" cx="189.174" cy="147.002" rx="25.602" ry="12.801"/>
	
		<ellipse transform="matrix(0.7069 -0.7073 0.7073 0.7069 -22.7029 134.1542)" style="fill:#3B9B13;" cx="150.522" cy="94.471" rx="19.2" ry="9.6"/>
	
		<ellipse transform="matrix(0.7066 -0.7076 0.7076 0.7066 -66.9407 134.6448)" style="fill:#3B9B13;" cx="128.898" cy="148.046" rx="14.4" ry="7.2"/>
	
		<ellipse transform="matrix(0.7068 -0.7075 0.7075 0.7068 0.3969 115.4274)" style="fill:#3B9B13;" cx="139.434" cy="57.235" rx="11.201" ry="5.6"/>
	
		<ellipse transform="matrix(0.7068 -0.7075 0.7075 0.7068 -108.7878 97.8111)" style="fill:#3B9B13;" cx="63.592" cy="180.132" rx="11.201" ry="5.6"/>
	
		<ellipse transform="matrix(0.7069 -0.7073 0.7073 0.7069 -98.4484 134.5218)" style="fill:#3B9B13;" cx="113.093" cy="186.051" rx="19.2" ry="9.6"/>
	
		<ellipse transform="matrix(0.7069 -0.7074 0.7074 0.7069 -32.7549 87.6923)" style="fill:#3B9B13;" cx="89.424" cy="83.365" rx="15.201" ry="8"/>
	
		<ellipse transform="matrix(0.7069 -0.7074 0.7074 0.7069 -73.8423 98.9408)" style="fill:#3B9B13;" cx="82.451" cy="138.561" rx="15.201" ry="8"/>
</g>
<g>
</g>
<g>
</g>
<g>
</g>
<g>
</g>
<g>
</g>
<g>
</g>
<g>
</g>
<g>
</g>
<g>
</g>
<g>
</g>
<g>
</g>
<g>
</g>
<g>
</g>
<g>
</g>
<g>
</g>
</svg>
