<?xml version="1.0" encoding="iso-8859-1"?>
<!-- Generator: Adobe Illustrator 19.0.0, SVG Export Plug-In . SVG Version: 6.00 Build 0)  -->
<svg version="1.1" id="Layer_1" xmlns="http://www.w3.org/2000/svg" xmlns:xlink="http://www.w3.org/1999/xlink" x="0px" y="0px"
	 viewBox="0 0 489.456 489.456" style="enable-background:new 0 0 489.456 489.456;" xml:space="preserve">
<g id="XMLID_1079_">
	<g id="XMLID_1060_">
		<polygon style="fill:#36A9E1;" points="295.767,173.262 295.767,143.472 333.005,106.234 355.348,106.73 355.348,173.262 		"/>
	</g>
	<g id="XMLID_1064_">
		<polygon style="fill:#36A9E1;" points="467.061,203.053 429.823,173.262 12.759,173.262 49.996,210.5 102.129,247.738 
			280.872,247.738 377.69,277.529 362.795,247.738 407.481,247.738 444.718,270.081 437.271,314.767 474.509,284.976 
			481.956,247.738 		"/>
	</g>
	<g id="XMLID_1061_">
		<polygon style="fill:#86CBED;" points="474.509,210.5 42.549,210.5 117.025,247.738 280.872,247.738 377.69,277.529 
			362.795,247.738 422.376,247.738 444.718,277.529 437.271,314.767 474.509,284.976 481.956,240.291 		"/>
	</g>
	<g id="XMLID_1059_">
		<polygon style="fill:#36A9E1;" points="303.214,292.424 400.033,322.214 318.109,374.347 333.005,322.214 		"/>
	</g>
	<g id="XMLID_307_">
		<rect x="131.92" y="188.105" style="fill:#FFFFFF;" width="14.895" height="15"/>
	</g>
	<g id="XMLID_310_">
		<path style="fill:#1D1D1B;" d="M288.267,158.462c-0.012-0.976-0.103-24.089,16.969-41.315
			c11.857-11.963,28.725-18.004,50.138-17.916l7.474,0.026v55.138h-15v-39.884c-13.572,1.109-24.261,5.493-31.839,13.075
			c-12.666,12.67-12.743,30.54-12.743,30.719L288.267,158.462z"/>
	</g>
	<path style="fill:#1D1D1B;" d="M489.456,247.739c0-45.202-36.774-81.976-81.976-81.976H0l6.205,11.148
		c0.441,0.793,11.049,19.642,31.701,38.733c27.565,25.483,60.043,39.174,94.014,39.595h147.824l113.868,35.036l-39.2-68.6
		l-13.023,7.442l20.381,35.665L282,240.238h-30.866v-14.843h-15v14.843h-7.343v-14.843h-15v14.843h-7.343v-14.843h-15v14.843
		h-59.436c-30.388-0.377-58.506-12.249-83.575-35.287c-9.524-8.753-16.79-17.559-21.682-24.189H407.48
		c36.931,0,66.976,30.045,66.976,66.976c0,20.923-9.649,39.629-24.725,51.92c1.604-4.602,2.487-9.54,2.487-14.682
		c0-24.668-20.069-44.738-44.738-44.738h-29.79v15h29.79c16.398,0,29.738,13.34,29.738,29.738c0,15.885-12.519,28.901-28.21,29.699
		c-0.188,0.004-0.375,0.012-0.563,0.014l-131.001-37.428l47.136,47.135l-18.809,65.83L409.6,329.66
		C453.823,328.529,489.456,292.229,489.456,247.739z M330.447,358.468l10.982-38.437l-12.445-12.445l59.53,17.009L330.447,358.468z"
		/>
</g>
<g>
</g>
<g>
</g>
<g>
</g>
<g>
</g>
<g>
</g>
<g>
</g>
<g>
</g>
<g>
</g>
<g>
</g>
<g>
</g>
<g>
</g>
<g>
</g>
<g>
</g>
<g>
</g>
<g>
</g>
</svg>
