<?xml version="1.0" encoding="iso-8859-1"?>
<!-- Generator: Adobe Illustrator 19.0.0, SVG Export Plug-In . SVG Version: 6.00 Build 0)  -->
<svg version="1.1" id="Layer_1" xmlns="http://www.w3.org/2000/svg" xmlns:xlink="http://www.w3.org/1999/xlink" x="0px" y="0px"
	 viewBox="0 0 512 512" style="enable-background:new 0 0 512 512;" xml:space="preserve">
<path style="fill:#F4661E;" d="M412.735,303.02v0.317c-1.674-0.214-3.449-0.317-5.224-0.317H219.429v-36.571h161.959
	C381.388,266.449,412.735,266.449,412.735,303.02z"/>
<path style="fill:#FFD248;" d="M444.5,313.051c21.633,12.745,36.153,36.153,36.153,63.112v10.449c0,18.286-6.684,35-17.969,47.755
	c-13.479-5.439-26.234-11.184-53.082-11.184c-51.307,0-51.307,20.898-102.51,20.898c-51.194,0-51.194-20.898-102.291-20.898
	c-51.199,0-51.199,20.898-102.403,20.898c-7.628,0-14.102-0.418-19.744-1.255c-9.822-12.224-19.96-25.908-19.96-56.214v-10.449
	c0-30.827,14.837-57.153,41.796-67.918v-89.337c-1.775,0.214-3.449,0.52-5.224,0.52c-26.02,0-47.02-21-47.02-47.02h52.245v-47.02
	c0-31.765,25.704-57.469,57.469-57.469s57.469,25.704,57.469,57.469v141.061v36.571H407.51c1.775,0,3.551,0.102,5.224,0.317
	C424.336,303.959,435.092,307.51,444.5,313.051z"/>
<g>
	<path style="fill:#231F20;" d="M146.286,120.163c-8.642,0-15.673,7.031-15.673,15.673s7.031,15.673,15.673,15.673
		s15.673-7.031,15.673-15.673S154.928,120.163,146.286,120.163z"/>
	<path style="fill:#231F20;" d="M479.282,429.339c7.688-12.76,11.82-27.508,11.82-42.727v-10.449
		c0-25.446-11.172-48.744-30.419-64.517l12.133-12.133l10.897,10.897l14.778-14.778L461.92,259.06l-14.778,14.778l10.897,10.897
		l-15.501,15.501c-6.427-2.989-13.1-5.091-19.964-6.281c-1.592-11.436-6.735-24.078-20.248-31.96
		c-9.989-5.827-19.848-5.996-20.939-5.996h-151.51V125.388c0-37.45-30.468-67.918-67.918-67.918s-67.918,30.468-67.918,67.918
		v36.571H52.245c-5.771,0-10.449,4.678-10.449,10.449c0,29.929,22.994,54.587,52.245,57.233v71.897
		c-12.2,6.291-22.316,15.781-29.515,27.76c-8.034,13.371-12.281,29.576-12.281,46.865v10.449c0,16.761,2.827,29.071,7.179,39.077
		c-1.439-0.572-2.87-1.154-4.314-1.743C41.595,418.435,27.62,412.735,0,412.735v20.898c23.522,0,35.031,4.695,47.218,9.664
		c9.447,3.854,19.215,7.837,33.958,9.873c6.194,0.915,13.136,1.36,21.222,1.36c27.653,0,41.633-5.706,55.153-11.224
		c12.189-4.975,23.701-9.674,47.25-9.674c23.484,0,34.974,4.695,47.138,9.665c13.515,5.522,27.49,11.233,55.152,11.233
		c27.638,0,41.62-5.701,55.142-11.214c12.214-4.98,23.749-9.684,47.367-9.684c23.473,0,34.972,4.665,47.146,9.604l1.945,0.788
		c13.398,5.537,27.555,10.506,53.309,10.506v-20.898C497.655,433.633,487.746,431.906,479.282,429.339z M381.388,276.898
		c0.05,0,5.329,0.185,10.408,3.148c4.605,2.685,7.655,6.828,9.227,12.525H229.878v-15.673H381.388z M354.345,423.965
		c-12.194,4.972-23.712,9.667-47.252,9.667c-23.556,0-35.065-4.702-47.247-9.681c-13.498-5.514-27.456-11.217-55.044-11.217
		c-27.649,0-41.628,5.705-55.147,11.223c-12.19,4.976-23.704,9.675-47.257,9.675c-5.323,0-10.013-0.212-14.218-0.644
		c-7.515-9.625-15.037-21.577-15.037-46.377v-10.449c0-26.9,12.47-48.224,33.461-57.469h55.356v-20.898h-47.02v-78.888
		c0-2.989-1.28-5.836-3.517-7.818c-2.237-1.983-5.216-2.918-8.184-2.555c-0.492,0.059-3.343,0.444-3.973,0.444
		c-16.536,0-30.543-11.033-35.051-26.122h40.276c5.771,0,10.449-4.678,10.449-10.449v-47.02c0-25.927,21.093-47.02,47.02-47.02
		s47.02,21.093,47.02,47.02V303.02c0,5.77,4.678,10.449,10.449,10.449H407.51c1.366,0,4.408,0.287,4.664,0.301
		c9.459,0.508,18.55,3.295,27.021,8.284c19.416,11.438,31.008,31.667,31.008,54.109v10.449c0,12.691-3.839,24.921-10.901,35.134
		c-12.042-4.723-25.721-9.011-49.701-9.011C381.887,412.735,367.886,418.444,354.345,423.965z"/>
</g>
<g>
</g>
<g>
</g>
<g>
</g>
<g>
</g>
<g>
</g>
<g>
</g>
<g>
</g>
<g>
</g>
<g>
</g>
<g>
</g>
<g>
</g>
<g>
</g>
<g>
</g>
<g>
</g>
<g>
</g>
</svg>
