<?xml version="1.0" encoding="iso-8859-1"?>
<!-- Generator: Adobe Illustrator 19.0.0, SVG Export Plug-In . SVG Version: 6.00 Build 0)  -->
<svg version="1.1" id="Layer_1" xmlns="http://www.w3.org/2000/svg" xmlns:xlink="http://www.w3.org/1999/xlink" x="0px" y="0px"
	 viewBox="0 0 511.999 511.999" style="enable-background:new 0 0 511.999 511.999;" xml:space="preserve">
<path style="fill:#E6DCD2;" d="M270.253,222.74c0,0,96.912-139.847,199.526-139.847c16.744,0,34.205,10.769,34.205,25.653
	c0,25.653-16.849,138.202-59.858,145.37c-18.186,3.03-40.681-0.401-63.654-4.55l0.073,0.024
	c16.568,6.146,89.234,30.18,89.234,98.589s-58.927,91.523-102.614,76.96C315.858,407.837,256,279.57,256,279.57v-42.756
	L270.253,222.74z"/>
<path style="fill:#BAA18F;" d="M469.779,82.893c15.807,0,32.063,9.65,33.854,23.246c-57.497,4.512-146.815,42.034-230.53,130.674
	l-2.01-4.88l-0.84-9.195C270.253,222.74,367.165,82.893,469.779,82.893z"/>
<path style="fill:#FFC864;" d="M352.648,417.447C305.218,385.033,256,279.57,256,279.57v-17.102c0,0,119.716-34.205,136.818,102.614
	C397.656,403.785,380.632,415.925,352.648,417.447z"/>
<path style="fill:#695046;" d="M401.37,382.183c33.136,6.769,36.34-42.683,25.653-68.409c-9.62-23.16-2.494-30.998,6.753-36.469
	c19.239,15.317,36.002,37.845,36.002,70.673c0,68.409-58.927,91.523-102.614,76.96c-8.538-2.846-17.312-8.816-26.009-16.716
	C340.443,390.379,343.244,370.308,401.37,382.183z"/>
<g>
	
		<ellipse transform="matrix(0.7071 0.7071 -0.7071 0.7071 396.5174 -143.0311)" style="fill:#FF6E3C;" cx="370.913" cy="407.123" rx="16.389" ry="11.045"/>
	
		<ellipse transform="matrix(0.7071 0.7071 -0.7071 0.7071 404.4137 -191.4859)" style="fill:#FF6E3C;" cx="433.351" cy="392.428" rx="14.024" ry="9.449"/>
	
		<ellipse transform="matrix(0.7071 0.7071 -0.7071 0.7071 394.2299 -207.9303)" style="fill:#FF6E3C;" cx="448.109" cy="371.913" rx="12.414" ry="8.366"/>
	
		<ellipse transform="matrix(0.7071 0.7071 -0.7071 0.7071 378.1653 -218.4972)" style="fill:#FF6E3C;" cx="452.832" cy="347.237" rx="11.148" ry="7.514"/>
	
		<ellipse transform="matrix(0.7071 0.7071 -0.7071 0.7071 360.0459 -223.9312)" style="fill:#FF6E3C;" cx="450.332" cy="322.648" rx="10.307" ry="6.947"/>
	
		<ellipse transform="matrix(0.7071 0.7071 -0.7071 0.7071 341.2968 -223.8341)" style="fill:#FF6E3C;" cx="440.84" cy="300.065" rx="8.238" ry="5.552"/>
	
		<ellipse transform="matrix(0.7071 0.7071 -0.7071 0.7071 403.9085 -168.2187)" style="fill:#FF6E3C;" cx="405.012" cy="403.451" rx="18.928" ry="12.755"/>
</g>
<path style="fill:#E6DCD2;" d="M241.747,222.74c0,0-96.912-139.847-199.526-139.847c-16.744,0-34.205,10.769-34.205,25.653
	c0,25.653,16.849,138.202,59.858,145.37c18.186,3.03,40.681-0.401,63.654-4.55l-0.073,0.024
	c-16.568,6.146-89.233,30.18-89.233,98.589s58.927,91.523,102.614,76.96c51.307-17.102,111.165-145.37,111.165-145.37v-42.756
	L241.747,222.74z"/>
<path style="fill:#BAA18F;" d="M42.221,82.893c-15.807,0-32.063,9.65-33.854,23.246c57.497,4.512,146.815,42.034,230.53,130.674
	l2.01-4.88l0.84-9.195C241.747,222.74,144.835,82.893,42.221,82.893z"/>
<path style="fill:#FFC864;" d="M159.351,417.447C206.782,385.032,256,279.57,256,279.57v-17.102c0,0-119.716-34.205-136.818,102.614
	C114.344,403.785,131.368,415.925,159.351,417.447z"/>
<path style="fill:#695046;" d="M110.63,382.183c-33.136,6.769-36.34-42.683-25.653-68.409c9.62-23.16,2.494-30.998-6.753-36.469
	c-19.239,15.317-36.002,37.845-36.002,70.673c0,68.409,58.927,91.523,102.614,76.96c8.538-2.846,17.312-8.816,26.009-16.716
	C171.557,390.379,168.756,370.308,110.63,382.183z"/>
<path style="fill:#CFC1B4;" d="M256,288.121L256,288.121c-9.446,0-17.102-7.656-17.102-17.102v-34.205
	c0-9.446,7.656-17.102,17.102-17.102l0,0c9.446,0,17.102,7.656,17.102,17.102v34.205C273.102,280.464,265.446,288.121,256,288.121z"
	/>
<g>
	
		<ellipse transform="matrix(0.7071 -0.7071 0.7071 0.7071 -246.5482 219.0158)" style="fill:#FF6E3C;" cx="141.101" cy="407.118" rx="16.389" ry="11.045"/>
	
		<ellipse transform="matrix(0.7071 -0.7071 0.7071 0.7071 -254.4423 170.5581)" style="fill:#FF6E3C;" cx="78.661" cy="392.418" rx="14.024" ry="9.449"/>
	
		<ellipse transform="matrix(0.7071 -0.7071 0.7071 0.7071 -244.2756 154.1074)" style="fill:#FF6E3C;" cx="63.886" cy="371.92" rx="12.414" ry="8.366"/>
	
		<ellipse transform="matrix(0.7071 -0.7071 0.7071 0.7071 -228.208 143.5451)" style="fill:#FF6E3C;" cx="59.17" cy="347.244" rx="11.148" ry="7.514"/>
	
		<ellipse transform="matrix(0.7071 -0.7071 0.7071 0.7071 -210.089 138.1064)" style="fill:#FF6E3C;" cx="61.665" cy="322.653" rx="10.307" ry="6.947"/>
	
		<ellipse transform="matrix(0.7071 -0.7071 0.7071 0.7071 -191.3411 138.2078)" style="fill:#FF6E3C;" cx="71.161" cy="300.073" rx="8.238" ry="5.552"/>
	
		<ellipse transform="matrix(0.7071 -0.7071 0.7071 0.7071 -253.9499 193.8207)" style="fill:#FF6E3C;" cx="106.987" cy="403.455" rx="18.928" ry="12.755"/>
</g>
<path d="M445.443,261.824c15.434-2.572,28.785-15.393,39.885-38.201c0.01-0.018,0.017-0.037,0.027-0.056
	c4.553-9.366,8.73-20.402,12.511-33.119c9.641-32.417,14.133-68.036,14.133-81.902c0-20.14-21.831-33.67-42.221-33.67
	c-44.669,0-93.032,24.261-143.745,72.109c-20.529,19.369-37.06,38.564-47.942,52.144c5.725-18.172,16.519-44.777,35.475-68.473
	c2.765-3.457,2.205-8.502-1.252-11.268c-3.457-2.766-8.503-2.205-11.268,1.252c-28.194,35.244-39.506,75.517-43.056,91.14
	c-0.657-0.051-1.32-0.087-1.991-0.087c-0.671,0-1.333,0.034-1.991,0.087c-3.55-15.622-14.862-55.897-43.056-91.14
	c-2.766-3.458-7.813-4.019-11.268-1.252c-3.457,2.765-4.018,7.81-1.252,11.268c18.892,23.615,29.696,50.232,35.441,68.431
	c-10.882-13.578-27.4-32.752-47.908-52.101C135.254,99.137,86.89,74.877,42.221,74.877C21.831,74.877,0,88.407,0,108.547
	c0,13.866,4.491,49.484,14.133,81.902c13.006,43.732,30.644,67.745,52.424,71.375c5.272,0.879,10.843,1.256,16.634,1.256
	c0.323,0,0.652-0.01,0.977-0.012c-3.579,2.331-7.161,4.87-10.663,7.643c-26.078,20.638-39.3,46.636-39.3,77.268
	c0,31.432,12.106,57.468,34.088,73.312c14.426,10.397,32.409,15.831,50.628,15.831c9.579,0,19.225-1.503,28.45-4.578
	c43.26-14.42,84.657-92.886,100.613-126.323v67.41c0,4.427,3.589,8.017,8.017,8.017c4.427,0,8.017-3.589,8.017-8.017v-67.41
	c15.955,33.437,57.353,111.902,100.613,126.323c9.226,3.075,18.868,4.578,28.45,4.578c18.217,0,36.204-5.435,50.628-15.831
	c21.982-15.844,34.088-41.88,34.088-73.312c0-30.632-13.222-56.63-39.3-77.269c-3.503-2.773-7.084-5.311-10.663-7.643
	c0.325,0.002,0.653,0.012,0.977,0.012C434.598,263.08,440.173,262.702,445.443,261.824z M442.807,246.008
	c-16.883,2.812-38.896-0.545-60.932-4.521c-0.05-0.009-5.932-1.081-8.812-1.611c-22.703-4.184-45.842-8.445-65.925-7.197
	c9.619-8.235,19.088-15.374,28.331-21.572c0.027-0.003,0.053-0.002,0.08-0.006c55.606-6.9,110.368,7.04,131.218,13.309
	C459.319,237.174,451.176,244.614,442.807,246.008z M281.119,271.018v-1.014c56.199-2.627,69.854,17.625,86.946,42.995
	c2.233,3.315,4.522,6.712,6.961,10.128c-24.824-6.589-65.854-20.756-94.353-47.413C280.962,274.192,281.119,272.624,281.119,271.018
	z M398.972,149.697c42.129-24.91,80.871-31.105,96.598-32.634c-0.808,10.375-2.872,25.477-6.288,41.77
	c-10.727-2.342-32.242-5.455-60.715-1.579c-6.614,0.901-13.86,2.237-21.622,4.145C405.365,158.352,402.761,154.023,398.972,149.697z
	 M429.784,173.272c26.389-3.728,46.385-0.829,55.866,1.197c-0.978,3.814-2.027,7.631-3.15,11.408
	c-2.648,8.901-5.493,16.896-8.499,23.941c-16.356-5.152-58.822-16.812-107.526-16.652
	C390.856,181.271,412.599,175.7,429.784,173.272z M493.311,101.129c-18.476,1.797-61.214,9.005-107.586,37.854
	c-2.642-1.424-5.529-2.634-8.695-3.507c-3.598-0.993-7.304-1.499-11.107-1.53c31.016-23.919,67.252-43.035,103.857-43.035
	C478.852,90.91,488.706,94.975,493.311,101.129z M329.381,166.146c16.9-13.314,31.459-18.448,43.268-15.247
	c9.263,2.512,15.254,9.88,18.438,15.031c-31.83,10.349-70.265,30.476-110.06,68.824c-0.277-3.396-1.231-6.601-2.73-9.484
	C283.509,218.085,302.411,192.85,329.381,166.146z M265.086,236.814v34.205c0,5.01-4.076,9.086-9.086,9.086
	c-5.01,0-9.086-4.076-9.086-9.086v-34.205c0-5.01,4.076-9.086,9.086-9.086C261.01,227.728,265.086,231.804,265.086,236.814z
	 M231.328,275.714c-28.446,26.604-69.497,40.789-94.341,47.395c2.434-3.41,4.719-6.801,6.948-10.11
	c17.091-25.371,30.745-45.628,86.946-42.996v1.015C230.881,272.624,231.038,274.192,231.328,275.714z M233.701,225.272
	c-1.498,2.882-2.452,6.087-2.729,9.483c-39.794-38.347-78.229-58.475-110.058-68.824c3.174-5.124,9.138-12.465,18.323-15.001
	c11.797-3.256,26.341,1.832,43.23,15.1C209.511,192.778,228.477,218.075,233.701,225.272z M29.501,185.878
	c-1.126-3.785-2.176-7.608-3.155-11.429c9.303-2.011,28.816-4.862,54.925-1.308c17.418,2.371,39.495,7.95,64.247,20.025
	C96.817,193.006,54.355,204.667,38,209.818C34.995,202.774,32.148,194.779,29.501,185.878z M16.429,117.061
	c15.727,1.53,54.468,7.724,96.598,32.634c-3.789,4.326-6.392,8.656-7.973,11.702c-7.76-1.907-15.007-3.244-21.622-4.145
	c-28.473-3.875-49.989-0.762-60.715,1.579C19.301,142.54,17.237,127.437,16.429,117.061z M42.221,90.91
	c36.568,0,72.795,19.117,103.814,43.036c-3.788,0.034-7.48,0.54-11.065,1.53c-3.166,0.874-6.053,2.084-8.695,3.507
	c-46.372-28.849-89.11-36.057-107.586-37.854C23.294,94.975,33.149,90.91,42.221,90.91z M69.193,246.008
	c-8.368-1.395-16.511-8.835-23.961-21.6c20.851-6.269,75.61-20.21,131.218-13.309c0.029,0.003,0.057,0.003,0.086,0.006
	c9.243,6.201,18.711,13.341,28.326,21.573c-20.085-1.247-43.222,3.014-65.925,7.197c-2.882,0.531-8.752,1.601-8.795,1.609
	C108.099,245.462,86.079,248.823,69.193,246.008z M141.841,255.644c31.436-5.79,63.79-11.74,83.295-1.843
	c-60.034-0.902-77.539,25.063-94.499,50.241c-10.317,15.316-20.96,31.105-42.278,42.058c-0.012-0.263-0.028-0.521-0.037-0.786
	c-0.36-10.317,1.215-21.272,4.11-28.592c5.906-14.929,6.372-26.905,1.385-35.596c-0.774-1.349-1.635-2.514-2.535-3.552
	c16.085-10.841,32.464-16.831,40.955-19.933C132.237,257.641,139.083,256.151,141.841,255.644z M142.3,417.334
	c-21.965,7.321-46.73,3.853-64.633-9.05c-12.512-9.019-27.429-26.802-27.429-60.305c0-23.503,9.513-43.841,28.28-60.544
	c0.491,0.423,0.984,0.959,1.394,1.672c1.371,2.39,2.885,8.391-2.388,21.719c-3.71,9.378-5.663,22.481-5.225,35.048
	c0.37,10.609,2.592,25.337,11.077,35.259c5.038,5.889,14.159,12.209,29.013,8.874c33.57-7.543,45.003-0.785,48.36,2.47
	c2.846,2.76,3.841,6.609,2.978,11.431C156.549,410.259,149.338,414.988,142.3,417.334z M177.804,389.444
	c-1.366-3.145-3.339-6.002-5.896-8.48c-11.537-11.186-32.744-13.406-63.035-6.603c-7.575,1.704-11.094-1.057-13.313-3.651
	c-1.74-2.034-3.207-4.82-4.362-8.168c11.771-5.395,20.913-11.961,28.418-19.042c11.277-1.982,73.78-14.339,117.226-51.237
	C225.485,317.136,202.727,360.469,177.804,389.444z M275.159,292.263c43.445,36.898,105.949,49.257,117.226,51.237
	c7.504,7.081,16.646,13.648,28.418,19.042c-1.155,3.349-2.622,6.133-4.362,8.168c-2.218,2.594-5.735,5.355-13.313,3.651
	c-30.29-6.803-51.497-4.582-63.035,6.603c-2.557,2.479-4.53,5.336-5.896,8.48C309.273,360.469,286.515,317.136,275.159,292.263z
	 M461.762,347.979c0,33.502-14.916,51.286-27.43,60.305c-17.903,12.905-42.668,16.371-64.633,9.05
	c-7.039-2.346-14.249-7.075-21.426-13.427c-0.862-4.822,0.131-8.671,2.978-11.431c3.357-3.255,14.788-10.013,48.36-2.47
	c14.855,3.337,23.976-2.984,29.013-8.874c8.485-9.921,10.707-24.65,11.077-35.259c0.439-12.567-1.515-25.669-5.225-35.048
	c-5.178-13.089-3.787-19.102-2.497-21.522c0.434-0.814,0.968-1.41,1.502-1.869C452.249,304.138,461.762,324.476,461.762,347.979z
	 M379.763,257.641c8.491,3.103,24.871,9.092,40.955,19.933c-0.9,1.038-1.762,2.204-2.535,3.552
	c-4.986,8.691-4.52,20.667,1.385,35.596c2.895,7.319,4.47,18.275,4.11,28.592c-0.01,0.265-0.026,0.523-0.037,0.786
	c-21.318-10.954-31.961-26.743-42.278-42.058c-16.96-25.177-34.463-51.147-94.497-50.241c19.504-9.896,51.857-3.946,83.294,1.844
	C372.917,256.151,379.763,257.641,379.763,257.641z"/>
<g>
</g>
<g>
</g>
<g>
</g>
<g>
</g>
<g>
</g>
<g>
</g>
<g>
</g>
<g>
</g>
<g>
</g>
<g>
</g>
<g>
</g>
<g>
</g>
<g>
</g>
<g>
</g>
<g>
</g>
</svg>
