<?xml version="1.0" encoding="iso-8859-1"?>
<!-- Generator: Adobe Illustrator 19.0.0, SVG Export Plug-In . SVG Version: 6.00 Build 0)  -->
<svg version="1.1" id="Layer_1" xmlns="http://www.w3.org/2000/svg" xmlns:xlink="http://www.w3.org/1999/xlink" x="0px" y="0px"
	 viewBox="0 0 511.978 511.978" style="enable-background:new 0 0 511.978 511.978;" xml:space="preserve">
<path style="fill:#FFCE54;" d="M499.385,141.463c10-0.891,8.672-9.78,8.672-9.78l-56.435-51.264l-27.233,41.591
	C449.341,127.182,489.385,142.353,499.385,141.463z"/>
<path style="fill:#CCD1D9;" d="M404.577,396.749l-19.109-48.655c-0.547-1.406-1.406-2.672-2.484-3.734
	c-0.797-0.781-19.811-19.249-47.107-40.669c-36.997-29.03-69.918-48.483-97.839-57.826c-6.906-2.312-14.312-3.484-22.014-3.484
	c-27.952,0-51.436,15.422-52.42,16.078c-2.969,1.969-4.766,5.312-4.766,8.874v63.7c0,3.703,1.922,7.141,5.062,9.078l112.573,69.606
	c1.672,1.047,3.625,1.594,5.609,1.594h112.557c3.531,0,6.828-1.75,8.812-4.656C405.436,403.732,405.858,400.03,404.577,396.749z"/>
<path style="fill:#E6E9ED;" d="M451.622,80.419c-9.906-22.421-33.951-37.765-59.857-37.765c-16.155,0-31.092,6.156-42.076,17.343
	c-12.234,12.453-19.39,30.952-20.718,53.467c-4.499,76.153,36.327,231.709,43.639,258.85
	c-16.171-12.375-41.577-31.327-69.184-50.124c-64.717-44.091-108.512-65.528-133.917-65.528c-58.138,0-98.777,40.796-112.136,54.202
	l-0.922,0.922c-8.375,8.374-7.156,24.295,4.047,53.278c2.641,6.812,5.453,13.39,7.953,18.937H21.327
	c-3.938,0-7.547,2.156-9.406,5.625s-1.656,7.688,0.531,10.953c0.453,0.688,11.437,17.062,27.952,33.623
	c23.265,23.312,45.467,35.123,65.998,35.123h298.91c27.218,0,42.561-10.826,50.639-19.904c12.39-13.953,13.358-29.108,13.358-33.421
	c0-28.546-15.78-81.356-32.482-137.275c-10.656-35.655-21.687-72.529-28.03-101.794c-3.297-15.14-5.141-27.389-5.469-36.389
	c-0.391-10.858,1.469-13.999,1.812-14.483c0.297-0.141,14.422-1.375,19.25-4.047C432.763,117.385,451.622,80.419,451.622,80.419z"/>
<path style="fill:#434A54;" d="M405.311,85.34c0,5.891-4.781,10.672-10.672,10.672s-10.656-4.781-10.656-10.672
	c0-5.89,4.766-10.671,10.656-10.671S405.311,79.45,405.311,85.34z"/>
<path style="fill:#CCD1D9;" d="M134.901,469.323c-1.688-1.062-3.516-2.172-5.5-3.328c-42.67-24.654-60.951-81.996-60.951-81.996
	H21.327c-3.938,0-7.547,2.156-9.406,5.625s-1.656,7.688,0.531,10.953c0.453,0.688,11.437,17.062,27.952,33.623
	c23.265,23.312,45.467,35.123,65.998,35.123L134.901,469.323L134.901,469.323z"/>
<path style="fill:#5D9CEC;" d="M501.306,469.307H10.655c-5.89,0-10.655-4.781-10.655-10.67c0-5.891,4.766-10.672,10.655-10.672
	h490.651c5.891,0,10.672,4.781,10.672,10.672C511.978,464.526,507.197,469.307,501.306,469.307z"/>
<g>
</g>
<g>
</g>
<g>
</g>
<g>
</g>
<g>
</g>
<g>
</g>
<g>
</g>
<g>
</g>
<g>
</g>
<g>
</g>
<g>
</g>
<g>
</g>
<g>
</g>
<g>
</g>
<g>
</g>
</svg>
