<?xml version="1.0" encoding="iso-8859-1"?>
<!-- Generator: Adobe Illustrator 19.0.0, SVG Export Plug-In . SVG Version: 6.00 Build 0)  -->
<svg version="1.1" id="Layer_1" xmlns="http://www.w3.org/2000/svg" xmlns:xlink="http://www.w3.org/1999/xlink" x="0px" y="0px"
	 viewBox="0 0 512.4 512.4" style="enable-background:new 0 0 512.4 512.4;" xml:space="preserve">
<g>
	<path style="fill:#FFA726;" d="M468,385.8l2.4,0.8c-8.4,14-18,28.4-28.8,40.4l0.4,1.2h-22v-48h48V385.8z"/>
	<path style="fill:#FFA726;" d="M36,284.2v48H15.2c-4.8-16-8-31.6-9.6-48H6H36z"/>
	<path style="fill:#FFA726;" d="M125.2,41.8c17.2-10.4,35.2-19.6,55.2-26l-0.4,2v26.4h-46h-8L125.2,41.8z"/>
	<rect x="228" y="284.2" style="fill:#FFA726;" width="48" height="48"/>
	<rect x="276" y="284.2" style="fill:#FFA726;" width="48" height="48"/>
	<rect x="324" y="284.2" style="fill:#FFA726;" width="48" height="48"/>
	<rect x="132" y="284.2" style="fill:#FFA726;" width="48" height="48"/>
	<rect x="180" y="284.2" style="fill:#FFA726;" width="48" height="48"/>
	<rect x="372" y="284.2" style="fill:#FFA726;" width="48" height="48"/>
	<rect x="420" y="284.2" style="fill:#FFA726;" width="48" height="48"/>
	<rect x="36" y="284.2" style="fill:#FFA726;" width="48" height="48"/>
	<rect x="84" y="284.2" style="fill:#FFA726;" width="48" height="48"/>
	<rect x="228" y="236.2" style="fill:#FFA726;" width="48" height="48"/>
	<rect x="276" y="236.2" style="fill:#FFA726;" width="48" height="48"/>
	<rect x="324" y="236.2" style="fill:#FFA726;" width="48" height="48"/>
	<rect x="132" y="236.2" style="fill:#FFA726;" width="48" height="48"/>
	<rect x="180" y="236.2" style="fill:#FFA726;" width="48" height="48"/>
	<rect x="372" y="236.2" style="fill:#FFA726;" width="48" height="48"/>
	<rect x="420" y="236.2" style="fill:#FFA726;" width="48" height="48"/>
	<rect x="36" y="236.2" style="fill:#FFA726;" width="48" height="48"/>
	<rect x="84" y="236.2" style="fill:#FFA726;" width="48" height="48"/>
	<path style="fill:#FFA726;" d="M372,473.8v-45.6h48v17.6c-12,12.8-30.4,23.6-47.6,32.8l-0.4-0.8V473.8z"/>
	<path style="fill:#FFA726;" d="M134,473.8v2.8c-1.6-0.8-3.2-1.6-4.8-2.8H134z"/>
	<path style="fill:#FFA726;" d="M496.8,331.8c-6,20-15.6,38-26.4,55.6l-2.4-1.6v-8v-45.6h26L496.8,331.8z"/>
	<path style="fill:#FFA726;" d="M276,505.8l1.2,1.2c-7.2,0.8-14,0.8-21.6,0.8c-8.8,0-18.4-0.4-26.8-1.2l-0.8-0.8v-29.6h48L276,505.8
		L276,505.8z"/>
	<path style="fill:#FFA726;" d="M506.8,234.6c0.8,7.6,1.2,14.4,1.2,22c0,8.8-0.4,18-1.2,26.8l-4.8,0.8h-34v-48h34L506.8,234.6z"/>
	<rect x="228" y="332.2" style="fill:#FFA726;" width="48" height="48"/>
	<rect x="276" y="332.2" style="fill:#FFA726;" width="48" height="48"/>
	<rect x="324" y="332.2" style="fill:#FFA726;" width="48" height="48"/>
	<rect x="132" y="332.2" style="fill:#FFA726;" width="48" height="48"/>
	<rect x="180" y="332.2" style="fill:#FFA726;" width="48" height="48"/>
	<rect x="372" y="332.2" style="fill:#FFA726;" width="48" height="48"/>
	<rect x="420" y="332.2" style="fill:#FFA726;" width="48" height="48"/>
	<rect x="36" y="332.2" style="fill:#FFA726;" width="48" height="48"/>
	<rect x="84" y="332.2" style="fill:#FFA726;" width="48" height="48"/>
	<path style="fill:#FFA726;" d="M502,284.2l4.8-1.2c-1.6,16.8-5.2,33.6-10,49.2l-2.8-0.4h-26v-48h34V284.2z"/>
	<rect x="228" y="44.2" style="fill:#FFA726;" width="48" height="48"/>
	<rect x="276" y="44.2" style="fill:#FFA726;" width="48" height="48"/>
	<rect x="324" y="44.2" style="fill:#FFA726;" width="48" height="48"/>
	<rect x="132" y="44.2" style="fill:#FFA726;" width="48" height="48"/>
	<rect x="180" y="44.2" style="fill:#FFA726;" width="48" height="48"/>
	<path style="fill:#FFA726;" d="M374,44.2h-50V17.8l2-3.6c20,6,39.6,15.2,57.2,25.6l-1.2,4h-8V44.2z"/>
	<rect x="228" y="92.2" style="fill:#FFA726;" width="48" height="48"/>
	<rect x="276" y="92.2" style="fill:#FFA726;" width="48" height="48"/>
	<rect x="324" y="92.2" style="fill:#FFA726;" width="48" height="48"/>
	<rect x="132" y="92.2" style="fill:#FFA726;" width="48" height="48"/>
	<rect x="180" y="92.2" style="fill:#FFA726;" width="48" height="48"/>
	<rect x="372" y="92.2" style="fill:#FFA726;" width="48" height="48"/>
	<rect x="84" y="92.2" style="fill:#FFA726;" width="48" height="48"/>
	<path style="fill:#FFA726;" d="M84,380.2v48H70c-12-16-22-30-34-45.6v-2.4H84z"/>
	<path style="fill:#FFA726;" d="M472,128.2l-4,2v10.4h-48v-48h22l1.2-2.8C454.4,101.8,463.6,113.8,472,128.2z"/>
	<path style="fill:#FFA726;" d="M66.8,92.2c16.8-20,36.4-36,58.4-49.2l0.8,1.2h6v48H86H66.8z"/>
	<path style="fill:#FFA726;" d="M36,137.8v50.4H14c5.6-20,14-40.8,22-58.4V137.8z"/>
	<path style="fill:#FFA726;" d="M506.8,234.6l-4.8,1.6h-34v-48h26l3.6-1.6C502.4,202.2,505.6,217.8,506.8,234.6z"/>
	<path style="fill:#FFA726;" d="M84,428.2v14c-4-5.2-9.2-10-14-14H84z"/>
	<path style="fill:#FFA726;" d="M84,92.2v48H36v-10.4c12-14.4,20-25.6,30.8-37.6H84z"/>
	<path style="fill:#FFA726;" d="M228,476.2v29.6v0.8c-16.4-1.6-32-4.8-48-9.6v-20.8H228z"/>
	<path style="fill:#FFA726;" d="M422,92.2h-50v-48h10l1.6-4c22.4,13.2,42.8,30.4,60,50l-2,2.4H422V92.2z"/>
	<path style="fill:#FFA726;" d="M36,188.2v48H6H5.2c1.6-16.4,4.4-36,8.8-48H36z"/>
	<path style="fill:#FFA726;" d="M277.6,5.4l-1.6,4.8v34.4h-48V10.2l0.4-4.4c8.8-0.8,17.6-1.2,26.4-1.2C262.4,4.2,270,4.6,277.6,5.4z
		"/>
	<path style="fill:#FFA726;" d="M36,332.2v48h-0.4c-8.4-16-15.2-32-20.4-48H36z"/>
	<path style="fill:#FFA726;" d="M36,236.2v48H6L5.6,283c-0.8-8.4-1.2-17.6-1.2-26.4c0-7.6,0.4-14,1.2-21.6l0.8,0.8H36V236.2z"/>
	<path style="fill:#FFA726;" d="M372,477.8l1.2,0.8c-15.2,8-32,14.8-48.8,19.6l-0.4-0.4v-21.6h48V477.8z"/>
	<path style="fill:#FFA726;" d="M38,377.8v4.4c-0.8-1.6-1.6-3.2-2.4-4.4H38z"/>
	<rect x="228" y="140.2" style="fill:#FFA726;" width="48" height="48"/>
	<rect x="276" y="140.2" style="fill:#FFA726;" width="48" height="48"/>
	<rect x="324" y="140.2" style="fill:#FFA726;" width="48" height="48"/>
	<rect x="132" y="140.2" style="fill:#FFA726;" width="48" height="48"/>
	<rect x="180" y="140.2" style="fill:#FFA726;" width="48" height="48"/>
	<rect x="372" y="140.2" style="fill:#FFA726;" width="48" height="48"/>
	<rect x="420" y="140.2" style="fill:#FFA726;" width="48" height="48"/>
	<rect x="36" y="140.2" style="fill:#FFA726;" width="48" height="48"/>
	<rect x="84" y="140.2" style="fill:#FFA726;" width="48" height="48"/>
	<rect x="228" y="380.2" style="fill:#FFA726;" width="48" height="48"/>
	<rect x="276" y="380.2" style="fill:#FFA726;" width="48" height="48"/>
	<rect x="324" y="380.2" style="fill:#FFA726;" width="48" height="48"/>
	<rect x="132" y="380.2" style="fill:#FFA726;" width="48" height="48"/>
	<rect x="180" y="380.2" style="fill:#FFA726;" width="48" height="48"/>
	<rect x="372" y="380.2" style="fill:#FFA726;" width="48" height="48"/>
	<rect x="84" y="380.2" style="fill:#FFA726;" width="48" height="48"/>
	<path style="fill:#FFA726;" d="M180,476.2V497c-16-5.2-32-12-48-20.4v-0.4H180z"/>
	<path style="fill:#FFA726;" d="M228,9.8v34.4h-48V17.8l0.4-2.4c15.6-4.8,31.2-8,47.6-10V9.8z"/>
	<rect x="228" y="188.2" style="fill:#FFA726;" width="48" height="48"/>
	<rect x="276" y="188.2" style="fill:#FFA726;" width="48" height="48"/>
	<rect x="324" y="188.2" style="fill:#FFA726;" width="48" height="48"/>
	<rect x="132" y="188.2" style="fill:#FFA726;" width="48" height="48"/>
	<rect x="180" y="188.2" style="fill:#FFA726;" width="48" height="48"/>
	<rect x="372" y="188.2" style="fill:#FFA726;" width="48" height="48"/>
	<rect x="420" y="188.2" style="fill:#FFA726;" width="48" height="48"/>
	<rect x="36" y="188.2" style="fill:#FFA726;" width="48" height="48"/>
	<rect x="84" y="188.2" style="fill:#FFA726;" width="48" height="48"/>
	<path style="fill:#FFA726;" d="M132,428.2v48h-2.8c-15.6-12-29.2-22-45.2-34v-14H132z"/>
	<path style="fill:#FFA726;" d="M326,14.6l-2,3.6v26.4h-48V10.2l0.8-4.8C293.6,6.6,310.4,9.8,326,14.6z"/>
	<path style="fill:#FFA726;" d="M441.2,427c-6.4,6.8-13.2,12.4-21.2,18.4v-17.2h22L441.2,427z"/>
	<rect x="228" y="428.2" style="fill:#FFA726;" width="48" height="48"/>
	<rect x="276" y="428.2" style="fill:#FFA726;" width="48" height="48"/>
	<rect x="324" y="428.2" style="fill:#FFA726;" width="48" height="48"/>
	<rect x="132" y="428.2" style="fill:#FFA726;" width="48" height="48"/>
	<rect x="180" y="428.2" style="fill:#FFA726;" width="48" height="48"/>
	<path style="fill:#FFA726;" d="M468,137.8v-8l4-2c10.4,17.6,19.2,37.6,25.2,58l-3.2,2.4h-26V137.8z"/>
	<path style="fill:#FFA726;" d="M324,497.8l1.2,0.4c-15.6,4.4-32,7.6-48.4,8.8l-0.8-1.2v-29.6h48V497.8z"/>
</g>
<path d="M256,512.2c-9.2,0-18-0.4-26.4-1.2c-16.4-1.6-32.8-5.2-48.8-10c-16.8-5.2-33.2-12-48.8-20.8c-1.6-0.8-3.2-1.6-4.8-2.8
	c-15.6-9.2-30.4-20-44-32.4c-5.6-5.2-11.2-10.8-16.4-16.4c-12.4-13.6-23.2-28.4-32.4-44c-0.8-1.6-1.6-3.2-2.8-4.4
	c-8.4-15.2-15.6-32-20.8-48.8c-4.8-16-8-32.4-9.6-48.8c-0.8-8.4-1.2-17.2-1.2-26c0-7.6,0.4-15.6,1.2-22.8
	c1.6-16.4,4.4-32.8,9.2-48.8c5.6-20,14-39.2,24.4-56.8c8.4-14.4,18.4-28,29.2-40.8c17.2-19.6,37.2-36.4,59.6-50
	c18-10.8,36.8-19.6,56.8-25.6c16-4.8,32.4-8.4,49.2-10c8.8-0.8,18-1.6,26.8-1.6c8,0,15.2,0.4,22.8,1.2c16.8,1.6,33.2,4.4,49.2,9.2
	c20.4,6,39.6,14.4,57.6,24.8c22.8,13.2,43.2,30,61.2,50c11.2,12.4,21.2,26,29.6,40.4c10.8,18,19.2,37.6,25.2,57.6
	c4.8,16,8,32.8,9.2,49.6c0.8,7.6,1.2,15.6,1.2,23.2c0,8.8-0.4,17.6-1.2,26c-1.6,16.8-5.2,33.6-10,49.6c-6,20-14.8,39.2-25.6,56.8
	c-8.4,14-18.8,27.6-30,40c-6.4,6.8-13.2,13.6-20.4,20c-14.8,12.8-31.2,24.4-48.4,33.6c-15.6,8.4-32,15.2-49.2,20
	c-15.6,4.4-32,7.6-48.8,9.2C271.2,511.8,263.6,512.2,256,512.2z M256,8.2c-8.8,0-17.6,0.4-26,1.2c-16,1.6-32,4.8-47.6,9.6
	c-19.2,6-38,14.4-55.2,24.8C105.6,57,86.4,73,69.6,92.2c-10.8,12-20,25.2-28.4,39.2c-10,17.2-18,36-23.6,55.2
	c-4.4,15.2-7.6,31.2-8.8,47.2C8,241,8,248.2,8,255.8c0,8.4,0.4,17.2,1.2,25.2c1.6,16,4.8,32,9.6,47.2c5.2,16.4,11.6,32.4,20,47.2
	c0.8,1.6,1.6,2.8,2.4,4.4c8.8,15.2,19.2,29.6,31.6,42.8c5.2,5.6,10.4,10.8,16,16c13.2,12,27.6,22.4,42.4,31.2
	c1.6,0.8,3.2,1.6,4.4,2.4c15.2,8.4,31.2,15.2,47.2,20c15.2,4.8,31.2,8,47.2,9.6c15.2,1.6,31.6,1.6,47.6,0.4c16-1.6,32-4.4,47.2-8.8
	c16.4-4.8,32.4-11.2,47.6-19.2c16.8-8.8,32.4-20,46.8-32.4c7.2-6,13.6-12.8,19.6-19.2c10.8-12,20.4-24.8,28.8-38.4
	c10.4-17.2,18.8-36,24.8-55.2c4.8-15.6,8-31.6,9.6-48c0.8-8.4,1.2-16.8,1.2-25.2c0-7.2-0.4-14.8-1.2-22.4l0,0
	c-1.6-16.4-4.4-32.4-9.2-48c-5.6-19.6-14-38.4-24.4-55.6c-8.4-14-18-27.2-28.8-39.2c-17.2-19.2-37.2-35.6-59.2-48.4
	c-17.6-10.4-36-18.4-55.6-24.4c-15.6-4.4-31.6-7.6-48-9.2C270.8,8.6,263.6,8.2,256,8.2z"/>
<path d="M504,240.2H8c-2.4,0-4-1.6-4-4s1.6-4,4-4h496c2.4,0,4,1.6,4,4S506.4,240.2,504,240.2z"/>
<path d="M496,192.2H16c-2.4,0-4-1.6-4-4s1.6-4,4-4h480c2.4,0,4,1.6,4,4S498.4,192.2,496,192.2z"/>
<path d="M476,144.2H36c-2.4,0-4-1.6-4-4s1.6-4,4-4h440c2.4,0,4,1.6,4,4S478.4,144.2,476,144.2z"/>
<path d="M444,96.2H66.8c-2.4,0-4-1.6-4-4s1.6-4,4-4H444c2.4,0,4,1.6,4,4S446.4,96.2,444,96.2z"/>
<path d="M388,48.2H120c-2.4,0-4-1.6-4-4s1.6-4,4-4h268c2.4,0,4,1.6,4,4S390.4,48.2,388,48.2z"/>
<path d="M376,480.2H136c-2.4,0-4-1.6-4-4s1.6-4,4-4h240c2.4,0,4,1.6,4,4S378.4,480.2,376,480.2z"/>
<path d="M440,432.2H72c-2.4,0-4-1.6-4-4s1.6-4,4-4h368c2.4,0,4,1.6,4,4S442.4,432.2,440,432.2z"/>
<path d="M472,384.2H38c-2.4,0-4-1.6-4-4s1.6-4,4-4h434c2.4,0,4,1.6,4,4S474.4,384.2,472,384.2z"/>
<path d="M492,336.2H16c-2.4,0-4-1.6-4-4s1.6-4,4-4h476c2.4,0,4,1.6,4,4S494.4,336.2,492,336.2z"/>
<path d="M504,288.2H8c-2.4,0-4-1.6-4-4s1.6-4,4-4h496c2.4,0,4,1.6,4,4S506.4,288.2,504,288.2z"/>
<path d="M468,396.2c-2.4,0-4-1.6-4-4v-272c0-2.4,1.6-4,4-4s4,1.6,4,4v272C472,394.6,470.4,396.2,468,396.2z"/>
<path d="M228,508.2c-2.4,0-4-1.6-4-4V8.2c0-2.4,1.6-4,4-4s4,1.6,4,4v496C232,506.6,230.4,508.2,228,508.2z"/>
<path d="M180,500.2c-2.4,0-4-1.6-4-4v-476c0-2.4,1.6-4,4-4s4,1.6,4,4v476C184,498.6,182.4,500.2,180,500.2z"/>
<path d="M132,477.8c-2.4,0-4-1.6-4-4V40.2c0-2.4,1.6-4,4-4s4,1.6,4,4v433.6C136,476.2,134.4,477.8,132,477.8z"/>
<path d="M84,444.2c-2.4,0-4-1.6-4-4v-368c0-2.4,1.6-4,4-4s4,1.6,4,4v368C88,442.6,86.4,444.2,84,444.2z"/>
<path d="M36,384.2c-2.4,0-4-1.6-4-4V137.8c0-2.4,1.6-4,4-4s4,1.6,4,4v242.4C40,382.6,38.4,384.2,36,384.2z"/>
<path d="M420,448.2c-2.4,0-4-1.6-4-4v-376c0-2.4,1.6-4,4-4s4,1.6,4,4v376C424,446.6,422.4,448.2,420,448.2z"/>
<path d="M372,480.2c-2.4,0-4-1.6-4-4v-440c0-2.4,1.6-4,4-4s4,1.6,4,4v440C376,478.6,374.4,480.2,372,480.2z"/>
<path d="M324,500.2c-2.4,0-4-1.6-4-4v-480c0-2.4,1.6-4,4-4s4,1.6,4,4v480C328,498.6,326.4,500.2,324,500.2z"/>
<path d="M276,508.2c-2.4,0-4-1.6-4-4V8.2c0-2.4,1.6-4,4-4s4,1.6,4,4v496C280,506.6,278.4,508.2,276,508.2z"/>
<g>
</g>
<g>
</g>
<g>
</g>
<g>
</g>
<g>
</g>
<g>
</g>
<g>
</g>
<g>
</g>
<g>
</g>
<g>
</g>
<g>
</g>
<g>
</g>
<g>
</g>
<g>
</g>
<g>
</g>
</svg>
