<?xml version="1.0" encoding="iso-8859-1"?>
<!-- Generator: Adobe Illustrator 18.0.0, SVG Export Plug-In . SVG Version: 6.00 Build 0)  -->
<!DOCTYPE svg PUBLIC "-//W3C//DTD SVG 1.1//EN" "http://www.w3.org/Graphics/SVG/1.1/DTD/svg11.dtd">
<svg version="1.1" id="Capa_1" xmlns="http://www.w3.org/2000/svg" xmlns:xlink="http://www.w3.org/1999/xlink" x="0px" y="0px"
	 viewBox="0 0 169.892 169.892" style="enable-background:new 0 0 169.892 169.892;" xml:space="preserve">
<g>
	<g>
		<path style="fill:#109D59;" d="M98.469,35.581c6.954,1.227,8.977,5.598,6.602,11.376c0.257-0.63,0.638-1.219,0.999-1.837
			c0.281-0.481,0.552-0.979,0.738-1.517c1.023-2.974,0.837-5.821-0.768-8.565c-1.431-2.455-4.179-4.151-5.19-6.85
			c-0.854-2.262-0.369-2.238-0.257-4.797c0.028-0.248,0.054-0.501,0.082-0.758c0.05-0.515,0.121-1.034,0.125-1.576
			c0.017-0.539,0.058-1.086,0.013-1.645c-0.025-0.557-0.033-1.116-0.121-1.683c-0.033-0.283-0.066-0.565-0.103-0.851
			c-0.055-0.279-0.112-0.563-0.166-0.846c-0.092-0.567-0.266-1.124-0.419-1.679c-0.066-0.283-0.183-0.551-0.278-0.826
			c-0.099-0.268-0.182-0.546-0.294-0.812c-0.439-1.064-0.957-2.084-1.543-3.038c-0.137-0.242-0.294-0.474-0.451-0.7
			c-0.156-0.229-0.308-0.461-0.466-0.677c-0.334-0.431-0.645-0.87-0.989-1.268c-0.66-0.824-1.377-1.551-2.064-2.218
			c-0.692-0.668-1.368-1.269-2.023-1.791C91.24,2.5,90.627,2.045,90.07,1.655c-0.551-0.398-1.052-0.713-1.462-0.971
			c-0.419-0.252-0.751-0.447-0.979-0.571C87.538,0.063,87.468,0.026,87.413,0c0.054,0.03,0.124,0.071,0.215,0.122
			c0.224,0.124,0.552,0.322,0.966,0.58c0.407,0.266,0.904,0.588,1.446,0.991c0.556,0.395,1.149,0.871,1.775,1.422
			c0.63,0.546,1.282,1.174,1.932,1.866c0.634,0.709,1.284,1.476,1.874,2.326c0.606,0.838,1.132,1.772,1.6,2.736
			c0.112,0.241,0.229,0.486,0.341,0.734c0.103,0.249,0.189,0.506,0.285,0.759c0.204,0.501,0.328,1.032,0.486,1.545
			c0.252,1.049,0.413,2.111,0.442,3.155c0.009,0.261,0.013,0.519,0.021,0.781c-0.018,0.256-0.034,0.513-0.051,0.766
			c-0.016,0.51-0.096,1.008-0.174,1.493c-0.062,0.485-0.203,0.953-0.311,1.409c-0.096,0.457-0.27,0.892-0.42,1.315
			c-0.074,0.212-0.148,0.419-0.219,0.621c-0.092,0.199-0.179,0.395-0.266,0.585c-1.165,2.197-3.349,1.849-4.834,1.966
			c-1.392,0.108-2.727-0.522-4.087-0.723c-5.054-0.733-10.775,2.513-13.309,6.829c0.208-0.253,3.789-4.598,9.005-3.972
			c0.949,0.117,1.956,0.398,3.01,0.9C94.113,31.533,91.518,34.354,98.469,35.581z"/>
		<path style="fill:#DC4437;" d="M100.746,169.607c0.557-0.447,0.646-1.265,0.2-1.819l-0.033-0.041c0,0-0.323-0.403-0.928-1.157
			c-0.305-0.373-0.677-0.837-1.116-1.381c-0.415-0.56-0.896-1.203-1.435-1.919c-0.548-0.709-1.099-1.539-1.712-2.417
			c-0.626-0.874-1.236-1.866-1.904-2.901c-0.335-0.516-0.658-1.066-0.99-1.634c-0.328-0.564-0.675-1.14-1.016-1.737
			c-0.647-1.219-1.356-2.472-1.997-3.827c-1.323-2.69-2.604-5.654-3.699-8.856c-1.098-3.196-2.032-6.613-2.729-10.174
			c-0.692-3.565-1.136-7.27-1.326-11.036c-0.183-3.764-0.133-7.579,0.195-11.373c0.322-3.788,0.854-7.548,1.608-11.213
			c0.746-3.661,1.659-7.227,2.72-10.622c2.093-6.803,4.676-12.943,7.155-18.03c2.48-5.091,4.859-9.128,6.555-11.808
			c0.854-1.339,1.534-2.333,1.981-2.959c0.221-0.303,0.391-0.531,0.481-0.644c0.021-0.021,0.049-0.062,0.058-0.062
			c0.003,0,0.013,0,0.017,0c0.009-0.008,0.021-0.021,0.025-0.029c0.009-0.012,0.012-0.018,0.012-0.018l0.079-0.103
			c0.751-1.07,1.396-2.239,1.907-3.503c0.692-1.712,1.086-3.474,1.215-5.224c-0.361,0.618-0.742,1.206-0.999,1.837
			c2.376-5.778,0.352-10.149-6.602-11.376c-6.952-1.226-4.356-4.047-11.325-7.376c-1.054-0.501-2.061-0.783-3.01-0.9
			c-4.937,1.409-9.2,5.001-11.268,10.129c0,0-0.004,0.008-0.008,0.025c-0.008,0.013-0.013,0.033-0.046,0.096
			c-0.024,0.057-0.058,0.128-0.098,0.215c-0.03,0.066-0.063,0.141-0.1,0.228c-0.141,0.331-0.319,0.767-0.544,1.332
			c-0.431,1.111-1.015,2.678-1.678,4.647c-1.318,3.934-2.981,9.486-4.444,16.223c-1.464,6.733-2.732,14.664-3.246,23.233
			c-0.27,4.278-0.324,8.718-0.154,13.216c0.166,4.499,0.618,9.063,1.318,13.568c1.405,9.027,4.042,17.828,7.566,25.491
			c1.762,3.834,3.728,7.382,5.784,10.596c2.051,3.213,4.211,6.078,6.305,8.599c1.032,1.274,2.102,2.422,3.089,3.524
			c0.505,0.543,1.016,1.058,1.501,1.564c0.485,0.505,0.953,0.99,1.438,1.442c0.949,0.912,1.82,1.77,2.679,2.513
			c0.845,0.754,1.604,1.455,2.338,2.04c0.717,0.597,1.36,1.127,1.915,1.587c0.576,0.443,1.062,0.816,1.456,1.123
			c0.787,0.605,1.211,0.928,1.211,0.928C99.606,169.98,100.27,169.988,100.746,169.607z"/>
	</g>
	<g>
		<path style="fill:#0E854C;" d="M100.593,23.391c0.028-0.248,0.054-0.501,0.082-0.758c0.05-0.515,0.121-1.034,0.125-1.576
			c0.017-0.539,0.058-1.086,0.013-1.645c-0.025-0.557-0.033-1.116-0.121-1.683c-0.033-0.283-0.066-0.565-0.103-0.851
			c-0.055-0.279-0.112-0.563-0.166-0.846c-0.092-0.567-0.266-1.124-0.419-1.679c-0.066-0.283-0.183-0.551-0.278-0.826
			c-0.099-0.268-0.182-0.546-0.294-0.812c-0.439-1.064-0.957-2.084-1.543-3.038c-0.137-0.242-0.294-0.474-0.451-0.7
			c-0.156-0.229-0.308-0.461-0.466-0.677c-0.334-0.431-0.645-0.87-0.989-1.268c-0.66-0.824-1.377-1.551-2.064-2.218
			c-0.692-0.668-1.368-1.269-2.023-1.791C91.24,2.5,90.627,2.045,90.07,1.655c-0.551-0.398-1.052-0.713-1.462-0.971
			c-0.419-0.252-0.751-0.447-0.979-0.571C87.538,0.063,87.468,0.026,87.413,0c0.054,0.03,0.124,0.071,0.215,0.122
			c0.224,0.124,0.552,0.322,0.966,0.58c0.407,0.266,0.904,0.588,1.446,0.991c0.556,0.395,1.149,0.871,1.775,1.422
			c0.63,0.546,1.282,1.174,1.932,1.866c0.634,0.709,1.284,1.476,1.874,2.326c0.606,0.838,1.132,1.772,1.6,2.736
			c0.112,0.241,0.229,0.486,0.341,0.734c0.103,0.249,0.189,0.506,0.285,0.759c0.204,0.501,0.328,1.032,0.486,1.545
			c0.252,1.049,0.413,2.111,0.442,3.155c0.009,0.261,0.013,0.519,0.021,0.781c-0.018,0.256-0.034,0.513-0.051,0.766
			c-0.016,0.51-0.096,1.008-0.174,1.493c-0.062,0.485-0.203,0.953-0.311,1.409c-0.096,0.457-0.27,0.892-0.42,1.315
			c-0.074,0.212-0.148,0.419-0.219,0.621c-0.092,0.199-0.179,0.395-0.266,0.585c-1.165,2.197-3.349,1.849-4.834,1.966
			c-1.392,0.108-2.727-0.522-4.087-0.723c-5.054-0.733-10.775,2.513-13.309,6.829c0.208-0.253,3.789-4.598,9.005-3.972
			c0.949,0.117,1.956,0.398,3.01,0.9c6.969,3.329,4.373,6.15,11.325,7.376c0.467,0.083,0.908,0.181,1.33,0.292
			c1.843-0.684,3.724-1.259,5.66-1.707c-1.499-2.014-3.722-3.609-4.609-5.977C99.996,25.926,100.481,25.95,100.593,23.391z"/>
		<path style="fill:#C43D31;" d="M87.144,28.205c-1.054-0.501-2.061-0.783-3.01-0.9c-4.937,1.409-9.2,5.001-11.268,10.129
			c0,0-0.004,0.008-0.008,0.025c-0.008,0.013-0.013,0.033-0.046,0.096c-0.024,0.057-0.058,0.128-0.098,0.215
			c-0.03,0.066-0.063,0.141-0.1,0.228c-0.141,0.331-0.319,0.767-0.544,1.332c-0.431,1.111-1.015,2.678-1.678,4.647
			c-1.318,3.934-2.981,9.486-4.444,16.223c-0.246,1.132-0.483,2.309-0.716,3.506c5.504-8.398,12.881-15.777,21.883-21.332
			c4.156-2.645,8.314-4.879,12.686-6.501c-0.422-0.11-0.863-0.209-1.33-0.292C91.518,34.354,94.113,31.533,87.144,28.205z"/>
	</g>
</g>
<g>
</g>
<g>
</g>
<g>
</g>
<g>
</g>
<g>
</g>
<g>
</g>
<g>
</g>
<g>
</g>
<g>
</g>
<g>
</g>
<g>
</g>
<g>
</g>
<g>
</g>
<g>
</g>
<g>
</g>
</svg>
