<?xml version="1.0" encoding="iso-8859-1"?>
<!-- Generator: Adobe Illustrator 19.0.0, SVG Export Plug-In . SVG Version: 6.00 Build 0)  -->
<svg version="1.1" id="Layer_1" xmlns="http://www.w3.org/2000/svg" xmlns:xlink="http://www.w3.org/1999/xlink" x="0px" y="0px"
	 viewBox="0 0 511.984 511.984" style="enable-background:new 0 0 511.984 511.984;" xml:space="preserve">
<path style="fill:#8CC153;" d="M511.984,92.085c0-5.891-4.766-10.671-10.656-10.671c-2.047,0-3.938,0.586-5.562,1.578v-0.008
	c-33.265,20.328-36.749,41.874-37.03,44.265l21.172,2.546c0,0,0,0.109-0.031,0.312c0-0.039,0.655-3.468,4.187-8.64
	c3.359-4.945,10.047-12.476,22.828-20.289l-0.016-0.008C509.937,99.296,511.984,95.937,511.984,92.085z"/>
<path style="fill:#AC92EB;" d="M240.646,221.129C78.665,166.74-21.411,229.66,3.901,337.386
	c29.562,125.856,219.933,107.622,316.103,42.671c140.888-95.17,133.217-173.317,133.217-173.317l-43.969-63.999
	C409.252,142.741,303.176,242.129,240.646,221.129z"/>
<g style="opacity:0.2;">
	<path style="fill:#FFFFFF;" d="M240.646,231.793c62.529,20.992,168.605-78.381,168.605-78.381l43.5,63.319
		c0.812-6.469,0.469-9.992,0.469-9.992l-43.969-63.999c0,0-106.076,99.389-168.605,78.389C92.477,171.381-3.88,219.778,0.12,310.84
		C3.87,226.746,98.384,184.029,240.646,231.793z"/>
</g>
<g style="opacity:0.1;">
	<path d="M451.283,203.919c-6.281,28.64-31.578,87.452-131.279,154.793C223.835,423.68,33.463,441.929,3.901,316.057
		c-1.703-7.265-2.844-14.312-3.422-21.155c-1.218,13.156-0.125,27.374,3.422,42.483c29.562,125.856,219.933,107.622,316.103,42.671
		c140.888-95.17,133.217-173.317,133.217-173.317L451.283,203.919z"/>
</g>
<path style="fill:#A0D468;" d="M447.455,102.484l-5.141,3.234c-0.297,0.188-29.484,18.57-58.265,36.968
	c-16.922,10.828-30.39,19.547-40.062,25.914c-5.781,3.828-10.281,6.851-13.344,9c-1.797,1.25-3.125,2.227-4.109,2.992
	c-1.531,1.203-6.219,4.859-5.203,11.25c0.219,1.398,1.766,8.414,10.734,9.406c1.234,0.141,2.734,0.203,4.734,0.203l0,0
	c4.125,0,9.859-0.273,15.922-0.562c4.594-0.219,9.312-0.445,13.203-0.539c0.125,2.688,0.265,5.672,0.374,8.242
	c0.969,23.007,1.156,27.155,5.016,31.022c3.438,3.422,7.859,3.422,9.516,3.422c3.891,0,10.39-0.844,17.265-1.734
	c2.422-0.328,5.156-0.672,7.531-0.953c0.922,2.625,1.969,5.719,2.859,8.312c2.172,6.343,4.609,13.562,6.812,19.218
	c3.062,7.961,6.25,16.18,14.891,16.18c7.281,0,10.094-5.797,13.062-11.938c1.797-3.68,4.234-9.07,7.25-15.992
	c5.016-11.484,11.749-27.484,20.015-47.545c14.046-34.101,27.874-68.64,28.015-68.991l3.594-9.008L447.455,102.484z"/>
<g>
</g>
<g>
</g>
<g>
</g>
<g>
</g>
<g>
</g>
<g>
</g>
<g>
</g>
<g>
</g>
<g>
</g>
<g>
</g>
<g>
</g>
<g>
</g>
<g>
</g>
<g>
</g>
<g>
</g>
</svg>
