<?xml version="1.0" encoding="iso-8859-1"?>
<!-- Generator: Adobe Illustrator 19.0.0, SVG Export Plug-In . SVG Version: 6.00 Build 0)  -->
<svg xmlns="http://www.w3.org/2000/svg" xmlns:xlink="http://www.w3.org/1999/xlink" version="1.1" id="Layer_1" x="0px" y="0px" viewBox="0 0 421.69 421.69" style="enable-background:new 0 0 421.69 421.69;" xml:space="preserve" width="512" height="512">
<g>
	<path style="fill:#F2F2F2;" d="M243.878,334.569c21.98,0,39.81,17.81,39.81,39.8s-17.83,39.82-39.81,39.82   c-13.75,0-25.89-6.98-33.04-17.59c-7.15,10.61-19.28,17.59-33.03,17.59c-21.99,0-39.82-17.83-39.82-39.82s17.83-39.8,39.82-39.8   c0.47,0,0.93,0.01,1.38,0.02v-45.06h63.3v45.06C242.948,334.579,243.408,334.569,243.878,334.569z"/>
	<g>
		<path style="fill:#E6E6E6;" d="M171.988,374.369c0-21.99,17.83-39.8,39.82-39.8c0.47,0,0.93,0.01,1.38,0.02v-45.06h-34v45.06    c-0.45-0.01-0.91-0.02-1.38-0.02c-21.99,0-39.82,17.81-39.82,39.8s17.83,39.82,39.82,39.82c6.08,0,11.841-1.37,16.997-3.81    C181.32,404,171.988,390.275,171.988,374.369z"/>
	</g>
	<path style="fill:#F7B239;" d="M212.308,7.509c56.32,0.79,101.88,47.45,101.39,103.77c-0.2,23.14-8.05,44.46-21.13,61.55   c-24.71,32.26-37.76,71.93-37.76,112.56v4.14h-12.32h-63.3h-12.31v-3.69c0-40.65-12.72-80.55-37.54-112.74   c-13.39-17.36-21.35-39.12-21.35-62.74C107.988,53.069,154.828,6.709,212.308,7.509z"/>
	<path style="fill:#E09B2D;" d="M210.838,7.499c-24.01,0.01-43.45,46.07-43.45,102.86c0,23.62,3.36,45.38,9.02,62.739   c10.49,32.19,15.86,72.091,15.86,112.74v3.69h-25.39v-3.69c0-40.649-12.72-80.55-37.54-112.74   c-13.39-17.359-21.35-39.119-21.35-62.739C107.988,53.559,154.038,7.499,210.838,7.499z"/>
	<path style="fill:#FFFFFF;" d="M237.05,246.294c-0.55,0-1.108-0.062-1.668-0.188c-4.039-0.917-6.57-4.936-5.652-8.975   c6.847-30.149,20.203-58.798,38.625-82.849c9.574-12.509,14.708-27.471,14.844-43.266c0.282-32.361-21.261-61.232-52.388-70.21   c-3.98-1.147-6.276-5.305-5.128-9.284c1.147-3.981,5.306-6.276,9.284-5.128c37.569,10.835,63.571,45.687,63.231,84.752   c-0.165,19.071-6.366,37.141-17.934,52.255c-17.12,22.351-29.536,48.993-35.908,77.052   C243.567,243.933,240.474,246.294,237.05,246.294z"/>
	<path style="fill:#FFFFFF;" d="M255.759,393.757c-1.919,0-3.837-0.731-5.302-2.195c-2.93-2.928-2.932-7.677-0.003-10.606   c1.763-1.764,2.733-4.103,2.733-6.586c0-5.128-4.176-9.3-9.31-9.3c-0.213,0-0.423,0.006-0.631,0.011l-0.271-7.496l-0.079-7.5   c0.324-0.008,0.649-0.015,0.98-0.015c13.404,0,24.31,10.9,24.31,24.3c0,6.488-2.53,12.593-7.124,17.189   C259.6,393.023,257.679,393.757,255.759,393.757z M242.977,357.584h0.01H242.977z"/>
	<path style="fill:#FFFFFF;" d="M219.488,354.25c-4.143,0-7.5-3.357-7.5-7.5v-34.221c0-4.143,3.357-7.5,7.5-7.5s7.5,3.357,7.5,7.5   v34.221C226.988,350.893,223.63,354.25,219.488,354.25z"/>
	<circle style="fill:#FFFFFF;" cx="211.986" cy="30.507" r="7.5"/>
	<path style="fill:#333333;" d="M254.809,297.032c4.143,0,7.5-3.357,7.5-7.5v-4.146c0-39.15,12.859-77.506,36.21-107.999   c14.627-19.102,22.47-41.94,22.681-66.047C321.727,50.796,272.926,0.854,212.414,0.012C211.885,0.004,211.358,0,210.83,0   c-29.197,0-56.655,11.25-77.473,31.779c-21.197,20.904-32.871,48.812-32.871,78.581c0,24.602,7.922,47.88,22.908,67.318   c23.206,30.1,35.986,68.514,35.986,108.165v3.688c0,4.143,3.357,7.5,7.5,7.5h4.811v30.426c-23.214,3.008-41.201,22.9-41.201,46.914   c0,26.092,21.227,47.318,47.318,47.318c12.482,0,24.283-4.9,33.03-13.439c8.754,8.54,20.556,13.439,33.035,13.439   c26.091,0,47.317-21.227,47.317-47.318c0-24.014-17.987-43.906-41.2-46.914v-30.426H254.809z M135.274,168.521   c-12.944-16.791-19.787-36.902-19.787-58.16c0-25.723,10.088-49.837,28.404-67.9C161.879,24.72,185.604,15,210.836,15   c0.455,0,0.914,0.004,1.369,0.01c52.285,0.729,94.451,43.884,93.994,96.2c-0.182,20.828-6.956,40.559-19.591,57.059   c-24.675,32.224-38.556,72.502-39.271,113.764h-72.993C173.549,240.437,159.746,200.262,135.274,168.521z M237.29,339.952   c1.444,1.41,3.444,2.15,5.456,2.131c0.37-0.009,0.749-0.019,1.128-0.019c17.82,0,32.317,14.493,32.317,32.308   c0,17.82-14.497,32.318-32.317,32.318c-10.761,0-20.788-5.339-26.82-14.281c-1.395-2.067-3.725-3.306-6.218-3.306   c-0.001,0-0.002,0-0.003,0c-2.493,0.001-4.824,1.241-6.218,3.31c-6.021,8.94-16.043,14.277-26.807,14.277   c-17.82,0-32.318-14.498-32.318-32.318c0-17.814,14.498-32.308,32.318-32.308c0.377,0,0.754,0.01,1.205,0.021   c2.051,0.02,3.974-0.722,5.418-2.133c1.445-1.411,2.26-3.346,2.26-5.365v-37.555h48.3v37.555   C234.992,336.607,235.845,338.541,237.29,339.952z"/>
</g>















</svg>
