<?xml version="1.0" encoding="iso-8859-1"?>
<!-- Generator: Adobe Illustrator 19.0.0, SVG Export Plug-In . SVG Version: 6.00 Build 0)  -->
<svg version="1.1" id="Layer_1" xmlns="http://www.w3.org/2000/svg" xmlns:xlink="http://www.w3.org/1999/xlink" x="0px" y="0px"
	 viewBox="0 0 512.01 512.01" style="enable-background:new 0 0 512.01 512.01;" xml:space="preserve">
<g transform="translate(-1 -1)">
	<g>
		<path style="fill:#472914;" d="M98.108,513.01c-2.26,0-4.52-0.865-6.241-2.586c-3.452-3.452-3.452-9.031,0-12.482l24.594-24.594
			l25.962-129.792c0.53-2.675,2.26-4.943,4.705-6.171l88.276-44.138c4.352-2.18,9.649-0.406,11.847,3.955
			c2.18,4.361,0.406,9.657-3.955,11.847l-84.409,42.205L133.242,479.43c-0.344,1.713-1.174,3.275-2.41,4.511l-26.483,26.483
			C102.628,512.145,100.368,513.01,98.108,513.01"/>
		<path style="fill:#472914;" d="M115.764,283.493h-35.31c-4.882,0-8.828-3.955-8.828-8.828c0-4.873,3.946-8.828,8.828-8.828h32.865
			l42.037-25.22c1.377-0.83,2.94-1.262,4.546-1.262h61.793c4.882,0,8.828,3.955,8.828,8.828c0,4.873-3.946,8.828-8.828,8.828
			h-59.348l-42.037,25.22C118.933,283.06,117.37,283.493,115.764,283.493"/>
		<path style="fill:#472914;" d="M221.703,221.699c-0.574,0-1.156-0.053-1.739-0.177l-44.138-8.828
			c-2.295-0.45-4.317-1.81-5.614-3.752l-33.289-49.929l-40.545-8.113c-2.295-0.45-4.317-1.81-5.614-3.752l-17.655-26.483
			c-2.71-4.061-1.615-9.543,2.445-12.244c4.061-2.719,9.534-1.607,12.244,2.445l15.634,23.446l40.545,8.113
			c2.295,0.45,4.317,1.81,5.614,3.752l33.289,49.929l40.545,8.113c4.776,0.953,7.883,5.606,6.921,10.381
			C229.516,218.795,225.826,221.699,221.703,221.699"/>
		<path style="fill:#472914;" d="M292.306,221.699c-4.122,0-7.812-2.904-8.642-7.097c-0.962-4.776,2.145-9.428,6.921-10.381
			l40.545-8.113l33.289-49.929c1.298-1.942,3.319-3.302,5.614-3.752l40.545-8.113l15.634-23.446
			c2.701-4.052,8.166-5.164,12.244-2.445c4.061,2.701,5.155,8.183,2.445,12.244l-17.655,26.483
			c-1.298,1.942-3.319,3.302-5.614,3.752l-40.545,8.113l-33.289,49.929c-1.298,1.942-3.319,3.302-5.614,3.752l-44.138,8.828
			C293.463,221.646,292.871,221.699,292.306,221.699"/>
		<path style="fill:#472914;" d="M415.901,513.01c-2.26,0-4.52-0.865-6.241-2.586l-26.483-26.483
			c-1.236-1.236-2.066-2.798-2.41-4.511l-25.644-128.177l-84.409-42.205c-4.361-2.189-6.135-7.486-3.955-11.847
			c2.189-4.361,7.486-6.135,11.847-3.955l88.276,44.138c2.445,1.227,4.175,3.496,4.705,6.171l25.962,129.792l24.594,24.594
			c3.452,3.452,3.452,9.031,0,12.482C420.421,512.145,418.161,513.01,415.901,513.01"/>
		<path style="fill:#472914;" d="M433.557,283.493h-35.31c-1.607,0-3.169-0.433-4.546-1.262l-42.037-25.22h-59.348
			c-4.882,0-8.828-3.955-8.828-8.828c0-4.873,3.946-8.828,8.828-8.828h61.793c1.607,0,3.169,0.433,4.546,1.262l42.037,25.22h32.865
			c4.882,0,8.828,3.955,8.828,8.828C442.384,279.538,438.438,283.493,433.557,283.493"/>
	</g>
	<path style="fill:#BDC3C7;" d="M248.177,115.768c-19.474,0-35.31-15.837-35.31-35.31c-0.124-1.103-1.192-17.461,8.192-27.648
		c4.608-5.014,10.937-7.662,18.291-7.662c4.882,0,8.828,3.955,8.828,8.828s-3.946,8.828-8.828,8.828c-3.107,0-4.467,1.05-5.305,1.96
		c-3.293,3.584-3.814,11.776-3.558,14.963c0.035,10.47,7.954,18.388,17.69,18.388c4.882,0,8.828,3.955,8.828,8.828
		C257.005,111.814,253.059,115.768,248.177,115.768"/>
	<path style="fill:#472914;" d="M212.858,151.074c-4.564,0-8.43-3.513-8.792-8.148c-0.044-0.53-4.564-53.645-35.337-53.645
		c-47.475,0-52.754-75.67-52.948-78.892c-0.3-4.864,3.39-9.048,8.245-9.357c4.785-0.406,9.057,3.381,9.375,8.254
		c0.044,0.618,4.855,62.34,35.328,62.34c47.086,0,52.727,67.098,52.939,69.959c0.371,4.855-3.266,9.092-8.121,9.463
		C213.317,151.066,213.079,151.074,212.858,151.074"/>
	<path style="fill:#BDC3C7;" d="M265.832,115.768c-4.882,0-8.828-3.955-8.828-8.828c0-4.873,3.946-8.828,8.828-8.828
		c9.737,0,17.655-7.918,17.655-17.655c0.221-3.381,0-11.891-3.54-15.713c-0.839-0.9-2.198-1.942-5.288-1.942
		c-4.882,0-8.828-3.955-8.828-8.828s3.946-8.828,8.828-8.828c7.353,0,13.683,2.648,18.291,7.662
		c9.384,10.187,8.316,26.545,8.157,28.381C301.143,99.932,285.306,115.768,265.832,115.768"/>
	<path style="fill:#472914;" d="M301.152,151.079c-0.221,0-0.45-0.009-0.671-0.026c-4.864-0.362-8.51-4.608-8.139-9.472
		c0.212-2.851,5.853-69.95,52.939-69.95c30.579,0,35.284-61.722,35.328-62.34c0.3-4.873,4.484-8.651,9.366-8.263
		c4.855,0.309,8.554,4.493,8.254,9.357c-0.194,3.222-5.473,78.901-52.948,78.901c-30.905,0-35.293,53.098-35.337,53.636
		C309.591,147.557,305.724,151.079,301.152,151.079"/>
	<g>
		<path style="fill:#805333;" d="M266.574,195.217h-19.138c-23.967,0-43.396-19.43-43.396-43.405v-19.121
			c0-23.976,19.43-43.405,43.396-43.405h19.138c23.967,0,43.396,19.43,43.396,43.405v19.121
			C309.97,175.787,290.541,195.217,266.574,195.217"/>
		<path style="fill:#805333;" d="M301.143,230.527c0,19.5-19.756,35.31-44.138,35.31s-44.138-15.81-44.138-35.31
			s19.756-35.31,44.138-35.31S301.143,211.027,301.143,230.527"/>
		<path style="fill:#805333;" d="M257.005,504.182L257.005,504.182c-34.127,0-61.793-27.666-61.793-61.793v-35.31
			c0-34.127,27.666-61.793,61.793-61.793s61.793,27.666,61.793,61.793v35.31C318.798,476.517,291.132,504.182,257.005,504.182"/>
	</g>
	<path style="fill:#633C21;" d="M257.005,345.286L257.005,345.286c-14.627,0-26.483-11.855-26.483-26.483V292.32
		c0-14.627,11.855-26.483,26.483-26.483c14.627,0,26.483,11.855,26.483,26.483v26.483
		C283.488,333.43,271.632,345.286,257.005,345.286"/>
</g>
<g>
</g>
<g>
</g>
<g>
</g>
<g>
</g>
<g>
</g>
<g>
</g>
<g>
</g>
<g>
</g>
<g>
</g>
<g>
</g>
<g>
</g>
<g>
</g>
<g>
</g>
<g>
</g>
<g>
</g>
</svg>
