<?xml version="1.0" encoding="iso-8859-1"?>
<!-- Generator: Adobe Illustrator 18.0.0, SVG Export Plug-In . SVG Version: 6.00 Build 0)  -->
<!DOCTYPE svg PUBLIC "-//W3C//DTD SVG 1.1//EN" "http://www.w3.org/Graphics/SVG/1.1/DTD/svg11.dtd">
<svg version="1.1" id="Capa_1" xmlns="http://www.w3.org/2000/svg" xmlns:xlink="http://www.w3.org/1999/xlink" x="0px" y="0px"
	 viewBox="0 0 418.195 418.195" style="enable-background:new 0 0 418.195 418.195;" xml:space="preserve">
<g>
	<g>
		<path style="fill:#624587;" d="M135.74,175.949l88.342,62.686v103.609H96.92c-53.528,0-96.92-43.393-96.92-96.92v0
			c0-0.836,0.011-1.67,0.032-2.502C1.763,174.498,80.002,136.398,135.74,175.949z"/>
	</g>
	<path style="fill:#976EC4;" d="M86.116,159.948v16c14.376,0,28.334,4.512,40.365,13.049l81.601,57.903v79.344H96.92
		c-44.62,0-80.92-36.301-80.92-80.921c0-0.701,0.009-1.399,0.026-2.096c0.476-18.789,8.26-36.023,21.918-48.528
		c13.013-11.914,30.567-18.749,48.163-18.751L86.116,159.948 M86.105,159.948c-43.725,0.005-84.825,33.57-86.074,82.874
		C0.011,243.653,0,244.487,0,245.323v0c0,53.528,43.393,96.92,96.92,96.92h127.162V238.635l-88.342-62.686
		C120.224,164.938,102.973,159.946,86.105,159.948L86.105,159.948z"/>
	<path style="fill:#976EC4;" d="M224.082,342.243L224.082,342.243c-69.209,0-125.314-56.105-125.314-125.314V75.951h0
		c69.209,0,125.314,56.105,125.314,125.314V342.243z"/>
	<path style="fill:#976EC4;" d="M315.457,342.243L315.457,342.243c-44.104,0-79.857-35.753-79.857-79.857v-89.839h0
		c44.104,0,79.857,35.753,79.857,79.857V342.243z"/>
	<path style="fill:#976EC4;" d="M378.574,342.243L378.574,342.243c-28.498,0-51.6-23.102-51.6-51.6v-58.05h0
		c28.498,0,51.6,23.102,51.6,51.6V342.243z"/>
	<path style="fill:#976EC4;" d="M418.195,342.243L418.195,342.243c-15.521,0-28.103-12.582-28.103-28.103v-31.616h0
		c15.521,0,28.103,12.582,28.103,28.103V342.243z"/>
</g>
<g>
</g>
<g>
</g>
<g>
</g>
<g>
</g>
<g>
</g>
<g>
</g>
<g>
</g>
<g>
</g>
<g>
</g>
<g>
</g>
<g>
</g>
<g>
</g>
<g>
</g>
<g>
</g>
<g>
</g>
</svg>
