<?xml version="1.0" encoding="iso-8859-1"?>
<!-- Generator: Adobe Illustrator 19.0.0, SVG Export Plug-In . SVG Version: 6.00 Build 0)  -->
<svg version="1.1" id="Layer_1" xmlns="http://www.w3.org/2000/svg" xmlns:xlink="http://www.w3.org/1999/xlink" x="0px" y="0px"
	 viewBox="0 0 512.002 512.002" style="enable-background:new 0 0 512.002 512.002;" xml:space="preserve">
<g>
	<path style="fill:#FFEB99;" d="M170.468,366.806c-15.026,30.365-40.071,39.355-57.455,37.08
		c-21.575-2.823-34.124-25.948-25.25-45.815l73.288-184.056l29.094-6.614l57.087,64.206L170.468,366.806z"/>
	<path style="fill:#FFEB99;" d="M424.925,358.073c8.874,19.866-3.675,42.992-25.25,45.815c-17.383,2.274-42.427-6.715-57.455-37.08
		l-54.449-144.323l35.901-55.32c0,0,27.163,5.036,27.281,6.924C351.072,175.977,424.925,358.073,424.925,358.073z"/>
</g>
<path style="fill:#FFCD00;" d="M317.068,222.8c33.537,33.537,33.537,199.847,0,233.384c-16.768,16.768-61.316,47.982-61.316,47.982
	s-43.363-31.213-60.132-47.982c-33.537-33.537-33.537-199.847,0-233.384H317.068z"/>
<path d="M337.765,278.93l-162.838-0.022c-1.595,9.969-2.764,20.646-3.502,31.659l169.84,0.022
	C340.529,299.575,339.361,288.899,337.765,278.93z"/>
<path d="M176.565,409.303c2.405,12.217,5.522,23.039,9.351,31.66h140.855c3.829-8.62,6.947-19.442,9.351-31.66H176.565z"/>
<path d="M342.169,345.983H170.521c0.156,10.73,0.699,21.393,1.631,31.66h168.385C341.469,367.376,342.012,356.713,342.169,345.983z"
	/>
<path style="fill:#663A00;" d="M306.535,231.607H206.153c-24.247,0-44.086-19.839-44.086-44.086v-8.413
	c0-24.247,19.839-44.086,44.086-44.086h100.382c24.247,0,44.086,19.839,44.086,44.086v8.413
	C350.622,211.767,330.783,231.607,306.535,231.607z"/>
<g>
	<path style="fill:#FCEFB9;" d="M350.622,167.163l125.509,140.83c14.477,16.243,9.524,42.085-10.182,51.312
		c-15.878,7.434-36.851,7.607-60.371-16.777C353.87,288.92,350.622,167.163,350.622,167.163z"/>
	<path style="fill:#FCEFB9;" d="M161.38,167.163L35.872,307.994c-14.477,16.243-9.524,42.085,10.182,51.312
		c15.878,7.434,36.851,7.607,60.371-16.777C158.132,288.92,161.38,167.163,161.38,167.163z"/>
</g>
<path d="M297.023,132.402h17.264c17.735,0,32.112-14.376,32.112-32.112s-14.376-37.834-32.112-37.834h-18.66h-78.566h-18.66
	c-17.735,0-32.112,20.098-32.112,37.834s14.376,32.112,32.112,32.112h17.264H297.023z"/>
<path style="fill:#FFCD00;" d="M314.498,100.895c0,32.059-25.989,38.699-58.048,38.699s-58.048-6.639-58.048-38.699
	s58.048-63.77,58.048-63.77S314.498,68.837,314.498,100.895z"/>
<g style="opacity:0.1;">
	<path d="M305.291,31.162c0,9.168-7.46,16.629-16.629,16.629h-4.243c9.068,78.548,13.991,246.985-73.425,419.149
		c19.722,17.009,50.529,39.184,50.529,39.184s44.547-31.213,61.315-47.982c4.834-4.834,8.967-12.44,12.408-21.997
		c0.039-0.108,0.076-0.217,0.115-0.326c0.34-0.952,0.673-1.919,0.999-2.908l4.144-15.118c0.477-2.093,0.934-4.229,1.365-6.416
		c0.008-0.039,0.017-0.076,0.024-0.115h-0.002c1.931-9.803,3.402-20.495,4.415-31.66h0.001c0.001-0.016,0.002-0.032,0.004-0.048
		c0.227-2.499,0.428-5.022,0.609-7.564c0.008-0.112,0.016-0.224,0.023-0.335c0.113-1.607,0.216-3.219,0.311-4.838l0.735,1.951
		c15.027,30.364,40.071,39.355,57.455,37.08c21.575-2.823,34.124-25.949,25.25-45.815c0,0-0.06-0.147-0.169-0.417
		c15.734,8.585,29.78,6.993,41.192,1.65c19.706-9.227,24.659-35.067,10.182-51.312L356.392,169.123c0,0,0.067,2.5,0.332,6.925
		v-0.001c-0.011-0.178-0.262-0.383-0.707-0.61c-0.358-2.78-0.976-5.481-1.831-8.078c23.583-6.3,38.66-27.034,38.66-53.633V53.733
		c0-4.328-3.507-7.835-7.835-7.835c-4.328,0-7.835,3.507-7.835,7.835v59.993c0,20.244-11.139,35.184-29.07,38.989
		c-0.583,0.123-1.133,0.314-1.652,0.553c-8.101-9.923-20.415-16.288-34.147-16.288h-15.284c2.109-0.755,4.104-1.627,5.976-2.618
		h17.06c17.735,0,32.112-14.377,32.112-32.112s-14.376-37.834-32.112-37.834h-18.66h-3.85c-0.633-0.581-1.27-1.154-1.911-1.721
		L305.291,31.162z"/>
</g>
<path d="M481.98,302.78L359.141,164.946c20.699-7.743,33.672-27.365,33.672-52.038V52.916c0-4.328-3.507-7.835-7.835-7.835
	c-4.328,0-7.835,3.507-7.835,7.835v59.993c0,19.362-10.195,33.866-26.773,38.422c-5.074-7.98-12.259-14.485-20.77-18.725
	c14.448-6.02,24.634-20.285,24.634-36.89c0-21.559-17.084-45.67-39.946-45.67h-8.147c6.818-5.927,11.141-14.651,11.141-24.373V7.835
	c0-4.328-3.507-7.835-7.835-7.835c-4.328,0-7.835,3.507-7.835,7.835v17.839c0,9.058-7.285,16.435-16.301,16.612
	c-12.983-9.95-24.555-16.311-25.104-16.61c-2.342-1.28-5.172-1.28-7.513,0c-0.546,0.299-12.077,6.636-25.031,16.554
	c-8.496-0.733-15.189-7.873-15.189-16.556V7.835c0-4.328-3.507-7.835-7.835-7.835s-7.835,3.507-7.835,7.835v17.839
	c0,9.722,4.323,18.447,11.141,24.373h-9.542c-22.863,0-39.946,24.111-39.946,45.67c0,16.605,10.185,30.869,24.634,36.89
	c-8.145,4.057-15.083,10.184-20.111,17.698c-14.687-5.46-23.587-19.306-23.587-37.395V52.916c0-4.328-3.507-7.835-7.835-7.835
	c-4.328,0-7.835,3.507-7.835,7.835v59.993c0,23.328,11.592,42.15,30.352,50.677L30.023,302.78
	c-8.654,9.712-12.117,22.6-9.498,35.362c2.578,12.559,10.672,22.86,22.205,28.26c6.224,2.915,13.774,5.146,22.296,5.146
	c3.828,0,7.853-0.451,12.043-1.492c-0.272,7.349,1.463,14.712,5.204,21.397c6.262,11.188,17.096,18.553,29.724,20.205
	c1.984,0.26,4.065,0.397,6.22,0.397c14.545-0.001,32.479-6.245,47-23.06c0.49,4.137,1.055,8.237,1.7,12.27
	c-20.808,7.694-33.858,27.361-33.858,52.108v21.838c0,4.328,3.507,7.835,7.835,7.835s7.835-3.507,7.835-7.835v-21.838
	c0-17.087,7.937-30.397,21.196-36.42c2.237,9.832,5.042,18.916,8.496,26.682c0.149,0.412,0.328,0.809,0.541,1.185
	c3.164,6.855,6.847,12.637,11.116,16.907c17.022,17.021,59.305,47.511,61.095,48.8c1.368,0.983,2.972,1.476,4.578,1.476
	c1.572,0,3.147-0.472,4.496-1.418c1.842-1.29,45.303-31.801,62.36-48.859c4.269-4.269,7.951-10.051,11.116-16.907
	c0.213-0.376,0.392-0.773,0.542-1.185c3.243-7.291,5.915-15.74,8.081-24.881c15.377,5.149,24.745,19.244,24.745,37.805v21.838
	c0,4.328,3.507,7.835,7.835,7.835c4.328,0,7.835-3.507,7.835-7.835v-21.838c0-26.091-14.506-46.539-37.319-53.257
	c0.784-4.685,1.453-9.473,2.025-14.306c14.521,16.817,32.455,23.061,47,23.06c2.155,0,4.237-0.138,6.22-0.397
	c12.629-1.652,23.462-9.017,29.724-20.205c3.714-6.636,5.451-13.94,5.211-21.234c3.94,0.921,7.732,1.329,11.349,1.329
	c8.522,0,16.073-2.232,22.297-5.146c11.533-5.4,19.626-15.699,22.205-28.259C494.097,325.381,490.634,312.491,481.98,302.78z
	 M338.563,95.718c0,12.575-9.611,22.945-21.874,24.156c3.743-6.507,5.644-14.365,5.644-23.551c0-9.828-4.177-20.066-12.455-30.603
	h4.41C327.361,65.718,338.563,82.213,338.563,95.718z M256.453,41.572c5.669,3.348,13.193,8.282,20.685,14.138
	c0.4,0.395,0.846,0.743,1.324,1.046c14.36,11.445,28.199,26.163,28.199,39.566c0,10.287-2.645,18.662-12.124,24.08
	c-0.793,0.265-1.525,0.654-2.182,1.143c-7.642,3.623-19.066,5.639-35.906,5.639c-17.486,0-29.122-2.179-36.758-6.069
	c-0.319-0.192-0.648-0.369-0.995-0.514c-9.763-5.411-12.461-13.868-12.461-24.28C206.237,75.569,239.576,51.559,256.453,41.572z
	 M174.126,95.718c0-13.504,11.203-29.999,24.275-29.999h4.62c-8.278,10.537-12.455,20.775-12.455,30.603
	c0,9.194,1.905,17.059,5.654,23.569C183.853,118.783,174.126,108.368,174.126,95.718z M206.153,142.855h100.382
	c19.989,0,36.251,16.262,36.251,36.251v8.414c0,19.989-16.262,36.25-36.251,36.25H206.153c-19.989,0-36.251-16.261-36.251-36.25
	v-8.414c0-5.317,1.16-10.364,3.225-14.918c0.524-0.713,0.929-1.52,1.192-2.408C180.476,150.515,192.436,142.855,206.153,142.855z
	 M321.707,433.128H190.983c-1.817-4.713-3.472-10.076-4.942-15.989h140.607C325.178,423.051,323.524,428.415,321.707,433.128z
	 M334.342,338.148H178.348c0.094-6.748,0.356-13.341,0.771-19.734H333.57C333.985,324.807,334.248,331.4,334.342,338.148z
	 M178.429,353.818h155.83c-0.134,5.448-0.379,10.786-0.725,15.989h-154.38C178.808,364.604,178.564,359.267,178.429,353.818z
	 M332.202,302.743H180.487c0.617-5.561,1.359-10.904,2.216-15.99h147.284C330.843,291.839,331.585,297.182,332.202,302.743z
	 M332.138,385.479c-0.628,5.564-1.38,10.907-2.247,15.99H182.798c-0.867-5.083-1.619-10.425-2.247-15.99H332.138z M185.906,271.084
	c3.525-14.367,8.129-25.547,13.503-32.094c2.21,0.288,4.458,0.452,6.745,0.452h100.382c2.287,0,4.535-0.164,6.745-0.452
	c5.374,6.547,9.978,17.727,13.503,32.094H185.906z M49.376,352.21c-7.006-3.281-11.927-9.556-13.499-17.218
	c-1.615-7.865,0.515-15.806,5.844-21.785l110.201-123.652c-3.666,37.072-15.285,110.367-51.137,147.534
	C83.262,355.257,66.447,360.203,49.376,352.21z M114.03,396.118c-7.67-1.004-14.26-5.494-18.082-12.32
	c-3.694-6.599-4.238-14.266-1.561-21.243c5.721-3.555,11.634-8.322,17.677-14.586c31.707-32.871,45.869-88.882,52.167-129.863
	c5.009,6.848,11.647,12.432,19.346,16.166c-6.757,10.719-11.632,25.791-14.967,42.625c-0.1,0.376-0.18,0.761-0.224,1.156
	c-1.942,10.064-3.349,20.718-4.281,31.427c-0.041,0.293-0.068,0.588-0.075,0.891c-0.959,11.337-1.398,22.709-1.398,33.464
	c0,6.52,0.164,13.269,0.505,20.097C149.652,390.643,128.309,397.982,114.03,396.118z M255.814,494.516
	c-11.461-8.4-41.657-30.878-54.653-43.873c-0.56-0.56-1.109-1.187-1.654-1.844h113.675c-0.544,0.656-1.094,1.284-1.654,1.844
	C298.533,463.638,267.503,486.166,255.814,494.516z M416.741,383.798c-3.821,6.826-10.412,11.316-18.082,12.32
	c-14.271,1.87-35.623-5.475-49.107-32.19c0.34-6.828,0.505-13.576,0.505-20.095c0-21.199-1.702-44.788-5.754-65.782
	c-0.044-0.396-0.122-0.781-0.223-1.156c-3.335-16.834-8.209-31.906-14.967-42.625c7.411-3.593,13.839-8.901,18.778-15.399
	c6.356,40.91,20.539,96.43,52.049,129.096c6.354,6.587,12.563,11.518,18.556,15.127
	C420.943,369.926,420.339,377.369,416.741,383.798z M476.125,334.99c-1.573,7.662-6.494,13.938-13.5,17.218
	c-17.064,7.99-33.883,3.047-51.408-15.122c-35.852-37.167-47.471-110.461-51.137-147.534L470.28,313.205
	C475.609,319.186,477.739,327.126,476.125,334.99z"/>
<g>
</g>
<g>
</g>
<g>
</g>
<g>
</g>
<g>
</g>
<g>
</g>
<g>
</g>
<g>
</g>
<g>
</g>
<g>
</g>
<g>
</g>
<g>
</g>
<g>
</g>
<g>
</g>
<g>
</g>
</svg>
