<?xml version="1.0" encoding="iso-8859-1"?>
<!-- Generator: Adobe Illustrator 19.0.0, SVG Export Plug-In . SVG Version: 6.00 Build 0)  -->
<svg version="1.1" id="Layer_1" xmlns="http://www.w3.org/2000/svg" xmlns:xlink="http://www.w3.org/1999/xlink" x="0px" y="0px"
	 viewBox="0 0 512 512" style="enable-background:new 0 0 512 512;" xml:space="preserve">
<g>
	<path style="fill:#754F1E;" d="M368.294,496.914l-32.76-32.76V388.28c0-4.88-3.957-8.837-8.837-8.837
		c-4.88,0-8.837,3.957-8.837,8.837v75.874l-32.76,32.76c-3.191,3.19-3.429,8.435-0.542,11.902c3.28,3.939,9.415,4.219,13.039,0.595
		l20.262-20.262v14.012c0,4.88,3.957,8.837,8.837,8.837c4.88,0,8.837-3.957,8.837-8.837v-14.015l20.262,20.262
		c3.63,3.63,9.752,3.337,13.039-0.595C371.729,505.356,371.479,500.1,368.294,496.914z"/>
	<path style="fill:#754F1E;" d="M226.9,496.914l-32.76-32.76V388.28c0-4.88-3.957-8.837-8.837-8.837
		c-4.88,0-8.837,3.957-8.837,8.837v75.874l-32.76,32.76c-3.191,3.19-3.429,8.435-0.542,11.902c3.28,3.939,9.415,4.219,13.039,0.595
		l20.262-20.262v14.012c0,4.88,3.957,8.837,8.837,8.837c4.88,0,8.837-3.957,8.837-8.837v-14.015l20.262,20.262
		c3.63,3.63,9.752,3.337,13.039-0.595C230.335,505.356,230.086,500.1,226.9,496.914z"/>
</g>
<path style="fill:#F5E038;" d="M397.393,317.584c60.208,0,109.598-46.315,114.486-105.262c0.429-5.172-3.62-9.62-8.81-9.62H282.511
	C282.511,266.149,333.945,317.584,397.393,317.584z"/>
<g>
	<path style="fill:#F9C900;" d="M468.09,238.05c-4.88,0-8.837,3.957-8.837,8.837s3.957,8.837,8.837,8.837h31.24
		c2.936-5.634,5.415-11.541,7.397-17.674H468.09z"/>
	<path style="fill:#F9C900;" d="M441.579,273.398c0,4.88,3.957,8.837,8.837,8.837h29.867c5.194-5.412,9.863-11.329,13.926-17.674
		h-43.793C445.536,264.561,441.579,268.518,441.579,273.398z"/>
</g>
<path style="fill:#F5E038;" d="M114.606,317.584c-60.208,0-109.598-46.315-114.485-105.262c-0.429-5.172,3.62-9.62,8.809-9.62
	h220.558C229.488,266.149,178.054,317.584,114.606,317.584z"/>
<g>
	<path style="fill:#F9C900;" d="M43.909,238.05c4.88,0,8.837,3.957,8.837,8.837s-3.957,8.837-8.837,8.837h-31.24
		c-2.936-5.634-5.415-11.541-7.397-17.674H43.909z"/>
	<path style="fill:#F9C900;" d="M70.42,273.398c0,4.88-3.957,8.837-8.837,8.837H31.716c-5.194-5.412-9.863-11.329-13.926-17.674
		h43.793C66.463,264.561,70.42,268.518,70.42,273.398z"/>
	<path style="fill:#F9C900;" d="M88.094,255.724c0-92.731,75.174-247.439,167.905-247.439s167.905,154.708,167.905,247.439
		s-75.174,167.905-167.905,167.905S88.094,348.455,88.094,255.724z"/>
</g>
<path style="fill:#F9AA0C;" d="M317.859,370.606c-92.731,0-167.905-75.174-167.905-167.905c0-55.141,26.582-132.193,67.628-185.604
	C143.366,51.141,88.094,176.211,88.094,255.724c0,92.731,75.174,167.905,167.905,167.905c56.51,0,106.5-27.916,136.931-70.711
	C370.338,364.23,344.846,370.606,317.859,370.606z"/>
<circle style="fill:#FFFFFF;" cx="194.14" cy="176.19" r="17.674"/>
<path style="fill:#754F1E;" d="M194.14,202.701c-14.619,0-26.511-11.893-26.511-26.511c0-14.619,11.893-26.511,26.511-26.511
	c14.619,0,26.511,11.893,26.511,26.511C220.651,190.809,208.758,202.701,194.14,202.701z M194.14,167.353
	c-4.873,0-8.837,3.965-8.837,8.837s3.965,8.837,8.837,8.837s8.837-3.965,8.837-8.837S199.012,167.353,194.14,167.353z"/>
<circle style="fill:#FFFFFF;" cx="317.859" cy="176.19" r="17.674"/>
<path style="fill:#754F1E;" d="M317.859,202.701c-14.619,0-26.511-11.893-26.511-26.511c0-14.619,11.893-26.511,26.511-26.511
	c14.619,0,26.511,11.893,26.511,26.511C344.371,190.809,332.478,202.701,317.859,202.701z M317.859,167.353
	c-4.873,0-8.837,3.965-8.837,8.837s3.965,8.837,8.837,8.837c4.873,0,8.837-3.965,8.837-8.837S322.732,167.353,317.859,167.353z"/>
<g>
	<path style="fill:#EA802C;" d="M224.769,202.701h62.461c7.937,0,11.851,9.65,6.155,15.179l-30.596,29.698
		c-3.533,4.24-10.044,4.24-13.578,0l-30.596-29.698C212.92,212.351,216.832,202.701,224.769,202.701z"/>
	<path style="fill:#EA802C;" d="M476.927,396.565c-4.575,0-8.285-3.709-8.285-8.285v-8.837c0-4.575,3.709-8.285,8.285-8.285
		s8.285,3.709,8.285,8.285v8.837C485.212,392.856,481.503,396.565,476.927,396.565z"/>
	<path style="fill:#EA802C;" d="M503.438,414.239h-8.837c-4.575,0-8.285-3.709-8.285-8.285s3.709-8.285,8.285-8.285h8.837
		c4.575,0,8.285,3.709,8.285,8.285S508.014,414.239,503.438,414.239z"/>
	<path style="fill:#EA802C;" d="M476.927,440.751c-4.575,0-8.285-3.709-8.285-8.285v-8.837c0-4.575,3.709-8.285,8.285-8.285
		s8.285,3.709,8.285,8.285v8.837C485.212,437.041,481.503,440.751,476.927,440.751z"/>
	<path style="fill:#EA802C;" d="M459.253,414.239h-8.837c-4.575,0-8.285-3.709-8.285-8.285s3.709-8.285,8.285-8.285h8.837
		c4.575,0,8.285,3.709,8.285,8.285S463.828,414.239,459.253,414.239z"/>
	<path style="fill:#EA802C;" d="M35.072,113.778c-4.575,0-8.285-3.709-8.285-8.285v-8.837c0-4.575,3.709-8.285,8.285-8.285
		c4.575,0,8.285,3.709,8.285,8.285v8.837C43.357,110.068,39.647,113.778,35.072,113.778z"/>
	<path style="fill:#EA802C;" d="M61.583,131.452h-8.837c-4.575,0-8.285-3.709-8.285-8.285c0-4.575,3.709-8.285,8.285-8.285h8.837
		c4.575,0,8.285,3.709,8.285,8.285C69.868,127.743,66.158,131.452,61.583,131.452z"/>
	<path style="fill:#EA802C;" d="M35.072,157.963c-4.575,0-8.285-3.709-8.285-8.285v-8.837c0-4.575,3.709-8.285,8.285-8.285
		c4.575,0,8.285,3.709,8.285,8.285v8.837C43.357,154.254,39.647,157.963,35.072,157.963z"/>
	<path style="fill:#EA802C;" d="M17.398,131.452H8.56c-4.575,0-8.285-3.709-8.285-8.285c0-4.575,3.709-8.285,8.285-8.285h8.837
		c4.575,0,8.285,3.709,8.285,8.285C25.682,127.743,21.973,131.452,17.398,131.452z"/>
	<path style="fill:#EA802C;" d="M415.067,25.407c-4.575,0-8.285-3.709-8.285-8.285V8.285c0-4.575,3.709-8.285,8.285-8.285
		c4.575,0,8.285,3.709,8.285,8.285v8.837C423.352,21.697,419.643,25.407,415.067,25.407z"/>
	<path style="fill:#EA802C;" d="M441.579,43.081h-8.837c-4.575,0-8.285-3.709-8.285-8.285s3.709-8.285,8.285-8.285h8.837
		c4.575,0,8.285,3.709,8.285,8.285C449.864,39.372,446.154,43.081,441.579,43.081z"/>
	<path style="fill:#EA802C;" d="M415.067,69.592c-4.575,0-8.285-3.709-8.285-8.285V52.47c0-4.575,3.709-8.285,8.285-8.285
		c4.575,0,8.285,3.709,8.285,8.285v8.837C423.352,65.883,419.643,69.592,415.067,69.592z"/>
	<path style="fill:#EA802C;" d="M397.393,43.081h-8.837c-4.575,0-8.285-3.709-8.285-8.285s3.709-8.285,8.285-8.285h8.837
		c4.575,0,8.285,3.709,8.285,8.285C405.678,39.372,401.969,43.081,397.393,43.081z"/>
</g>
<g>
</g>
<g>
</g>
<g>
</g>
<g>
</g>
<g>
</g>
<g>
</g>
<g>
</g>
<g>
</g>
<g>
</g>
<g>
</g>
<g>
</g>
<g>
</g>
<g>
</g>
<g>
</g>
<g>
</g>
</svg>
