<?xml version="1.0" encoding="iso-8859-1"?>
<!-- Generator: Adobe Illustrator 19.0.0, SVG Export Plug-In . SVG Version: 6.00 Build 0)  -->
<svg version="1.1" id="Layer_1" xmlns="http://www.w3.org/2000/svg" xmlns:xlink="http://www.w3.org/1999/xlink" x="0px" y="0px"
	 viewBox="0 0 497.6 497.6" style="enable-background:new 0 0 497.6 497.6;" xml:space="preserve">
<rect x="410.293" y="171.512" transform="matrix(-0.7071 -0.7072 0.7072 -0.7071 615.1063 669.8385)" style="fill:#029B40;" width="72.004" height="72.004"/>
<polygon style="fill:#07AA49;" points="446.4,258 395.2,207.6 446.4,207.6 497.6,207.6 "/>
<polygon style="fill:#775E43;" points="56.8,197.2 260.8,107.6 464.8,197.2 464.8,277.2 260.8,346.8 56.8,277.2 "/>
<polygon style="fill:#08B74F;" points="56.8,146 260.8,57.2 464.8,146 464.8,206.8 260.8,326 56.8,206.8 "/>
<polyline style="fill:#17CC60;" points="464.8,152.4 464.8,206.8 260.8,326 56.8,203.6 "/>
<polyline style="fill:#07AA49;" points="260.8,57.2 464.8,146 464.8,206.8 260.8,326 "/>
<polyline style="fill:#029B40;" points="264,169.2 464.8,146 464.8,206.8 260.8,326 "/>
<polygon style="fill:#36C670;" points="128.8,114.8 260.8,57.2 392.8,114.8 392.8,153.2 260.8,229.2 128.8,153.2 "/>
<polyline style="fill:#51D687;" points="130.4,114 261.6,57.2 392,119.6 392.8,153.2 261.6,229.2 "/>
<polyline style="fill:#36C670;" points="261.6,57.2 392.8,118 392.8,153.2 261.6,229.2 "/>
<polyline style="fill:#51D687;" points="392.8,114.8 392.8,153.2 261.6,229.2 "/>
<g>
	<polyline style="fill:#846A4F;" points="208.8,296.4 96.8,296.4 120,270 	"/>
	<polyline style="fill:#846A4F;" points="312.8,296.4 428.8,296.4 403.2,270 	"/>
</g>
<polygon style="fill:#CCAF89;" points="464.8,408.4 396,408.4 425.6,280.4 464.8,280.4 "/>
<polygon style="fill:#BC9B73;" points="464.8,408.4 396,408.4 447.2,358 464.8,281.2 "/>
<g>
	<polygon style="fill:#E8D9B5;" points="427.2,408.4 412,393.2 396.8,408.4 	"/>
	<polygon style="fill:#E8D9B5;" points="439.2,408.4 424,393.2 409.6,408.4 	"/>
	<polygon style="fill:#E8D9B5;" points="451.2,408.4 436.8,393.2 421.6,408.4 	"/>
</g>
<circle style="fill:#BC9B73;" cx="431.2" cy="280.4" r="36.8"/>
<path style="fill:#CCAF89;" d="M457.6,254.8c14.4,14.4,14.4,37.6,0,52s-37.6,14.4-52,0"/>
<polygon style="fill:#846A4F;" points="56.8,280.4 142.4,280.4 94.4,129.2 56.8,128.4 "/>
<polygon style="fill:#775E43;" points="56.8,280.4 142.4,280.4 94.4,129.2 82.4,132.4 "/>
<polygon style="fill:#CCAF89;" points="136.8,408.4 64,408.4 92.8,280.4 136.8,280.4 "/>
<polygon style="fill:#BC9B73;" points="136.8,408.4 64,408.4 116.8,358 136.8,281.2 "/>
<g>
	<polygon style="fill:#E8D9B5;" points="94.4,408.4 79.2,393.2 64.8,408.4 	"/>
	<polygon style="fill:#E8D9B5;" points="106.4,408.4 92,393.2 76.8,408.4 	"/>
	<polygon style="fill:#E8D9B5;" points="119.2,408.4 104,393.2 88.8,408.4 	"/>
</g>
<path style="fill:#BC9B73;" d="M136,280.4c0,20-16.8,36.8-36.8,36.8s-36.8-16.8-36.8-36.8s16.8-36.8,36.8-36.8S136,260.4,136,280.4z
	"/>
<path style="fill:#CCAF89;" d="M124.8,254.8c14.4,14.4,14.4,37.6,0,52s-37.6,14.4-52,0"/>
<polygon style="fill:#775E43;" points="7.2,130.8 94.4,131.6 88.8,82.8 44,75.6 2.4,94.8 "/>
<polyline style="fill:#846A4F;" points="2.4,94.8 0,142.8 80.8,131.6 "/>
<polygon style="fill:#775E43;" points="8.8,128.4 56.8,128.4 56.8,162.8 13.6,147.6 "/>
<polyline style="fill:#846A4F;" points="12.8,146 8.8,128.4 48.8,128.4 "/>
<g>
	<circle style="fill:#029B40;" cx="177.6" cy="137.2" r="6.4"/>
	<circle style="fill:#029B40;" cx="206.4" cy="137.2" r="6.4"/>
	<circle style="fill:#029B40;" cx="235.2" cy="137.2" r="6.4"/>
</g>
<g>
	<circle style="fill:#A4EDC1;" cx="289.6" cy="137.2" r="6.4"/>
	<circle style="fill:#A4EDC1;" cx="318.4" cy="137.2" r="6.4"/>
	<circle style="fill:#A4EDC1;" cx="347.2" cy="137.2" r="6.4"/>
</g>
<circle style="fill:#CCAF89;" cx="41.6" cy="108.4" r="6.4"/>
<polygon style="fill:#00899B;" points="212,440.4 180.8,408.4 148.8,440.4 "/>
<polygon style="fill:#19DAF4;" points="260,440.4 228.8,408.4 196.8,440.4 "/>
<polygon style="fill:#00899B;" points="308,440.4 276.8,408.4 244.8,440.4 "/>
<polygon style="fill:#19DAF4;" points="356,440.4 324.8,408.4 292.8,440.4 "/>
<polygon style="fill:#00899B;" points="404,440.4 372.8,408.4 340.8,440.4 "/>
<g>
</g>
<g>
</g>
<g>
</g>
<g>
</g>
<g>
</g>
<g>
</g>
<g>
</g>
<g>
</g>
<g>
</g>
<g>
</g>
<g>
</g>
<g>
</g>
<g>
</g>
<g>
</g>
<g>
</g>
</svg>
