<?xml version="1.0" encoding="iso-8859-1"?>
<!-- Generator: Adobe Illustrator 19.0.0, SVG Export Plug-In . SVG Version: 6.00 Build 0)  -->
<svg version="1.1" id="Layer_1" xmlns="http://www.w3.org/2000/svg" xmlns:xlink="http://www.w3.org/1999/xlink" x="0px" y="0px"
	 viewBox="0 0 492.723 492.723" style="enable-background:new 0 0 492.723 492.723;" xml:space="preserve">
<g id="XMLID_1188_">
	<g id="XMLID_967_">
		<path style="fill:#A1C4D4;" d="M330.881,339.701c20.295,0,36.748,16.453,36.748,36.748c0,20.295-16.453,36.748-36.748,36.748
			h-22.049l22.049-36.748l-22.049-36.748H330.881z"/>
	</g>
	<g id="XMLID_1103_">
		<polygon style="fill:#A1C4D4;" points="250.036,141.263 250.036,111.864 279.434,75.116 301.483,75.116 301.483,141.263 		"/>
	</g>
	<g id="XMLID_1117_">
		<path style="fill:#A1C4D4;" d="M475.371,229.458h2.502c0-48.709-46.836-88.195-95.545-88.195H195.382
			c-46.938,0-84.988,38.05-84.988,84.988v3.207h275.201l11.433,51.447l73.496,36.748l14.699-58.319L475.371,229.458z"/>
	</g>
	<g id="XMLID_1104_">
		<path style="fill:#72A6BF;" d="M389.678,229.458h-7.35H36.898c-16.237,0-29.398,13.162-29.398,29.398
			c0,16.236,13.162,29.398,29.398,29.398h213.138c0,12.177,19.743,22.049,44.097,22.049s44.097-9.872,44.097-22.049h44.098v7.35
			l29.398,29.398l-22.049,51.447c40.59,0,73.496-32.905,73.496-73.496C463.174,262.362,430.268,229.458,389.678,229.458z"/>
	</g>
	<g id="XMLID_458_">
		<rect x="183.89" y="218.283" style="fill:#FFFFFF;" width="14.699" height="15"/>
	</g>
	<g id="XMLID_461_">
		<rect x="335.12" y="280.754" style="fill:#1D1D1B;" width="33.509" height="15"/>
	</g>
	<g id="XMLID_336_">
		<path style="fill:#1D1D1B;" d="M308.983,126.564h-15V83.257c-20.673,3.568-36.447,21.63-36.447,43.307h-15
			c0-32.504,26.443-58.947,58.947-58.947h7.5V126.564z"/>
	</g>
	<path style="fill:#1D1D1B;" d="M492.723,258.855c0-68.977-56.117-125.093-125.094-125.093h-175.42
		c-48.873,0-88.703,39.462-89.308,88.194H36.898C16.553,221.957,0,238.51,0,258.855c0,20.345,16.553,36.898,36.898,36.898h191.094
		l16.609-0.012l1.337,1.337c13.364,13.363,31.132,20.724,50.032,20.724c18.9,0,36.668-7.36,50.032-20.725l5.303-5.303
		l-58.163-58.164l-10.607,10.607l47.206,47.205c-9.658,7.383-21.407,11.379-33.77,11.379c-14.893,0-28.895-5.8-39.425-16.331
		l-5.734-5.733l-22.823,0.016H36.898C24.823,280.753,15,270.93,15,258.855c0-12.075,9.824-21.898,21.898-21.898h80.996v-13.879
		c0-40.977,33.337-74.315,74.315-74.315h175.42c60.706,0,110.094,49.388,110.094,110.093c0,45.241-27.433,84.19-66.535,101.101
		c5.081-7.989,8.039-17.456,8.039-27.605c0-28.451-23.146-51.598-51.598-51.598v15c20.18,0,36.598,16.418,36.598,36.598
		c0,17.854-12.855,32.754-29.792,35.953c-3.888-22.965-23.908-40.514-47.962-40.514h-30.564l27.805,48.658l-27.805,48.657h30.564
		c24.348,0,44.574-17.976,48.108-41.354C440.335,380.134,492.723,325.499,492.723,258.855z M326.472,410.106h-4.716l19.234-33.657
		l-19.234-33.658h4.716c18.559,0,33.657,15.099,33.657,33.658C360.129,395.008,345.03,410.106,326.472,410.106z"/>
	<g id="XMLID_675_">
		<rect x="220.638" y="155.812" style="fill:#FFFFFF;" width="22.049" height="15"/>
	</g>
</g>
<g>
</g>
<g>
</g>
<g>
</g>
<g>
</g>
<g>
</g>
<g>
</g>
<g>
</g>
<g>
</g>
<g>
</g>
<g>
</g>
<g>
</g>
<g>
</g>
<g>
</g>
<g>
</g>
<g>
</g>
</svg>
