<?xml version="1.0" encoding="iso-8859-1"?>
<!-- Generator: Adobe Illustrator 19.0.0, SVG Export Plug-In . SVG Version: 6.00 Build 0)  -->
<svg version="1.1" id="Layer_1" xmlns="http://www.w3.org/2000/svg" xmlns:xlink="http://www.w3.org/1999/xlink" x="0px" y="0px"
	 viewBox="0 0 512 512" style="enable-background:new 0 0 512 512;" xml:space="preserve">
<ellipse style="fill:#FFE666;" cx="255.999" cy="223.295" rx="145.418" ry="196.211"/>
<g>
	<path style="fill:#EDD147;" d="M401.104,236.189c-4.921,102.358-68.002,183.327-145.105,183.327
		c-46.55,0-88.001-29.518-114.615-75.442l108.69-76.058l2.79,73.665l92.651-78.023l5.914,52.945L401.104,236.189z"/>
	<path style="fill:#EDD147;" d="M88.999,307.417c-14.445-62.477,21.577-86.596,21.577-86.596l13.974,86.501l-14.133,16.333
		L88.999,307.417z"/>
</g>
<path style="fill:#FFE666;" d="M423,307.417c14.445-62.477-21.577-86.596-21.577-86.596l-13.892,86.596l14.051,16.238L423,307.417z"
	/>
<g>
	<path style="fill:#EDD147;" d="M364.115,354.513c-26.614,39.905-65.191,65.003-108.116,65.003
		c-80.311,0-145.418-87.855-145.418-196.221c0-64.606,23.144-121.919,58.849-157.654c-23.176,34.764-37.282,80.76-37.282,131.187
		c0,108.366,65.108,196.211,145.418,196.211C309.989,393.038,339.936,378.723,364.115,354.513z"/>
	<path style="fill:#EDD147;" d="M250.301,240.065l-28.027-51.825h67.452l-28.845,51.886
		C258.565,244.29,252.567,244.254,250.301,240.065z"/>
</g>
<path style="fill:#E86F22;" d="M282.27,183.328c1.487,1.487,1.637,3.846,0.352,5.511l-23.311,30.171
	c-0.836,1.087-2.058,1.63-3.302,1.63c-1.212,0-2.445-0.522-3.281-1.588l-0.031-0.042l-23.301-30.172
	c-1.285-1.663-1.134-4.023,0.352-5.509l14.402-14.411h0.01c0.408-0.408,0.836-0.794,1.275-1.149c0.439-0.366,0.888-0.69,1.348-0.993
	c0,0,0,0,0.01,0c0.46-0.313,0.93-0.596,1.421-0.846c2.435-1.285,5.12-1.923,7.795-1.923c4.295,0,8.579,1.64,11.849,4.911
	L282.27,183.328z"/>
<path style="fill:#C9571E;" d="M256.01,164.007v56.633c-1.212,0-2.445-0.522-3.281-1.588l-0.031-0.042l-23.3-30.171
	c-1.285-1.663-1.134-4.024,0.352-5.51l14.411-14.411c0.408-0.408,0.836-0.794,1.275-1.149s0.888-0.679,1.348-0.993c0,0,0,0,0.01,0
	c0.46-0.313,0.94-0.596,1.421-0.846C250.649,164.645,253.335,164.007,256.01,164.007z"/>
<path style="fill:#FFF3DC;" d="M255.999,504.163c-198.434,0-211.67-181.07-212.103-222.492c-0.037-3.473,3.937-5.462,6.705-3.363
	l56.693,42.981c1.755,1.331,4.243,1.071,5.685-0.596l42.789-49.447c1.816-2.099,5.136-1.877,6.657,0.444l40.059,61.146
	c1.569,2.395,5.027,2.539,6.79,0.282l43.43-55.601c1.673-2.142,4.914-2.142,6.588,0l43.43,55.601
	c1.763,2.257,5.221,2.113,6.79-0.282l40.059-61.146c1.521-2.322,4.841-2.543,6.657-0.444l42.789,49.447
	c1.442,1.667,3.93,1.927,5.685,0.596l56.693-42.981c2.768-2.098,6.742-0.109,6.705,3.363
	C467.67,323.093,454.434,504.163,255.999,504.163z"/>
<path style="fill:#F0DFC0;" d="M281.234,485.836c49.089,0,86.841-11.086,115.879-28.39c-31.305,27.429-76.34,46.717-141.113,46.717
	C31.931,504.163,44,273.303,44,273.303l27.178,20.605C79.014,359.717,115.628,485.836,281.234,485.836z"/>
<circle cx="205.855" cy="138.491" r="7.837"/>
<circle cx="309.289" cy="141.27" r="7.837"/>
<path d="M255.999,156.173c-6.569,0-12.746,2.558-17.391,7.204l-17.012,17.012c-2.787,2.787-3.07,7.212-0.66,10.332l28.861,37.367
	c1.484,1.922,3.774,3.047,6.203,3.047s4.719-1.125,6.203-3.047l28.861-37.367c2.411-3.12,2.126-7.544-0.66-10.332l-17.012-17.012
	C268.746,158.731,262.569,156.173,255.999,156.173z M255.999,210.477l-18.445-23.88l12.138-12.138
	c1.684-1.685,3.925-2.612,6.307-2.612s4.623,0.928,6.307,2.612l12.138,12.138L255.999,210.477z"/>
<path d="M97.743,451.82C135.644,491.753,188.889,512,255.999,512c61.659,0,111.748-17.154,148.876-50.986
	c3.199-2.915,3.429-7.871,0.514-11.071c-2.916-3.199-7.872-3.428-11.072-0.514c-34.149,31.118-80.686,46.897-138.318,46.897
	c-62.596,0-111.991-18.577-146.81-55.215C61.853,391.305,53.345,320.217,51.98,289.186l53.703,40.714c0,0,0.001,0.001,0.002,0.001
	l5.852,4.437l16.048-18.546l30.942-35.755l40.603,61.976c1.384,2.114,3.704,3.43,6.23,3.536c2.513,0.109,4.946-1.014,6.501-3.006
	l44.14-56.51l44.141,56.51c1.555,1.992,3.972,3.104,6.501,3.006c2.526-0.106,4.845-1.421,6.23-3.536l40.603-61.976l25.741,29.746
	l0,0l21.248,24.555l5.853-4.437l0.001-0.001l53.723-40.73c-1.231,28.726-8.567,91.83-47.381,140.614
	c-2.695,3.387-2.134,8.316,1.253,11.012c3.389,2.695,8.317,2.134,11.012-1.254c28.97-36.411,41.263-79.758,46.476-109.71
	c5.628-32.341,4.477-55.951,4.426-56.941c-0.153-2.897-1.893-5.475-4.524-6.698c-2.632-1.224-5.725-0.891-8.036,0.862
	l-29.442,22.322c3.734-42.957-16.406-65.2-24.675-72.415c-0.867-38.362-9.704-75.333-25.689-107.151
	c-1.943-3.868-6.655-5.429-10.521-3.485c-3.867,1.942-5.427,6.653-3.485,10.52c15.379,30.611,23.701,66.418,24.095,103.586
	l-11.092,69.143l-23.922-27.645c-1.609-1.859-4.002-2.859-6.449-2.692c-2.452,0.164-4.685,1.469-6.032,3.525l-40.295,61.506
	l-43.582-55.794c-1.485-1.902-3.764-3.012-6.175-3.012c-2.412,0-4.691,1.111-6.175,3.012l-43.582,55.794l-40.295-61.506
	c-1.347-2.056-3.581-3.361-6.032-3.525c-2.453-0.161-4.84,0.832-6.449,2.692l-23.856,27.568l-11.17-69.147
	c0.562-50.017,15.319-96.836,41.594-131.888c25.879-34.528,59.96-53.544,95.963-53.544c37.486,0,72.556,20.37,98.753,57.36
	c2.502,3.532,7.391,4.369,10.924,1.866c3.532-2.501,4.368-7.393,1.865-10.924c-14.081-19.882-30.706-35.553-49.414-46.576
	c-12.65-7.453-25.849-12.52-39.433-15.186c7.532-3.799,15.829-5.787,24.381-5.787h4.299c4.329,0,7.837-3.509,7.837-7.837
	S311.703,0,307.374,0h-4.299c-14.41,0-28.271,4.366-40.08,12.626l-6.996,4.892l-6.995-4.892C237.194,4.366,223.335,0,208.924,0
	h-4.299c-4.329,0-7.837,3.509-7.837,7.837s3.508,7.837,7.837,7.837h4.299c8.543,0,16.834,1.984,24.36,5.776
	c-32.414,6.347-62.283,26.252-85.791,57.614c-27.698,36.951-43.49,85.812-44.668,137.922c-8.286,7.241-28.378,29.482-24.647,72.392
	l-29.442-22.322c-2.314-1.753-5.405-2.086-8.036-0.862s-4.373,3.8-4.524,6.699c-0.057,1.109-1.339,27.551,5.509,62.822
	C48.035,368.428,62.918,415.128,97.743,451.82z M415.969,302.913l-13.267,10.059l-6.392-7.385
	c6.837-20.673,10.993-42.427,12.4-64.915C415.833,252.351,422.415,272.293,415.969,302.913z M96.031,302.913
	c-6.449-30.632,0.141-50.577,7.258-62.25c1.406,22.492,5.562,44.247,12.403,64.921l-6.394,7.388L96.031,302.913z"/>
<g>
</g>
<g>
</g>
<g>
</g>
<g>
</g>
<g>
</g>
<g>
</g>
<g>
</g>
<g>
</g>
<g>
</g>
<g>
</g>
<g>
</g>
<g>
</g>
<g>
</g>
<g>
</g>
<g>
</g>
</svg>
