<?xml version="1.0" encoding="iso-8859-1"?>
<!-- Generator: Adobe Illustrator 19.0.0, SVG Export Plug-In . SVG Version: 6.00 Build 0)  -->
<svg version="1.1" id="Layer_1" xmlns="http://www.w3.org/2000/svg" xmlns:xlink="http://www.w3.org/1999/xlink" x="0px" y="0px"
	 viewBox="0 0 512 512" style="enable-background:new 0 0 512 512;" xml:space="preserve">
<path style="fill:#963737;" d="M367.165,358.614l-6.122,79.583c-1.37,17.821-16.231,31.582-34.104,31.582H185.061
	c-17.873,0-32.733-13.761-34.104-31.582l-6.122-79.583H367.165z"/>
<path style="fill:#C83741;" d="M335.465,436.23c-0.34,4.427-4.084,7.895-8.526,7.895H185.061c-4.44,0-8.185-3.469-8.525-7.896
	l-5.972-77.616h-25.728l6.123,79.583c0.514,6.683,2.923,12.795,6.68,17.824c2.504,3.353,5.605,6.225,9.14,8.464
	c3.536,2.239,7.505,3.846,11.743,4.668c2.119,0.412,4.307,0.626,6.541,0.626h141.879c2.234,0,4.422-0.215,6.541-0.626
	c4.239-0.822,8.208-2.429,11.743-4.668c3.535-2.239,6.636-5.11,9.14-8.464c3.755-5.029,6.165-11.141,6.68-17.824l6.123-79.583
	h-25.728L335.465,436.23z"/>
<g>
	<path style="fill:#FFFFFF;" d="M187.591,367.165l13.254,39.763c1.232,3.698,6.464,3.698,7.696,0l13.254-39.763H187.591z"/>
	<path style="fill:#FFFFFF;" d="M290.205,367.165l13.254,39.763c1.232,3.698,6.464,3.698,7.696,0l13.254-39.763H290.205z"/>
</g>
<path style="fill:#FFDC78;" d="M375.716,102.079c-33.153-26.8-74.658-42.756-119.731-42.756c-44.914,0-86.284,15.843-119.379,42.471
	L256,204.693L375.716,102.079z"/>
<g>
	<path style="fill:#FFCF65;" d="M93.528,8.017c0,0-17.102,17.102-17.102,51.307s34.205,68.409,34.205,68.409h59.858
		C170.489,102.079,93.528,76.426,93.528,8.017z"/>
	<path style="fill:#FFCF65;" d="M418.472,8.017c0,0,17.102,17.102,17.102,51.307s-34.205,68.409-34.205,68.409h-59.858
		C341.511,102.079,418.472,76.426,418.472,8.017z"/>
</g>
<path style="fill:#FF4B4B;" d="M350.063,324.409H161.937l-51.307,25.653C196.142,392.818,256,367.165,256,367.165
	s59.858,25.653,145.37-17.102L350.063,324.409z"/>
<path style="fill:#FFCF65;" d="M350.063,127.733c-42.105,0-78.244,25.383-94.063,61.66c-15.819-36.277-51.958-61.66-94.063-61.66
	c-56.673,0-102.614,45.941-102.614,102.614c0,56.672,45.941,102.614,102.614,102.614c42.105,0,78.244-25.383,94.063-61.66
	c15.819,36.277,51.958,61.66,94.063,61.66c56.673,0,102.614-45.942,102.614-102.614
	C452.676,173.674,406.735,127.733,350.063,127.733z"/>
<circle style="fill:#963737;" cx="161.937" cy="230.347" r="64.134"/>
<circle style="fill:#FFFFFF;" cx="161.937" cy="230.347" r="34.205"/>
<path style="fill:#FFDC78;" d="M318.589,292.922c-4.712-2.298-9.226-2.997-13.423-2.621c-4.039,0.361-7.661-2.037-9.016-5.861
	C290.278,267.881,274.577,256,256,256c-18.577,0-34.278,11.881-40.15,28.44c-1.355,3.822-4.977,6.222-9.016,5.861
	c-4.198-0.376-8.711,0.324-13.423,2.621c-6.676,3.256-11.884,9.376-13.613,16.601c-4.048,16.913,8.663,31.989,24.896,31.989
	c9.15,0,17.125-4.826,21.665-12.035c7.69,7.42,18.11,12.035,29.641,12.035s21.952-4.614,29.641-12.035
	c4.542,7.209,12.516,12.035,21.665,12.035c16.232,0,28.942-15.076,24.896-31.989C330.473,302.298,325.265,296.179,318.589,292.922z"
	/>
<g>
	<path style="fill:#FF4B4B;" d="M191.351,163.458c-20.889-9.511-65.89-24.636-132.028-18.623c0,0,84.279-68.955,151.304-11.053
		c6.748,5.83,7.978,15.838,3.031,23.258l-0.094,0.14C208.715,164.455,199.309,167.081,191.351,163.458z"/>
	<path style="fill:#FF4B4B;" d="M320.649,163.458c20.889-9.511,65.89-24.636,132.028-18.623c0,0-84.279-68.955-151.304-11.053
		c-6.748,5.83-7.978,15.838-3.031,23.258l0.094,0.14C303.285,164.455,312.691,167.081,320.649,163.458z"/>
</g>
<path style="fill:#FFCF65;" d="M367.165,469.779c-17.102,25.653-51.307,34.205-76.96,34.205c-17.102,0-34.205-8.551-34.205-8.551
	s-17.102,8.551-34.205,8.551c-25.653,0-59.858-8.551-76.96-34.205H367.165z"/>
<g>
	<path style="fill:#FFFFFF;" d="M204.693,469.779l-13.601-34.001c-1.264-3.161-5.739-3.161-7.003,0l-13.601,34.001"/>
	<path style="fill:#FFFFFF;" d="M341.511,469.779l-13.601-34.001c-1.265-3.161-5.739-3.161-7.003,0l-13.601,34.001"/>
</g>
<circle style="fill:#963737;" cx="350.063" cy="230.347" r="64.134"/>
<circle style="fill:#FFFFFF;" cx="350.063" cy="230.347" r="34.205"/>
<path d="M161.937,272.568c23.281,0,42.221-18.941,42.221-42.221s-18.941-42.221-42.221-42.221s-42.221,18.941-42.221,42.221
	S138.657,272.568,161.937,272.568z M161.937,204.159c14.44,0,26.188,11.748,26.188,26.188s-11.748,26.188-26.188,26.188
	c-14.44,0-26.188-11.748-26.188-26.188S147.498,204.159,161.937,204.159z"/>
<path d="M161.937,238.406c4.427,0,8.059-3.632,8.059-8.059s-3.632-8.059-8.059-8.059s-8.059,3.632-8.059,8.059
	S157.51,238.406,161.937,238.406z"/>
<path d="M392.284,230.347c0-23.281-18.941-42.221-42.221-42.221c-23.281,0-42.221,18.941-42.221,42.221s18.941,42.221,42.221,42.221
	C373.343,272.568,392.284,253.627,392.284,230.347z M323.875,230.347c0-14.44,11.748-26.188,26.188-26.188
	c14.44,0,26.188,11.748,26.188,26.188s-11.748,26.188-26.188,26.188C335.623,256.534,323.875,244.786,323.875,230.347z"/>
<path d="M358.122,230.347c0-4.427-3.632-8.059-8.059-8.059c-4.427,0-8.059,3.632-8.059,8.059s3.632,8.059,8.059,8.059
	C354.49,238.406,358.122,234.774,358.122,230.347z"/>
<path d="M503.983,273.637c-4.427,0-8.017,3.589-8.017,8.017c0,5.786-5.068,16.712-14.754,26.398
	c-6.309,6.309-19.516,16.892-37.087,16.892h-36.75c4.725-2.873,9.215-6.094,13.442-9.62h6.205c38.708,0,59.324-29.486,59.324-50.772
	c0-4.427-3.589-8.017-8.017-8.017s-8.017,3.589-8.017,8.017c0,10.661-9.843,29.459-33.06,33.813
	c14.679-18.775,23.44-42.392,23.44-68.018c0-30.057-12.044-58.24-32.99-78.824c7.724,0.121,15.801,0.529,24.248,1.297
	c3.509,0.315,6.813-1.689,8.146-4.949c1.334-3.26,0.383-7.009-2.343-9.24c-0.719-0.588-14.554-11.794-35.509-21.565
	c8.292-10.788,21.346-31.872,21.346-57.742c0-37.099-18.656-56.182-19.451-56.975c-2.292-2.294-5.741-2.978-8.736-1.738
	c-2.996,1.241-4.949,4.163-4.949,7.406c0,39.792-25.543,64.11-44.636,78.839C333.722,63.585,295.876,51.307,256,51.307
	c-39.865,0-77.721,12.278-109.82,35.549c-19.093-14.73-44.635-39.049-44.635-78.839c0-3.243-1.953-6.165-4.949-7.406
	c-2.993-1.24-6.443-0.556-8.736,1.738c-0.794,0.793-19.451,19.876-19.451,56.975c0,25.869,13.053,46.953,21.347,57.743
	c-20.955,9.771-34.79,20.977-35.509,21.565c-2.726,2.231-3.677,5.979-2.343,9.24c1.333,3.26,4.635,5.266,8.146,4.949
	c8.446-0.769,16.524-1.176,24.248-1.297c-20.947,20.584-32.991,48.767-32.991,78.823c0,25.626,8.761,49.243,23.44,68.018
	c-23.216-4.355-33.06-23.152-33.06-33.813c0-4.427-3.589-8.017-8.017-8.017s-8.017,3.589-8.017,8.017
	c0,21.286,20.616,50.772,59.324,50.772h6.205c4.227,3.526,8.718,6.747,13.442,9.62h-36.75c-17.572,0-30.779-10.583-37.087-16.892
	c-9.686-9.686-14.754-20.613-14.754-26.398c0-4.427-3.589-8.017-8.017-8.017S0,277.226,0,281.653
	c0,11.108,7.635,25.92,19.451,37.735c13.921,13.921,31.119,21.588,48.424,21.588h43.002l-3.831,1.915
	c-2.716,1.358-4.432,4.133-4.432,7.17s1.716,5.813,4.432,7.17c10.379,5.19,20.389,9.402,29.985,12.807l5.753,69.04
	c0.712,8.54,4.012,16.346,9.071,22.682h-7.018c-2.957,0-5.674,1.627-7.068,4.234c-1.395,2.607-1.242,5.77,0.398,8.229
	C156.732,502.076,193.54,512,221.795,512c14.087,0,27.871-5.072,34.205-7.769c6.333,2.697,20.118,7.769,34.205,7.769
	c28.255,0,65.064-9.924,83.63-37.775c1.64-2.46,1.793-5.622,0.398-8.229c-1.395-2.606-4.111-4.234-7.068-4.234h-7.018
	c5.058-6.335,8.359-14.141,9.071-22.682l5.753-69.04c9.595-3.406,19.606-7.619,29.985-12.809c2.716-1.357,4.432-4.133,4.432-7.17
	c0-3.037-1.716-5.813-4.432-7.17l-3.831-1.914h43.002c17.305,0,34.503-7.667,48.424-21.588C504.365,307.573,512,292.761,512,281.653
	C512,277.226,508.411,273.637,503.983,273.637z M444.66,230.347c0,52.161-42.436,94.597-94.597,94.597
	c-3.409,0-6.813-0.201-10.192-0.563c1.396-5.364,1.477-11.084,0.128-16.723c-0.13-0.546-0.28-1.087-0.44-1.625
	c3.436,0.475,6.939,0.74,10.504,0.74c42.141,0,76.426-34.285,76.426-76.426c0-35.355-24.137-65.169-56.794-73.857
	c9.977-1.967,21.173-3.534,33.57-4.362C429.223,169.804,444.66,198.877,444.66,230.347z M220.287,161.549
	c0.837-1.255,1.534-2.565,2.125-3.906c11.323,9.418,20.291,21.309,26.24,34.953c1.274,2.922,4.16,4.812,7.349,4.812
	c3.189,0,6.075-1.89,7.349-4.812c5.934-13.609,14.91-25.526,26.238-34.957c0.591,1.343,1.289,2.653,2.126,3.909
	c2.743,4.113,6.447,7.213,10.622,9.17c-17.479,14.02-28.699,35.532-28.699,59.628c0,7.721,1.161,15.173,3.3,22.203
	c-6.449-2.948-13.561-4.566-20.936-4.566c-7.375,0-14.488,1.618-20.936,4.566c2.139-7.03,3.3-14.482,3.3-22.203
	c0-24.096-11.22-45.609-28.698-59.627C213.841,168.762,217.544,165.662,220.287,161.549z M289.67,230.347
	c0-33.3,27.092-60.392,60.392-60.392s60.392,27.092,60.392,60.392s-27.092,60.393-60.392,60.393S289.67,263.647,289.67,230.347z
	 M222.33,230.347c0,33.3-27.092,60.393-60.392,60.393s-60.392-27.092-60.392-60.393s27.092-60.392,60.392-60.392
	S222.33,197.046,222.33,230.347z M190.835,326.769c-3.425-4.341-4.575-9.803-3.241-15.381c1.138-4.757,4.627-8.967,9.33-11.261
	c3.107-1.516,6.116-2.12,9.195-1.842c7.615,0.679,14.715-3.911,17.287-11.167c4.9-13.819,17.998-23.102,32.594-23.102
	s27.694,9.284,32.594,23.102c2.573,7.256,9.685,11.845,17.287,11.167c3.081-0.278,6.087,0.326,9.194,1.842
	c4.704,2.295,8.193,6.505,9.331,11.262c1.335,5.577,0.184,11.04-3.241,15.38c-3.372,4.274-8.423,6.725-13.858,6.725
	c-6.049,0-11.611-3.1-14.882-8.291c-1.286-2.042-3.424-3.396-5.819-3.686c-0.322-0.038-0.645-0.058-0.964-0.058
	c-2.064,0-4.063,0.797-5.567,2.248c-6.541,6.311-15.091,9.787-24.075,9.787c-8.984,0-17.534-3.476-24.075-9.787
	c-1.736-1.675-4.134-2.476-6.531-2.19c-2.395,0.29-4.533,1.644-5.819,3.686c-3.271,5.192-8.833,8.291-14.882,8.291
	C199.259,333.495,194.207,331.043,190.835,326.769z M422.944,135.447c-51.589,0-87.518,12.45-105.787,20.793
	c-4.317,1.971-9.404,0.463-12.103-3.584c-2.781-4.172-1.908-9.852,2.032-13.214c16.271-13.883,34.885-20.841,55.62-20.841
	c11.576,0,23.814,2.17,36.671,6.515c8.823,2.981,16.896,6.675,23.807,10.331C423.103,135.447,423.022,135.447,422.944,135.447z
	 M423.446,33.06c2.731,8.044,4.111,16.844,4.111,26.264c0,24.292-14.792,44.27-20.805,51.387c-0.592-0.21-1.182-0.422-1.781-0.626
	c-11.61-3.963-22.922-6.337-33.845-7.139C388.106,90.336,414.544,68.452,423.446,33.06z M352.259,96.914
	c-3.626,2.73-6.346,5.026-8.061,7.396c-17.332,3.162-33.323,10.823-47.52,22.935c-3.511,2.996-6.037,6.737-7.565,10.793
	c-13.464,8.917-24.715,20.537-33.111,34.113c-8.398-13.594-19.641-25.195-33.116-34.112c-1.527-4.055-4.053-7.797-7.565-10.794
	c-14.197-12.113-30.188-19.773-47.52-22.935c-1.715-2.369-4.434-4.665-8.059-7.394C188.181,77.539,221.255,67.34,256,67.34
	C290.755,67.34,323.825,77.535,352.259,96.914z M84.443,59.324c0-9.42,1.38-18.218,4.111-26.264
	c8.903,35.393,35.341,57.278,52.32,69.885c-10.923,0.802-22.235,3.176-33.845,7.139c-0.599,0.204-1.189,0.416-1.781,0.626
	C99.226,103.581,84.443,83.608,84.443,59.324z M112.625,125.116c35.884-12.127,66.936-7.307,92.29,14.326
	c3.94,3.362,4.812,9.042,2.032,13.214c-2.698,4.047-7.788,5.554-12.103,3.584c-18.271-8.343-54.193-20.793-105.787-20.793
	c-0.078,0-0.16,0-0.239,0C95.73,131.791,103.801,128.097,112.625,125.116z M108.734,152.127c12.398,0.828,23.593,2.395,33.57,4.362
	c-32.657,8.689-56.792,38.503-56.792,73.857c0,42.141,34.285,76.426,76.426,76.426c3.565,0,7.068-0.265,10.504-0.74
	c-0.16,0.538-0.309,1.079-0.44,1.625c-1.35,5.644-1.269,11.371,0.131,16.739c-3.379,0.362-6.785,0.547-10.196,0.547
	c-52.161,0-94.597-42.436-94.597-94.597C67.34,198.878,82.776,169.805,108.734,152.127z M182.378,461.642l5.213-13.034l5.261,13.154
	h-7.993C184.023,461.762,183.196,461.721,182.378,461.642z M290.205,495.967c-14.925,0-30.474-7.633-30.62-7.705
	c-1.129-0.564-2.357-0.847-3.585-0.847c-1.228,0-2.456,0.282-3.585,0.847c-0.154,0.077-15.583,7.705-30.62,7.705
	c-18.999,0-42.355-4.997-58.771-18.171h185.951C332.56,490.97,309.203,495.967,290.205,495.967z M327.141,461.762h-7.993
	l5.261-13.154l5.213,13.034C328.804,461.721,327.977,461.762,327.141,461.762z M353.238,437.748
	c-0.58,6.968-3.936,13.151-8.906,17.499l-12.48-31.202c-1.217-3.043-4.164-5.039-7.443-5.039c-3.278,0-6.226,1.996-7.443,5.039
	l-15.087,37.717H210.12l-15.086-37.717c-1.217-3.043-4.164-5.039-7.443-5.039c-3.278,0-6.226,1.996-7.443,5.039l-12.48,31.202
	c-4.97-4.348-8.325-10.531-8.906-17.499l-5.209-62.501c9.707,2.67,18.897,4.517,27.506,5.724l16.192,40.479
	c1.217,3.043,4.164,5.039,7.443,5.039s6.226-1.996,7.443-5.039l15.867-39.668c13.684-1.57,23.313-4.42,27.996-6.051
	c4.683,1.631,14.317,4.478,27.995,6.048l15.869,39.671c1.217,3.043,4.164,5.039,7.443,5.039s6.226-1.996,7.443-5.039l16.191-40.476
	c8.609-1.207,17.8-3.054,27.506-5.724L353.238,437.748z M199.008,382.671c3.927,0.19,7.695,0.257,11.286,0.214l-5.6,14
	L199.008,382.671z M301.701,382.871c0.725,0.009,1.434,0.027,2.173,0.027c2.93,0,5.975-0.075,9.119-0.228l-5.687,14.215
	L301.701,382.871z M297.815,366.671c-24.152-0.879-38.539-6.825-38.658-6.875c-2.017-0.865-4.299-0.865-6.316,0
	c-0.529,0.227-50.507,20.875-123.704-10.024l19.251-9.625c4.441,0.545,8.963,0.831,13.549,0.831c6.271,0,12.535-0.539,18.681-1.584
	c6.314,6.477,14.905,10.135,24.075,10.135c8.557,0,16.592-3.215,22.717-8.874c8.392,5.767,18.29,8.874,28.59,8.874
	s20.198-3.107,28.59-8.874c6.125,5.659,14.161,8.874,22.717,8.874c9.166,0,17.753-3.655,24.066-10.127
	c6.144,1.046,12.418,1.576,18.69,1.576c4.587,0,9.107-0.285,13.549-0.831l19.242,9.622
	C347.21,364.786,317.419,367.383,297.815,366.671z"/>
<g>
</g>
<g>
</g>
<g>
</g>
<g>
</g>
<g>
</g>
<g>
</g>
<g>
</g>
<g>
</g>
<g>
</g>
<g>
</g>
<g>
</g>
<g>
</g>
<g>
</g>
<g>
</g>
<g>
</g>
</svg>
