<?xml version="1.0" encoding="iso-8859-1"?>
<!-- Generator: Adobe Illustrator 19.0.0, SVG Export Plug-In . SVG Version: 6.00 Build 0)  -->
<svg version="1.1" id="Layer_1" xmlns="http://www.w3.org/2000/svg" xmlns:xlink="http://www.w3.org/1999/xlink" x="0px" y="0px"
	 viewBox="0 0 512.001 512.001" style="enable-background:new 0 0 512.001 512.001;" xml:space="preserve">
<g>
	<path style="fill:#7BB36A;" d="M71.063,33.927c5.392,11.34,16.139,18.407,27.777,19.617c6.407-9.79,7.709-22.587,2.317-33.927
		S85.019,1.211,73.381,0C66.973,9.79,65.672,22.587,71.063,33.927z"/>
	<path style="fill:#7BB36A;" d="M129.742,67.74c-12.516,1.021-24.019-4.733-30.902-14.196c5.259-10.452,15.677-17.995,28.192-19.016
		c12.516-1.021,24.019,4.733,30.902,14.196C152.676,59.177,142.257,66.72,129.742,67.74z"/>
	<path style="fill:#7BB36A;" d="M41.178,98.399c8.724,9.031,21.163,12.305,32.58,9.744c2.954-11.322,0.111-23.866-8.614-32.897
		c-8.724-9.031-21.163-12.305-32.58-9.744C29.61,76.825,32.453,89.369,41.178,98.399z"/>
	<path style="fill:#7BB36A;" d="M105.997,118.961c-12.334,2.35-24.387-2.144-32.24-10.817c4.113-10.954,13.667-19.566,26.001-21.916
		c12.334-2.35,24.387,2.144,32.24,10.817C127.886,107.999,118.332,116.611,105.997,118.961z"/>
</g>
<path style="fill:#94D77F;" d="M59.451,184.764c-0.132,0-0.264-0.002-0.398-0.008c-4.971-0.215-8.828-4.413-8.618-9.385
	c0.156-3.702,4.596-91.556,70.644-169.441c3.221-3.798,8.911-4.267,12.709-1.045c3.798,3.221,4.266,8.911,1.046,12.709
	c-61.897,72.991-66.343,157.701-66.38,158.548C68.239,180.98,64.247,184.764,59.451,184.764z"/>
<path style="fill:#FFB969;" d="M113.399,155.383c0,0-41.276-2.611-53.954,20.369c0,0-1.569,33.854,22.196,45.058L113.399,155.383z"
	/>
<g style="opacity:0.1;">
	<path d="M59.433,176.153c-0.085,3.828-0.041,34.167,22.208,44.657l8.536-17.587C74.851,199.233,65.1,186.668,59.433,176.153z"/>
</g>
<path style="fill:#DDE1ED;" d="M479.324,356.57c0.435,0.325,0.791,0.718,1.034,1.2c1.298,2.579-3.916,13.23-4.898,15.977
	c-7.263,20.331-17.726,39.494-30.868,56.621c-26.273,34.24-63.09,59.924-104.376,72.552c-19.748,6.04-40.38,9.079-61.029,9.079
	c-115.073,0-208.359-93.286-208.359-208.359c0-85.603,32.968-199.676,136.312-192.695c26.047,1.759,50.169,15.106,65.696,36.062
	c19.293,26.037,22.142,60.041,32.082,90.319c16.251,49.502,63.44,88.163,111.501,104.979c10.287,3.598,21.291,5.814,31.909,8.174
	c7.664,1.701,15.514,2.604,23.219,4.118C473.831,355.043,477.379,355.12,479.324,356.57z"/>
<path style="opacity:0.1;enable-background:new    ;" d="M461.339,390.644c-27.45,35.775-65.916,62.609-109.052,75.803
	c-20.633,6.311-42.19,9.487-63.763,9.487c-113.42,0-206.565-86.743-216.755-197.505c-0.636,8.577-0.94,17.026-0.94,25.214
	c0,115.073,93.286,208.359,208.359,208.359c20.649,0,41.281-3.039,61.029-9.079c41.286-12.627,78.103-38.311,104.376-72.552
	c13.142-17.127,23.605-36.289,30.868-56.621c0.694-1.942,3.493-7.821,4.621-12.018C474.608,371.839,468.339,381.52,461.339,390.644z
	"/>
<path style="fill:#43434D;" d="M163.55,222.414c-2.356,0-4.733-0.28-7.08-0.86c-12-2.959-21.05-13.191-22.52-25.46
	c-0.593-4.945,2.936-9.433,7.881-10.026c4.946-0.589,9.433,2.936,10.026,7.881c0.583,4.866,4.172,8.923,8.933,10.097
	c4.763,1.175,9.827-0.75,12.605-4.789c2.822-4.103,8.435-5.143,12.54-2.322c4.103,2.822,5.142,8.435,2.322,12.538
	C182.618,217.668,173.249,222.414,163.55,222.414z"/>
<path style="fill:#CACED9;" d="M403.37,197.253L329.518,239.7c-38.927,22.373-52.345,72.066-29.972,110.993l0,0
	c20.645,35.92,64.548,50.096,101.793,34.494l41.14-23.598c9.708-5.569,15.341-16.555,13.411-27.579
	c-0.529-3.024-1.586-6.009-3.204-8.825l0,0c-6.474-11.264-19.811-16.115-31.705-12.321l-0.308-0.535l12.734-7.319
	c12.976-7.458,17.448-24.022,9.991-36.997l0,0c-7.458-12.976-24.022-17.448-36.997-9.991l23.974-13.779
	c12.975-7.458,17.448-24.022,9.991-36.997l0,0C432.91,194.269,416.345,189.795,403.37,197.253z"/>
<g>
</g>
<g>
</g>
<g>
</g>
<g>
</g>
<g>
</g>
<g>
</g>
<g>
</g>
<g>
</g>
<g>
</g>
<g>
</g>
<g>
</g>
<g>
</g>
<g>
</g>
<g>
</g>
<g>
</g>
</svg>
