<?xml version="1.0" encoding="iso-8859-1"?>
<!-- Generator: Adobe Illustrator 19.0.0, SVG Export Plug-In . SVG Version: 6.00 Build 0)  -->
<svg version="1.1" id="Layer_1" xmlns="http://www.w3.org/2000/svg" xmlns:xlink="http://www.w3.org/1999/xlink" x="0px" y="0px"
	 viewBox="0 0 512 512" style="enable-background:new 0 0 512 512;" xml:space="preserve">
<g>
	<path style="fill:#3B3A3C;" d="M236.305,436.082c-7.956-5.375-12.705-14.304-12.705-23.889c0-5.184,1.389-10.261,4.018-14.686
		c2.479-4.172,1.107-9.562-3.065-12.041c-4.174-2.48-9.564-1.106-12.042,3.065c-4.243,7.139-6.485,15.321-6.485,23.662
		c0,15.43,7.642,29.803,20.441,38.45c1.508,1.018,3.218,1.507,4.91,1.507c2.821,0,5.59-1.355,7.289-3.869
		C241.383,444.259,240.325,438.797,236.305,436.082z"/>
	<path style="fill:#3B3A3C;" d="M164.268,434.695l43.89-105.682c1.615-4.576-0.785-9.593-5.361-11.209
		c-4.577-1.618-9.595,0.785-11.209,5.361l-45.318,109.728c-0.902,2.554-0.575,5.38,0.884,7.66l36.729,57.389
		c1.678,2.621,4.513,4.051,7.409,4.051c1.62,0,3.261-0.449,4.728-1.387c4.087-2.616,5.28-8.049,2.664-12.137L164.268,434.695z"/>
	<path style="fill:#3B3A3C;" d="M197.239,305.012c-0.269-0.736-0.635-1.406-1.064-2.018c4.452,0.503,8.633-2.465,9.565-6.938
		c0.99-4.75-2.057-9.404-6.808-10.395l-19.871-4.144c2.122-4.275,0.445-9.48-3.807-11.694L41.461,200.161L53.327,19.943
		c0.319-4.843-3.348-9.026-8.19-9.345c-4.832-0.337-9.025,3.348-9.345,8.189L23.548,204.728c-0.228,3.478,1.619,6.761,4.711,8.371
		l118.447,61.671l-79.884-16.659c-3.311-0.691-6.717,0.576-8.77,3.259L1.81,334.827c-2.95,3.853-2.218,9.367,1.635,12.318
		c1.593,1.221,3.471,1.81,5.335,1.81c2.641,0,5.253-1.186,6.982-3.444l52.881-69.07l115.365,24.058L68.895,342.632
		c-2.001,0.732-3.669,2.168-4.691,4.038l-40.555,74.223c-2.327,4.258-0.76,9.596,3.497,11.923c1.338,0.73,2.781,1.077,4.204,1.077
		c3.109,0,6.122-1.653,7.718-4.575l38.97-71.322l113.968-41.713C196.565,314.614,198.907,309.569,197.239,305.012z"/>
</g>
<g>
	<circle style="fill:#57555C;" cx="255.749" cy="172.02" r="134.862"/>
	<path style="fill:#57555C;" d="M390.615,172.02c0-74.484-60.381-134.865-134.865-134.865S120.887,97.537,120.887,172.02
		c0,53.87,31.588,100.356,77.249,121.964c-7.396,10.95-11.782,24.388-11.829,38.493c-0.128,38.38,30.883,69.598,69.262,69.726
		c38.378,0.129,69.598-30.881,69.726-69.262c0.048-14.456-4.42-27.811-11.936-38.954
		C359.023,272.381,390.615,225.893,390.615,172.02z"/>
</g>
<path style="fill:#3B3A3C;" d="M510.19,334.827l-56.241-73.457c-2.054-2.683-5.46-3.95-8.77-3.259l-78.847,16.442l119.133-62.028
	c3.09-1.61,4.938-4.893,4.709-8.371L477.931,18.214c-0.319-4.842-4.51-8.531-9.345-8.189c-4.842,0.317-8.509,4.502-8.19,9.345
	l11.866,180.218l-112.969,58.82c19.545-23.401,31.322-53.513,31.322-86.386c0-74.484-60.381-134.865-134.865-134.865
	c-21.743,0-42.28,5.153-60.469,14.293c10.818-2.796,22.162-4.286,33.854-4.286C303.619,47.164,364,107.545,364,182.028
	c0,41.293-18.562,78.243-47.793,102.98c0,0-5.006,4.079-9.985,7.672c-5.279,3.683-10.825,7.009-16.618,9.92
	c0.043-0.012,0.086-0.025,0.129-0.036c4.473,9.162,6.897,19.373,6.86,30.38c-0.111,33.385-23.752,61.182-55.163,67.771
	c4.564,0.959,9.291,1.475,14.138,1.49c9.19,0.03,17.963-1.741,26.004-4.955c0.047,0.086,0.087,0.175,0.137,0.259
	c2.629,4.424,4.018,9.502,4.018,14.686c0,9.585-4.749,18.514-12.705,23.889c-4.022,2.716-5.078,8.177-2.363,12.199
	c1.698,2.514,4.468,3.869,7.289,3.869c1.692,0,3.402-0.488,4.91-1.507c12.8-8.647,20.441-23.02,20.441-38.45
	c0-8.266-2.208-16.373-6.376-23.466c8.265-6.078,15.135-13.94,20.044-23.021l30.763,68.989l-34.416,53.775
	c-2.616,4.087-1.423,9.521,2.664,12.137c1.467,0.938,3.107,1.387,4.728,1.387c2.896,0,5.732-1.432,7.409-4.051l36.73-57.389
	c1.46-2.281,1.787-5.107,0.884-7.66l-40.875-92.419c0.275-2.475,0.43-4.986,0.438-7.533c0.018-5.297-0.541-10.409-1.617-15.31
	L433.958,358l38.97,71.322c1.596,2.922,4.609,4.576,7.718,4.575c1.423,0,2.868-0.347,4.204-1.077
	c4.258-2.327,5.825-7.665,3.497-11.923l-40.555-74.223c-1.022-1.871-2.689-3.306-4.691-4.038l-115.114-42.133l115.365-24.058
	l52.881,69.07c1.73,2.26,4.342,3.445,6.982,3.444c1.863,0,3.742-0.59,5.335-1.81C512.408,344.195,513.14,338.68,510.19,334.827z"/>
<g>
	<path style="fill:#787780;" d="M226.115,370.977c0.749,0.096,1.505,0.162,2.28,0.162c9.819,0,17.78-7.96,17.78-17.78
		c0-9.819-7.96-17.78-17.78-17.78c-5.256,0-9.965,2.294-13.219,5.92c-0.373-2.954-0.566-5.965-0.555-9.024
		c0.035-10.752,2.555-20.901,6.955-29.966c10.915,2.851,22.367,4.373,34.176,4.373c11.735,0,23.118-1.502,33.972-4.318
		c-2.521,0.141-5.059,0.218-7.614,0.218c-74.484,0-134.865-60.381-134.865-134.865c0-62.749,42.854-115.485,100.891-130.545
		c-70.941,3.95-127.25,62.721-127.25,134.648c0,57.745,33.921,101.067,77.199,122.049c-7.371,10.991-11.729,24.182-11.778,38.409
		c-0.125,38.382,30.886,69.597,69.266,69.726c4.905,0.016,9.689-0.506,14.311-1.46C251.645,396.949,236.047,385.998,226.115,370.977
		z"/>
	<circle style="fill:#787780;" cx="223.428" cy="139.312" r="49.355"/>
</g>
<g>
</g>
<g>
</g>
<g>
</g>
<g>
</g>
<g>
</g>
<g>
</g>
<g>
</g>
<g>
</g>
<g>
</g>
<g>
</g>
<g>
</g>
<g>
</g>
<g>
</g>
<g>
</g>
<g>
</g>
</svg>
