<?xml version="1.0" encoding="iso-8859-1"?>
<!-- Generator: Adobe Illustrator 19.0.0, SVG Export Plug-In . SVG Version: 6.00 Build 0)  -->
<svg version="1.1" id="Layer_1" xmlns="http://www.w3.org/2000/svg" xmlns:xlink="http://www.w3.org/1999/xlink" x="0px" y="0px"
	 viewBox="0 0 512 512" style="enable-background:new 0 0 512 512;" xml:space="preserve">
<path style="fill:#FD9808;" d="M495.301,16.213L495.301,16.213L495.301,16.213c-29.867-35.84-163.84,57.173-293.547,185.173
	C72.047,330.24-17.553,460.8,16.581,494.933l0,0l0,0c36.693,36.693,165.547-56.32,293.547-185.173
	C439.834,180.907,532.847,52.907,495.301,16.213"/>
<path style="fill:#FFDD09;" d="M475.674,22.187L475.674,22.187L475.674,22.187C449.221-9.387,320.367,81.92,194.074,207.36
	s-215.04,250.88-184.32,281.6l0,0l0,0c33.28,33.28,156.16-59.733,281.6-185.173C416.794,177.493,508.954,54.613,475.674,22.187"/>
<path d="M314.394,239.787c-11.093,0-22.187-4.267-29.867-11.947c-9.387-9.387-26.453-9.387-35.84,0
	c-3.413,3.413-8.533,3.413-11.947,0s-3.413-8.533,0-11.947c7.68-7.68,18.773-11.947,29.867-11.947
	c11.093,0,22.187,4.267,29.867,11.947c10.24,9.387,26.453,9.387,35.84,0c3.413-3.413,8.533-3.413,11.947,0
	c3.413,3.413,3.413,8.533,0,11.947C336.581,235.52,325.487,239.787,314.394,239.787z"/>
<path d="M374.981,179.2c-11.093,0-22.187-4.267-29.867-11.947c-10.24-10.24-26.453-9.387-35.84,0c-3.413,3.413-8.533,3.413-11.947,0
	c-3.413-3.413-3.413-8.533,0-11.947c16.213-16.213,44.373-16.213,60.587,0c10.24,9.387,26.453,9.387,35.84,0
	c3.413-3.413,8.533-3.413,11.947,0c3.413,3.413,3.413,8.533,0,11.947C397.167,174.933,386.074,179.2,374.981,179.2z"/>
<path d="M435.567,118.613c-11.093,0-22.187-4.267-29.867-11.947s-21.333-9.387-30.72-4.267c-4.267,2.56-9.387,0.853-11.947-3.413
	c-2.56-4.267-0.853-9.387,3.413-11.947c16.213-9.387,38.4-6.827,52.053,6.827c5.973,5.973,15.36,8.533,24.747,6.827
	c4.267-0.853,9.387,1.707,10.24,5.973c0.853,4.267-1.707,9.387-5.973,10.24C442.394,118.613,438.981,118.613,435.567,118.613z"/>
<path d="M254.661,299.52c-11.093,0-22.187-4.267-29.867-11.947c-10.24-10.24-26.453-10.24-35.84,0
	c-3.413,3.413-8.533,3.413-11.947,0c-3.413-3.413-3.413-8.533,0-11.947c16.213-16.213,44.373-16.213,60.587,0
	c9.387,9.387,26.453,9.387,35.84,0c3.413-3.413,8.533-3.413,11.947,0c3.413,3.413,3.413,8.533,0,11.947
	C275.994,296.107,264.901,299.52,254.661,299.52z"/>
<path d="M194.074,360.107c-11.093,0-22.187-4.267-29.867-11.947c-10.24-9.387-26.453-9.387-35.84,0
	c-3.413,3.413-8.533,3.413-11.947,0c-3.413-3.413-3.413-8.533,0-11.947c16.213-16.213,44.373-16.213,60.587,0
	c10.24,10.24,26.453,10.24,35.84,0c3.413-3.413,8.533-3.413,11.947,0c3.413,3.413,3.413,8.533,0,11.947
	C216.261,355.84,205.167,360.107,194.074,360.107z"/>
<path d="M133.487,420.693c-11.093,0-22.187-4.267-29.867-11.947c-5.973-5.973-15.36-8.533-24.747-6.827
	c-4.267,0.853-9.387-1.707-10.24-5.973c-0.853-4.267,1.707-9.387,5.973-10.24c14.507-3.413,30.72,0.853,40.96,11.093
	c7.68,7.68,21.333,9.387,30.72,4.267c4.267-2.56,9.387-0.853,11.947,3.413s0.853,9.387-3.413,11.947
	C148.847,418.987,141.167,420.693,133.487,420.693z"/>
<path d="M38.767,512c-11.947,0-21.333-3.413-28.16-10.24s-10.24-16.213-10.24-27.307c0-52.053,76.8-162.133,195.413-279.04
	C294.767,97.28,419.354,0,476.527,0c0.853,0,1.707,0,1.707,0c10.24,0.853,17.92,4.267,23.04,10.24
	c55.467,56.32-127.147,248.32-185.173,305.493C248.687,384,185.541,437.76,133.487,471.893C93.381,498.347,61.807,512,38.767,512z
	 M475.674,17.067c-44.373,0-154.453,77.653-267.947,190.293S17.434,426.667,17.434,474.453c0,6.827,1.707,11.947,5.12,14.507
	c13.653,13.653,50.347,1.707,101.547-31.573c50.347-33.28,114.347-87.893,180.053-153.6
	C441.541,166.4,517.487,50.347,489.327,22.187l-0.853-0.853c-1.707-2.56-5.12-4.267-11.093-4.267
	C477.381,17.067,476.527,17.067,475.674,17.067z"/>
<g>
</g>
<g>
</g>
<g>
</g>
<g>
</g>
<g>
</g>
<g>
</g>
<g>
</g>
<g>
</g>
<g>
</g>
<g>
</g>
<g>
</g>
<g>
</g>
<g>
</g>
<g>
</g>
<g>
</g>
</svg>
