<?xml version="1.0" encoding="iso-8859-1"?>
<!-- Generator: Adobe Illustrator 19.0.0, SVG Export Plug-In . SVG Version: 6.00 Build 0)  -->
<svg version="1.1" id="Layer_1" xmlns="http://www.w3.org/2000/svg" xmlns:xlink="http://www.w3.org/1999/xlink" x="0px" y="0px"
	 viewBox="0 0 512 512" style="enable-background:new 0 0 512 512;" xml:space="preserve">
<g>
	<path style="fill:#E0A03D;" d="M473.339,396.015c0,12.407-10.058,22.465-22.465,22.465H61.127
		c-12.407,0-22.465-10.058-22.465-22.465l0,0c0-12.407,10.058-22.465,22.465-22.465h389.747
		C463.281,373.549,473.339,383.608,473.339,396.015L473.339,396.015z"/>
	<path style="fill:#E0A03D;" d="M473.339,351.084c0,12.407-10.058,22.465-22.465,22.465H61.127
		c-12.407,0-22.465-10.058-22.465-22.465l0,0c0-12.407,10.058-22.465,22.465-22.465h389.747
		C463.281,328.619,473.339,338.677,473.339,351.084L473.339,351.084z"/>
	<path style="fill:#E0A03D;" d="M450.873,238.758H278.465v44.931h172.408c12.407,0,22.465-10.058,22.465-22.465
		C473.339,248.815,463.281,238.758,450.873,238.758z"/>
	<path style="fill:#E0A03D;" d="M188.604,238.758c0,12.407-10.058,22.465-22.465,22.465c-12.407,0-22.465-10.058-22.465-22.465
		H61.127c-12.407,0-22.465,10.058-22.465,22.465s10.058,22.465,22.465,22.465h172.408v-44.931H188.604z"/>
	<path style="fill:#E0A03D;" d="M233.535,216.293c0-12.407-10.058-22.465-22.465-22.465c-12.407,0-22.465,10.058-22.465,22.465
		v22.463h44.931V216.293z"/>
	<path style="fill:#E0A03D;" d="M61.127,193.827c-12.407,0-22.465,10.058-22.465,22.465c0,12.407,10.058,22.465,22.465,22.465
		h82.547v-44.931H61.127z"/>
	<path style="fill:#E0A03D;" d="M450.873,193.827h-82.547c0,12.407-10.058,22.465-22.465,22.465s-22.465-10.058-22.465-22.465
		h-44.931v3.132v41.799h172.408c12.407,0,22.465-10.058,22.465-22.465C473.339,203.884,463.281,193.827,450.873,193.827z"/>
	<path style="fill:#E0A03D;" d="M143.673,148.896H61.127c-12.407,0-22.465,10.058-22.465,22.465
		c0,12.407,10.058,22.465,22.465,22.465h82.547V148.896z"/>
	<path style="fill:#E0A03D;" d="M300.931,148.896c-12.407,0-22.465,10.058-22.465,22.465v22.465h44.931v-22.465
		C323.396,158.954,313.338,148.896,300.931,148.896z"/>
	<path style="fill:#E0A03D;" d="M450.873,148.896h-82.547v44.931h82.547c12.407,0,22.465-10.058,22.465-22.465
		C473.339,158.954,463.281,148.896,450.873,148.896z"/>
	<path style="fill:#E0A03D;" d="M143.673,103.965H61.127c-12.407,0-22.465,10.058-22.465,22.465s10.058,22.465,22.465,22.465h82.547
		V103.965z"/>
	<path style="fill:#E0A03D;" d="M450.873,103.965h-82.547v44.931h82.547c12.407,0,22.465-10.058,22.465-22.465
		S463.281,103.965,450.873,103.965z"/>
	<path style="fill:#E0A03D;" d="M450.873,283.688H278.465c0,12.407-10.058,22.465-22.465,22.465
		c-12.407,0-22.465-10.058-22.465-22.465H61.127c-12.407,0-22.465,10.058-22.465,22.465c0,12.407,10.058,22.465,22.465,22.465
		h389.747c12.407,0,22.465-10.058,22.465-22.465C473.339,293.746,463.281,283.688,450.873,283.688z"/>
</g>
<path style="fill:#AF6518;" d="M143.673,103.965v134.792c0,12.407,10.058,22.465,22.465,22.465
	c12.407,0,22.465-10.058,22.465-22.465v-22.463c0-12.407,10.058-22.465,22.465-22.465c12.407,0,22.465,10.058,22.465,22.465v67.394
	c0,12.407,10.058,22.465,22.465,22.465c12.407,0,22.465-10.058,22.465-22.465v-86.73v-25.597c0-12.407,10.058-22.465,22.465-22.465
	s22.465,10.058,22.465,22.465v25.597v-3.132c0,12.407,10.058,22.465,22.465,22.465s22.465-10.058,22.465-22.465v-89.861H143.673z"/>
<path style="fill:#F6E088;" d="M309.724,103.965V72.621c0-6.348-5.145-11.494-11.494-11.494h-84.461
	c-6.349,0-11.494,5.146-11.494,11.494v31.345h107.449V103.965z"/>
<g>
	<path style="fill:#491E17;" d="M30.824,396.015c0,16.709,13.594,30.302,30.302,30.302h389.747
		c16.708,0,30.302-13.593,30.302-30.302c0-8.9-3.859-16.916-9.989-22.465c6.13-5.548,9.989-13.564,9.989-22.465
		c0-8.9-3.859-16.916-9.989-22.465c6.13-5.548,9.989-13.564,9.989-22.465c0-8.9-3.859-16.916-9.989-22.465
		c6.13-5.548,9.989-13.564,9.989-22.465c0-8.9-3.859-16.916-9.989-22.465c6.13-5.548,9.989-13.564,9.989-22.465
		c0-8.9-3.859-16.916-9.989-22.465c6.13-5.548,9.989-13.564,9.989-22.465c0-8.9-3.859-16.916-9.989-22.465
		c6.13-5.548,9.989-13.564,9.989-22.465c0-16.709-13.594-30.302-30.302-30.302h-74.71H360.49h-42.929V72.621
		c0-10.659-8.672-19.331-19.331-19.331h-84.461c-10.659,0-19.331,8.672-19.331,19.331v23.508H151.51h-15.673h-74.71
		c-16.708,0-30.302,13.593-30.302,30.302c0,8.901,3.859,16.917,9.99,22.465c-6.13,5.549-9.99,13.565-9.99,22.465
		c0,8.901,3.859,16.917,9.99,22.465c-6.13,5.549-9.99,13.565-9.99,22.465c0,8.901,3.859,16.917,9.99,22.465
		c-6.13,5.549-9.99,13.565-9.99,22.465c0,8.901,3.859,16.917,9.99,22.465c-6.13,5.549-9.99,13.565-9.99,22.465
		c0,8.902,3.859,16.917,9.99,22.465c-6.13,5.549-9.99,13.565-9.99,22.465c0,8.901,3.859,16.917,9.99,22.465
		C34.683,379.098,30.824,387.113,30.824,396.015z M465.502,261.223c0,8.067-6.562,14.629-14.629,14.629H286.302v-29.257h164.571
		C458.94,246.594,465.502,253.156,465.502,261.223z M465.502,216.292c0,8.067-6.562,14.629-14.629,14.629H286.302v-29.257h30.284
		c0.018,0.067,0.043,0.13,0.062,0.195c0.197,0.716,0.416,1.422,0.662,2.115c0.026,0.076,0.057,0.15,0.085,0.226
		c0.258,0.704,0.537,1.398,0.844,2.077c0.013,0.027,0.023,0.055,0.036,0.083c0.309,0.679,0.65,1.342,1.007,1.993
		c0.052,0.095,0.102,0.191,0.155,0.285c0.348,0.619,0.72,1.223,1.109,1.813c0.073,0.111,0.147,0.22,0.22,0.33
		c0.394,0.581,0.807,1.148,1.239,1.7c0.075,0.097,0.154,0.192,0.232,0.288c0.45,0.56,0.915,1.108,1.403,1.634
		c0.05,0.053,0.102,0.104,0.153,0.157c0.487,0.518,0.991,1.019,1.511,1.5c0.051,0.047,0.1,0.096,0.152,0.143
		c0.531,0.484,1.083,0.946,1.647,1.392c0.097,0.077,0.193,0.155,0.292,0.231c0.553,0.426,1.121,0.833,1.704,1.221
		c0.113,0.076,0.228,0.15,0.342,0.225c0.59,0.382,1.194,0.747,1.811,1.089c0.101,0.055,0.204,0.109,0.305,0.163
		c0.648,0.349,1.307,0.68,1.982,0.982c0.04,0.018,0.079,0.032,0.119,0.05c0.67,0.296,1.353,0.565,2.047,0.813
		c0.08,0.028,0.16,0.061,0.24,0.089c0.69,0.239,1.394,0.45,2.105,0.641c0.122,0.032,0.243,0.066,0.368,0.097
		c0.702,0.178,1.414,0.331,2.134,0.459c0.129,0.023,0.259,0.044,0.388,0.066c0.735,0.12,1.475,0.218,2.226,0.284
		c0.099,0.009,0.199,0.014,0.299,0.022c0.793,0.063,1.591,0.102,2.4,0.102c0.79,0,1.569-0.04,2.345-0.099
		c0.139-0.01,0.28-0.019,0.418-0.032c0.741-0.067,1.473-0.161,2.197-0.281c0.141-0.023,0.282-0.05,0.422-0.076
		c0.743-0.134,1.48-0.286,2.204-0.473c0.024-0.006,0.048-0.015,0.072-0.021c0.711-0.186,1.407-0.402,2.096-0.637
		c0.126-0.043,0.254-0.084,0.379-0.129c0.675-0.24,1.337-0.505,1.988-0.79c0.133-0.057,0.263-0.118,0.394-0.179
		c0.664-0.302,1.317-0.621,1.953-0.968c0.043-0.024,0.084-0.049,0.126-0.073c0.612-0.337,1.208-0.7,1.793-1.077
		c0.109-0.07,0.219-0.138,0.327-0.21c0.586-0.389,1.157-0.799,1.713-1.227c0.117-0.09,0.232-0.182,0.347-0.273
		c0.56-0.444,1.11-0.902,1.637-1.383c0.048-0.044,0.094-0.091,0.142-0.136c0.502-0.464,0.985-0.948,1.454-1.444
		c0.085-0.089,0.17-0.176,0.253-0.265c0.476-0.516,0.934-1.051,1.374-1.6c0.092-0.115,0.183-0.231,0.273-0.347
		c0.439-0.564,0.863-1.139,1.262-1.733c0.042-0.063,0.08-0.127,0.122-0.19c0.377-0.572,0.735-1.158,1.073-1.754
		c0.056-0.098,0.114-0.194,0.168-0.294c0.345-0.624,0.666-1.262,0.967-1.911c0.061-0.132,0.119-0.264,0.179-0.396
		c0.296-0.661,0.573-1.332,0.82-2.018c0.028-0.078,0.053-0.158,0.079-0.236c0.233-0.659,0.443-1.33,0.63-2.009
		c0.02-0.069,0.045-0.134,0.064-0.203h75.737C458.94,201.664,465.502,208.226,465.502,216.292z M315.559,185.99h-29.257v-14.629
		c0-8.067,6.562-14.629,14.629-14.629s14.629,6.562,14.629,14.629V185.99z M465.502,171.362c0,8.067-6.562,14.629-14.629,14.629
		h-74.71v-29.257h74.71C458.94,156.733,465.502,163.295,465.502,171.362z M376.163,111.801h74.71
		c8.067,0,14.629,6.562,14.629,14.629s-6.562,14.629-14.629,14.629h-74.71V111.801z M210.112,72.621c0-2.017,1.64-3.657,3.657-3.657
		h84.461c2.017,0,3.657,1.64,3.657,3.657v23.508h-91.775L210.112,72.621L210.112,72.621z M151.51,111.801h42.929h123.122h42.929
		v29.257v15.673v29.257v7.837c0,8.067-6.562,14.629-14.629,14.629s-14.629-6.562-14.629-14.629v-7.837v-14.629
		c0-16.709-13.594-30.302-30.302-30.302s-30.302,13.593-30.302,30.302v14.629v15.673v29.257v15.673v29.257v7.837
		c0,8.067-6.562,14.629-14.629,14.629s-14.629-6.562-14.629-14.629v-7.837v-29.257V230.92v-14.626
		c0-16.709-13.594-30.302-30.302-30.302s-30.302,13.593-30.302,30.302v14.626v7.837c0,8.067-6.562,14.629-14.629,14.629
		c-8.067,0-14.629-6.562-14.629-14.629v-7.837v-29.257v-15.673v-29.257v-15.673V111.801z M225.698,230.921h-29.257v-14.628
		c0-8.067,6.562-14.629,14.629-14.629c8.067,0,14.629,6.562,14.629,14.629V230.921z M46.498,126.43
		c0-8.067,6.562-14.629,14.629-14.629h74.71v29.257h-74.71C53.06,141.06,46.498,134.497,46.498,126.43z M46.498,171.362
		c0-8.067,6.562-14.629,14.629-14.629h74.71v29.257h-74.71C53.06,185.99,46.498,179.427,46.498,171.362z M46.498,216.292
		c0-8.067,6.562-14.629,14.629-14.629h74.71v29.257h-74.71C53.06,230.921,46.498,224.358,46.498,216.292z M46.498,261.223
		c0-8.067,6.562-14.629,14.629-14.629h75.737c0.019,0.069,0.044,0.134,0.064,0.203c0.187,0.679,0.397,1.35,0.629,2.009
		c0.027,0.078,0.052,0.158,0.08,0.236c0.248,0.684,0.525,1.355,0.819,2.017c0.06,0.133,0.119,0.265,0.181,0.398
		c0.3,0.649,0.621,1.287,0.965,1.911c0.054,0.098,0.112,0.195,0.168,0.294c0.339,0.597,0.696,1.183,1.073,1.754
		c0.042,0.063,0.08,0.127,0.122,0.19c0.399,0.595,0.823,1.17,1.262,1.733c0.09,0.116,0.181,0.232,0.273,0.347
		c0.44,0.549,0.897,1.084,1.373,1.6c0.083,0.09,0.168,0.177,0.253,0.265c0.469,0.497,0.953,0.98,1.456,1.444
		c0.048,0.044,0.094,0.091,0.142,0.136c0.529,0.482,1.076,0.939,1.637,1.383c0.115,0.091,0.23,0.183,0.347,0.273
		c0.556,0.427,1.126,0.838,1.713,1.227c0.107,0.072,0.217,0.139,0.327,0.21c0.584,0.378,1.181,0.74,1.793,1.077
		c0.042,0.023,0.084,0.049,0.126,0.073c0.635,0.348,1.289,0.666,1.952,0.968c0.132,0.061,0.262,0.121,0.395,0.179
		c0.652,0.285,1.314,0.55,1.988,0.79c0.125,0.045,0.253,0.086,0.379,0.129c0.689,0.235,1.386,0.452,2.096,0.637
		c0.024,0.006,0.048,0.015,0.072,0.021c0.724,0.187,1.461,0.34,2.204,0.473c0.141,0.025,0.282,0.052,0.422,0.076
		c0.724,0.12,1.458,0.214,2.198,0.281c0.139,0.013,0.28,0.022,0.419,0.032c0.774,0.06,1.554,0.099,2.344,0.099
		c0.79,0,1.569-0.04,2.344-0.099c0.14-0.01,0.281-0.019,0.419-0.032c0.741-0.067,1.473-0.161,2.198-0.281
		c0.141-0.023,0.282-0.05,0.422-0.076c0.743-0.134,1.48-0.286,2.204-0.473c0.024-0.006,0.048-0.015,0.072-0.021
		c0.711-0.186,1.407-0.402,2.096-0.637c0.126-0.043,0.254-0.084,0.379-0.129c0.675-0.24,1.337-0.505,1.988-0.79
		c0.133-0.057,0.263-0.118,0.394-0.179c0.663-0.302,1.317-0.621,1.953-0.968c0.043-0.024,0.085-0.049,0.126-0.073
		c0.612-0.337,1.208-0.699,1.793-1.077c0.11-0.07,0.219-0.138,0.327-0.21c0.586-0.389,1.157-0.799,1.713-1.227
		c0.117-0.09,0.232-0.182,0.347-0.273c0.561-0.444,1.11-0.902,1.637-1.383c0.048-0.044,0.094-0.091,0.142-0.136
		c0.502-0.464,0.985-0.948,1.456-1.444c0.085-0.089,0.17-0.176,0.253-0.265c0.476-0.516,0.934-1.051,1.373-1.6
		c0.092-0.115,0.183-0.231,0.273-0.347c0.439-0.564,0.863-1.139,1.262-1.733c0.042-0.063,0.08-0.127,0.122-0.19
		c0.377-0.572,0.735-1.158,1.073-1.754c0.056-0.098,0.114-0.194,0.168-0.294c0.345-0.624,0.666-1.262,0.967-1.911
		c0.061-0.132,0.119-0.263,0.179-0.396c0.296-0.661,0.573-1.332,0.82-2.018c0.028-0.078,0.053-0.158,0.08-0.236
		c0.232-0.659,0.442-1.33,0.629-2.009c0.019-0.069,0.045-0.134,0.064-0.203h30.286v29.257H61.127
		C53.06,275.851,46.498,269.288,46.498,261.223z M46.498,306.154c0-8.067,6.562-14.629,14.629-14.629h165.599
		c0.019,0.069,0.044,0.134,0.064,0.203c0.187,0.679,0.397,1.35,0.629,2.009c0.027,0.078,0.052,0.158,0.08,0.236
		c0.248,0.684,0.525,1.355,0.819,2.017c0.06,0.133,0.119,0.265,0.181,0.398c0.3,0.649,0.621,1.287,0.965,1.911
		c0.054,0.098,0.112,0.195,0.168,0.294c0.339,0.597,0.696,1.183,1.073,1.754c0.042,0.063,0.08,0.127,0.122,0.19
		c0.399,0.595,0.823,1.17,1.262,1.733c0.09,0.116,0.181,0.232,0.273,0.347c0.44,0.549,0.897,1.084,1.373,1.6
		c0.083,0.09,0.168,0.177,0.253,0.265c0.469,0.497,0.953,0.98,1.456,1.444c0.048,0.044,0.094,0.091,0.142,0.136
		c0.529,0.482,1.076,0.94,1.637,1.383c0.115,0.091,0.23,0.183,0.347,0.273c0.556,0.427,1.126,0.838,1.713,1.227
		c0.107,0.072,0.217,0.139,0.327,0.21c0.584,0.378,1.181,0.74,1.793,1.077c0.042,0.023,0.084,0.049,0.126,0.073
		c0.635,0.347,1.289,0.666,1.952,0.968c0.132,0.061,0.262,0.121,0.395,0.179c0.652,0.285,1.314,0.55,1.988,0.79
		c0.125,0.045,0.253,0.086,0.379,0.129c0.689,0.235,1.386,0.452,2.096,0.637c0.024,0.006,0.048,0.015,0.072,0.021
		c0.724,0.187,1.461,0.34,2.204,0.473c0.141,0.025,0.282,0.052,0.422,0.076c0.724,0.12,1.458,0.214,2.198,0.281
		c0.139,0.013,0.28,0.022,0.419,0.032c0.774,0.06,1.554,0.099,2.344,0.099c0.79,0,1.569-0.04,2.344-0.099
		c0.14-0.01,0.281-0.019,0.419-0.032c0.741-0.067,1.473-0.161,2.198-0.281c0.141-0.023,0.282-0.05,0.422-0.076
		c0.743-0.134,1.48-0.286,2.204-0.473c0.024-0.006,0.048-0.015,0.072-0.021c0.711-0.186,1.407-0.402,2.096-0.637
		c0.126-0.043,0.254-0.084,0.379-0.129c0.675-0.24,1.337-0.505,1.988-0.79c0.133-0.057,0.263-0.118,0.394-0.179
		c0.664-0.302,1.317-0.621,1.953-0.968c0.043-0.023,0.085-0.049,0.126-0.073c0.612-0.337,1.208-0.699,1.793-1.077
		c0.109-0.07,0.219-0.138,0.327-0.21c0.586-0.389,1.157-0.799,1.713-1.227c0.117-0.09,0.232-0.182,0.347-0.273
		c0.561-0.444,1.11-0.902,1.637-1.383c0.048-0.044,0.094-0.091,0.142-0.136c0.502-0.464,0.985-0.948,1.454-1.444
		c0.085-0.089,0.17-0.176,0.253-0.265c0.476-0.516,0.934-1.051,1.374-1.6c0.092-0.115,0.183-0.231,0.273-0.347
		c0.439-0.563,0.863-1.139,1.262-1.733c0.042-0.063,0.08-0.128,0.122-0.19c0.377-0.572,0.735-1.158,1.073-1.754
		c0.056-0.098,0.114-0.195,0.168-0.294c0.345-0.624,0.666-1.262,0.967-1.911c0.061-0.132,0.119-0.264,0.179-0.396
		c0.296-0.661,0.573-1.332,0.82-2.018c0.028-0.078,0.053-0.158,0.079-0.236c0.233-0.659,0.443-1.33,0.63-2.009
		c0.02-0.069,0.045-0.134,0.064-0.203h165.601c8.067,0,14.629,6.562,14.629,14.629s-6.562,14.629-14.629,14.629H61.127
		C53.06,320.782,46.498,314.219,46.498,306.154z M46.498,351.084c0-8.067,6.562-14.629,14.629-14.629h389.747
		c8.067,0,14.629,6.562,14.629,14.629c0,8.067-6.562,14.629-14.629,14.629H61.127C53.06,365.713,46.498,359.15,46.498,351.084z
		 M450.873,381.386c8.067,0,14.629,6.562,14.629,14.629s-6.562,14.629-14.629,14.629H61.127c-8.067,0-14.629-6.562-14.629-14.629
		s6.562-14.629,14.629-14.629H450.873z"/>
	<rect y="443.036" style="fill:#491E17;" width="512" height="15.673"/>
</g>
<g>
</g>
<g>
</g>
<g>
</g>
<g>
</g>
<g>
</g>
<g>
</g>
<g>
</g>
<g>
</g>
<g>
</g>
<g>
</g>
<g>
</g>
<g>
</g>
<g>
</g>
<g>
</g>
<g>
</g>
</svg>
