<?xml version="1.0" encoding="iso-8859-1"?>
<!-- Generator: Adobe Illustrator 19.0.0, SVG Export Plug-In . SVG Version: 6.00 Build 0)  -->
<svg xmlns="http://www.w3.org/2000/svg" xmlns:xlink="http://www.w3.org/1999/xlink" version="1.1" id="Layer_1" x="0px" y="0px" viewBox="0 0 428.279 428.279" style="enable-background:new 0 0 428.279 428.279;" xml:space="preserve" width="512" height="512">
<g>
	<path style="fill:#71A517;" d="M297.173,221.408c-2.91,7.27-6.29,16.23-9.83,26.61c-13.72,40.21-29.82,101.78-29.82,169.36h-86.77   c0-67.58-16.1-129.15-29.81-169.36c-3.54-10.39-6.92-19.35-9.83-26.62c8.87-1.16,16.96-4.77,23.58-10.13   c8.95,11.64,21.24,20.57,35.43,25.38c1.41,9.29,2.81,19.41,4.11,30.26c0.37,2.99,0.72,6.04,1.06,9.14   c1.08,9.61,9.17,16.9,18.84,16.9h0.01c9.67,0,17.77-7.29,18.84-16.9c0.34-3.1,0.69-6.15,1.05-9.14c1.3-10.85,2.7-20.97,4.13-30.26   c14.18-4.81,26.47-13.74,35.42-25.38C280.213,216.628,288.303,220.248,297.173,221.408z"/>
	<path style="fill:#648E13;" d="M215.768,286.033l-4.625,8.375c1.41,0,3.384-0.39,5.727-1.058   c23.796-6.775,41.174-27.243,44.577-51.749c0.273-1.963,0.517-3.66,0.716-4.953c10.456-3.547,19.879-9.34,27.699-16.802   c-6.01-1.788-11.522-4.732-16.279-8.578c-8.95,11.64-21.24,20.57-35.42,25.38c-1.43,9.29-2.83,19.41-4.13,30.26   c-0.36,2.99-0.71,6.04-1.05,9.14c-0.568,5.102-4.876,3.685-8.59,6.735C219.643,285.283,211.231,286.033,215.768,286.033z"/>
	<path style="fill:#9AD14B;" d="M297.173,221.408c-8.87-1.16-16.96-4.78-23.59-10.14c-8.95,11.64-21.24,20.57-35.42,25.38   c-7.54,2.55-15.62,3.93-24.02,3.93s-16.48-1.38-24.02-3.93c-14.19-4.81-26.48-13.74-35.43-25.38c-6.62,5.36-14.71,8.97-23.58,10.13   c-2.03,0.27-4.11,0.41-6.21,0.41c-0.25,0-0.49-0.02-0.74-0.02c-3.95,22.2-23.33,39.06-46.66,39.06   c-26.18,0-47.41-21.22-47.41-47.41c0-8.35,2.17-16.2,5.97-23.02c-17.14-10.66-28.56-29.66-28.56-51.34   c0-33.37,27.05-60.42,60.42-60.42c2.85,0,5.66,0.22,8.41,0.6c4.71-28.68,29.6-50.57,59.61-50.57c12.38,0,23.89,3.74,33.48,10.13   c7.81-16.5,24.6-27.92,44.07-27.92c19.73,0,36.71,11.74,44.38,28.6c9.78-6.8,21.65-10.81,34.47-10.81   c30.01,0,54.9,21.89,59.6,50.57c2.75-0.38,5.56-0.6,8.42-0.6c33.37,0,60.42,27.05,60.42,60.42c0,21.68-11.42,40.68-28.57,51.34   c3.8,6.82,5.97,14.67,5.97,23.02c0,26.19-21.22,47.41-47.4,47.41c-23.34,0-42.72-16.86-46.66-39.06c-0.25,0-0.5,0.02-0.75,0.02   C301.273,221.808,299.203,221.668,297.173,221.408z"/>
	<g>
		<path style="fill:#90BC42;" d="M102.093,213.438c0-8.35,2.17-16.2,5.97-23.02c-17.14-10.66-28.56-29.66-28.56-51.34    c0-33.37,27.05-60.42,60.42-60.42c2.85,0,5.66,0.22,8.41,0.6c4.71-28.68,29.6-50.57,59.61-50.57c12.38,0,23.89,3.74,33.48,10.13    c2.087-4.408,4.819-8.449,8.068-12.011c-8.91-9.771-21.734-15.909-35.998-15.909c-19.47,0-36.26,11.42-44.07,27.92    c-9.59-6.39-21.1-10.13-33.48-10.13c-30.01,0-54.9,21.89-59.61,50.57c-2.75-0.38-5.56-0.6-8.41-0.6    c-33.37,0-60.42,27.05-60.42,60.42c0,21.68,11.42,40.68,28.56,51.34c-3.8,6.82-5.97,14.67-5.97,23.02    c0,26.19,21.23,47.41,47.41,47.41c14.408,0,27.304-6.436,35.995-16.583C106.394,235.976,102.093,225.214,102.093,213.438z"/>
	</g>
	<path style="fill:#648E13;" d="M166.417,252.406c6.959,5.754,14.97,10.281,23.705,13.242c1.35,0.46,2.72,0.88,4.11,1.26   c-1.3-10.85-2.7-20.97-4.11-30.26c-10.466-3.548-19.892-9.342-27.713-16.806l0,0c-1.371-1.308-2.692-2.667-3.962-4.074   c-0.023-0.025-0.046-0.049-0.069-0.075c-0.573-0.636-1.131-1.285-1.682-1.941c-0.072-0.086-0.147-0.168-0.219-0.254   c-0.609-0.732-1.205-1.475-1.786-2.23c-6.62,5.36-14.71,8.97-23.58,10.13c2.91,7.27,6.29,16.23,9.83,26.62   c13.71,40.21,29.81,101.78,29.81,169.36h24C194.753,352.207,179.78,292.632,166.417,252.406z"/>
	<path style="fill:#648E13;" d="M297.173,221.408c-2.91,7.27-6.29,16.23-9.83,26.61c-5.04-1.81-9.68-4.45-13.76-7.75   c-8.95,11.64-21.24,20.57-35.42,25.38c-1.36,0.46-2.74,0.88-4.13,1.26c1.3-10.85,2.7-20.97,4.13-30.26   c14.18-4.81,26.47-13.74,35.42-25.38C280.213,216.628,288.303,220.248,297.173,221.408z"/>
	<path style="fill:#FFFFFF;" d="M177.581,146.347c-2.567,0-5.067-1.318-6.467-3.689c-0.171-0.29-0.354-0.329-0.512-0.329   c-0.163,0-0.306,0.06-0.426,0.179c-2.945,2.914-7.693,2.887-10.606-0.057c-2.913-2.945-2.888-7.693,0.057-10.606   c2.943-2.912,6.841-4.516,10.976-4.516c5.563,0,10.583,2.881,13.431,7.706c2.105,3.567,0.919,8.166-2.648,10.271   C180.189,146.011,178.876,146.347,177.581,146.347z"/>
	<path style="fill:#FFFFFF;" d="M238.283,160.509c-4.142,0-7.5-3.358-7.5-7.5c0-3.689-2.997-6.69-6.68-6.69   c-4.142,0-7.5-3.358-7.5-7.5s3.358-7.5,7.5-7.5c11.955,0,21.68,9.73,21.68,21.69C245.783,157.151,242.425,160.509,238.283,160.509z   "/>
	<path style="fill:#FFFFFF;" d="M368.238,237.977c-1.889,0-3.778-0.708-5.237-2.132c-2.965-2.892-3.023-7.641-0.131-10.605   c3.103-3.181,4.812-7.372,4.812-11.802c0-2.907-0.711-5.657-2.113-8.175l-4.432-7.953c-2.016-3.618-0.717-8.186,2.901-10.202   c3.619-2.016,8.187-0.717,10.202,2.901l4.432,7.954c2.661,4.776,4.01,9.982,4.01,15.475c0,8.366-3.223,16.278-9.076,22.276   C372.138,237.221,370.188,237.977,368.238,237.977z"/>
	<path style="fill:#FFFFFF;" d="M394.069,162.878c-1.095,0-2.206-0.241-3.258-0.749c-3.729-1.802-5.292-6.287-3.49-10.016   c1.965-4.066,2.961-8.451,2.961-13.034c0-9.829-4.854-19.044-12.985-24.652c-3.41-2.352-4.268-7.022-1.917-10.432   c2.352-3.41,7.021-4.269,10.432-1.916c12.191,8.407,19.47,22.239,19.47,37c0,6.862-1.499,13.443-4.455,19.561   C399.534,161.317,396.856,162.878,394.069,162.878z"/>
	<path style="fill:#FFFFFF;" d="M329.236,90.479c-3.608,0-6.79-2.611-7.392-6.288c-2.009-12.261-11.137-21.823-23.255-24.359   c-4.054-0.849-6.653-4.823-5.804-8.878c0.849-4.055,4.829-6.653,8.877-5.804c18.233,3.817,31.965,18.189,34.985,36.615   c0.67,4.088-2.101,7.944-6.188,8.614C330.047,90.446,329.639,90.479,329.236,90.479z"/>
	<path style="fill:#FFFFFF;" d="M236.941,56.524c-2.85,0-5.574-1.633-6.831-4.396c-2.965-6.518-9.488-10.729-16.618-10.729   c-4.142,0-7.5-3.358-7.5-7.5s3.358-7.5,7.5-7.5c12.996,0,24.878,7.662,30.271,19.519c1.715,3.771,0.049,8.217-3.721,9.932   C239.036,56.307,237.98,56.524,236.941,56.524z"/>
	<path style="fill:#FFFFFF;" d="M162.968,69.661c-1.429,0-2.874-0.407-4.152-1.259L152.51,64.2   c-4.92-3.279-10.65-5.011-16.568-5.011c-1.841,0-3.683,0.166-5.474,0.492c-4.077,0.741-7.98-1.958-8.724-6.033   c-0.743-4.075,1.958-7.98,6.033-8.723c2.676-0.488,5.423-0.735,8.164-0.735c8.888,0,17.493,2.603,24.885,7.529l6.306,4.202   c3.447,2.297,4.379,6.953,2.083,10.4C167.771,68.487,165.392,69.661,162.968,69.661z"/>
	<circle style="fill:#FFFFFF;" cx="360.362" cy="101.658" r="7.5"/>
	<g>
		<path style="fill:#333333;" d="M224.1,108.323c-9.293,0-18.123,2.805-25.559,8.021c-7.214-7.558-17.32-12.019-27.938-12.019    c-21.291,0-38.611,17.321-38.611,38.611s17.321,38.611,38.611,38.611c4.142,0,7.5-3.358,7.5-7.5s-3.358-7.5-7.5-7.5    c-13.02,0-23.611-10.592-23.611-23.611s10.592-23.611,23.611-23.611c8.418,0,16.015,4.354,20.322,11.647    c1.19,2.015,3.253,3.359,5.577,3.634c2.327,0.274,4.644-0.551,6.271-2.232c5.648-5.836,13.223-9.051,21.328-9.051    c16.369,0,29.687,13.317,29.687,29.687c0,4.142,3.358,7.5,7.5,7.5s7.5-3.358,7.5-7.5    C268.786,128.369,248.74,108.323,224.1,108.323z"/>
		<path style="fill:#333333;" d="M428.279,139.081c0-37.45-30.468-67.918-67.918-67.918c-0.825,0-1.657,0.016-2.493,0.048    c-7.93-29.364-34.465-50.017-65.528-50.017c-11.146,0-21.954,2.69-31.679,7.838C250.39,13.236,232.661,3.4,213.491,3.4    c-18.893,0-36.512,9.646-46.839,25.126c-9.476-4.816-19.953-7.332-30.712-7.332c-31.063,0-57.599,20.653-65.528,50.017    c-0.836-0.032-1.668-0.048-2.493-0.048C30.468,71.162,0,101.63,0,139.081c0,21.372,9.814,41.058,26.561,53.874    c-2.607,6.487-3.966,13.458-3.966,20.488c0,30.275,24.63,54.905,54.905,54.905c22.575,0,42.323-13.653,50.674-33.759    c14.668,39.067,35.078,107.04,35.078,182.79c0,4.142,3.358,7.5,7.5,7.5h86.776c4.142,0,7.5-3.358,7.5-7.5    c0-75.749,20.409-143.722,35.078-182.79c8.351,20.105,28.099,33.758,50.674,33.758c30.275,0,54.905-24.63,54.905-54.905    c0-7.03-1.359-14.001-3.966-20.488C418.464,180.138,428.279,160.453,428.279,139.081z M250.091,409.879h-71.904    c-1.307-76.654-22.283-144.648-36.929-183.094c4.232-1.323,8.307-3.137,12.11-5.441c8.429,9.222,18.667,16.259,29.978,20.802    c1.686,11.443,3.203,23.096,4.496,34.735c1.5,13.437,12.802,23.57,26.302,23.57c13.489,0,24.792-10.133,26.292-23.58    c1.287-11.668,2.802-23.318,4.492-34.724c11.312-4.543,21.552-11.58,29.981-20.803c3.804,2.304,7.879,4.118,12.111,5.441    C272.375,265.232,251.398,333.226,250.091,409.879z M199.164,246.707c4.887,0.891,9.889,1.375,14.976,1.375    c5.084,0,10.084-0.483,14.969-1.373c-1.324,9.416-2.527,18.962-3.58,28.509c-0.651,5.834-5.545,10.234-11.395,10.234    c-5.839,0-10.732-4.399-11.383-10.229C201.693,265.692,200.488,256.144,199.164,246.707z M388.254,184.047    c-3.398,2.113-4.539,6.522-2.592,10.019c3.285,5.898,5.021,12.599,5.021,19.377c0,22.004-17.901,39.905-39.905,39.905    c-19.371,0-35.888-13.824-39.274-32.871c-0.637-3.584-3.753-6.188-7.383-6.188c-0.04,0-0.079,0-0.119,0.001l-0.63,0.018    c-9.231,0-17.902-3.067-25.074-8.871c-1.571-1.271-3.586-1.856-5.597-1.618c-2.007,0.237-3.834,1.274-5.066,2.876    c-12.896,16.769-32.395,26.386-53.497,26.386c-21.102,0-40.601-9.617-53.497-26.386c-1.232-1.602-3.059-2.639-5.066-2.876    c-2.008-0.237-4.026,0.347-5.597,1.618c-7.172,5.804-15.842,8.871-25.066,8.871l-0.638-0.018    c-3.649-0.034-6.857,2.563-7.501,6.187c-3.386,19.047-19.903,32.871-39.274,32.871c-22.004,0-39.905-17.901-39.905-39.905    c0-6.779,1.736-13.479,5.021-19.377c1.947-3.496,0.807-7.905-2.592-10.019C24.355,174.303,15,157.493,15,139.081    c0-29.179,23.739-52.918,52.918-52.918c2.401,0,4.884,0.177,7.379,0.524c4.029,0.564,7.778-2.195,8.437-6.214    c4.21-25.657,26.166-44.28,52.205-44.28c10.485,0,20.624,3.065,29.318,8.865c1.813,1.21,4.063,1.57,6.164,0.989    c2.101-0.582,3.845-2.05,4.777-4.02c6.792-14.353,21.43-23.627,37.292-23.627c16.13,0,30.87,9.501,37.552,24.204    c0.921,2.027,2.695,3.54,4.841,4.129c2.148,0.59,4.445,0.195,6.271-1.077c8.894-6.19,19.331-9.463,30.183-9.463    c26.04,0,47.995,18.622,52.205,44.28c0.66,4.018,4.405,6.777,8.437,6.214c2.496-0.348,4.979-0.525,7.379-0.525    c29.179,0,52.918,23.739,52.918,52.918C413.279,157.493,403.924,174.303,388.254,184.047z"/>
	</g>
</g>















</svg>
