<?xml version="1.0" encoding="iso-8859-1"?>
<!-- Generator: Adobe Illustrator 19.0.0, SVG Export Plug-In . SVG Version: 6.00 Build 0)  -->
<svg version="1.1" id="Layer_1" xmlns="http://www.w3.org/2000/svg" xmlns:xlink="http://www.w3.org/1999/xlink" x="0px" y="0px"
	 viewBox="0 0 512 512" style="enable-background:new 0 0 512 512;" xml:space="preserve">
<path style="fill:#463246;" d="M256,344.428l48.833,83.714c8.18,14.022,24.799,20.567,40.409,16.113
	c38.787-11.066,104.964-40.008,104.964-108.654c0-52.966-79.448-79.448-79.448-79.448H256V344.428z"/>
<g>
	<path style="fill:#594759;" d="M449.385,326.735c-21.125-17.082-79.051-52.928-193.385-52.928v-17.655h114.759
		C370.759,256.152,441.257,279.695,449.385,326.735z"/>
	<path style="fill:#594759;" d="M320.568,442.294c-6.4-2.944-11.978-7.713-15.734-14.152L256,344.428V264.98
		C353.783,310.111,329.805,412.865,320.568,442.294z"/>
</g>
<path style="fill:#463246;" d="M493.977,87.893C503.889,87.676,512,95.641,512,105.555v27.011c0,44.138-8.828,44.138-8.828,88.276
	c0,24.953-8.465,38.621-15.822,45.788c-4.962,4.832-11.722,7.243-18.646,7.066c-58.599-1.491-203.876-17.544-203.876-17.544v-17.655
	C334.494,113.097,451.475,88.83,493.977,87.893z"/>
<path style="fill:#FF413C;" d="M421.613,154.707c32.679,19.67,59.939,53.375,54.344,86.52c-1.432,8.483-9.77,14.067-18.286,12.852
	c-30.749-4.384-110.084-13.651-192.843-6.754v-8.828c15.743-28.337,33.902-51.49,53.073-70.383
	C345.495,140.916,388.418,134.726,421.613,154.707z"/>
<path style="fill:#C53C3C;" d="M421.613,154.707c1.501,0.903,2.975,1.867,4.45,2.828c-48.897,12.297-89.63,35.99-118.193,56.759
	c65.863-20.182,129.217-9.767,165.875,0.156c2.002,6.353,3.033,12.828,2.871,19.331c-38.946-11.367-122.854-27.425-201.138,12.78
	c-3.545,0.238-7.089,0.467-10.65,0.764v-8.828c5.251-9.452,10.851-18.126,16.588-26.46c26.317-21.332,67.732-49.22,120.089-65.983
	C408.448,147.998,415.213,150.855,421.613,154.707z"/>
<path style="fill:#594759;" d="M461.621,126.325c3.448-3.448,9.035-3.448,12.483,0c15.772,15.774,26.253,33.958,33.231,51.648
	c-2.121,10.628-4.163,21.641-4.163,42.869c0,4.533-0.358,8.574-0.859,12.391c-2.466-24.705-11.133-64.865-40.693-94.425
	C458.173,135.359,458.173,129.773,461.621,126.325z"/>
<ellipse transform="matrix(-0.1111 0.9938 -0.9938 -0.1111 777.6263 66.4772)" style="fill:#4C4E70;" cx="359.083" cy="381.007" rx="25.489" ry="12.488"/>
<path style="fill:#463246;" d="M256,344.428l-48.833,83.714c-8.18,14.022-24.799,20.567-40.409,16.113
	C127.97,433.188,61.793,404.247,61.793,335.601c0-52.966,79.448-79.448,79.448-79.448H256V344.428z"/>
<g>
	<path style="fill:#594759;" d="M62.615,326.735c21.126-17.082,79.051-52.928,193.385-52.928v-17.655H141.241
		C141.241,256.152,70.743,279.695,62.615,326.735z"/>
	<path style="fill:#594759;" d="M191.432,442.294c6.4-2.944,11.978-7.713,15.734-14.152L256,344.428V264.98
		C158.217,310.111,182.195,412.865,191.432,442.294z"/>
</g>
<path style="fill:#908490;" d="M256,216.428c-1.75,0-3.345-1.038-4.043-2.646L190.164,72.541c-0.974-2.232,0.043-4.832,2.276-5.811
	c2.232-0.97,4.836,0.039,5.811,2.275L256,201.001l57.75-131.996c0.983-2.237,3.586-3.245,5.811-2.275
	c2.232,0.979,3.25,3.577,2.276,5.811l-61.793,141.241C259.345,215.389,257.75,216.428,256,216.428z"/>
<path style="fill:#463246;" d="M18.023,87.893C8.111,87.676,0,95.641,0,105.555v27.011c0,44.138,8.828,44.138,8.828,88.276
	c0,24.953,8.465,38.621,15.822,45.788c4.962,4.832,11.722,7.243,18.646,7.066c58.599-1.491,203.876-17.544,203.876-17.544v-17.655
	C177.506,113.097,60.525,88.83,18.023,87.893z"/>
<path style="fill:#FF413C;" d="M90.387,154.707c-32.679,19.67-59.939,53.375-54.344,86.52c1.432,8.483,9.77,14.067,18.286,12.852
	c30.749-4.384,110.084-13.651,192.843-6.754v-8.828c-15.743-28.337-33.902-51.49-53.073-70.383
	C166.505,140.916,123.582,134.726,90.387,154.707z"/>
<path style="fill:#C53C3C;" d="M90.387,154.707c-1.501,0.903-2.975,1.867-4.45,2.828c48.897,12.297,89.63,35.99,118.193,56.759
	c-65.862-20.182-129.217-9.767-165.875,0.156c-2.002,6.353-3.033,12.828-2.871,19.331c38.946-11.367,122.854-27.425,201.138,12.78
	c3.545,0.238,7.089,0.467,10.65,0.764v-8.828c-5.251-9.452-10.851-18.126-16.588-26.46c-26.317-21.332-67.732-49.22-120.089-65.983
	C103.552,147.998,96.787,150.855,90.387,154.707z"/>
<path style="fill:#594759;" d="M256,247.325L256,247.325c-7.313,0-13.241-5.929-13.241-13.241v-26.483
	c0-7.313,5.929-13.241,13.241-13.241l0,0c7.313,0,13.241,5.929,13.241,13.241v26.483C269.241,241.396,263.313,247.325,256,247.325z"
	/>
<path style="fill:#463246;" d="M256,212.014c-9.75,0-17.655,7.904-17.655,17.655v97.103c0,6.518,3.573,12.148,8.828,15.207v37.759
	c0,4.875,3.948,8.828,8.828,8.828c4.879,0,8.828-3.953,8.828-8.828V341.98c5.255-3.058,8.828-8.689,8.828-15.207V229.67
	C273.655,219.918,265.75,212.014,256,212.014z"/>
<path style="fill:#594759;" d="M50.379,126.325c-3.448-3.448-9.034-3.448-12.482,0c-15.772,15.774-26.253,33.958-33.231,51.648
	c2.119,10.628,4.162,21.641,4.162,42.869c0,4.533,0.358,8.574,0.858,12.391c2.466-24.705,11.133-64.865,40.693-94.425
	C53.827,135.359,53.827,129.773,50.379,126.325z"/>
<ellipse transform="matrix(-0.1111 -0.9938 0.9938 -0.1111 -208.7179 575.3187)" style="fill:#4C4E70;" cx="152.934" cy="381.002" rx="25.489" ry="12.488"/>
<g>
</g>
<g>
</g>
<g>
</g>
<g>
</g>
<g>
</g>
<g>
</g>
<g>
</g>
<g>
</g>
<g>
</g>
<g>
</g>
<g>
</g>
<g>
</g>
<g>
</g>
<g>
</g>
<g>
</g>
</svg>
