<?xml version="1.0" encoding="iso-8859-1"?>
<!-- Generator: Adobe Illustrator 19.0.0, SVG Export Plug-In . SVG Version: 6.00 Build 0)  -->
<svg version="1.1" id="Layer_1" xmlns="http://www.w3.org/2000/svg" xmlns:xlink="http://www.w3.org/1999/xlink" x="0px" y="0px"
	 viewBox="0 0 511.999 511.999" style="enable-background:new 0 0 511.999 511.999;" xml:space="preserve">
<path id="SVGCleanerId_0" style="fill:#FCB5A6;" d="M252.971,105.063l-25.47,84.129c-1.207,3.985-4.862,6.725-9.026,6.765
	l-87.878,0.835c-3.396,0.032-6.248-1.936-8.286-4.654C75.208,129.299,87.543,74.663,82.435,42.082
	c-1.01-6.446,4.611-11.963,11.039-10.849l0.009,0.002c5.36,0.929,10.408-2.812,11.079-8.21l0.011-0.09
	c0.799-6.431,7.637-10.208,13.501-7.447c29.71,13.984,85.69,17.448,132.754,80.315C252.864,98.523,253.955,101.812,252.971,105.063z
	"/>
<path id="SVGCleanerId_1" style="fill:#FCB5A6;" d="M129.46,198.003l72.141,50.221c3.418,2.379,4.893,6.702,3.645,10.675
	l-26.362,83.835c-1.019,3.24-3.772,5.345-6.987,6.443c-74.319,25.38-122.468-3.235-155.034-8.446
	c-6.442-1.03-9.953-8.082-6.907-13.851l0.004-0.008c2.54-4.811,0.542-10.768-4.384-13.074l-0.082-0.039
	c-5.87-2.748-7.348-10.418-2.911-15.142c22.48-23.934,43.074-76.104,117.408-101.438
	C123.206,196.084,126.672,196.063,129.46,198.003z"/>
<path style="fill:#FCB5A6;" d="M179.685,344.19l70.055-53.091c3.319-2.515,7.887-2.583,11.279-0.167l71.586,50.977
	c2.767,1.971,3.917,5.239,3.969,8.636c1.171,78.524-40.922,115.475-55.941,144.835c-2.971,5.809-10.761,6.968-15.308,2.288
	l-0.006-0.006c-3.79-3.902-10.073-3.843-13.79,0.13l-0.062,0.066c-4.427,4.733-12.178,3.769-15.299-1.91
	c-15.816-28.776-59.069-64.483-60.192-143.008C175.926,349.544,176.977,346.242,179.685,344.19z"/>
<g>
	<path id="SVGCleanerId_0_1_" style="fill:#FCB5A6;" d="M252.971,105.063l-25.47,84.129c-1.207,3.985-4.862,6.725-9.026,6.765
		l-87.878,0.835c-3.396,0.032-6.248-1.936-8.286-4.654C75.208,129.299,87.543,74.663,82.435,42.082
		c-1.01-6.446,4.611-11.963,11.039-10.849l0.009,0.002c5.36,0.929,10.408-2.812,11.079-8.21l0.011-0.09
		c0.799-6.431,7.637-10.208,13.501-7.447c29.71,13.984,85.69,17.448,132.754,80.315C252.864,98.523,253.955,101.812,252.971,105.063
		z"/>
</g>
<g>
	<path id="SVGCleanerId_1_1_" style="fill:#FCB5A6;" d="M129.46,198.003l72.141,50.221c3.418,2.379,4.893,6.702,3.645,10.675
		l-26.362,83.835c-1.019,3.24-3.772,5.345-6.987,6.443c-74.319,25.38-122.468-3.235-155.034-8.446
		c-6.442-1.03-9.953-8.082-6.907-13.851l0.004-0.008c2.54-4.811,0.542-10.768-4.384-13.074l-0.082-0.039
		c-5.87-2.748-7.348-10.418-2.911-15.142c22.48-23.934,43.074-76.104,117.408-101.438
		C123.206,196.084,126.672,196.063,129.46,198.003z"/>
</g>
<g>
	<path style="fill:#ED836E;" d="M142.327,192.138c-47.103-62.839-34.768-117.475-39.875-150.056
		c-1.01-6.446,4.611-11.963,11.039-10.849l0.009,0.002c5.36,0.929,10.408-2.812,11.079-8.21l0.011-0.09
		c0.191-1.539,0.736-2.919,1.522-4.101c-2.849-1.069-5.539-2.17-8.037-3.346c-5.864-2.761-12.701,1.016-13.501,7.447l-0.011,0.09
		c-0.671,5.398-5.719,9.14-11.079,8.21l-0.009-0.002c-6.428-1.114-12.05,4.403-11.039,10.849
		c5.107,32.581-7.228,87.217,39.875,150.056c2.038,2.718,4.89,4.686,8.286,4.654l18.32-0.174
		C146.266,196.106,144.013,194.388,142.327,192.138z"/>
	<path style="fill:#ED836E;" d="M36.879,340.731c-6.443-1.03-9.953-8.082-6.907-13.851l0.004-0.008
		c2.54-4.811,0.542-10.768-4.384-13.074l-0.082-0.039c-5.87-2.748-7.348-10.417-2.911-15.142
		c21.683-23.085,41.616-72.432,109.7-98.637l-2.839-1.976c-2.788-1.94-6.254-1.919-9.469-0.824
		C45.657,222.514,25.064,274.684,2.583,298.617c-4.437,4.724-2.959,12.394,2.911,15.142l0.082,0.039
		c4.927,2.306,6.925,8.263,4.384,13.074l-0.004,0.008c-3.046,5.769,0.464,12.821,6.907,13.851
		c24.599,3.936,58.095,21.221,105.043,18.505C85.234,357.119,57.83,344.083,36.879,340.731z"/>
	<path style="fill:#ED836E;" d="M195.99,352.941c-0.049-3.397,1.003-6.699,3.71-8.751l65.936-49.969l-4.618-3.289
		c-3.392-2.415-7.96-2.348-11.279,0.167l-70.055,53.091c-2.707,2.052-3.758,5.354-3.71,8.751
		c1.123,78.524,44.377,114.231,60.192,143.007c3.122,5.68,10.872,6.643,15.299,1.91l0.062-0.066c1.197-1.28,2.661-2.147,4.222-2.613
		C239.597,466.533,197.104,430.768,195.99,352.941z"/>
</g>
<g>
	<path style="fill:#FCB5A6;" d="M334.236,341.597l-28.844-83.033c-1.367-3.933-0.02-8.299,3.326-10.778l70.604-52.328
		c2.729-2.023,6.194-2.107,9.44-1.105c75.042,23.152,97.178,74.603,120.46,97.959c4.606,4.621,3.302,12.388-2.554,15.266
		l-0.008,0.004c-4.883,2.399-6.768,8.393-4.138,13.154l0.044,0.079c3.134,5.673-0.179,12.747-6.545,13.961
		c-32.255,6.149-79.581,36.252-154.608,13.055C338.167,346.826,335.351,344.806,334.236,341.597z"/>
	<path style="fill:#FCB5A6;" d="M379.529,193.809l-87.882,1.773c-4.163,0.084-7.898-2.546-9.222-6.494l-27.95-83.319
		c-1.08-3.22-0.09-6.541,1.866-9.318c45.208-64.216,100.981-69.368,130.389-84.294c5.818-2.953,12.802,0.689,13.729,7.146
		l0.001,0.009c0.773,5.384,5.89,9.03,11.232,8l0.089-0.017c6.363-1.227,12.068,4.109,11.255,10.539
		c-4.119,32.577,9.886,86.887-35.361,151.076C385.717,191.687,382.926,193.74,379.529,193.809z"/>
</g>
<g>
	<path style="fill:#ED836E;" d="M361.353,347.83c-3.245-1.004-6.061-3.024-7.176-6.233l-28.844-83.033
		c-1.367-3.933-0.02-8.299,3.326-10.778l68.384-50.684c-2.69-0.954-5.444-1.875-8.282-2.75c-3.245-1.001-6.71-0.917-9.44,1.105
		l-70.604,52.328c-3.346,2.48-4.693,6.845-3.326,10.778l28.844,83.033c1.115,3.209,3.931,5.229,7.176,6.233
		c24.496,7.573,46.037,9.464,65.067,8.362C392.659,355.393,377.661,352.872,361.353,347.83z"/>
	<path style="fill:#ED836E;" d="M304.79,192.861l-27.95-83.319c-1.08-3.22-0.09-6.541,1.866-9.319
		c41.144-58.443,91.036-67.964,121.842-80.456c-0.029-0.152-0.067-0.3-0.09-0.455l-0.001-0.009
		c-0.927-6.459-7.911-10.099-13.729-7.146c-29.408,14.926-85.181,20.078-130.389,84.294c-1.955,2.777-2.946,6.099-1.866,9.319
		l27.95,83.319c1.324,3.948,5.059,6.578,9.222,6.494l14.378-0.29C305.509,194.557,305.087,193.744,304.79,192.861z"/>
</g>
<path style="fill:#F78972;" d="M391.857,189.847c-14.214-6.72-47.636-21.13-79.05-24.356c-2.622-0.27-4.912-1.933-5.978-4.343
	c-12.778-28.873-36.797-56.2-47.578-67.643c-2.978-3.161-7.987-3.16-10.965,0.001c-10.776,11.441-34.779,38.758-47.555,67.624
	c-1.067,2.41-3.357,4.074-5.978,4.343c-31.421,3.227-64.857,17.647-79.074,24.372c-3.924,1.856-5.471,6.618-3.387,10.426
	c7.547,13.787,26.109,45.078,49.618,66.152c1.961,1.759,2.836,4.45,2.283,7.026c-6.634,30.875-3.252,67.117-1.251,82.712
	c0.553,4.305,4.604,7.248,8.869,6.443c15.445-2.917,50.94-10.901,78.247-26.747c2.279-1.322,5.11-1.322,7.387,0
	c27.314,15.85,62.827,23.833,78.276,26.748c4.265,0.805,8.316-2.139,8.868-6.444c1.999-15.59,5.374-51.815-1.258-82.684
	c-0.554-2.576,0.321-5.267,2.283-7.026c23.515-21.079,42.081-52.387,49.628-66.181C397.329,196.464,395.781,191.701,391.857,189.847
	z"/>
<path style="fill:#E87861;" d="M180.863,356.402c-1.945-15.147-5.23-50.348,1.215-80.337c0.538-2.501-0.312-5.117-2.217-6.824
	c-22.834-20.47-40.863-50.861-48.194-64.253c-2.024-3.698-0.521-8.324,3.289-10.126c13.808-6.532,46.285-20.539,76.803-23.672
	c2.546-0.261,4.771-1.878,5.807-4.218c12.409-28.037,35.723-54.57,46.19-65.682c0.458-0.486,0.968-0.885,1.509-1.217
	c-2.271-2.547-4.308-4.757-6.013-6.567c-2.978-3.161-7.987-3.16-10.965,0.001c-10.776,11.441-34.779,38.758-47.555,67.624
	c-1.067,2.41-3.357,4.073-5.978,4.343c-31.421,3.227-64.857,17.648-79.074,24.372c-3.924,1.856-5.471,6.618-3.387,10.426
	c7.547,13.787,26.109,45.078,49.618,66.152c1.961,1.759,2.836,4.45,2.283,7.026c-6.634,30.875-3.252,67.117-1.251,82.712
	c0.553,4.305,4.604,7.248,8.869,6.443c2.952-0.558,6.641-1.302,10.862-2.25C181.718,359.291,181.061,357.937,180.863,356.402z"/>
<path style="fill:#F7B94F;" d="M322.896,210.658c-6.878-3.272-23.052-10.288-38.264-11.887c-1.27-0.134-2.377-0.941-2.891-2.111
	c-6.158-14-17.761-27.265-22.971-32.819c-1.439-1.534-3.866-1.54-5.311-0.012c-5.233,5.53-16.891,18.736-23.111,32.704
	c-0.519,1.166-1.631,1.97-2.901,2.097c-15.224,1.528-31.437,8.476-38.331,11.717c-1.903,0.894-2.657,3.199-1.652,5.047
	c3.64,6.687,12.597,21.865,23.962,32.1c0.949,0.854,1.369,2.159,1.098,3.406c-3.249,14.948-1.65,32.508-0.698,40.065
	c0.263,2.086,2.221,3.516,4.289,3.131c7.485-1.396,24.688-5.223,37.933-12.869c1.105-0.638,2.476-0.635,3.579,0.008
	c13.213,7.708,30.407,11.615,37.887,13.045c2.065,0.395,4.031-1.026,4.303-3.112c0.985-7.549,2.66-25.093-0.517-40.053
	c-0.265-1.249,0.162-2.552,1.114-3.401c11.414-10.185,20.442-25.329,24.114-32.002C325.539,213.87,324.795,211.561,322.896,210.658z
	"/>
<path style="fill:#FFE666;" d="M332.031,212.253c-1.379-4.246-5.944-6.569-10.187-5.19l-57.76,18.767v-60.734
	c0-4.465-3.618-8.084-8.084-8.084c-4.465,0-8.084,3.62-8.084,8.084v60.734l-57.761-18.767c-4.246-1.381-8.806,0.945-10.187,5.19
	c-1.38,4.245,0.945,8.806,5.19,10.187l57.761,18.767l-35.698,49.133c-2.625,3.612-1.823,8.667,1.789,11.292
	c1.435,1.042,3.097,1.544,4.745,1.544c2.5,0,4.965-1.156,6.547-3.333L256,250.711l35.698,49.133
	c1.582,2.178,4.046,3.333,6.546,3.333c1.648,0,3.31-0.503,4.745-1.544c3.612-2.625,4.413-7.68,1.789-11.292l-35.698-49.133
	l57.76-18.767C331.086,221.061,333.41,216.5,332.031,212.253z"/>
<g>
</g>
<g>
</g>
<g>
</g>
<g>
</g>
<g>
</g>
<g>
</g>
<g>
</g>
<g>
</g>
<g>
</g>
<g>
</g>
<g>
</g>
<g>
</g>
<g>
</g>
<g>
</g>
<g>
</g>
</svg>
