<?xml version="1.0" encoding="iso-8859-1"?>
<!-- Generator: Adobe Illustrator 19.0.0, SVG Export Plug-In . SVG Version: 6.00 Build 0)  -->
<svg version="1.1" id="Layer_1" xmlns="http://www.w3.org/2000/svg" xmlns:xlink="http://www.w3.org/1999/xlink" x="0px" y="0px"
	 viewBox="0 0 280.042 280.042" style="enable-background:new 0 0 280.042 280.042;" xml:space="preserve">
<g>
	<g>
		<g id="XMLID_24_">
			<g>
				<g>
					<path style="fill:#A3D661;" d="M199.057,16.42v13.149c0,12.059-9.782,21.84-21.776,21.84h-21.776V38.26
						c0-12.059,9.782-21.84,21.776-21.84C177.281,16.42,199.057,16.42,199.057,16.42z"/>
				</g>
				<g>
					<path style="fill:#EF685E;" d="M219.999,115.744c17.19,26.555,19.724,63.147,6.446,93.23l-6.863,15.554
						c-11.738,26.555-33.193,41.403-55.899,38.774c-15.715-1.828-31.622-1.828-47.336,0c-22.674,2.662-44.129-12.219-55.867-38.774
						l-6.895-15.554c-13.277-30.082-10.744-66.675,6.446-93.23c11.353-17.479,27.068-27.1,44.322-27.1h13.726
						c1.122,0,2.213,0.064,3.271,0.128c12.411,0.898,24.951,0.898,37.298,0c1.09-0.064,2.181-0.128,3.303-0.128h13.726
						C192.932,88.644,208.678,98.265,219.999,115.744z"/>
				</g>
				<g>
					<path style="fill:#2D213F;" d="M233.726,106.796c20.14,31.077,23.155,73.795,7.665,108.848l-6.863,15.554
						c-14.753,33.354-42.59,51.891-72.737,48.427c-14.432-1.7-29.088-1.7-43.552,0c-2.437,0.257-4.843,0.417-7.216,0.417
						c-27.324,0-51.955-18.184-65.521-48.844l-6.863-15.554c-15.49-35.053-12.443-77.772,7.697-108.848
						c14.239-21.968,35.374-34.572,58.016-34.572h13.726c1.507,0,2.983,0.064,4.458,0.16c3.592,0.257,7.216,0.417,10.84,0.513
						c-0.385-14.272-3.752-40.698-16.805-51.506c-3.464-2.886-3.945-8.082-1.058-11.578c2.854-3.496,8.018-3.977,11.513-1.09
						c5.965,4.971,10.391,11.674,13.63,18.954C145.242,11.706,159.899,0,177.281,0h29.954c4.522,0,8.178,3.656,8.178,8.21v21.359
						c0,21.103-17.094,38.26-38.132,38.26h-27.805c0.128,1.86,0.192,3.528,0.224,4.971c2.598-0.096,5.195-0.224,7.793-0.417
						c1.475-0.096,2.951-0.16,4.458-0.16h13.726C198.32,72.223,219.486,84.827,233.726,106.796z M226.446,208.973
						c13.277-30.082,10.744-66.675-6.446-93.23c-11.321-17.479-27.068-27.1-44.322-27.1h-13.726c-1.122,0-2.213,0.064-3.303,0.128
						c-12.347,0.898-24.887,0.898-37.298,0c-1.058-0.064-2.149-0.128-3.271-0.128h-13.726c-17.254,0-32.969,9.621-44.322,27.1
						c-17.19,26.555-19.724,63.147-6.446,93.23l6.895,15.554c11.738,26.555,33.193,41.435,55.867,38.774
						c15.715-1.828,31.622-1.828,47.336,0c22.706,2.63,44.161-12.219,55.899-38.774L226.446,208.973z M199.057,29.569V16.42h-21.776
						c-11.994,0-21.776,9.782-21.776,21.84v13.149h21.776C189.276,51.409,199.057,41.628,199.057,29.569z"/>
				</g>
			</g>
		</g>
		<g>
			<path style="fill:#F47C6D;" d="M219.999,115.744c-11.321-17.479-27.068-27.1-44.322-27.1h-13.726
				c-1.122,0-2.213,0.064-3.303,0.128c-5.054,0.369-10.147,0.545-15.243,0.613c-10.58,10.465-17.116,24.595-17.116,40.191
				c0,32.209,27.709,58.318,61.89,58.318c18.662,0,35.355-7.819,46.701-20.128C234.8,149.206,229.778,130.852,219.999,115.744z"/>
		</g>
	</g>
</g>
<g>
</g>
<g>
</g>
<g>
</g>
<g>
</g>
<g>
</g>
<g>
</g>
<g>
</g>
<g>
</g>
<g>
</g>
<g>
</g>
<g>
</g>
<g>
</g>
<g>
</g>
<g>
</g>
<g>
</g>
</svg>
