<?xml version="1.0" encoding="iso-8859-1"?>
<!-- Generator: Adobe Illustrator 19.0.0, SVG Export Plug-In . SVG Version: 6.00 Build 0)  -->
<svg version="1.1" id="Layer_1" xmlns="http://www.w3.org/2000/svg" xmlns:xlink="http://www.w3.org/1999/xlink" x="0px" y="0px"
	 viewBox="0 0 512.001 512.001" style="enable-background:new 0 0 512.001 512.001;" xml:space="preserve">
<path style="fill:#EB87BF;" d="M448.549,274.34c0,61.266-86.207,22.078-192.55,22.078l0,0c-106.343,0-192.55,37.426-192.55-22.078
	v-67.006c0-106.343,86.207-192.55,192.55-192.55l0,0c106.343,0,192.55,86.207,192.55,192.55V274.34z"/>
<g>
	<path style="fill:#FFF476;" d="M255.999,296.417c-16.563,0-32.636,0.909-47.973,2.218l-23.372,195.539
		c0,1.054,0.08,2.061,0.198,3.044h142.293c0.118-0.983,0.198-1.99,0.198-3.044l-23.359-195.43
		C288.645,297.369,272.566,296.417,255.999,296.417z"/>
	<circle style="fill:#FFF476;" cx="255.999" cy="180.616" r="47.123"/>
</g>
<path d="M255.999,242.521c-34.135,0-61.907-27.77-61.907-61.907s27.772-61.907,61.907-61.907c34.136,0,61.907,27.77,61.907,61.907
	S290.136,242.521,255.999,242.521z M255.999,148.276c-17.832,0-32.339,14.508-32.339,32.339s14.508,32.339,32.339,32.339
	s32.339-14.508,32.339-32.339S273.832,148.276,255.999,148.276z"/>
<g>
	<circle style="fill:#FFF476;" cx="371.211" cy="108.677" r="37.992"/>
	<circle style="fill:#FFF476;" cx="386.823" cy="264.944" r="37.992"/>
	<circle style="fill:#FFF476;" cx="140.787" cy="108.677" r="37.992"/>
	<circle style="fill:#FFF476;" cx="125.175" cy="264.944" r="37.992"/>
</g>
<path d="M255.999,0C141.676,0,48.665,93.009,48.665,207.334v67.004c0,15.315,4.715,27.274,14.014,35.542
	c20.093,17.868,54.773,13.788,102.776,8.142c8.254-0.971,16.845-1.981,25.715-2.917l-21.193,177.314
	c-0.069,0.583-0.105,1.168-0.105,1.755c0,1.546,0.101,3.122,0.306,4.823c0.899,7.423,7.2,13.006,14.676,13.006h142.293
	c7.482,0,13.783-5.588,14.679-13.017c0.204-1.697,0.303-3.272,0.303-4.811c0-0.585-0.034-1.172-0.104-1.755l-21.169-177.112
	c9.091,1.011,17.889,2.104,26.338,3.155c21.96,2.732,41.091,5.111,57.312,5.111c18.804,0,33.694-3.201,44.516-12.76
	c9.497-8.39,14.314-20.662,14.314-36.474v-67.004C463.333,93.009,370.324,0,255.999,0z M371.211,85.474
	c12.797,0,23.208,10.411,23.208,23.208s-10.411,23.208-23.208,23.208s-23.208-10.411-23.208-23.208S358.414,85.474,371.211,85.474z
	 M140.787,85.474c12.797,0,23.208,10.411,23.208,23.208s-10.411,23.208-23.208,23.208s-23.208-10.409-23.208-23.206
	S127.99,85.474,140.787,85.474z M94.27,133.584c8.909,16.576,26.416,27.875,46.518,27.875c29.101,0,52.776-23.677,52.776-52.776
	c0-22.965-14.75-42.54-35.269-49.779c28.056-18.529,61.639-29.336,97.705-29.336s69.649,10.807,97.705,29.336
	c-20.52,7.238-35.27,26.814-35.27,49.779c0,29.101,23.677,52.776,52.776,52.776c20.1,0,37.608-11.299,46.518-27.875
	c10.291,22.479,16.038,47.455,16.038,73.752v33.535c-8.767-17.024-26.511-28.702-46.941-28.702
	c-29.101,0-52.776,23.677-52.776,52.776c0,8.137,1.854,15.848,5.158,22.739c-16.613-2.022-34.396-3.995-53.149-5.112
	c-0.237-0.015-0.47-0.027-0.707-0.04c-1.758-0.102-3.523-0.2-5.299-0.285c-0.495-0.024-0.985-0.044-1.477-0.067
	c-1.487-0.068-2.976-0.135-4.475-0.191c-0.781-0.03-1.551-0.052-2.326-0.078c-1.211-0.04-2.422-0.081-3.64-0.112
	c-1.132-0.03-2.252-0.049-3.372-0.069c-0.886-0.016-1.767-0.038-2.655-0.05c-2.052-0.028-4.089-0.043-6.109-0.043
	c-2.003,0-4.026,0.015-6.061,0.04c-0.903,0.012-1.801,0.033-2.7,0.049c-1.096,0.021-2.187,0.037-3.294,0.064
	c-1.24,0.031-2.472,0.071-3.705,0.109c-0.744,0.024-1.483,0.044-2.232,0.071c-1.526,0.055-3.043,0.12-4.558,0.185
	c-0.463,0.021-0.923,0.038-1.387,0.061c-1.805,0.084-3.598,0.177-5.386,0.278c-0.21,0.012-0.418,0.022-0.63,0.034
	c-18.74,1.064-36.519,2.942-53.116,4.857c3.214-6.812,5.021-14.416,5.021-22.435c0-29.101-23.675-52.776-52.776-52.776
	c-20.432,0-38.175,11.678-46.941,28.703v-33.536C78.233,181.039,83.978,156.063,94.27,133.584z M363.617,264.944
	c0-12.797,10.411-23.208,23.208-23.208s23.208,10.411,23.208,23.208c0,12.797-10.411,23.208-23.208,23.208
	S363.617,277.741,363.617,264.944z M101.966,264.944c0-12.797,10.411-23.208,23.208-23.208s23.208,10.411,23.208,23.208
	c0,12.797-10.411,23.208-23.208,23.208S101.966,277.741,101.966,264.944z M311.05,482.432H200.947l20.318-169.985
	c1.036-0.069,2.076-0.136,3.116-0.201c1.107-0.069,2.206-0.135,3.298-0.197c1.119-0.064,2.238-0.126,3.362-0.185
	c0.732-0.037,1.459-0.071,2.185-0.105c1.125-0.053,2.253-0.102,3.383-0.148c0.634-0.027,1.271-0.053,1.901-0.077
	c0.899-0.033,1.802-0.059,2.704-0.087v82.499c0,8.164,6.619,14.784,14.784,14.784c8.164,0,14.784-6.62,14.784-14.784v-82.487
	c0.94,0.031,1.882,0.061,2.819,0.096c0.611,0.024,1.227,0.052,1.842,0.077c1.178,0.05,2.355,0.105,3.527,0.164
	c0.683,0.034,1.365,0.067,2.052,0.103c1.313,0.069,2.621,0.148,3.927,0.226c0.948,0.058,1.903,0.12,2.861,0.183
	c0.979,0.064,1.956,0.13,2.93,0.2L311.05,482.432z"/>
<path d="M255.999,453.086c-0.961,0-1.937-0.102-2.883-0.296c-0.946-0.192-1.878-0.472-2.765-0.841
	c-0.902-0.37-1.759-0.829-2.558-1.36c-0.813-0.532-1.567-1.153-2.247-1.833s-1.301-1.434-1.833-2.249
	c-0.532-0.798-0.991-1.654-1.36-2.556c-0.37-0.889-0.65-1.818-0.843-2.765c-0.192-0.946-0.296-1.922-0.296-2.883
	c0-0.959,0.104-1.937,0.296-2.898c0.192-0.931,0.473-1.863,0.843-2.765c0.37-0.887,0.828-1.745,1.36-2.543
	c0.532-0.813,1.153-1.567,1.833-2.247c0.68-0.682,1.434-1.302,2.247-1.848c0.798-0.532,1.656-0.992,2.543-1.362
	c0.902-0.353,1.833-0.649,2.779-0.828c1.892-0.384,3.859-0.384,5.766,0c0.946,0.177,1.878,0.473,2.763,0.828
	c0.902,0.37,1.759,0.829,2.558,1.362c0.813,0.546,1.567,1.166,2.247,1.848c0.682,0.68,1.302,1.434,1.833,2.247
	c0.532,0.798,0.991,1.656,1.36,2.543c0.37,0.902,0.665,1.833,0.857,2.765c0.192,0.961,0.281,1.938,0.281,2.898
	c0,0.961-0.09,1.938-0.281,2.883c-0.191,0.945-0.488,1.878-0.857,2.765c-0.37,0.902-0.828,1.758-1.36,2.556
	c-0.531,0.815-1.152,1.569-1.833,2.249c-0.68,0.68-1.434,1.301-2.247,1.833c-0.798,0.531-1.656,0.991-2.558,1.36
	c-0.887,0.37-1.817,0.649-2.763,0.841S256.96,453.086,255.999,453.086z"/>
<g>
</g>
<g>
</g>
<g>
</g>
<g>
</g>
<g>
</g>
<g>
</g>
<g>
</g>
<g>
</g>
<g>
</g>
<g>
</g>
<g>
</g>
<g>
</g>
<g>
</g>
<g>
</g>
<g>
</g>
</svg>
