<?xml version="1.0" encoding="iso-8859-1"?>
<!-- Generator: Adobe Illustrator 19.0.0, SVG Export Plug-In . SVG Version: 6.00 Build 0)  -->
<svg version="1.1" id="Layer_1" xmlns="http://www.w3.org/2000/svg" xmlns:xlink="http://www.w3.org/1999/xlink" x="0px" y="0px"
	 viewBox="0 0 512 512" style="enable-background:new 0 0 512 512;" xml:space="preserve">
<path style="fill:#EDDABF;" d="M223.108,306.978v118.929c-20.766,0.227-37.531,17.122-37.531,37.942
	c0,20.96,16.992,37.952,37.952,37.952c13.765,0,25.817-7.327,32.47-18.294c6.655,10.967,18.707,18.294,32.471,18.294
	c20.96,0,37.952-16.992,37.952-37.952c0-20.82-16.765-37.715-37.531-37.942V306.978H223.108z"/>
<path style="fill:#FFA22B;" d="M256,10.199c67.458,0,122.144,54.685,122.144,122.144S323.458,373.601,256,373.601
	S133.856,199.8,133.856,132.343S188.542,10.199,256,10.199z"/>
<g>
	<path style="fill:#570029;" d="M351.752,282.266c21.544-50.57,36.591-112.22,36.591-149.923C388.343,59.369,328.974,0,256,0
		S123.657,59.369,123.657,132.343c0,37.703,15.047,99.354,36.591,149.923c12.534,29.419,30.271,62.419,52.661,82.589v52.038
		c-21.429,4.874-37.531,24.158-37.531,46.955c0,26.551,21.601,48.151,48.152,48.151c12.281,0,23.736-4.54,32.47-12.55
		c8.734,8.01,20.189,12.55,32.47,12.55c26.552,0,48.152-21.601,48.152-48.151c0-22.797-16.103-42.081-37.531-46.955v-52.038
		C321.481,344.685,339.218,311.684,351.752,282.266z M179.015,274.271c-22.951-53.871-34.959-112.176-34.959-141.928
		C144.056,70.616,194.273,20.398,256,20.398s111.944,50.218,111.944,111.944c0,29.752-12.008,88.057-34.959,141.928
		c-24.131,56.643-52.192,89.131-76.985,89.131C231.209,363.402,203.147,330.914,179.015,274.271z M288.781,436.105
		c15.133,0.165,27.443,12.611,27.443,27.743c0,15.303-12.45,27.753-27.754,27.753c-9.787,0-18.666-5.004-23.75-13.385
		c-1.849-3.048-5.156-4.909-8.72-4.909s-6.87,1.861-8.72,4.909c-5.084,8.383-13.963,13.386-23.75,13.386
		c-15.304,0-27.754-12.45-27.754-27.753c0-15.132,12.31-27.578,27.443-27.743c5.588-0.061,10.088-4.61,10.088-10.199v-47.254
		c7.198,3.296,14.764,5.147,22.693,5.147c7.929,0,15.496-1.85,22.693-5.147v47.254C278.693,431.496,283.192,436.043,288.781,436.105
		z"/>
	<path style="fill:#570029;" d="M343.767,115.285c-5.615,0.458-9.795,5.38-9.336,10.994c0.173,2.133,0.262,4.309,0.262,6.468
		c0,5.633,4.567,10.199,10.199,10.199c5.632,0,10.199-4.566,10.199-10.199c0-2.71-0.11-5.444-0.329-8.126
		C354.304,119.007,349.383,114.823,343.767,115.285z"/>
	<path style="fill:#570029;" d="M256,54.056c30.74,0,58.855,18.076,71.628,46.051c1.712,3.751,5.414,5.966,9.284,5.966
		c1.418,0,2.857-0.297,4.23-0.924c5.123-2.339,7.381-8.39,5.041-13.514c-16.08-35.22-51.479-57.977-90.183-57.977
		c-5.632,0-10.199,4.566-10.199,10.199S250.368,54.056,256,54.056z"/>
</g>
<g>
</g>
<g>
</g>
<g>
</g>
<g>
</g>
<g>
</g>
<g>
</g>
<g>
</g>
<g>
</g>
<g>
</g>
<g>
</g>
<g>
</g>
<g>
</g>
<g>
</g>
<g>
</g>
<g>
</g>
</svg>
