<?xml version="1.0" encoding="iso-8859-1"?>
<!-- Generator: Adobe Illustrator 19.0.0, SVG Export Plug-In . SVG Version: 6.00 Build 0)  -->
<svg version="1.1" id="Layer_1" xmlns="http://www.w3.org/2000/svg" xmlns:xlink="http://www.w3.org/1999/xlink" x="0px" y="0px"
	 viewBox="0 0 512.396 512.396" style="enable-background:new 0 0 512.396 512.396;" xml:space="preserve">
<g transform="translate(1 1)">
	<path style="fill:#FD9808;" d="M263.731,153.692c-3.413-39.253-33.28-71.68-72.533-76.8c-20.48-3.413-39.253,1.707-55.467,10.24
		c-16.213-9.387-34.987-13.653-55.467-10.24c-38.4,5.973-69.12,38.4-72.533,76.8c-2.56,26.453,7.68,51.2,25.6,68.267v196.267
		c0,8.533,6.827,16.213,16.213,16.213h188.587v-212.48C255.198,204.892,265.438,180.999,263.731,153.692"/>
	<path style="fill:#FFDD09;" d="M238.131,153.692c-3.413-39.253-33.28-71.68-72.533-76.8c-20.48-3.413-13.653,1.707-29.867,10.24
		c-16.213-9.387-34.987-13.653-55.467-10.24c-38.4,5.973-69.12,38.4-72.533,76.8c-2.56,26.453,7.68,51.2,25.6,68.267v196.267
		c0,8.533,6.827,16.213,16.213,16.213h162.987v-212.48C229.598,204.892,239.838,180.999,238.131,153.692"/>
	<path style="fill:#FFFFFF;" d="M7.731,153.692c3.413-39.253,33.28-71.68,72.533-76.8c8.533-1.707,17.067-0.853,25.6,0
		c-38.4,5.973-69.12,38.4-72.533,76.8c-2.56,26.453,7.68,51.2,25.6,68.267v212.48h-25.6v-212.48
		C16.265,204.892,6.025,180.999,7.731,153.692"/>
	<g>
		<path style="fill:#FD9808;" d="M169.865,76.892c2.56-0.853,5.973-0.853,8.533-0.853L169.865,76.892L169.865,76.892z"/>
		<path style="fill:#FD9808;" d="M414.771,76.039H178.398c46.933,0,85.333,38.4,85.333,85.333c0,23.893-10.24,45.227-25.6,60.587
			v212.48h34.133h188.587c8.533,0,16.213-6.827,16.213-16.213V221.959c17.067-17.067,27.307-40.107,25.6-66.56
			C499.251,110.172,459.998,76.039,414.771,76.039"/>
	</g>
	<g>
		<path style="fill:#FFDD09;" d="M178.398,76.892c2.56-0.853,5.973-0.853,8.533-0.853L178.398,76.892L178.398,76.892z"/>
		<path style="fill:#FFDD09;" d="M389.171,76.039h-202.24c46.933,0,85.333,38.4,85.333,85.333c0,23.893-10.24,45.227-25.6,60.587
			v212.48h34.133h154.453c8.533,0,16.213-6.827,16.213-16.213V221.959c17.067-17.067,27.307-40.107,25.6-66.56
			C473.651,110.172,434.398,76.039,389.171,76.039"/>
	</g>
	<path d="M238.131,442.972H49.545c-13.653,0-24.747-11.093-24.747-24.747V225.372c-17.92-19.627-27.307-45.227-25.6-72.533
		c3.413-42.667,36.693-78.507,79.36-84.48c19.627-2.56,39.253,0,56.32,9.387c17.92-9.387,36.693-11.947,56.32-9.387
		c42.667,5.973,75.947,41.813,79.36,84.48l0,0c2.56,26.453-6.827,52.907-25.6,72.533v209.067
		C246.665,439.559,243.251,442.972,238.131,442.972z M93.065,84.572c-3.413,0-7.68,0-11.947,0.853
		c-34.133,5.12-61.44,34.133-64.853,69.12c-1.707,23.04,5.973,45.227,23.04,61.44c1.707,1.707,2.56,4.267,2.56,5.973v196.267
		c0,4.267,3.413,7.68,7.68,7.68h180.053V221.959c0-2.56,0.853-4.267,2.56-5.973c16.213-16.213,24.747-38.4,23.04-61.44l0,0
		c-2.56-34.987-29.867-64-64.853-69.12c-17.067-2.56-34.987,0.853-50.347,9.387c-2.56,1.707-5.973,1.707-8.533,0
		C119.518,87.986,106.718,84.572,93.065,84.572z"/>
	<path d="M170.718,85.426c-2.56,0-4.267-0.853-5.973-2.56c-2.56-1.707-3.413-4.267-3.413-5.973v-0.853
		c0-5.12,3.413-8.533,8.533-8.533h8.533c5.12,0,8.533,3.413,8.533,8.533c0,5.12-3.413,8.533-8.533,8.533c-2.56,0-5.12,0-6.827,0.853
		C170.718,85.426,170.718,85.426,170.718,85.426z M169.011,68.359l0.853,8.533L169.011,68.359z"/>
	<path d="M460.851,442.972h-222.72c-5.12,0-8.533-3.413-8.533-8.533v-212.48c0-2.56,0.853-4.267,2.56-5.973
		c14.507-14.507,23.04-34.133,23.04-54.613c0-42.667-34.133-76.8-76.8-76.8c-5.12,0-8.533-3.413-8.533-8.533
		c0-5.12,3.413-8.533,8.533-8.533h236.373c51.2,0,93.013,38.4,96.427,87.893c1.707,26.453-7.68,51.2-25.6,70.827v192.853
		C485.598,431.879,474.505,442.972,460.851,442.972z M246.665,425.906h214.187c4.267,0,7.68-3.413,7.68-7.68V221.959
		c0-2.56,0.853-4.267,2.56-5.973c16.213-15.36,23.893-37.547,23.04-59.733c-2.56-40.107-37.547-71.68-79.36-71.68H232.158
		c23.893,17.067,40.107,45.227,40.107,76.8c0,23.893-9.387,46.933-25.6,64V425.906z"/>
	<path d="M323.465,229.639h-85.333c-5.12,0-8.533-3.413-8.533-8.533c0-5.12,3.413-8.533,8.533-8.533h85.333
		c5.12,0,8.533,3.413,8.533,8.533C331.998,226.226,328.585,229.639,323.465,229.639z"/>
	<path d="M374.665,229.639h-17.067c-5.12,0-8.533-3.413-8.533-8.533c0-5.12,3.413-8.533,8.533-8.533h17.067
		c5.12,0,8.533,3.413,8.533,8.533C383.198,226.226,379.785,229.639,374.665,229.639z"/>
	<path d="M118.665,408.839h-51.2c-5.12,0-8.533-3.413-8.533-8.533v-76.8c0-5.12,3.413-8.533,8.533-8.533s8.533,3.413,8.533,8.533
		v68.267h42.667c5.12,0,8.533,3.413,8.533,8.533C127.198,405.426,123.785,408.839,118.665,408.839z"/>
	<path d="M118.665,221.106c-2.56,0-4.267-0.853-5.973-2.56l-8.533-8.533c-3.413-3.413-3.413-8.533,0-11.947s8.533-3.413,11.947,0
		l8.533,8.533c3.413,3.413,3.413,8.533,0,11.947C122.931,220.252,121.225,221.106,118.665,221.106z"/>
	<path d="M178.398,169.906h-8.533c-5.12,0-8.533-3.413-8.533-8.533c0-5.12,3.413-8.533,8.533-8.533h8.533
		c5.12,0,8.533,3.413,8.533,8.533C186.931,166.492,183.518,169.906,178.398,169.906z"/>
	<path d="M195.465,246.706c-5.12,0-8.533-3.413-8.533-8.533v-8.533c0-5.12,3.413-8.533,8.533-8.533c5.12,0,8.533,3.413,8.533,8.533
		v8.533C203.998,243.292,200.585,246.706,195.465,246.706z"/>
	<path d="M58.931,161.372c-2.56,0-4.267-0.853-5.973-2.56c-3.413-3.413-3.413-8.533,0-11.947l8.533-8.533
		c3.413-3.413,8.533-3.413,11.947,0s3.413,8.533,0,11.947l-8.533,8.533C63.198,160.519,61.491,161.372,58.931,161.372z"/>
	<path d="M118.665,306.439c-2.56,0-4.267-0.853-5.973-2.56l-8.533-8.533c-3.413-3.413-3.413-8.533,0-11.947s8.533-3.413,11.947,0
		l8.533,8.533c3.413,3.413,3.413,8.533,0,11.947C122.931,305.586,121.225,306.439,118.665,306.439z"/>
	<path d="M186.931,383.239c-2.56,0-4.267-0.853-5.973-2.56c-3.413-3.413-3.413-8.533,0-11.947l8.533-8.533
		c3.413-3.413,8.533-3.413,11.947,0c3.413,3.413,3.413,8.533,0,11.947l-8.533,8.533
		C191.198,382.386,189.491,383.239,186.931,383.239z"/>
	<path d="M477.065,229.639h-25.6c-5.12,0-8.533-3.413-8.533-8.533c0-5.12,3.413-8.533,8.533-8.533h25.6
		c5.12,0,8.533,3.413,8.533,8.533C485.598,226.226,482.185,229.639,477.065,229.639z"/>
	<path d="M502.665,442.972H7.731c-5.12,0-8.533-3.413-8.533-8.533c0-5.12,3.413-8.533,8.533-8.533h494.933
		c5.12,0,8.533,3.413,8.533,8.533C511.198,439.559,507.785,442.972,502.665,442.972z"/>
</g>
<g>
</g>
<g>
</g>
<g>
</g>
<g>
</g>
<g>
</g>
<g>
</g>
<g>
</g>
<g>
</g>
<g>
</g>
<g>
</g>
<g>
</g>
<g>
</g>
<g>
</g>
<g>
</g>
<g>
</g>
</svg>
