<?xml version="1.0" encoding="iso-8859-1"?>
<!-- Generator: Adobe Illustrator 19.0.0, SVG Export Plug-In . SVG Version: 6.00 Build 0)  -->
<svg version="1.1" id="Layer_1" xmlns="http://www.w3.org/2000/svg" xmlns:xlink="http://www.w3.org/1999/xlink" x="0px" y="0px"
	 viewBox="0 0 500.506 500.506" style="enable-background:new 0 0 500.506 500.506;" xml:space="preserve">
<path style="fill:#FF7058;" d="M225.175,99.265c0,0,8.359-51.2-33.437-80.457L209.502,0c0,0,52.245,45.976,35.527,96.131
	C230.4,145.241,225.175,99.265,225.175,99.265z"/>
<ellipse style="fill:#F8B64C;" cx="199.053" cy="280.033" rx="196.441" ry="220.473"/>
<ellipse style="fill:#FFD15C;" cx="263.837" cy="280.033" rx="196.441" ry="220.473"/>
<path style="fill:#3DC9AE;" d="M390.269,11.494c-1.045,0-2.09-1.045-2.09-1.045S363.102,2.09,312.947,4.18
	s-68.963,43.886-68.963,43.886c0,2.09,0,4.18,0,6.269c161.959-28.212,253.91,75.233,253.91,75.233l-3.135-10.449
	C479.086,68.963,440.424,29.257,390.269,11.494z"/>
<path style="fill:#4CDBC4;" d="M243.984,55.38c0,7.314-1.045,14.629,1.045,19.853c9.404,17.763,29.257,29.257,49.11,28.212
	c37.616-1.045,102.4,7.314,102.4,7.314l101.355,19.853C497.894,129.567,405.943,26.122,243.984,55.38z"/>
<g>
</g>
<g>
</g>
<g>
</g>
<g>
</g>
<g>
</g>
<g>
</g>
<g>
</g>
<g>
</g>
<g>
</g>
<g>
</g>
<g>
</g>
<g>
</g>
<g>
</g>
<g>
</g>
<g>
</g>
</svg>
