<?xml version="1.0" encoding="iso-8859-1"?>
<!-- Generator: Adobe Illustrator 19.0.0, SVG Export Plug-In . SVG Version: 6.00 Build 0)  -->
<svg version="1.1" id="Layer_1" xmlns="http://www.w3.org/2000/svg" xmlns:xlink="http://www.w3.org/1999/xlink" x="0px" y="0px"
	 viewBox="0 0 512 512" style="enable-background:new 0 0 512 512;" xml:space="preserve">
<g>
	<path style="fill:#E7ECED;" d="M331.487,204.11c15.433,0,27.959,12.525,27.959,27.958s-12.526,27.958-27.959,27.958
		c-15.433,0-27.958-12.525-27.958-27.958S316.054,204.11,331.487,204.11z"/>
	<path style="fill:#E7ECED;" d="M331.487,327.127c15.433,0,27.959,12.526,27.959,27.958c0,15.433-12.526,27.959-27.959,27.959
		c-15.433,0-27.958-12.526-27.958-27.959C303.529,339.651,316.054,327.127,331.487,327.127z"/>
	<path style="fill:#E7ECED;" d="M191.695,349.493c15.433,0,27.958,12.525,27.958,27.958c0,15.433-12.525,27.959-27.958,27.959
		s-27.958-12.526-27.958-27.959C163.738,362.018,176.262,349.493,191.695,349.493z"/>
	<path style="fill:#E7ECED;" d="M169.329,232.069c15.433,0,27.958,12.525,27.958,27.958s-12.525,27.959-27.958,27.959
		c-15.433,0-27.959-12.526-27.959-27.959C141.37,244.593,153.896,232.069,169.329,232.069z"/>
</g>
<path style="fill:#546A79;" d="M258.796,427.776l47.753,47.753c-15.098,5.368-31.201,8.163-47.753,8.163
	c-16.551,0-32.655-2.796-47.753-8.163L258.796,427.776z"/>
<g>
	<path style="fill:#DD352E;" d="M331.487,204.11c-15.433,0-27.958,12.525-27.958,27.958s12.526,27.958,27.958,27.958
		c15.433,0,27.959-12.525,27.959-27.958S346.92,204.11,331.487,204.11z M426.546,289.997c-0.447,46.299-14.65,88.684-38.135,122.01
		c-20.912,29.86-49.318,52.338-81.862,63.521l-47.753-47.753V170.558h134.2c5.256,8.163,9.842,16.663,13.979,25.722
		c12.526,27.288,19.571,58.601,19.571,91.703C426.546,288.655,426.546,289.327,426.546,289.997z M359.445,355.084
		c0-15.433-12.526-27.958-27.959-27.958c-15.433,0-27.958,12.526-27.958,27.958c0,15.433,12.526,27.959,27.958,27.959
		C346.92,383.043,359.445,370.517,359.445,355.084z"/>
	<path style="fill:#DD352E;" d="M258.796,170.559v257.217l-47.753,47.753c-69.336-23.933-119.997-98.86-119.997-187.544
		c0-44.063,12.526-84.657,33.55-117.425h134.2V170.559z M219.654,377.451c0-15.433-12.525-27.958-27.958-27.958
		s-27.958,12.525-27.958,27.958c0,15.433,12.525,27.959,27.958,27.959S219.654,392.884,219.654,377.451z M197.287,260.026
		c0-15.433-12.525-27.958-27.958-27.958c-15.433,0-27.959,12.525-27.959,27.958c0,15.433,12.526,27.959,27.959,27.959
		S197.287,275.459,197.287,260.026z"/>
</g>
<path style="fill:#BB2D23;" d="M191.763,405.403c-0.024,0-0.045,0.007-0.067,0.007c-15.433,0-27.958-12.526-27.958-27.959
	c0-6.641,2.415-12.661,6.288-17.46c-7.59-22.305-11.879-46.556-11.879-72.007c0-0.781,0.074-1.539,0.082-2.318
	c-9.909-4.301-16.857-14.155-16.857-25.64c0-14.001,10.341-25.502,23.777-27.537c5.732-22.577,14.736-43.521,26.548-61.93h-67.1
	c-21.024,32.767-33.55,73.363-33.55,117.425c0,88.684,50.66,163.611,119.997,187.544l23.585-23.585
	C218.125,439.427,203.573,423.715,191.763,405.403z"/>
<g>
	<path style="fill:#AFB6BB;" d="M334.06,56.154c-5.032-5.032-8.163-12.078-8.163-19.794c0-15.433,12.525-27.958,27.958-27.958
		c15.433,0,27.959,12.526,27.959,27.958c0,15.433-12.526,27.959-27.959,27.959C346.137,64.319,339.092,61.188,334.06,56.154z"/>
	<path style="fill:#AFB6BB;" d="M183.532,56.154c-5.032,5.032-12.078,8.163-19.794,8.163c-15.433,0-27.958-12.526-27.958-27.959
		s12.526-27.958,27.958-27.958c15.433,0,27.958,12.526,27.958,27.958C191.695,44.076,188.564,51.122,183.532,56.154z"/>
</g>
<path style="fill:#546A79;" d="M293.687,96.527c40.372,9.953,75.376,36.904,99.308,74.034h-134.2h-134.2
	c23.933-37.128,58.936-64.08,99.307-74.034c11.295-2.796,22.925-4.249,34.892-4.249C270.761,92.276,282.392,93.731,293.687,96.527z"
	/>
<path style="fill:#3F525E;" d="M297.937,97.816c-1.428-0.399-2.809-0.934-4.249-1.291c-11.296-2.796-22.925-4.249-34.892-4.249
	c-11.967,0-23.597,1.454-34.892,4.249c-40.372,9.953-75.375,36.904-99.307,74.034h78.283
	C225.957,134.756,259.385,108.575,297.937,97.816z"/>
<path d="M434.948,289.997v-2.013c0-30.961-6.088-61.592-17.634-89.038l45.593-35.457V86.685h-16.804v68.578l-36.095,28.027
	c-3.096-6.027-6.383-11.744-9.949-17.283c-25.654-39.8-62.717-67.373-104.351-77.637c-24.107-5.968-49.726-5.964-73.814-0.001
	c-41.642,10.266-78.704,37.839-104.369,77.653c-21.798,33.974-33.772,73.983-34.799,116.048l-61.589,22.396v67.394H37.94v-55.623
	l44.999-16.364c1.976,40.274,13.993,78.345,35.06,110.745c22.534,34.658,54.605,60.531,90.229,72.826
	c16.142,5.739,33.156,8.65,50.568,8.65c17.411,0,34.425-2.91,50.483-8.619c30.987-10.648,58.504-30.834,80.09-58.627l36.478,36.478
	l-38.792,38.792L398.938,512l50.673-50.674l-50.35-50.352C422.2,375.962,434.52,334.322,434.948,289.997z M225.923,104.682
	c10.732-2.657,21.793-4.004,32.874-4.004c11.08,0,22.14,1.347,32.881,4.005c32.809,8.088,62.559,28.28,85.108,57.474H140.807
	C163.357,132.963,193.108,112.772,225.923,104.682z M132.087,401.458c-21.353-32.84-32.639-72.079-32.639-113.474
	c0-39.413,10.3-77.005,29.81-109.022h121.136v245.335l-41.493,41.492C178.679,454.061,151.549,431.391,132.087,401.458z
	 M226.967,471.487l31.829-31.828l31.831,31.831c-10.336,2.507-20.988,3.801-31.829,3.801
	C247.964,475.291,237.319,473.998,226.967,471.487z M308.692,465.789l-41.494-41.494V178.962h121.138
	c3.977,6.527,7.597,13.372,10.994,20.811l0.007,0.015c12.302,26.8,18.805,57.299,18.805,88.198v1.932
	c-0.418,43.321-13.075,83.867-36.615,117.271C362.305,434.634,337.228,454.787,308.692,465.789z"/>
<path d="M327.66,85.151l9.168-16.62c5.176,2.736,10.983,4.189,17.025,4.189c20.049,0,36.36-16.311,36.36-36.361S373.902,0,353.854,0
	s-36.36,16.311-36.36,36.36c0,7.533,2.264,14.7,6.453,20.732l-11,19.943L327.66,85.151z M353.854,16.804
	c10.783,0,19.556,8.773,19.556,19.556s-8.773,19.557-19.556,19.557c-5.179,0-10.229-2.078-13.852-5.702
	c-3.624-3.624-5.703-8.673-5.703-13.853C334.298,25.577,343.071,16.804,353.854,16.804z"/>
<path d="M163.738,72.721c6.042,0,11.85-1.453,17.026-4.189l9.167,16.62l14.715-8.116l-11-19.942
	c4.189-6.033,6.453-13.199,6.453-20.733C200.097,16.311,183.786,0,163.738,0s-36.361,16.311-36.361,36.36
	S143.688,72.721,163.738,72.721z M163.738,16.804c10.783,0,19.557,8.773,19.557,19.556c0,5.18-2.078,10.229-5.703,13.853
	c-3.623,3.624-8.672,5.702-13.852,5.702c-10.783,0-19.557-8.773-19.557-19.557S152.954,16.804,163.738,16.804z"/>
<polygon points="91.418,175.116 65.898,155.268 65.898,86.685 49.094,86.685 49.094,163.486 81.101,188.38 "/>
<polygon points="108.17,439.309 96.288,427.427 62.388,461.326 113.063,512 124.946,500.118 86.152,461.326 "/>
<polygon points="457.378,292.279 451.63,308.071 474.06,316.234 474.06,371.859 490.864,371.859 490.864,304.468 "/>
<path d="M205.689,260.026c0-20.049-16.311-36.361-36.361-36.361s-36.361,16.311-36.361,36.361s16.311,36.361,36.361,36.361
	S205.689,280.075,205.689,260.026z M149.772,260.026c0-10.783,8.773-19.557,19.557-19.557c10.784,0,19.557,8.773,19.557,19.557
	c0,10.784-8.773,19.557-19.557,19.557C158.545,279.583,149.772,270.809,149.772,260.026z"/>
<path d="M228.056,377.451c0-20.049-16.311-36.361-36.361-36.361s-36.361,16.311-36.361,36.361s16.311,36.361,36.361,36.361
	S228.056,397.5,228.056,377.451z M172.14,377.451c0-10.783,8.773-19.557,19.557-19.557c10.784,0,19.557,8.773,19.557,19.557
	c0,10.784-8.773,19.557-19.557,19.557C180.913,397.008,172.14,388.235,172.14,377.451z"/>
<path d="M331.487,318.723c-20.049,0-36.361,16.311-36.361,36.361s16.312,36.361,36.361,36.361s36.36-16.311,36.36-36.361
	S351.536,318.723,331.487,318.723z M331.487,374.641c-10.784,0-19.557-8.773-19.557-19.557c0-10.784,8.773-19.557,19.557-19.557
	c10.783,0,19.556,8.773,19.556,19.557C351.043,365.868,342.27,374.641,331.487,374.641z"/>
<path d="M331.487,195.708c-20.049,0-36.361,16.311-36.361,36.36s16.312,36.361,36.361,36.361s36.36-16.311,36.36-36.361
	S351.536,195.708,331.487,195.708z M331.487,251.624c-10.784,0-19.557-8.773-19.557-19.557c0-10.784,8.773-19.556,19.557-19.556
	c10.783,0,19.556,8.773,19.556,19.556C351.043,242.85,342.27,251.624,331.487,251.624z"/>
<rect x="197.281" y="195.702" width="22.366" height="16.804"/>
<g>
	<rect x="208.473" y="296.359" style="fill:#FFFFFF;" width="22.366" height="16.804"/>
	<rect x="119.007" y="318.72" style="fill:#FFFFFF;" width="22.366" height="16.804"/>
	<rect x="286.758" y="285.179" style="fill:#FFFFFF;" width="22.366" height="16.804"/>
</g>
<rect x="376.224" y="262.807" width="22.368" height="16.804"/>
<rect x="297.938" y="419.377" style="fill:#FFFFFF;" width="22.366" height="16.804"/>
<g>
</g>
<g>
</g>
<g>
</g>
<g>
</g>
<g>
</g>
<g>
</g>
<g>
</g>
<g>
</g>
<g>
</g>
<g>
</g>
<g>
</g>
<g>
</g>
<g>
</g>
<g>
</g>
<g>
</g>
</svg>
