<?xml version="1.0" encoding="iso-8859-1"?>
<!-- Generator: Adobe Illustrator 19.0.0, SVG Export Plug-In . SVG Version: 6.00 Build 0)  -->
<svg version="1.1" id="Layer_1" xmlns="http://www.w3.org/2000/svg" xmlns:xlink="http://www.w3.org/1999/xlink" x="0px" y="0px"
	 viewBox="0 0 512 512" style="enable-background:new 0 0 512 512;" xml:space="preserve">
<path style="fill:#546A79;" d="M199.133,61.907c0-29.799,24.381-54.18,54.18-54.18c14.954,0,28.39,6.068,38.251,15.929
	s15.929,23.297,15.929,38.251v21.672l-1.409,3.793c-16.579-5.96-34.35-9.211-52.771-9.211s-36.192,3.251-52.771,9.211l-1.409-3.793
	L199.133,61.907L199.133,61.907z"/>
<g>
	<path style="fill:#AFB6BB;" d="M429.94,396.197c14.737,14.737,14.737,38.901,0,53.638c-7.368,7.368-17.121,11.053-26.873,11.053
		c-9.644,0-19.396-3.684-26.765-11.053l-19.83-19.83c19.18-15.929,35.325-36.301,47.245-59.706l0.759,0.433L429.94,396.197z"/>
	<path style="fill:#AFB6BB;" d="M104.644,373.658c12.461,23.189,29.04,43.236,48.545,58.731l-17.446,17.446
		c-7.368,7.368-17.121,11.053-26.765,11.053c-9.752,0-19.505-3.684-26.873-11.053c-14.737-14.737-14.737-38.901,0-53.638
		L104.644,373.658z"/>
	<path style="fill:#AFB6BB;" d="M429.94,91.164c7.368,7.368,11.053,17.121,11.053,26.873c0,9.644-3.684,19.396-11.053,26.765
		l-24.923,24.923l-3.359,2.384c-12.353-22.756-28.715-42.477-47.895-57.756l2.492-3.142l20.047-20.047
		C391.039,76.427,415.203,76.427,429.94,91.164z"/>
	<path style="fill:#AFB6BB;" d="M155.789,111.211l0.325,0.433c-19.83,15.17-36.734,34.783-49.52,57.647l-24.489-24.489
		c-7.368-7.368-11.053-17.121-11.053-26.765c0-9.752,3.684-19.505,11.053-26.873c14.737-14.737,38.901-14.737,53.638,0
		L155.789,111.211z"/>
</g>
<polygon style="fill:#00A651;" points="307.493,237.992 307.493,297.59 253.313,327.389 199.133,297.59 199.133,237.992 
	253.313,208.193 "/>
<path style="fill:#36C63F;" d="M307.493,297.59v-59.598l-54.18-29.799l-54.18,29.799v59.598l54.18,29.799L307.493,297.59z
	 M153.189,432.389c-19.505-15.495-36.084-35.542-48.545-58.731c-15.712-29.257-24.706-63.716-24.706-100.45
	c0-38.143,9.752-73.793,26.657-103.917c12.786-22.864,29.691-42.477,49.52-57.647c13.545-10.294,28.499-18.53,44.428-24.273
	c16.579-5.96,34.35-9.211,52.771-9.211s36.192,3.251,52.771,9.211c17.229,6.177,33.266,15.279,47.678,26.982
	c19.18,15.279,35.542,35,47.895,57.756c15.821,29.474,25.031,64.041,25.031,101.1c0,35.325-8.344,68.483-22.972,97.09
	c-11.92,23.406-28.065,43.777-47.245,59.706c-28.824,24.056-64.582,38.251-103.159,38.251
	C216.037,468.256,181.471,454.928,153.189,432.389z"/>
<path style="fill:#33A544;" d="M268.326,319.132l-15.013,8.257l-54.18-29.799v-59.598l0.615-0.339
	c-23.068-36.49-40.221-77.063-50.185-120.427c-16.954,14.321-31.648,31.818-42.97,52.065
	c-16.904,30.124-26.657,65.774-26.657,103.917c0,36.734,8.994,71.192,24.706,100.449c12.461,23.189,29.04,43.237,48.545,58.731
	c28.282,22.539,62.849,35.867,100.124,35.867c38.576,0,74.335-14.195,103.158-38.251c12.472-10.358,23.49-22.754,33.069-36.483
	C344.515,376.211,303.499,350.867,268.326,319.132z"/>
<path d="M413.662,368.847c13.839-29.17,21.132-61.958,21.132-95.238c0-34.632-7.89-68.665-22.883-98.905l77.392-77.392
	l-11.494-11.493l-28.871,28.871c-0.648-8.21-3.418-15.96-8.045-22.606l21.536-21.537l-11.494-11.493l-21.534,21.532
	c-6.651-4.633-14.401-7.404-22.605-8.046l28.869-28.869L424.172,32.18l-71.48,71.48c-11.556-8.565-23.982-15.581-37.093-20.934
	V62.307c0-16.567-6.503-32.192-18.308-43.997C285.483,6.503,269.858,0,253.292,0c-34.357,0-62.307,27.95-62.307,62.307v20.441
	c-11.876,4.865-23.262,11.09-33.992,18.593L87.83,32.18L76.336,43.672l28.869,28.869c-8.203,0.641-15.953,3.413-22.605,8.047
	L61.066,59.053L49.571,70.545l21.537,21.537c-4.627,6.646-7.397,14.397-8.045,22.606l-28.87-28.87L22.698,97.31l73.847,73.847
	c-12.015,22.95-19.763,47.93-23.032,74.356l16.132,1.996c3.27-26.425,11.351-51.268,24.022-73.852
	c12.273-21.946,28.208-40.505,47.343-55.144c13.054-9.921,27.275-17.693,42.259-23.095c16.119-5.794,32.948-8.732,50.022-8.732
	c17.075,0,33.905,2.938,50.029,8.734c16.304,5.845,31.544,14.47,45.357,25.688c18.222,14.516,34.065,33.631,45.798,55.243
	c15.743,29.33,24.065,62.961,24.065,97.256c0,32.847-7.636,65.142-22.088,93.403c-11.319,22.229-26.948,41.988-45.21,57.154
	c-28.503,23.789-62.374,36.363-97.951,36.363c-34.201,0-67.07-11.79-95.068-34.104c-18.532-14.722-34.592-34.16-46.441-56.212
	c-15.531-28.918-23.739-62.323-23.739-96.605H71.789c0,34.851,7.902,68.904,22.888,98.901l-71.979,71.979l11.494,11.493
	l28.839-28.839c0.64,7.953,3.334,15.763,8.077,22.574l-21.537,21.536l11.494,11.493l21.537-21.537
	c6.647,4.627,14.397,7.397,22.606,8.045l-28.871,28.871l11.494,11.493l66.052-66.053c27.349,20.094,58.63,31.397,91.282,33.007V512
	h16.254v-35.421c34.066-1.66,66.436-13.749,94.431-35.281l68.322,68.322l11.494-11.493l-28.871-28.871
	c8.21-0.648,15.96-3.419,22.606-8.045l21.537,21.536l11.494-11.493l-21.535-21.535c4.633-6.651,7.404-14.401,8.047-22.605
	l28.868,28.868l11.494-11.493L413.662,368.847z M104.925,156.551l-17.096-17.096c-5.592-5.592-8.673-13.057-8.673-21.019
	c0-8.032,3.081-15.533,8.672-21.127c5.595-5.591,13.078-8.671,21.074-8.671c7.997,0,15.48,3.08,21.072,8.672l14.036,14.036
	C128.871,124.138,115.772,139.287,104.925,156.551z M207.239,77.044V62.307c0-25.394,20.659-46.053,46.053-46.053
	c12.224,0,23.768,4.811,32.505,13.549c8.737,8.736,13.548,20.28,13.548,32.504v14.737c-14.97-4.385-30.418-6.61-46.053-6.61
	C237.658,70.434,222.212,72.657,207.239,77.044z M365.406,113.932l16.642-16.642c5.591-5.579,13.066-8.651,21.051-8.651
	c7.997,0,15.48,3.08,21.072,8.672c5.592,5.592,8.673,13.095,8.673,21.127c0,7.961-3.081,15.426-8.673,21.019l-20.425,20.425
	C393.158,142.474,380.09,126.823,365.406,113.932z M129.974,444.489c-5.592,5.592-13.057,8.672-21.017,8.672
	c-8.031,0-15.533-3.08-21.126-8.672c-11.619-11.619-11.619-30.525,0-42.145l15.024-15.024c10.57,17.408,23.602,33.062,38.294,45.995
	L129.974,444.489z M432.844,423.416c0,7.996-3.08,15.48-8.673,21.073c-5.592,5.592-13.095,8.672-21.126,8.672
	c-7.961,0-15.425-3.08-21.017-8.672l-13.69-13.69c14.489-13.29,27.222-29.246,37.412-46.876l18.443,18.443
	C429.772,407.956,432.844,415.43,432.844,423.416z"/>
<path d="M148.619,199.5l42.365,42.262v52.865l-42.271,42.373l11.507,11.48l40.328-40.426l45.729,25.151h-1.114v86.688h16.254
	v-86.688h-1.114l43.988-24.193l40.776,40.776l11.494-11.493l-40.964-40.964v-55.568l42.365-42.262l-11.48-11.507l-40.437,40.339
	l-44.629-24.546v-81.883h-16.254v81.882l-44.629,24.546l-40.437-40.339L148.619,199.5z M207.239,243.197l46.053-25.329
	l46.053,25.329v49.987l-46.053,25.329l-46.053-25.329V243.197z"/>
<rect x="237.038" y="260.064" width="32.508" height="16.254"/>
<rect x="128.678" y="260.064" width="32.508" height="16.254"/>
<g>
	<rect x="345.397" y="260.064" style="fill:#FFFFFF;" width="32.508" height="16.254"/>
	<rect x="193.694" y="157.122" style="fill:#FFFFFF;" width="32.508" height="16.254"/>
</g>
<rect x="280.382" y="157.122" width="32.508" height="16.254"/>
<rect x="193.694" y="363.005" style="fill:#FFFFFF;" width="32.508" height="16.254"/>
<rect x="280.382" y="363.005" width="32.508" height="16.254"/>
<g>
</g>
<g>
</g>
<g>
</g>
<g>
</g>
<g>
</g>
<g>
</g>
<g>
</g>
<g>
</g>
<g>
</g>
<g>
</g>
<g>
</g>
<g>
</g>
<g>
</g>
<g>
</g>
<g>
</g>
</svg>
