<?xml version="1.0" encoding="iso-8859-1"?>
<!-- Generator: Adobe Illustrator 19.0.0, SVG Export Plug-In . SVG Version: 6.00 Build 0)  -->
<svg version="1.1" id="Layer_1" xmlns="http://www.w3.org/2000/svg" xmlns:xlink="http://www.w3.org/1999/xlink" x="0px" y="0px"
	 viewBox="0 0 512.001 512.001" style="enable-background:new 0 0 512.001 512.001;" xml:space="preserve">
<path style="fill:#8EC1ED;" d="M86.171,392.062c0,0-11.779,48.445-20.355,104.706c-1.106,7.253,9.877,10.113,14.506,4.422
	l31.451-38.662l51.168,21.873c7.201,3.078,15.958-6.1,10.341-11.555C151.705,451.897,114.493,421.282,86.171,392.062z"/>
<g style="opacity:0.24;">
	<path style="fill:#315591;" d="M173.282,472.846c-21.577-20.95-64.661-66.027-92.984-95.249c0,0-1.525,0,4.296,16.127
		c24.902,25.805,46.461,58.85,62.493,74.416c2.901,2.817,1.965,6.621-0.606,9.224l16.461,7.036
		C170.142,487.479,178.9,478.301,173.282,472.846z"/>
</g>
<g>
	<path style="fill:#315591;" d="M261.81,43.916c0,0-44.358-63.187-130.595-17.286c-2.06,1.097-1.695,4.154,0.573,4.708
		c13.766,3.355,42.321,14.477,23.054,46.932C154.841,78.268,201.835,44.984,261.81,43.916z"/>
	<path style="fill:#315591;" d="M283.288,172.668c-10.058,50.617-94.673,59.15-107.429,59.15c-9.131,0,32.857-45.129,33.191-45.255
		c0,0,14.848-8.302,38.314-10.86S283.288,172.668,283.288,172.668z"/>
	<path style="fill:#315591;" d="M314.28,173.627c0,0-3.167,31.726-32.552,51.083c-1.367,0.9-3.221,0.315-3.826-1.205
		c-2.085-5.239-6.724-16.395-11.107-23.489c0,0,12.749-10.126,14.264-26.047C281.059,173.968,303.252,173.287,314.28,173.627z"/>
</g>
<path style="fill:#8EC1ED;" d="M87.732,398.423c-25.175-36.685-39.907-81.097-39.907-128.95
	c0-126.014,102.155-228.169,228.169-228.169c45.336,0,87.584,13.223,123.099,36.021c0,0,35.068,22.134,31.171,62.502
	c0,0,0.279,13.363,18.096,21.993c17.817,8.631,14.171,25.593,12.528,29.51c-0.983,2.342-4.455,21.437-46.492-0.556
	s-133.169-16.704-133.169-16.704c-107.726,0-195.054,87.329-195.054,195.054c0,10.363,0.808,20.537,2.365,30.463L87.732,398.423z"/>
<g style="opacity:0.23;">
	<path style="fill:#315591;" d="M414.394,164.776c-42.038-21.994-133.169-16.704-133.169-16.704
		c-107.726,0-195.054,87.328-195.054,195.054c0,4.386,0.154,8.736,0.439,13.05c6.668-101.685,91.244-182.102,194.616-182.102
		c0,0,91.131-5.289,133.169,16.704s45.509,2.899,46.492,0.556c1.201-2.863,3.463-12.697-2.363-21.152
		C454.648,175.292,444.247,180.394,414.394,164.776z"/>
</g>
<circle style="fill:#315591;" cx="379.004" cy="128.483" r="11.667"/>
<path d="M452.645,154.801c-11.618-5.627-13.404-13.245-13.664-14.974c3.822-44.158-33.251-68.094-34.789-69.064
	C366.224,46.389,322.2,33.505,276.88,33.505c-3.542,0-7.069,0.088-10.584,0.243c-4.996-5.852-16.672-17.705-34.994-25.711
	C208.754-1.816,171.5-7.544,122.043,21.123c-2.907,1.685-4.409,5.042-3.727,8.332c0.681,3.291,3.394,5.774,6.732,6.165
	c5.717,0.67,23.13,4.79,27.985,14.607c2.54,5.137,1.507,11.936-3.066,20.229c-14.274,9.143-27.668,19.888-39.941,32.162
	c-44.57,44.569-69.114,103.825-69.114,166.856c0,47.073,13.794,92.419,39.896,131.314c-3.679,11.408-14.613,47.545-21.816,94.805
	c-0.971,6.369,2.355,12.235,8.474,14.947c2.228,0.987,4.605,1.461,6.956,1.461c4.927,0,9.743-2.082,12.839-5.887l27.74-34.101
	l45.762,19.562c7.13,3.049,15.918,0.219,20.441-6.578c3.916-5.883,3.272-13.016-1.602-17.747c-3.14-3.049-6.5-6.366-10.044-9.866
	c-19.731-19.484-46.473-45.885-72.946-62.53c-1.163-8.479-1.753-17.117-1.753-25.728c0-64.167,32.449-120.892,81.794-154.649
	c-9.072,11.953-9.47,15.775-8.851,19.159c0.784,4.289,4.462,7.284,8.945,7.284c8.483,0,33.657-2.698,57.318-11.038
	c13.392-4.72,24.637-10.618,33.592-17.559c3.873,8.067,7.148,16.714,7.192,16.833c0.816,2.164,2.55,3.856,4.736,4.616
	c0.835,0.29,1.702,0.434,2.565,0.434c1.399,0,2.787-0.375,4.013-1.111c25.897-15.538,34.749-39.538,37.654-51.476
	c28.791,0.939,65.857,4.563,87.849,16.07c20.26,10.6,35.138,13.743,45.483,9.609c8.588-3.432,11.012-10.549,11.808-12.888
	l0.064-0.184C473.226,184.019,472.491,164.414,452.645,154.801z M147.157,25.795c28.146-12.356,54.057-13.63,77.226-3.753
	c8.816,3.758,15.863,8.632,21.071,13.019c-31.853,3.586-58.707,14.853-75.513,23.589c0.396-5.47-0.577-10.593-2.925-15.339
	C162.779,34.738,154.867,29.261,147.157,25.795z M167.34,477.086c-0.178,0.093-0.343,0.152-0.446,0.142l-51.168-21.873
	c-3.206-1.369-6.922-0.449-9.119,2.251l-31.444,38.658c-0.088,0.073-0.284,0.121-0.51,0.135
	c5.973-38.526,14.613-69.823,19.133-84.767c23.107,15.671,46.01,38.287,64.811,56.852
	C161.654,471.504,164.575,474.389,167.34,477.086z M188.663,224.43c7.535-9.912,20.457-24.497,25.578-29.825
	c11.296-4.408,23.118-7.751,35.349-9.901c9.855-1.069,17.75-1.767,23.512-2.211c-2.141,4.328-5.026,8.232-8.445,11.765
	c-0.24,0.218-0.468,0.447-0.675,0.69C244.56,214.332,208.643,222.05,188.663,224.43z M285.714,214.424
	c-1.702-3.989-3.836-8.719-6.086-13.035c3.74-4.18,8.652-10.974,11.05-19.79c4.62-0.109,11.109-0.237,17.054-0.262
	C305.122,189.974,299.122,203.596,285.714,214.424z M454.581,188.312c-0.108,0.257-0.24,0.617-0.394,1.065
	c-0.53,1.559-1.044,2.717-2.83,3.43c-2.616,1.046-11.023,2.271-32.46-8.946c-41.086-21.495-123.754-18.256-135.856-17.653
	c-0.316,0.015-0.716,0.034-1.208,0.061c-11.706,0.016-23.18,1.039-34.347,2.968c-0.027,0.003-0.053,0.005-0.08,0.008
	c-22.577,2.461-37.75,9.942-40.751,11.523c-0.26,0.108-0.497,0.223-0.741,0.367C132.296,211.089,80.085,283.069,79.266,367.127
	c-14.956-30.185-22.754-63.429-22.754-97.654c0-121.511,98.857-220.368,220.367-220.368c42.326,0,83.436,12.028,118.914,34.804
	c1.266,0.81,30.963,20.24,27.59,55.169c-0.029,0.303-0.042,0.607-0.034,0.912c0.016,0.741,0.628,18.26,22.494,28.851
	C459.512,175.462,454.633,188.187,454.581,188.312z"/>
<path d="M379.884,109.019c-10.734,0-19.468,8.733-19.468,19.468c0,10.735,8.733,19.468,19.468,19.468
	c10.735,0,19.469-8.733,19.469-19.468C399.353,117.752,390.62,109.019,379.884,109.019z M379.884,132.354
	c-2.132,0-3.866-1.734-3.866-3.866s1.734-3.866,3.866-3.866s3.867,1.734,3.867,3.866S382.017,132.354,379.884,132.354z"/>
<g>
</g>
<g>
</g>
<g>
</g>
<g>
</g>
<g>
</g>
<g>
</g>
<g>
</g>
<g>
</g>
<g>
</g>
<g>
</g>
<g>
</g>
<g>
</g>
<g>
</g>
<g>
</g>
<g>
</g>
</svg>
