<?xml version="1.0" encoding="iso-8859-1"?>
<!-- Generator: Adobe Illustrator 19.0.0, SVG Export Plug-In . SVG Version: 6.00 Build 0)  -->
<svg version="1.1" id="Layer_1" xmlns="http://www.w3.org/2000/svg" xmlns:xlink="http://www.w3.org/1999/xlink" x="0px" y="0px"
	 viewBox="0 0 512 512" style="enable-background:new 0 0 512 512;" xml:space="preserve">
<g>
	<path style="fill:#D8D9DD;" d="M108.924,70.223c-31.265,0-56.702,25.436-56.702,56.701s25.436,56.701,56.702,56.701
		s56.703-25.436,56.703-56.702S140.189,70.223,108.924,70.223z"/>
	<path style="fill:#D8D9DD;" d="M403.075,70.223c-31.266,0-56.702,25.436-56.702,56.701s25.436,56.701,56.702,56.701
		c31.265,0,56.703-25.437,56.703-56.702C459.778,95.659,434.342,70.223,403.075,70.223"/>
</g>
<path style="fill:#779226;" d="M439.849,341.627c-49.248,13.146-109.384,19.536-183.848,19.536
	c-74.463,0-134.599-6.391-183.847-19.536c-24.119-6.438-45.944-14.531-66.372-24.666c10.405,37.557,34.646,71.908,70.793,99.409
	c48.103,36.599,111.825,56.753,179.426,56.753s131.322-20.155,179.427-56.753c36.146-27.5,60.386-61.851,70.792-99.408
	C485.792,327.096,463.967,335.19,439.849,341.627"/>
<path style="fill:#A0C432;" d="M256.001,361.164c74.464,0,134.6-6.391,183.848-19.536c24.118-6.438,45.943-14.531,66.37-24.664
	c3.81-13.749,5.781-27.924,5.781-42.355c0-35.59-11.986-69.935-34.823-100.218c8.812-13.708,13.948-29.993,13.948-47.465
	c0-48.55-39.499-88.049-88.05-88.049c-32.839,0-61.516,18.084-76.651,44.803c-22.773-5.031-46.356-7.586-70.424-7.586
	c-24.003,0-47.626,2.55-70.427,7.582c-15.135-26.717-43.813-44.799-76.65-44.799c-48.55,0-88.049,39.499-88.049,88.049
	c0,17.473,5.137,33.758,13.948,47.467C11.987,204.674,0,239.015,0,274.609c0,14.43,1.972,28.605,5.78,42.354
	c20.428,10.133,42.253,18.227,66.372,24.666C121.402,354.773,181.538,361.164,256.001,361.164 M403.075,70.223
	c31.265,0,56.703,25.436,56.703,56.701s-25.437,56.701-56.703,56.701s-56.702-25.437-56.702-56.702
	C346.375,95.659,371.811,70.223,403.075,70.223 M52.223,126.925c0-31.266,25.436-56.701,56.702-56.701s56.703,25.436,56.703,56.701
	s-25.437,56.701-56.703,56.701C77.658,183.626,52.223,158.19,52.223,126.925"/>
<path d="M423.808,126.925c0-11.597-9.288-20.998-20.725-20.998c-11.451,0-20.738,9.401-20.738,20.998
	c0,11.597,9.288,20.998,20.738,20.998C414.519,147.923,423.808,138.522,423.808,126.925"/>
<path style="fill:#333333;" d="M202.096,274.609c0-9.938,7.966-17.986,17.756-17.986c9.802,0,17.767,8.048,17.767,17.986
	c0,9.937-7.965,17.992-17.767,17.992C210.063,292.601,202.096,284.546,202.096,274.609z"/>
<path d="M309.905,274.609c0-10.011-8.018-18.126-17.89-18.126c-9.885,0-17.902,8.115-17.902,18.126
	c0,10.011,8.018,18.127,17.902,18.127C301.887,292.736,309.905,284.62,309.905,274.609"/>
<path style="fill:#A0A1A5;" d="M403.084,147.923c-11.451,0-20.738-9.401-20.738-20.998c0-11.597,9.288-20.998,20.738-20.998
	c11.436,0,20.725,9.401,20.725,20.998C423.808,138.522,414.519,147.923,403.084,147.923 M403.075,70.223
	c-31.266,0-56.702,25.436-56.702,56.701s25.436,56.701,56.702,56.701c31.265,0,56.703-25.437,56.703-56.702
	C459.778,95.659,434.342,70.223,403.075,70.223"/>
<path style="fill:#586C1C;" d="M506.219,316.964c-20.428,10.133-42.252,18.227-66.37,24.664
	c-49.248,13.146-109.384,19.536-183.848,19.536v111.96c67.601,0,131.322-20.155,179.427-56.753
	C471.573,388.871,495.812,354.519,506.219,316.964"/>
<path style="fill:#779226;" d="M292.015,292.736c-9.885,0-17.902-8.115-17.902-18.127c0-10.012,8.018-18.126,17.902-18.126
	c9.872,0,17.89,8.115,17.89,18.126C309.905,284.62,301.887,292.736,292.015,292.736 M346.375,126.925L346.375,126.925
	c0-31.266,25.436-56.701,56.701-56.701s56.703,25.436,56.703,56.701l0,0c0,31.266-25.437,56.701-56.703,56.701
	S346.375,158.19,346.375,126.925 M403.075,38.876c-32.839,0-61.516,18.084-76.651,44.803c-22.773-5.031-46.356-7.586-70.424-7.586
	v285.071c74.464,0,134.6-6.391,183.848-19.536c24.118-6.438,45.943-14.531,66.37-24.664l0,0c3.81-13.749,5.781-27.924,5.781-42.355
	c0-35.59-11.986-69.935-34.823-100.218l0,0l0,0c8.812-13.708,13.948-29.993,13.948-47.465
	C491.125,78.374,451.627,38.876,403.075,38.876"/>
<g>
	<path style="fill:#333333;" d="M403.084,105.926c-11.451,0-20.738,9.401-20.738,20.998c0,11.597,9.288,20.998,20.738,20.998
		c11.436,0,20.725-9.401,20.725-20.998C423.808,115.327,414.519,105.926,403.084,105.926"/>
	<path style="fill:#333333;" d="M292.015,256.483c-9.885,0-17.902,8.115-17.902,18.126c0,10.011,8.018,18.127,17.902,18.127
		c9.872,0,17.89-8.115,17.89-18.127C309.905,264.596,301.887,256.483,292.015,256.483"/>
	<path style="fill:#333333;" d="M129.655,126.925c0-11.597-9.288-20.998-20.725-20.998c-11.45,0-20.738,9.401-20.738,20.998
		c0,11.597,9.288,20.998,20.738,20.998C120.367,147.923,129.655,138.522,129.655,126.925z"/>
</g>
<g>
</g>
<g>
</g>
<g>
</g>
<g>
</g>
<g>
</g>
<g>
</g>
<g>
</g>
<g>
</g>
<g>
</g>
<g>
</g>
<g>
</g>
<g>
</g>
<g>
</g>
<g>
</g>
<g>
</g>
</svg>
