<?xml version="1.0" encoding="iso-8859-1"?>
<!-- Generator: Adobe Illustrator 19.0.0, SVG Export Plug-In . SVG Version: 6.00 Build 0)  -->
<svg version="1.1" id="Layer_1" xmlns="http://www.w3.org/2000/svg" xmlns:xlink="http://www.w3.org/1999/xlink" x="0px" y="0px"
	 viewBox="0 0 512.001 512.001" style="enable-background:new 0 0 512.001 512.001;" xml:space="preserve">
<g>
	<path style="fill:#F15A24;" d="M344.809,294.745H409l-16.048,32.224L409,359.194h-56.167c0,0-4.918-18.39-40.119-16.177
		L344.809,294.745z"/>
	<path style="fill:#F15A24;" d="M120.142,343.602c-13.294,0-24.072-11.134-24.072-24.428c0-13.294,10.778-24.428,24.072-24.428
		h48.143l32.095,48.856H120.142z"/>
</g>
<path style="fill:#FBB03B;" d="M224.451,375.128H114.747c-10.315,0-18.677-8.362-18.677-18.677v-37.491
	c0,0,0.343,23.458,32.096,24.072c31.752,0.613,72.215,0,72.215,0L224.451,375.128z"/>
<path style="fill:#F15A24;" d="M323.349,439.318h-34.707v-32.096h40.119l24.072-16.048v18.659
	C352.833,426.119,339.633,439.318,323.349,439.318z"/>
<g>
	<path style="fill:#FBB03B;" d="M323.349,343.033h-34.707v32.096h40.119l24.072,16.048v-18.659
		C352.833,356.232,339.633,343.033,323.349,343.033z"/>
	<rect x="224.449" y="399.198" style="fill:#FBB03B;" width="64.191" height="48.139"/>
</g>
<rect x="240.499" y="447.348" style="fill:#0071BC;" width="32.095" height="32.096"/>
<polygon style="fill:#29ABE2;" points="272.595,398.695 409,198.072 104.094,198.072 240.499,398.695 "/>
<polygon style="fill:#0071BC;" points="256.547,398.695 180.493,197.763 104.094,198.225 240.499,398.695 "/>
<polygon style="fill:#FEE3B8;" points="172.002,42.107 152.237,14.055 129.55,43.051 152.192,58.144 "/>
<polygon style="fill:#29ABE2;" points="200.38,334.756 400.977,206.249 264.571,398.695 240.499,398.695 "/>
<polygon style="fill:#0071BC;" points="200.38,334.756 272.595,286.487 264.571,398.695 240.499,398.695 "/>
<polyline style="fill:#FDD089;" points="153.372,53.943 193.491,30.103 193.491,85.806 "/>
<path style="fill:#FBB03B;" d="M193.491,110.342c0,22.157-18.383,40.119-40.54,40.119s-40.54-17.962-40.54-40.119V30.103
	l81.081,56.167V110.342z"/>
<polygon style="fill:#FEE3B8;" points="275.713,43.032 255.963,13.806 235.594,43.032 254.075,56.258 "/>
<polyline style="fill:#FDD089;" points="256.282,53.943 296.401,30.103 296.401,85.806 "/>
<path style="fill:#FBB03B;" d="M296.401,110.342c0,22.157-17.344,40.119-39.501,40.119s-39.501-17.962-39.501-40.119V30.103
	l79.002,56.167V110.342z"/>
<polygon style="fill:#FEE3B8;" points="380.023,44.072 360.676,11.92 339.904,44.072 363.976,60.119 "/>
<polyline style="fill:#FDD089;" points="361.271,53.943 401.39,30.103 401.39,85.806 "/>
<path style="fill:#FBB03B;" d="M401.39,110.342c0,22.157-18.384,40.119-40.54,40.119c-22.157,0-40.54-17.962-40.54-40.119V30.103
	L401.39,86.27V110.342z"/>
<rect x="239.231" y="415.331" style="fill:#FFFFFF;" width="33.264" height="15.592"/>
<path d="M358.705,286.429l65.023-95.634h-55.602v-33.081c10.09-1.507,19.481-6.134,26.986-13.404
	c9.412-9.115,14.594-21.18,14.594-33.969V85.806v-3.65V16.401l-27.157,16.138L360.857,0.001l-22.32,33.479l-26.544-18.155v95.016
	c0,12.79,5.182,24.853,14.593,33.969c7.246,7.02,16.253,11.563,25.947,13.227v33.259h-88.357v-33.183
	c9.797-1.609,18.777-6.238,25.835-13.45c8.813-9.004,13.666-21.016,13.666-33.822V85.806v-3.559V16.401l-25.926,15.406
	L256.547,0.001l-22.044,33.065l-25.419-18.072v95.347c0,12.806,4.853,24.818,13.665,33.822c7.058,7.212,16.037,11.84,25.836,13.45
	v33.183h-88.357v-33.092c22.925-3.522,40.54-23.42,40.54-47.362V85.806v-3.59V16.401l-26.929,16.002L152.237,0l-21.874,32.812
	l-25.23-17.704v95.234c0,23.578,17.087,43.218,39.501,47.175v33.278H89.366l65.022,95.634h-34.246
	c-17.572,0-31.868,14.456-31.868,32.224c0,0.103,0.007,0.205,0.007,0.308h-0.007v37.491c0,14.598,11.876,26.473,26.473,26.473
	h105.25l5.765,8.479h-9.105v63.736h15.297v31.914h16.632v24.948h15.592v-24.948h15.592V455.14h16.669v-8.024h31.75
	c17.888,0,32.441-14.553,32.441-32.441v-39.547h-0.008c0.001-0.114,0.008-0.227,0.008-0.342c0-20.25-15.472-36.981-35.323-39.234
	l22.798-33.531h48.304l-12.165,24.428l12.165,24.428h-27.242v15.592h52.426l-19.929-40.021l19.929-40.021H358.705z M394.114,43.804
	v27.688l-21.661-14.816L394.114,43.804z M360.857,28.11l8.27,12.405l-10.865,6.456l-6.854-4.688L360.857,28.11z M327.586,110.341
	V44.88l66.528,45.502v19.958c0,17.521-15.233,32.323-33.264,32.323C342.819,142.664,327.586,127.862,327.586,110.341z
	 M288.085,43.804v27.356l-20.96-14.901L288.085,43.804z M256.547,28.11l7.782,11.674l-11.101,6.597l-6.012-4.274L256.547,28.11z
	 M224.676,110.341V45.212l63.409,45.081v20.049c0,18.126-13.926,32.323-31.705,32.323S224.676,128.466,224.676,110.341z
	 M185.175,43.804v27.47L163.978,56.4L185.175,43.804z M152.237,28.11l8.179,12.269l-10.433,6.201l-6.852-4.809L152.237,28.11z
	 M120.726,110.341V45.098l64.449,45.225v20.018c0,17.823-14.455,32.323-32.224,32.323
	C135.181,142.665,120.726,128.164,120.726,110.341z M382.848,206.388L200.075,325.894l-81.252-119.506L382.848,206.388
	L382.848,206.388z M120.142,302.022h44.848l22.616,33.264h-67.464c-8.822,0-16.275-7.616-16.275-16.632
	C103.865,309.638,111.319,302.022,120.142,302.022z M114.746,367.332c-5.999,0-10.88-4.88-10.88-10.88v-10.108
	c4.767,2.876,10.333,4.534,16.275,4.534h78.065l11.187,16.454H114.746z M209.083,339.143v-0.51L380.61,226.48L268.478,391.403
	h-23.863L209.083,339.143z M287.333,391.403l5.765-8.479h35.664c4.807,0,9.118,2.106,12.101,5.429
	c-4.335,6.286-11.658,10.341-20.125,10.341h-24.299v-7.292h-9.106V391.403z M264.177,471.46h-16.632v-16.321h16.632V471.46z
	 M280.846,439.546h-48.599v-32.551h4.114l0.01,0.016h40.348l0.01-0.016h4.115V439.546z M328.189,431.523h-31.75v-17.236h24.299
	c9.139,0,17.565-3.067,24.299-8.206v8.592C345.037,423.965,337.48,431.523,328.189,431.523z M320.738,350.878
	c12.56,0,22.605,8.926,24.1,20.823c-4.723-2.772-10.215-4.369-16.076-4.369h-25.062l11.187-16.454H320.738z"/>
<g>
</g>
<g>
</g>
<g>
</g>
<g>
</g>
<g>
</g>
<g>
</g>
<g>
</g>
<g>
</g>
<g>
</g>
<g>
</g>
<g>
</g>
<g>
</g>
<g>
</g>
<g>
</g>
<g>
</g>
</svg>
