<?xml version="1.0" encoding="iso-8859-1"?>
<!-- Generator: Adobe Illustrator 19.0.0, SVG Export Plug-In . SVG Version: 6.00 Build 0)  -->
<svg version="1.1" id="Layer_1" xmlns="http://www.w3.org/2000/svg" xmlns:xlink="http://www.w3.org/1999/xlink" x="0px" y="0px"
	 viewBox="0 0 297.997 297.997" style="enable-background:new 0 0 297.997 297.997;" xml:space="preserve">
<g>
	<path style="fill:#FFCE00;" d="M238.206,215.021c-10.343-9.624-22.209-23.27-22.209-35.22c0-9.929,4.199-16.099,7.722-19.525
		c4.586-4.46,10.68-6.916,17.161-6.916c5.802,0,11.64,2.089,16.117,6.176c3.153-2.878,6.984-4.742,10.999-5.607
		c1.962-9.335,3-19.011,3-28.93c0-11.334-1.363-22.348-3.907-32.9c-7.269-15.152-17.35-28.708-29.558-39.996
		c-22.391-13.376-48.766-20.666-76.771-19.645C83.492,35.274,23.139,100.197,25.955,177.463c0.412,11.304,2.17,22.239,5.087,32.673
		c6.303,12.01,14.397,22.938,23.934,32.42c21.892,14.189,47.99,22.44,76.022,22.44C174.032,264.997,212.525,245.573,238.206,215.021
		z M212.964,104.582c10.994-0.001,20.993,5.445,26.745,14.568l-13.533,8.533c-2.805-4.447-7.743-7.102-13.211-7.102
		c-5.467,0-10.403,2.655-13.206,7.102l-13.535-8.533C191.974,110.029,201.971,104.583,212.964,104.582z M171.664,216.558
		c5,0,8.827-3.96,8.827-8.827s-3.827-8.826-8.827-8.826v-0.148v-15.852v-0.148c5,0,8.827-3.96,8.827-8.827
		c0-4.867-3.827-8.826-8.827-8.826v-16c13,0,24.994,11.137,24.994,24.826c0,6.525-2.607,12.466-6.827,16.901
		c4.22,4.436,6.785,10.376,6.785,16.9c0,13.689-11.952,24.827-24.952,24.827L171.664,216.558L171.664,216.558z M115.052,131.999
		c-8.836,0-16-7.164-16-16s7.164-16,16-16s16,7.164,16,16S123.888,131.999,115.052,131.999z"/>
	<path style="fill:#FFCE00;" d="M257.01,178.998h-0.025c0.001,0.104,0.013,0.199,0.013,0.304
		C256.997,179.197,257.009,179.101,257.01,178.998z"/>
	<path style="fill:#FFB100;" d="M267.996,153.928c1.686-0.363,3.401-0.568,5.118-0.568c2.323,0,4.595,0.321,6.767,0.931
		c0.069-1.756,0.115-3.519,0.115-5.292c0-20.362-4.638-39.661-12.907-56.9c2.544,10.553,3.907,21.566,3.907,32.9
		C270.996,134.917,269.958,144.593,267.996,153.928z"/>
	<path style="fill:#FFB100;" d="M238.206,215.021c-25.681,30.552-64.174,49.976-107.208,49.976c-28.032,0-54.131-8.251-76.022-22.44
		c23.88,23.744,56.767,38.44,93.022,38.44c43.238,0,81.688-20.897,105.778-53.123l-1.548-1.149
		C249.972,225.049,244.358,220.746,238.206,215.021z"/>
	<path style="fill:#FFE454;" d="M160.76,32.458c28.006-1.021,54.381,6.269,76.771,19.645C213.985,30.329,182.521,17,147.998,17
		C75.214,17,16,76.214,16,148.999c0,22.05,5.442,42.849,15.042,61.138c-2.917-10.434-4.675-21.369-5.087-32.673
		C23.139,100.197,83.492,35.274,160.76,32.458z"/>
	<path d="M196.658,207.731c0-6.524-2.607-12.465-6.827-16.9c4.22-4.436,6.785-10.377,6.785-16.901
		c0-13.689-11.952-24.826-24.952-24.826v16c5,0,8.827,3.959,8.827,8.826s-3.827,8.827-8.827,8.827v0.148v15.852v0.148
		c5,0,8.827,3.959,8.827,8.826s-3.827,8.827-8.827,8.827v16C184.664,232.558,196.658,221.421,196.658,207.731z"/>
	<path style="fill:#E36600;" d="M273.114,169.199c-1.904,0-8.117,0.799-8.117,9.799h-7.987c-0.001,0.104-0.013,0.199-0.013,0.304
		c0-0.105-0.012-0.2-0.013-0.304h-7.987c0-9-6.213-9.789-8.117-9.789c-4.098,0-8.883,2.81-8.883,10.517
		c0,5.234,9.858,18.173,25,30.416c15.142-12.243,25-25.124,25-30.358C281.997,172.076,277.212,169.199,273.114,169.199z"/>
	<path d="M294.948,166.574c0.685-5.766,1.048-11.628,1.048-17.575C295.996,67.392,229.605,1,147.998,1S0,67.392,0,148.999
		c0,81.606,66.392,147.998,147.998,147.998c61.364,0,114.121-37.542,136.52-90.863c7.313-8.233,13.479-17.721,13.479-26.332
		C297.997,174.291,296.701,169.942,294.948,166.574z M147.998,280.997c-36.256,0-69.143-14.696-93.022-38.44
		c-9.536-9.482-17.631-20.41-23.934-32.42C21.442,191.847,16,171.048,16,148.999C16,76.214,75.214,17,147.998,17
		c34.523,0,65.987,13.328,89.533,35.102c12.208,11.288,22.289,24.844,29.558,39.996c8.27,17.239,12.907,36.538,12.907,56.9
		c0,1.773-0.046,3.536-0.115,5.292c-2.172-0.609-4.443-0.931-6.767-0.931c-1.717,0-3.432,0.205-5.118,0.568
		c-4.015,0.865-7.846,2.73-10.999,5.607c-4.477-4.087-10.315-6.176-16.117-6.176c-6.481,0-12.575,2.456-17.161,6.916
		c-3.522,3.427-7.722,9.597-7.722,19.525c0,11.95,11.866,25.596,22.209,35.22c6.152,5.725,11.766,10.028,14.022,11.703l1.548,1.149
		C229.686,260.099,191.236,280.997,147.998,280.997z M256.997,210.141c-15.142-12.243-25-25.182-25-30.416
		c0-7.707,4.785-10.517,8.883-10.517c1.904,0,8.117,0.789,8.117,9.789h7.987h0.025h7.987c0-9,6.213-9.799,8.117-9.799
		c4.098,0,8.883,2.877,8.883,10.584C281.997,185.017,272.139,197.898,256.997,210.141z"/>
	<circle cx="115.052" cy="115.999" r="16"/>
	<path d="M212.965,120.582c5.468,0,10.406,2.654,13.211,7.102l13.533-8.533c-5.752-9.123-15.751-14.569-26.745-14.568
		c-10.993,0.001-20.99,5.447-26.74,14.568l13.535,8.533C202.562,123.237,207.498,120.582,212.965,120.582z"/>
</g>
<g>
</g>
<g>
</g>
<g>
</g>
<g>
</g>
<g>
</g>
<g>
</g>
<g>
</g>
<g>
</g>
<g>
</g>
<g>
</g>
<g>
</g>
<g>
</g>
<g>
</g>
<g>
</g>
<g>
</g>
</svg>
