<?xml version="1.0" encoding="iso-8859-1"?>
<!-- Generator: Adobe Illustrator 18.0.0, SVG Export Plug-In . SVG Version: 6.00 Build 0)  -->
<!DOCTYPE svg PUBLIC "-//W3C//DTD SVG 1.1//EN" "http://www.w3.org/Graphics/SVG/1.1/DTD/svg11.dtd">
<svg version="1.1" id="Capa_1" xmlns="http://www.w3.org/2000/svg" xmlns:xlink="http://www.w3.org/1999/xlink" x="0px" y="0px"
	 viewBox="0 0 297.5 297.5" style="enable-background:new 0 0 297.5 297.5;" xml:space="preserve">
<g id="XMLID_34_">
	<g>
		<path style="fill:#F77E21;" d="M258.785,86.02l-36.55-12.159c4.47-17.841,2.26-37.521,1.1-47.86c-0.34-3.01-0.03-4.61,0.19-5.3
			c1.5,0.069,4.04,1.12,6.31,3.34C248.505,42.3,256.155,65.45,258.785,86.02z"/>
		<path style="fill:#F77E21;" d="M73.575,222.13l12.109,36.481c-20.199-2.681-43.18-10.32-61.42-28.971
			c-2.449-2.5-3.29-5.13-3.34-6.31c0.49-0.16,1.41-0.34,2.83-0.34c0.75,0,1.59,0.05,2.47,0.149c9.03,1.021,16.83,1.511,23.841,1.511
			C58.835,224.65,66.655,223.79,73.575,222.13z"/>
		<path style="fill:#F5B543;" d="M127.795,204.83l36.44,51.04l-36.311,19.22c-2.14,1.141-4.3,1.71-6.439,1.71
			c-5.13,0-9.271-3.26-11.101-8.729l-16.87-50.65c-3.04-9.11,1.74-21.05,10.231-25.54l16.62-8.67
			C120.795,190.88,123.235,198.45,127.795,204.83z"/>
		<path style="fill:#F5B543;" d="M275.785,117.58c1.3,3.229,0.97,6.979-0.92,10.55l-20.69,39.08l-51.76-37
			c-5.73-4.09-12.78-6.61-20.16-7.26l9.41-19.01c3.48-6.58,11.53-11.171,19.58-11.171c2.09,0,4.1,0.311,5.95,0.931l50.64,16.88
			C271.675,111.86,274.495,114.35,275.785,117.58z"/>
		<path style="fill:#A97819;" d="M247.396,192.54c0.289,3.47-1.131,6.96-3.99,9.82l-43.48,43.489c-2.63,2.631-5.72,4.021-8.92,4.021
			c-3.82,0-7.34-1.98-9.91-5.58l-36.66-51.34c-5.579-7.82-4.52-20.63,2.27-27.42l16.41-16.41c3.689-3.69,9.41-5.9,15.31-5.9
			c4.53,0,8.83,1.29,12.1,3.63l51.33,36.67C245.146,185.87,247.115,189.07,247.396,192.54z"/>
		<path d="M294.775,109.98c3.51,8.77,2.84,18.869-1.841,27.72l-24.3,45.89c-0.489,0.941-1.029,1.83-1.59,2.7
			c0.351,1.5,0.601,3.02,0.73,4.57c0.779,9.42-2.83,18.88-9.91,25.949l-43.48,43.49c-3.22,3.23-6.92,5.73-10.88,7.431
			c-3.96,1.699-8.189,2.59-12.5,2.59c-2.83,0-5.59-0.391-8.26-1.12l-45.25,23.97c-5.05,2.67-10.58,4.08-16.01,4.08
			c-12.021,0-22.561-6.65-28.19-17.34c-25.92-1.76-58.25-10-83.649-35.97c-8.25-8.44-11.301-20.061-7.57-28.9
			c1.58-3.76,6.85-12.5,21.68-12.5c1.521,0,3.12,0.1,4.76,0.28c8.261,0.93,15.311,1.38,21.551,1.38c10.25,0,17.77-1.26,23.319-3.23
			c2.84-11.35,10.23-21.569,20.79-27.16l14.87-7.869c4.75-2.52,10.14-4.03,15.73-4.44c1.899-3.82,4.39-7.36,7.47-10.43l16.41-16.41
			c3.529-3.54,7.8-6.36,12.5-8.37c0.27-5.89,1.75-11.73,4.569-17.05l7.87-14.87c5.42-10.24,15.761-17.84,27.38-20.74
			c3.73-10.05,4.341-24.899,2.04-45.34c-1.29-11.42,2.21-18.03,5.37-21.57c3.74-4.17,9.05-6.47,14.98-6.47
			c7.24,0,14.81,3.34,20.77,9.17c26.17,25.61,34.44,58.01,36.101,84.37C286.875,97.46,292.025,103.13,294.775,109.98z
			 M274.865,128.13c1.89-3.57,2.22-7.32,0.92-10.55c-1.29-3.23-4.11-5.72-7.95-7l-50.64-16.88c-1.851-0.62-3.86-0.931-5.95-0.931
			c-8.05,0-16.1,4.591-19.58,11.171l-9.41,19.01c7.38,0.649,14.43,3.17,20.16,7.26l51.76,37L274.865,128.13z M222.235,73.86
			l36.55,12.159c-2.63-20.569-10.28-43.72-28.95-61.979c-2.27-2.22-4.81-3.271-6.31-3.34c-0.221,0.689-0.53,2.29-0.19,5.3
			C224.495,36.34,226.705,56.02,222.235,73.86z M243.405,202.36c2.859-2.86,4.279-6.351,3.99-9.82c-0.28-3.47-2.25-6.67-5.54-9.02
			l-51.33-36.67c-3.27-2.34-7.57-3.63-12.1-3.63c-5.9,0-11.62,2.21-15.31,5.9l-16.41,16.41c-6.79,6.79-7.85,19.6-2.27,27.42
			l36.66,51.34c2.57,3.6,6.09,5.58,9.91,5.58c3.2,0,6.29-1.39,8.92-4.021L243.405,202.36z M164.235,255.87l-36.44-51.04
			c-4.56-6.38-7-13.95-7.43-21.62l-16.62,8.67c-8.49,4.49-13.271,16.43-10.231,25.54l16.87,50.65
			c1.83,5.47,5.971,8.729,11.101,8.729c2.14,0,4.3-0.569,6.439-1.71L164.235,255.87z M85.685,258.61L73.575,222.13
			c-6.92,1.66-14.74,2.521-23.51,2.521c-7.011,0-14.811-0.49-23.841-1.511c-0.88-0.1-1.72-0.149-2.47-0.149
			c-1.42,0-2.34,0.18-2.83,0.34c0.05,1.18,0.891,3.81,3.34,6.31C42.505,248.29,65.485,255.93,85.685,258.61z"/>
	</g>
	<g>
	</g>
</g>
<g>
</g>
<g>
</g>
<g>
</g>
<g>
</g>
<g>
</g>
<g>
</g>
<g>
</g>
<g>
</g>
<g>
</g>
<g>
</g>
<g>
</g>
<g>
</g>
<g>
</g>
<g>
</g>
<g>
</g>
</svg>
