<?xml version="1.0" encoding="iso-8859-1"?>
<!-- Generator: Adobe Illustrator 19.0.0, SVG Export Plug-In . SVG Version: 6.00 Build 0)  -->
<svg version="1.1" id="Layer_1" xmlns="http://www.w3.org/2000/svg" xmlns:xlink="http://www.w3.org/1999/xlink" x="0px" y="0px"
	 viewBox="0 0 512 512" style="enable-background:new 0 0 512 512;" xml:space="preserve">
<path style="fill:#23A24D;" d="M143.22,221.06c-27.655,54.918,5.389,91.576,58.543,69.385c7.302,21.325,0.592,37.334-14.255,42.174
	c-9.289,3.022-21.758,1.67-35.982-5.495c-2.79,8.475-6.488,15.27-10.747,20.384c-17.161,20.701-43.262,13.907-54.58-20.384
	c-40.219,20.257-66.458-5.971-46.2-46.2c-42.766-14.107-42.766-51.209,0-65.327c-20.257-40.219,5.981-66.458,46.2-46.2
	c7.017-21.24,24.104-32.431,36.837-32.568c-0.666,0.402-1.321,0.803-1.955,1.215C83.357,162.179,90.743,203.74,143.22,221.06z"/>
<path style="fill:#43B05C;" d="M389.829,137.568c13.864-2.008,28.31,8.602,35.982,31.829c40.219-20.257,66.447,5.981,46.19,46.2
	c42.766,14.118,42.766,51.22,0,65.327c20.257,40.23-5.97,66.458-46.19,46.2c-11.36,34.418-37.609,41.138-54.77,20.162
	c-4.174-5.093-7.809-11.814-10.567-20.162c-14.171,7.143-26.608,8.507-35.886,5.527c-14.879-4.798-21.631-20.775-14.393-42.079
	c52.984,21.927,85.848-14.699,58.247-69.511C421.266,203.624,428.399,161.64,389.829,137.568z"/>
<path style="fill:#23A24D;" d="M123.037,136.828c5.759-3.455,12.48-6.52,20.183-9.056c-28.923-57.423,8.538-94.894,65.961-65.961
	c20.162-61.068,73.136-61.068,93.288,0c57.433-28.933,94.894,8.538,65.971,65.961c8.242,2.726,15.375,6.044,21.388,9.796
	c38.571,24.072,31.438,66.056-21.388,83.492c27.602,54.812-5.263,91.439-58.247,69.511c-2.536-1.046-5.104-2.219-7.725-3.54
	c-6.097,18.493-15.238,31.29-25.541,38.581v54.337v58.025v58.014h-42.195v-52.741v-62.178v-55.457
	c-10.303-7.291-19.444-20.088-25.552-38.581c-2.515,1.268-4.988,2.399-7.418,3.413c-53.153,22.191-86.197-14.467-58.543-69.385
	c-52.477-17.32-59.864-58.881-22.138-83.016C121.716,137.631,122.371,137.23,123.037,136.828z"/>
<g>
	<path style="fill:#87BE55;" d="M324.586,332.65c9.278,2.98,21.716,1.617,35.886-5.527c2.758,8.348,6.393,15.069,10.567,20.162
		l-94.112,90.688v-58.025l47.468-45.661L324.586,332.65z"/>
	<path style="fill:#87BE55;" d="M151.526,327.124c14.224,7.165,26.693,8.517,35.982,5.495l47.225,48.451v62.178l-93.954-95.739
		C145.038,342.393,148.736,335.598,151.526,327.124z"/>
</g>
<path d="M512,248.266c0.002-15.302-10.828-28.761-29.394-37.063c7.26-18.998,5.401-36.173-5.419-46.993
	c-10.816-10.817-27.98-12.678-46.966-5.426c-9.936-22.435-25.602-29.968-38.563-29.344c-3.845-2.236-7.993-4.292-12.447-6.128
	c11.241-27.035,9.256-51.487-5.769-66.509s-39.474-17.006-66.51-5.762c-11.165-27.068-29.855-42.954-51.098-42.956
	c-0.001,0-0.001,0-0.003,0c-21.243,0-39.937,15.887-51.108,42.956c-27.031-11.245-51.476-9.261-66.501,5.76
	c-15.025,15.022-17.012,39.472-5.772,66.506c-4.169,1.718-8.079,3.636-11.734,5.72c-13.584,1.149-29.765,11.339-38.768,29.818
	c-19.051-7.319-36.282-5.479-47.13,5.369c-10.821,10.821-12.681,27.994-5.422,46.991C10.828,219.505-0.001,232.964,0,248.267
	c0.001,15.3,10.83,28.754,29.395,37.051c-7.258,18.999-5.398,36.173,5.422,46.993c10.822,10.82,27.995,12.679,46.993,5.418
	c7.185,16.044,18.296,26.399,31.273,28.851c1.92,0.362,3.844,0.542,5.759,0.542c7.711,0,15.272-2.903,21.875-8.364l86.092,87.729
	v57.428h58.046v-62.571l86.048-82.917c6.698,5.675,14.397,8.698,22.26,8.698c1.882,0,3.774-0.173,5.663-0.523
	c13.022-2.417,24.172-12.78,31.376-28.873c18.995,7.259,36.166,5.402,46.984-5.416c10.82-10.819,12.679-27.995,5.419-46.996
	C501.171,277.021,511.998,263.568,512,248.266z M116.024,351.003c-9.08-1.715-17.416-11.571-22.299-26.364l-2.882-8.73l-8.21,4.136
	c-15.45,7.783-29.478,8.186-36.61,1.057c-7.132-7.131-6.728-21.16,1.054-36.613l4.135-8.211l-8.731-2.881
	c-16.426-5.418-26.631-15.048-26.632-25.131c-0.001-10.084,10.204-19.72,26.634-25.143l8.729-2.882l-4.135-8.21
	c-7.782-15.449-8.185-29.477-1.052-36.609c7.132-7.133,21.159-6.729,36.609,1.052l7.27,3.662
	c2.677,19.055,17.988,35.278,42.548,45.39c-10.917,26.318-9.298,50.371,4.761,65.464c13.166,14.135,34.824,17.629,59.067,9.905
	c1.037,6.261,0.502,11.815-1.629,16.086c-1.967,3.942-5.197,6.668-9.596,8.102c-7.821,2.547-18.463,0.757-29.963-5.036l-8.216-4.139
	l-2.877,8.739c-2.388,7.254-5.52,13.24-9.32,17.805C129.096,349.184,122.469,352.22,116.024,351.003z M184.994,341.392
	l41.814,42.899v39.564l-75.691-77.13c1.757-2.76,3.366-5.754,4.807-8.984C166.378,341.755,176.238,342.989,184.994,341.392z
	 M226.807,361.583l-26.365-27.05c3.481-2.802,6.318-6.32,8.393-10.475c1.759-3.525,2.903-7.375,3.453-11.478
	c4.24,6.758,9.109,12.459,14.519,16.935L226.807,361.583L226.807,361.583z M269.004,488.063h-26.344V321.512l-3.347-2.369
	c-9.543-6.754-17.359-18.717-22.604-34.597l-2.884-8.73l-8.21,4.138c-2.259,1.139-4.582,2.207-6.905,3.177
	c-21.259,8.875-39.914,7.774-49.897-2.945c-10.768-11.561-10.212-32.332,1.486-55.563l4.134-8.21l-8.729-2.881
	c-23.28-7.683-38.294-21.137-40.163-35.988c-1.491-11.852,5.73-23.816,19.86-32.858c0.56-0.363,1.138-0.718,1.713-1.064
	c5.404-3.243,11.657-6.043,18.584-8.324l8.738-2.877l-4.138-8.216c-11.97-23.766-12.295-44.775-0.871-56.198
	c11.423-11.422,32.429-11.094,56.187,0.879l8.211,4.137l2.883-8.73c8.344-25.274,22.97-40.362,39.123-40.361
	c16.152,0.001,30.773,15.089,39.112,40.359l2.881,8.731l8.212-4.136c23.765-11.973,44.775-12.301,56.199-0.878
	c11.424,11.423,11.098,32.431-0.871,56.196l-4.133,8.204l8.722,2.885c7.433,2.459,14.056,5.484,19.68,8.995
	c14.474,9.034,21.948,21.105,20.505,33.117c-1.791,14.907-16.813,28.412-40.181,36.126l-8.729,2.882l4.134,8.21
	c11.686,23.207,12.252,43.967,1.512,55.534c-9.928,10.693-28.487,11.848-49.657,3.087c-2.382-0.983-4.798-2.09-7.18-3.291
	l-8.214-4.14l-2.881,8.736c-5.235,15.876-13.047,27.838-22.593,34.593l-3.347,2.369L269.004,488.063L269.004,488.063z
	 M299.653,312.136c0.529,4.304,1.714,8.33,3.56,12.004c2.195,4.367,5.228,8.034,8.974,10.895l-27.333,26.292v-31.812
	C290.384,324.939,295.351,319.089,299.653,312.136z M284.854,383.322l43.371-41.721c8.454,1.273,17.889-0.032,27.858-3.862
	c1.372,3.07,2.893,5.925,4.548,8.571l-75.778,73.02V383.322z M469.517,273.396l-8.731,2.881l4.135,8.211
	c7.783,15.456,8.188,29.486,1.057,36.616c-7.129,7.129-21.155,6.722-36.602-1.058l-8.211-4.135l-2.882,8.73
	c-4.894,14.828-13.25,24.688-22.351,26.377c-6.497,1.204-13.157-1.902-18.763-8.754c-3.723-4.543-6.808-10.473-9.171-17.625
	l-2.884-8.73l-8.21,4.138c-11.456,5.774-22.072,7.572-29.886,5.061c-4.419-1.424-7.663-4.144-9.643-8.084
	c-2.134-4.246-2.684-9.768-1.666-16.022c24.135,7.593,45.687,4.044,58.78-10.058c14.017-15.096,15.621-39.132,4.718-65.418
	c24.498-10.082,39.777-26.225,42.523-45.2l7.645-3.852c15.446-7.78,29.472-8.184,36.601-1.056c7.132,7.132,6.727,21.16-1.056,36.611
	l-4.135,8.21l8.729,2.882c16.429,5.423,26.635,15.058,26.633,25.143C496.148,258.349,485.943,267.979,469.517,273.396z"/>
<path d="M229.461,97.75c-0.396,0-39.574,0.573-39.574,50.121h15.851c0-32.824,21.367-34.219,23.803-34.271l-0.079-7.925V97.75z"/>
<path d="M314.156,228.552c-3.835,4.266-9.113,6.339-16.136,6.339v15.851c11.644,0,21.056-3.919,27.976-11.65
	c14.517-16.22,11.679-43.466,11.551-44.618l-15.756,1.734C322.424,202.138,322.287,219.509,314.156,228.552z"/>
<path d="M185.149,227.955c-2.602,13.266,4.887,23.739,5.75,24.89l12.726-9.448c-0.043-0.059-4.242-5.99-2.898-12.512
	c0.973-4.72,4.724-9.068,11.145-12.919l-8.153-13.594C193.233,210.662,186.985,218.597,185.149,227.955z"/>
<path d="M304.886,123.491c2.557,4.132,2.786,9.906,0.678,17.159l15.221,4.422c3.412-11.746,2.597-21.813-2.421-29.922
	c-7.112-11.493-19.721-14.078-21.135-14.334l-2.833,15.596C294.464,116.424,301.432,117.912,304.886,123.491z"/>
<path d="M271.819,170.578c-8.35-14.387-29.435-14.803-31.812-14.803v15.851c2.977,0,14.773,1.172,18.103,6.909
	c2.109,3.634,0.73,10.082-3.881,18.157l13.763,7.862C275.741,190.986,277.029,179.555,271.819,170.578z"/>
<path d="M102.864,234.891c-0.29,0-29.018,0.452-29.018,39.574h15.851c0-9.939,2.363-17.173,6.834-20.923
	c3.131-2.626,6.358-2.797,6.495-2.802l-0.162,0.002C102.864,250.742,102.864,234.891,102.864,234.891z"/>
<path d="M429.062,251.14c-4.293,8.586-11.786,12.759-22.907,12.759v15.851c21.756,0,32.175-11.703,37.084-21.521
	c4.977-9.956,5.122-19.616,5.122-20.684H432.51C432.51,237.611,432.417,244.431,429.062,251.14z"/>
<g>
</g>
<g>
</g>
<g>
</g>
<g>
</g>
<g>
</g>
<g>
</g>
<g>
</g>
<g>
</g>
<g>
</g>
<g>
</g>
<g>
</g>
<g>
</g>
<g>
</g>
<g>
</g>
<g>
</g>
</svg>
