<?xml version="1.0" encoding="iso-8859-1"?>
<!-- Generator: Adobe Illustrator 19.0.0, SVG Export Plug-In . SVG Version: 6.00 Build 0)  -->
<svg version="1.1" id="Layer_1" xmlns="http://www.w3.org/2000/svg" xmlns:xlink="http://www.w3.org/1999/xlink" x="0px" y="0px"
	 viewBox="0 0 512 512" style="enable-background:new 0 0 512 512;" xml:space="preserve">
<path style="fill:#FA9C1C;" d="M503.996,212.123c0-97.26-78.844-176.104-176.104-176.104c-25.676,0-50.045,5.541-72.043,15.419
	c-21.997-9.879-46.366-15.419-72.043-15.419c-97.26,0-176.104,78.845-176.104,176.104v24.015c0,40.339,9.687,78.394,26.767,112.066
	h-6.755c-11.053,0-20.012,8.959-20.012,20.012c0,11.052,8.959,20.012,20.012,20.012h32.131
	c45.4,58.422,116.286,96.057,196.004,96.057s150.605-37.634,196.004-96.057h32.131c11.053,0,20.012-8.96,20.012-20.012
	c0-11.053-8.959-20.012-20.012-20.012h-6.755c17.08-33.671,26.767-71.726,26.767-112.066L503.996,212.123L503.996,212.123z
	 M47.727,236.138v-24.015c0-75.156,60.925-136.08,136.08-136.08c9.858,0,19.449,1.105,28.712,3.096
	c-37.185,32.288-60.731,79.872-60.731,132.984s23.546,100.696,60.731,132.984c-9.262,1.991-18.854,3.096-28.712,3.096H80.516
	C59.792,315.848,47.727,277.414,47.727,236.138z M319.887,212.123c0,48.664-25.626,91.241-64.037,115.296
	c-38.411-24.055-64.037-66.631-64.037-115.296c0-48.664,25.626-91.241,64.037-115.295
	C294.261,120.883,319.887,163.46,319.887,212.123z M255.85,444.26c-54.904,0-104.81-21.296-142-56.033h69.958
	c25.676,0,50.045-5.541,72.043-15.42c21.997,9.879,46.366,15.42,72.043,15.42h69.958C360.659,422.965,310.754,444.26,255.85,444.26z
	 M327.892,348.204c-9.858,0-19.449-1.105-28.712-3.096c37.184-32.288,60.731-79.872,60.731-132.984S336.364,111.428,299.18,79.14
	c9.262-1.991,18.854-3.096,28.712-3.096c75.155,0,136.08,60.925,136.08,136.08l0.002,24.015h-0.002
	c0,41.276-12.065,79.71-32.789,112.066H327.892V348.204z"/>
<g>
	<rect x="207.823" y="356.516" style="fill:#1D1D1B;" width="16.009" height="15.406"/>
	<rect x="175.798" y="140.384" style="fill:#1D1D1B;" width="16.009" height="15.406"/>
	<rect x="136.08" y="52.029" style="fill:#1D1D1B;" width="15.406" height="16.009"/>
	<rect x="88.053" y="76.047" style="fill:#1D1D1B;" width="15.406" height="16.009"/>
	<rect x="263.851" y="60.335" style="fill:#1D1D1B;" width="16.009" height="15.406"/>
	<rect x="183.809" y="276.464" style="fill:#1D1D1B;" width="16.009" height="15.406"/>
	<rect x="319.889" y="52.331" style="fill:#1D1D1B;" width="16.009" height="15.406"/>
	<rect x="303.877" y="356.516" style="fill:#1D1D1B;" width="16.009" height="15.406"/>
	<path style="fill:#1D1D1B;" d="M512,140.667h-15.847c-8.816-20.38-21.243-39.229-36.953-55.686
		c-8.172-8.561-17.006-16.215-26.374-22.931l4.574-4.574l-10.893-10.894l-6.852,6.852c-26.793-15.904-57.202-24.614-88.911-25.095
		c-6.428-0.096-12.822,0.146-19.164,0.711v-9.038h-15.406v11.074c-13.926,2.436-27.488,6.453-40.431,11.975
		c-10.451-4.495-21.216-7.969-32.215-10.417V20.01h-15.406v9.902c-4.174-0.554-8.375-0.97-12.601-1.233
		c-29.408-1.831-57.987,3.16-84.058,14.337V36.02H96.057V50.49c-13.643,7.447-26.436,16.705-38.106,27.672
		c-5.876,5.523-11.338,11.375-16.388,17.529l-4.398-4.398L26.27,102.189l5.945,5.945c-6.42,9.346-11.979,19.283-16.613,29.771
		C5.249,161.336,0,186.306,0,212.123v18.852c0,38.294,8.455,76.48,24.537,111.17C2.747,346.989,0,361.349,0,368.216
		c0,15.282,12.433,27.714,27.715,27.714h30.179c17.4,21.743,37.791,40.223,60.338,54.982l-7.913,7.913l10.893,10.892l10.551-10.552
		c35.427,20.151,75.386,31.584,116.899,32.722c2.454,0.067,4.899,0.102,7.341,0.102c27.625,0,54.462-4.327,80.194-12.865v5.16
		h15.406v-10.833c5.251-2.127,10.456-4.414,15.601-6.906c34.147-16.532,64.636-40.912,88.433-70.615h28.346
		c15.282,0,27.715-12.433,27.715-27.714c0-13.477-9.671-24.732-22.437-27.206c14.877-32.982,22.437-68.198,22.437-104.873v-20.039
		c0-20.67-3.319-40.89-9.674-60.026H512V140.667z M23.181,292.473c-2.735-10.724-4.773-21.625-6.066-32.623h6.598v-15.406h-7.919
		c-0.247-4.484-0.387-8.975-0.387-13.468v-18.852c0-0.101,0.003-0.201,0.004-0.302h8.302v-15.406h-7.582
		c1.007-11.057,3.073-21.867,6.156-32.321h9.129v-16.009h-3.501c8.995-21.918,22.683-41.87,40.588-58.696
		c34.214-32.155,78.993-48.254,126.064-45.332c14.508,0.901,28.709,3.692,42.416,8.307c-9.316,5.304-18.205,11.439-26.549,18.378
		c-3.68-0.748-7.24-1.298-10.918-1.684v-9.023h-15.406v8.306c-0.509,0-1.019,0.001-1.541,0.004
		c-37.792,0.319-73.587,16.144-100.791,44.558c-6.934,7.243-13.06,15.044-18.342,23.28v-12.113H48.028v16.01h12.993
		c-13.677,22.824-20.998,48.777-20.998,75.541v4.808h-8.306v15.406h8.306v0.302c0,8.162,0.464,16.277,1.369,24.315h-9.675v15.406
		h11.974c4.215,22.626,12.026,44.431,23.209,64.641H41.243c-0.137,0-0.262,0.006-0.397,0.006c-0.1-0.204-0.205-0.405-0.305-0.609
		h7.187v-15.406H33.681c-2.212-5.462-4.216-11.006-6.035-16.612h4.072v-15.406H23.181z M144.283,203.817
		c-0.166,3.705-0.234,7.424-0.177,11.158c0.11,7.216,0.674,14.379,1.644,21.462h-9.972v15.406h12.775
		c7.464,32.783,24.087,63.154,48.184,87.611c-5.385,0.688-10.857,1.045-16.393,1.045h-58.846v-8.423h-15.406v8.423H84.716
		c-6.361-10.409-11.721-21.327-16.049-32.622h3.073v-15.406h-8.274c-5.308-18.168-8.037-37.114-8.037-56.335v-20.516
		c0-12.346,1.772-24.371,5.054-35.819h11.256v-15.406h-5.785c5.031-11.814,11.718-22.797,19.74-32.623h10.059v-11.034
		C118.7,98.2,149.454,84.03,182.696,83.75c4.906-0.042,9.183,0.092,13.224,0.44c-7.306,7.532-13.898,15.624-19.749,24.173h-8.375
		v13.44c-11.553,20.466-19.117,43.051-22.17,66.608h-9.849v15.406h8.506V203.817z M27.715,380.524
		c-6.787,0-12.309-5.522-12.309-12.308c0-5.505,4.321-12.044,24.616-12.297v6.776h15.406v-6.787h124.915
		c29.934,0,58.854-9.151,83.509-26.121v2.108h16.009v-14.785c1.071-0.971,2.134-1.951,3.183-2.956
		c7.952-7.616,14.915-15.906,20.831-24.724v2.44h16.009v-15.406h-8.275c10.262-19.46,15.786-40.935,15.973-63.101
		c0.004-0.514-0.012-1.027-0.014-1.541h8.325v-15.406h-9.279c-2.003-16.635-7.123-33.129-15.131-48.631h8.402v-15.406h-16.009v2.308
		c-9.218-14.211-20.69-26.834-33.798-37.195c8.509-4.3,17.446-7.631,26.669-9.929c1.719,1.563,3.396,3.166,5.044,4.793h-5.919
		v15.406h16.009v-4.533c13.417,15.783,23.83,33.861,30.707,53.163h-6.694v15.406h11.361c2.428,9.675,3.995,19.57,4.616,29.566
		c0.737,11.883,0.26,23.618-1.378,35.075h-14.598v15.406h11.647c-5.141,21.398-14.477,41.542-27.657,59.516v-2.879h-16.009v15.406
		h5.886c-1.059,1.19-2.127,2.375-3.223,3.54c-10.448,11.116-22.104,20.599-34.682,28.354v-7.278H255.85v15.406h1.183
		c-22.488,10.873-47.341,16.612-73.226,16.612h-16.311v-8.306h-15.406v8.306H95.082v-8.306H79.676v8.306H27.715V380.524z
		 M229.433,292.473c-4.599-5.459-8.749-11.268-12.383-17.367c-2.939-4.931-5.514-10.032-7.733-15.255h6.509v-15.406h-11.891
		c-2.822-10.191-4.326-20.684-4.415-31.212c-0.198-23.512,5.883-45.958,17.17-65.448h15.146v-15.406h-4.648
		c7.99-10.046,17.559-18.975,28.531-26.429c34.783,25.046,56.804,66.612,56.46,107.283c-0.043,5.133-0.422,10.207-1.107,15.203
		h-7.194v15.406h4.048c-8.048,29.46-26.962,55.189-52.073,72.679c-5.676-3.944-11.028-8.31-16.012-13.033v-11.015H229.433z
		 M454.74,195.813c1.004,6.481,1.528,13.099,1.528,19.81v16.186c0,1.395-0.014,2.788-0.042,4.176
		c-0.219,10.944-1.299,21.798-3.214,32.474h-13.054v15.406h9.674c-2.894,11.163-6.713,22.075-11.436,32.622h-14.248v15.406h6.559
		c-1.602,2.905-3.278,5.774-5.025,8.608h-41.859v-8.306h-15.406v8.306h-36.827c-5.059,0-10.13-0.311-15.175-0.909
		c0.518-0.537,1.04-1.067,1.553-1.612c15.161-16.131,27.043-34.413,35.404-54.116h14.744v-15.406h-9.025
		c6.92-21.584,9.818-44.551,8.36-68.049c-1.482-23.873-7.849-47.221-18.372-68.635h3.028v-15.406h-11.515
		c-7.061-11.488-15.39-22.25-24.86-32.031c4.457-0.426,8.95-0.626,13.468-0.585c57.185,0.482,107.013,42.061,122.388,96.654h-11.431
		v15.406h14.782V195.813z M328.193,412.242v10.489c-21.15,8.4-43.693,13.118-66.706,13.749c-4.67,0.127-9.32,0.085-13.944-0.103
		v-8.126h-15.406v6.916c-19.664-2.31-38.71-7.486-56.636-15.333v-15.597h-15.406v8.033c-8.763-4.778-17.2-10.23-25.24-16.339h48.952
		c25.532,0,50.231-5.142,73.435-15.268l-0.002,0.004c23.699,10.128,48.808,15.264,74.628,15.264h43.599
		c-10.036,7.669-20.705,14.332-31.867,19.911v-3.6h-15.407V412.242z M375.92,444.465v-7.908h-16.009v15.406h2.006
		c-0.477,0.235-0.947,0.485-1.426,0.716c-25.588,12.389-52.607,19.981-80.628,22.726v-6.828h-16.009v7.88
		c-4.896,0.155-9.819,0.167-14.768,0.032c-25.294-0.693-49.974-5.476-73.285-13.912v-10.01h-16.009v3.561
		c-16.999-7.602-33.112-17.237-48.028-28.713v-14.871H95.755v1.423c-6.178-5.664-12.091-11.685-17.723-18.035h32.76
		c25.828,23.47,56.367,40.029,89.325,48.79v15.549h15.406v-12.055c13.167,2.48,26.65,3.749,40.31,3.749
		c2.02,0,4.047-0.027,6.075-0.083c11.566-0.317,23.02-1.594,34.265-3.777v12.166h15.406V444.5
		c32.378-8.852,62.522-25.395,87.875-48.569h36.021C418.351,415.14,398.143,431.605,375.92,444.465z M496.293,368.216
		c0,6.786-5.522,12.308-12.309,12.308h-44.327v-8.306H424.25v8.306h-64.64v-8.306h-15.406v8.306h-12.335
		c-19.235,0-38.039-3.103-56.071-9.235c9.271-5.358,18.03-11.507,26.231-18.414c9.672,2.004,19.537,3.031,29.363,3.031h60.841v8.306
		h15.406v-8.306h48.631v8.306h15.406v-8.306h12.309C490.771,355.908,496.293,361.429,496.293,368.216z M496.293,236.138
		c0,27.807-4.63,54.715-13.754,80.349h-10.562v15.406h4.456c-1.258,2.885-2.553,5.759-3.931,8.608h-29.149
		c8.964-16.022,15.866-33.033,20.62-50.647v10.02h16.009v-15.406h-14.627c2.602-10.696,4.429-21.595,5.421-32.623h9.206v-15.406
		h-8.355c0.001-0.049,0.003-0.099,0.004-0.149c0.03-1.49,0.045-2.985,0.045-4.482v-16.186c0-20.797-4.424-41.102-12.809-59.833
		h5.106v-15.406H450.86c-5.837-9.792-12.835-19.016-20.937-27.479c-4.539-4.74-9.321-9.122-14.306-13.148h0.329V84.349h-16.009
		v4.354c-21.426-13.069-45.672-20.146-70.804-20.358c-27.447-0.232-54.211,7.301-77.37,21.783
		c-10.24,6.403-19.628,14.079-27.93,22.785v-12.553h-16.009v15.406h13.373c-7.192,7.957-13.507,16.707-18.772,26.088
		c-4.048,7.213-7.434,14.763-10.165,22.543h-8.449v15.406h3.987c-2.519,10.954-3.776,22.22-3.68,33.559
		c0.02,2.358,0.121,4.714,0.265,7.067h-8.577v15.406h10.394c2.922,16.477,8.873,32.48,17.619,47.156
		c9.666,16.22,22.581,30.598,37.789,42.201c-8.366,4.414-17.237,7.971-26.48,10.541c-4.193-3.775-8.183-7.725-11.942-11.846h4.638
		v-15.406h-16.009v1.538c-20.315-27.636-31.778-60.841-32.301-95.278c-0.756-49.841,20.402-97.168,58.049-129.844
		c2.052-1.781,4.144-3.505,6.27-5.179v4.027h16.009V68.564c27.064-16.616,58.436-25.319,90.67-24.821
		c17.344,0.263,34.071,3.265,49.796,8.588h-4.386v15.406h16.009V56.765c23.155,9.848,43.745,24.859,60.393,43.594h-12.365v15.406
		h16.009v-11.182c21.17,25.422,35.29,57.134,39.207,91.833h-15.193v15.406h16.009v-5.828c0.192,3.346,0.301,6.713,0.301,10.106
		L496.293,236.138L496.293,236.138z"/>
	<rect x="391.929" y="404.543" style="fill:#1D1D1B;" width="16.009" height="15.406"/>
</g>
<g>
</g>
<g>
</g>
<g>
</g>
<g>
</g>
<g>
</g>
<g>
</g>
<g>
</g>
<g>
</g>
<g>
</g>
<g>
</g>
<g>
</g>
<g>
</g>
<g>
</g>
<g>
</g>
<g>
</g>
</svg>
