<?xml version="1.0" encoding="iso-8859-1"?>
<!-- Generator: Adobe Illustrator 19.0.0, SVG Export Plug-In . SVG Version: 6.00 Build 0)  -->
<svg version="1.1" id="Layer_1" xmlns="http://www.w3.org/2000/svg" xmlns:xlink="http://www.w3.org/1999/xlink" x="0px" y="0px"
	 viewBox="0 0 512.001 512.001" style="enable-background:new 0 0 512.001 512.001;" xml:space="preserve">
<path style="fill:#C89D52;" d="M172.681,96.705c2.75-0.275,5.507-0.567,8.332-0.567h-8.332V96.705z"/>
<path style="fill:#F4B2B0;" d="M264.03,172.278c-3.183-37.96-32.836-69.638-70.521-75.212c-19.888-2.941-38.576,1.292-54.157,10.315
	c-15.572-9.024-34.268-13.257-54.157-10.315c-37.677,5.575-67.33,37.251-70.513,75.212c-2.199,26.129,7.706,49.974,24.688,66.638
	v176.94h199.964v-176.94C256.315,222.252,266.221,198.407,264.03,172.278"/>
<path style="fill:#B3404A;" d="M511.805,173.155c-3.238-51.25-47.227-91.395-100.147-91.395H181.015
	c-0.23,0-0.454,0.024-0.683,0.035c-14.173,0.124-28.166,3.295-40.979,9.356c-17.406-8.238-36.998-11.158-56.264-8.312
	c-44.204,6.54-79,43.647-82.739,88.232c-2.28,27.094,6.653,53.577,24.636,73.606v171.18c0,7.942,6.439,14.383,14.383,14.383h199.964
	c7.944,0,14.383-6.441,14.383-14.383V254.277h140.529c7.944,0,14.383-6.441,14.383-14.383c0-7.942-6.439-14.383-14.383-14.383
	H267.133c8.821-16.47,12.834-35.294,11.229-54.436c-1.957-23.34-12.437-44.621-28.309-60.551h161.606
	c37.776,0,69.156,28.308,71.439,64.445c1.269,20.06-6.219,39.627-20.541,53.683c-2.756,2.704-4.309,6.403-4.309,10.265v162.558
	H302.109c-7.944,0-14.383,6.441-14.383,14.383s6.439,14.383,14.383,14.383h170.521c7.944,0,14.383-6.441,14.383-14.383V244.675
	C504.484,225.201,513.469,199.474,511.805,173.155z M224.952,401.475H53.753V238.916c0-3.862-1.553-7.561-4.309-10.266
	c-14.718-14.443-22.165-34.55-20.429-55.169c2.635-31.428,27.147-57.58,58.284-62.185c15.579-2.307,31.341,0.708,44.841,8.532
	c4.46,2.583,9.96,2.583,14.42,0.001c13.513-7.826,29.269-10.84,44.845-8.533c31.141,4.605,55.658,30.759,58.293,62.185
	c1.729,20.619-5.72,40.728-20.438,55.169c-2.756,2.705-4.309,6.405-4.309,10.266L224.952,401.475L224.952,401.475z"/>
<g>
</g>
<g>
</g>
<g>
</g>
<g>
</g>
<g>
</g>
<g>
</g>
<g>
</g>
<g>
</g>
<g>
</g>
<g>
</g>
<g>
</g>
<g>
</g>
<g>
</g>
<g>
</g>
<g>
</g>
</svg>
