<?xml version="1.0" encoding="iso-8859-1"?>
<!-- Generator: Adobe Illustrator 19.0.0, SVG Export Plug-In . SVG Version: 6.00 Build 0)  -->
<svg xmlns="http://www.w3.org/2000/svg" xmlns:xlink="http://www.w3.org/1999/xlink" version="1.1" id="Layer_1" x="0px" y="0px" viewBox="0 0 440.525 440.525" style="enable-background:new 0 0 440.525 440.525;" xml:space="preserve" width="512" height="512">
<g>
	<path style="fill:#EFEFEF;" d="M357.473,354.408l0.024-0.128c0.031-0.167,0.065-0.331,0.103-0.492l-0.005-0.001   c2.392-12.041,2.89-25.036,1.479-38.626L358.539,310l4.494-2.593c8.425-4.862,29.935-19.406,47.664-49.365l13.749-23.235   l1.129,26.973c0,0,0.063,1.503,0.083,2.25c0.023,1.018,0.033,1.997,0.033,2.966c0,39.876-21.655,76.718-56.515,96.148l-16.093,8.97   L357.473,354.408z"/>
	<path style="fill:#EFEFEF;" d="M230.901,382.875c-13.104,0-26.818-1.057-41.93-3.231l-6.86-0.987v-6.931l6.896-7.939   c44.274-5.944,76.426-21.298,91.651-29.922l9.775-5.536l2.036,11.047c1.38,7.491,2.792,19.072,1.682,31.709l-0.582,6.616   l-6.61,0.646c-4.507,0.44-14.256,1.547-14.256,1.547C259.934,381.359,246.72,382.875,230.901,382.875z"/>
	<path style="fill:#61ACD2;" d="M272.78,418.253c10.992-10.161,17.89-23.815,20.551-40.461c4.109-25.676-3.409-49.289-3.485-49.524   c-0.5,0.295-54.358,37.947-137.135,37.947c-6.881,0-13.953-0.273-21.02-0.813c-1.917-0.146-11.94-1.013-21.117-3.685l-0.173-0.053   c-5.869-1.854-10.505-3.52-14.231-4.858l-0.394-0.142c-7.808-2.812-12.105-4.359-17.925-4.359   c-3.852,0.006-7.142,1.451-9.502,4.177c-3.214,3.704-4.542,9.41-3.648,15.662c0.52,3.621,2.135,7.059,4.937,10.503l11.544,14.194   l-18.259-1.163c-2.46-0.157-4.81-0.488-6.984-0.985c-36.825-8.506-47.018-52.25-38.063-91.067   c8.617-37.333,30.589-59.622,58.775-59.622c4.268,0,8.653,0.518,13.036,1.539c1.031,0.234,2.065,0.49,3.055,0.757l19.119,5.15   l-17.331,9.577c-4.428,2.447-8.284,5.726-11.79,10.024c-7.005,8.614-7.923,18.172-2.388,24.938   c2.59,3.161,6.032,4.766,10.228,4.766c17.652,0,49.385-26.883,101.958-71.421l0.121-0.103c10.379-8.799,23.298-19.751,37.03-31.233   c21.083-17.604,52.93-41.002,86.001-41.002c23.417,0,45.88,7.388,64.962,21.366c19.053,13.956,32.854,33.097,39.914,55.355   l0.911,2.873l-1.211,2.76c-22.965,52.338-60.184,69.725-61.757,70.439c3.001,22.331,1.113,42.769-5.695,60.785   c-15.167,40.098-53.384,61.888-74.499,61.888c-4.025,0-9.979-1.478-11.337-4.876C265.52,423.937,272.677,418.348,272.78,418.253z"/>
	<g>
		<circle cx="364.696" cy="236" r="8"/>
		<path d="M315.696,129c-4.418,0-8-3.582-8-8V31.265C307.696,14.025,321.722,0,338.961,0h0.47c17.24,0,31.265,14.025,31.265,31.265    V40c0,4.418-3.582,8-8,8s-8-3.582-8-8v-8.735c0-8.417-6.848-15.265-15.265-15.265h-0.47c-8.417,0-15.265,6.848-15.265,15.265V121    C323.696,125.418,320.115,129,315.696,129z"/>
		<path d="M282.696,135c-4.418,0-8-3.582-8-8V64.265c0-8.417-6.848-15.265-15.265-15.265h-0.47c-8.417,0-15.265,6.848-15.265,15.265    V73c0,4.418-3.582,8-8,8s-8-3.582-8-8v-8.735c0-17.24,14.025-31.265,31.265-31.265h0.47c17.24,0,31.265,14.025,31.265,31.265V127    C290.696,131.418,287.115,135,282.696,135z"/>
		<path d="M429.211,234.705c0-0.01-0.25-0.86-0.25-0.86c-7.01-23.99-21.87-45.57-41.85-60.78c-20.67-15.75-45.37-24.07-71.42-24.07    c-35.69,0-69.1,24.46-91.13,42.86c-13.36,11.17-25.96,21.85-37.08,31.27c-47.7,40.43-82.17,69.63-96.9,69.63    c-1.85,0-2.94-0.5-4.04-1.83c-4.49-5.49,0.71-12.74,2.4-14.82c7.18-8.81,14.94-10.96,24.33-12.85c3.07-0.63,5.5-2.99,6.21-6.05    c0.7-3.06-0.45-6.25-2.94-8.16c-7.27-5.54-14.76-8.92-25.07-11.3c-5-1.16-9.99-1.74-14.82-1.74c-31.69,0-57.19,25.22-66.57,65.83    c-9.85,42.68,2.12,90.97,44.04,100.65c3.74,0.86,7.85,1.3,12.22,1.3c5.37,0,11.14-0.63,17.62-1.93c3.08-0.62,5.5-2.99,6.21-6.05    c0.7-3.07-0.46-6.27-2.96-8.17c-6.74-5.15-13.71-10.48-14.59-16.62c-0.54-3.78,0.16-7.43,1.77-9.3c0.57-0.65,1.48-1.4,3.49-1.41    c4.22,0,7.51,1.12,15.18,3.89c5.29,1.9,12.52,4.5,22.85,7.5c2.4,0.7,5.04,1.44,8.07,2.25c43.18,11.55,77.15,16.93,106.92,16.93    c16.28,0,29.72-1.54,42.72-3.03c3.1-0.36,6.25-0.72,9.44-1.06c-3.16,10.23-8.44,18.83-15.76,25.64    c-7.38,6.86-9.93,13.39-7.57,19.4c1.28,3.25,5.13,8.7,16.61,8.7c12.39,0,29.07-6.12,43.53-15.96    c12.38-8.43,28.93-23.47,39.07-47.75c44.87-17.68,74.75-61.35,74.75-109.82C433.691,256.015,432.181,245.146,429.211,234.705z     M271.801,371.945c-12.55,1.44-25.54,2.93-40.9,2.93c-12.6,0-26.06-1.03-40.79-3.15c0-0.01-0.02-0.01-0.04-0.01    c45.66-6.13,78.94-22.06,94.53-30.89c1.36,7.38,2.59,18.07,1.58,29.56C281.261,370.865,276.471,371.416,271.801,371.945z     M355.201,302.505c-3.27,1.44-5.19,4.88-4.7,8.42c2.9,20.95,1.16,40.07-5.17,56.82c-14.54,38.44-50.68,55.73-67.49,56.73    c0.11-0.11,0.23-0.22,0.35-0.33c12.34-11.47,20.09-26.64,23.04-45.09c4.37-27.31-3.44-52.23-3.78-53.27    c-0.77-2.43-2.65-4.34-5.06-5.15c-0.84-0.28-1.7-0.42-2.56-0.42c-1.62,0-3.23,0.5-4.59,1.45c-0.52,0.37-53.06,36.55-132.53,36.55    c-6.77,0-13.6-0.27-20.41-0.79c-4.18-0.32-12.45-1.34-19.49-3.39c-5.92-1.87-10.46-3.51-14.33-4.9    c-8.08-2.91-13.42-4.83-20.63-4.83c-6.16,0.01-11.68,2.47-15.55,6.94c-4.73,5.45-6.74,13.49-5.52,22.03    c0.81,5.64,3.34,10.35,6.65,14.42c-2.04-0.13-3.96-0.4-5.71-0.8c-31.69-7.32-40.11-46.53-32.05-81.47    c7.72-33.45,26.78-53.42,50.98-53.42c3.62,0,7.4,0.44,11.22,1.33c0.97,0.22,1.9,0.45,2.79,0.69c-4.85,2.68-9.61,6.44-14.12,11.97    c-9.41,11.57-10.34,25.33-2.38,35.06c4.13,5.04,9.81,7.7,16.42,7.7c20.6,0,51.37-26.08,107.25-73.42    c11.1-9.41,23.68-20.07,36.99-31.2c20.12-16.8,50.38-39.14,80.87-39.14c44.28,0,83.93,29.14,97.25,71.14    C391.111,285.885,355.531,302.355,355.201,302.505z M365.281,356.156c0.03-0.12,0.15-0.81,0.16-0.81    c2.55-12.84,3.09-26.55,1.59-41.01c10.05-5.8,32.2-21.21,50.55-52.22c0,0,0.06,1.43,0.08,2.14c0.02,0.91,0.03,1.83,0.03,2.74    C417.691,304.335,397.181,338.375,365.281,356.156z"/>
	</g>
</g>















</svg>
