<?xml version="1.0" encoding="iso-8859-1"?>
<!-- Generator: Adobe Illustrator 19.0.0, SVG Export Plug-In . SVG Version: 6.00 Build 0)  -->
<svg version="1.1" id="Layer_1" xmlns="http://www.w3.org/2000/svg" xmlns:xlink="http://www.w3.org/1999/xlink" x="0px" y="0px"
	 viewBox="0 0 512.646 512.646" style="enable-background:new 0 0 512.646 512.646;" xml:space="preserve">
<g transform="translate(1 1)">
	<g>
		<path style="fill:#FFE100;" d="M280.069,354.309l57.173-180.907c3.413-9.387,2.56-19.627-0.853-29.013
			c30.72,0.853,58.88,14.507,79.36,36.693c23.893,26.453,23.893,67.413-1.707,93.867l-57.173,59.733
			c-21.333,18.773-50.347,26.453-77.653,20.48C279.216,355.163,280.069,355.163,280.069,354.309"/>
		<path style="fill:#FFE100;" d="M228.869,355.163l-58.027-180.907c-8.533-27.307,11.093-55.467,38.4-55.467h90.453
			c27.307,0,46.933,28.16,38.4,55.467l-58.027,180.907C272.389,381.616,236.549,381.616,228.869,355.163"/>
		<path style="fill:#FFE100;" d="M228.869,357.723l-40.96-167.253c-3.413-10.24-2.56-20.48,0.853-29.013
			c-30.72,0.853-58.88,14.507-79.36,36.693c-23.893,26.453-23.893,67.413,1.707,93.867l40.96,48.64
			c21.333,18.773,49.493,23.893,77.653,18.773C228.869,358.576,228.869,358.576,228.869,357.723"/>
	</g>
	<path style="fill:#FFFFFF;" d="M111.109,292.869c-24.747-25.6-25.6-66.56-1.707-93.867c16.213-17.92,36.693-29.867,59.733-34.133
		c-0.853-6.827,0.853-12.8,2.56-18.773c-30.72,0.853-58.88,14.507-79.36,36.693c-23.893,26.453-23.893,67.413,1.707,93.867
		l27.307,28.16L111.109,292.869z"/>
	<path style="fill:#FFA800;" d="M397.829,294.576c24.747-25.6,25.6-66.56,1.707-93.867c-16.213-17.92-36.693-29.867-59.733-34.133
		c0.853-6.827-0.853-12.8-2.56-18.773c30.72,0.853,58.88,14.507,79.36,36.693c23.893,26.453,23.893,67.413-1.707,93.867
		l-27.307,28.16L397.829,294.576z"/>
	<path style="fill:#FFFFFF;" d="M46.256,368.816L46.256,368.816c-11.093-17.92-11.093-40.107-0.853-58.027
		c11.093-20.48,23.893-39.253,38.4-57.173c-2.56-7.68-4.267-15.36-4.267-23.893c-23.893,23.893-44.373,51.2-60.587,81.067
		c-10.24,17.92-10.24,40.107,0.853,58.027l0,0c12.8,20.48,39.253,29.013,61.44,23.893C67.589,389.296,53.936,381.616,46.256,368.816
		"/>
	<path style="fill:#FFE100;" d="M160.603,338.096l-51.2-48.64c-12.8-13.653-25.6-17.067-25.6-34.133
		c-23.893,23.893-27.307,25.6-43.52,55.467c-10.24,17.92-10.24,40.107,0.853,58.027l0,0c14.507,23.04,45.227,23.04,68.267,14.507
		l76.8-29.867C176.816,350.043,168.283,344.923,160.603,338.096"/>
	<path style="fill:#FFA800;" d="M467.803,368.816L467.803,368.816c11.093-17.92,11.093-40.107,0.853-58.027
		c-11.093-20.48-23.893-39.253-38.4-57.173c2.56-7.68,4.267-15.36,4.267-23.893c23.893,23.893,44.373,51.2,60.587,81.067
		c10.24,17.92,10.24,40.107-0.853,58.027l0,0c-12.8,20.48-39.253,29.013-61.44,23.893
		C446.469,389.296,460.123,381.616,467.803,368.816"/>
	<path style="fill:#FFE100;" d="M352.603,338.096l51.2-48.64c12.8-13.653,25.6-17.067,25.6-34.133
		c23.893,23.893,27.307,25.6,43.52,55.467c10.24,17.92,10.24,40.107-0.853,58.027l0,0c-14.507,23.04-45.227,23.04-68.267,14.507
		l-76.8-29.867C336.389,350.043,345.776,344.923,352.603,338.096"/>
	<path d="M254.469,383.323c-15.36,0-29.013-10.24-34.133-25.6l0,0l-57.173-180.907c-5.12-15.36-2.56-33.28,7.68-46.933
		c9.387-11.947,23.04-19.627,38.4-19.627h90.453c15.36,0,29.867,7.68,38.4,19.627c10.24,13.653,12.8,31.573,7.68,46.933
		l-57.173,180.907C283.483,373.083,269.829,383.323,254.469,383.323z M236.549,352.603c3.413,10.24,11.093,13.653,17.92,13.653
		s14.507-3.413,17.92-13.653l57.173-180.907c3.413-10.24,1.707-22.187-5.12-31.573c-5.973-8.533-15.36-12.8-24.747-12.8h-90.453
		c-10.24,0-18.773,5.12-24.747,12.8c-6.827,9.387-8.533,20.48-5.12,31.573L236.549,352.603z"/>
	<path d="M210.949,367.109c-23.893,0-46.933-8.533-65.707-24.747l-58.027-60.587c-28.16-29.013-29.013-75.093-1.707-104.96
		c21.333-23.893,52.907-38.4,85.333-40.107c2.56,0,5.973,0.853,7.68,3.413c1.707,2.56,1.707,5.12,0.853,7.68
		c-2.56,7.68-3.413,15.36-0.853,23.04l57.173,180.907l0.853,0.853c0.853,2.56,0.853,5.12-0.853,6.827
		c-0.853,2.56-3.413,3.413-5.973,4.267C224.603,366.256,217.776,367.109,210.949,367.109z M160.603,154.629
		c-23.893,3.413-46.08,15.36-62.293,33.28c-21.333,23.04-20.48,59.733,0.853,81.92l57.173,59.733
		c16.213,14.507,38.4,21.333,60.587,19.627l-53.76-172.373C160.603,169.989,159.749,162.309,160.603,154.629z"/>
	<path d="M64.176,400.389c-22.187,0-44.373-11.093-55.467-29.867c-12.8-20.48-12.8-46.08-0.853-66.56
		c1.707-3.413,3.413-6.827,5.973-10.24c1.707-4.267,6.827-5.12,11.093-3.413c4.267,2.56,5.12,7.68,3.413,11.947
		c-1.707,3.413-3.413,6.827-5.973,10.24c-9.387,15.36-9.387,34.133,0,49.493c12.8,20.48,40.107,25.6,58.027,18.773l75.947-30.72
		c-3.413-2.56-7.68-5.12-10.24-7.68l-58.027-60.587c-9.387-10.24-16.213-22.187-19.627-34.987
		c-4.267,4.267-8.533,9.387-11.947,14.507c-2.56,3.413-8.533,4.267-11.947,1.707s-4.267-8.533-1.707-11.947
		c7.68-10.24,17.067-19.627,25.6-29.013c2.56-2.56,5.973-3.413,9.387-1.707c3.413,0.853,5.973,3.413,5.973,6.827
		c0,16.213,5.973,30.72,17.067,42.667l57.173,59.733c5.973,5.12,13.653,10.24,22.187,13.653c3.413,1.707,5.12,4.267,5.12,7.68
		c0,3.413-2.56,6.827-5.12,7.68l-93.867,38.4C79.536,399.536,71.856,400.389,64.176,400.389z"/>
	<path d="M43.696,276.656c0-5.12-3.413-8.533-8.533-8.533s-8.533,3.413-8.533,8.533s3.413,8.533,8.533,8.533
		S43.696,281.776,43.696,276.656"/>
	<path d="M297.989,367.109c-6.827,0-12.8-0.853-19.627-1.707c-2.56-0.853-4.267-1.707-5.973-4.267
		c-1.707-2.56-1.707-5.12-0.853-6.827c0,0,0-0.853,0.853-0.853l0,0l0,0l0,0l57.173-180.907c2.56-7.68,2.56-16.213-0.853-23.04
		c-0.853-2.56-0.853-5.973,0.853-7.68c1.707-2.56,4.267-3.413,7.68-3.413c32.427,0.853,64,15.36,85.333,40.107
		c27.307,29.867,26.453,75.947-1.707,104.96l-57.173,59.733C344.923,358.576,321.883,367.109,297.989,367.109z M291.163,349.189
		c22.187,1.707,44.373-5.12,60.587-20.48l57.173-59.733c21.333-23.04,22.187-58.88,0.853-81.92
		c-16.213-17.067-38.4-28.16-61.44-32.427c0.853,7.68,0,14.507-2.56,22.187L291.163,349.189z"/>
	<path d="M444.763,400.389c-7.68,0-15.36-0.853-22.187-3.413l-93.013-37.547c-3.413-1.707-5.12-4.267-5.12-7.68
		s1.707-6.827,5.12-7.68c8.533-3.413,16.213-8.533,23.04-13.653l57.173-59.733c11.093-11.093,17.067-26.453,17.067-42.667
		c0-3.413,1.707-6.827,5.12-7.68c3.413-1.707,6.827-0.853,9.387,1.707c24.747,24.747,46.08,52.907,61.44,83.627
		c11.947,20.48,11.947,46.08-0.853,66.56C488.283,391.003,465.243,400.389,444.763,400.389z M352.603,350.043l75.947,30.72
		c17.92,6.827,45.227,0.853,57.173-18.773c9.387-15.36,9.387-34.133,0.853-48.64c-12.8-23.893-28.16-46.08-46.08-66.56
		c-3.413,12.8-9.387,25.6-19.627,34.987l-57.173,59.733c0,0,0,0-0.853,0.853C360.283,344.923,356.016,347.483,352.603,350.043z
		 M357.723,335.536L357.723,335.536L357.723,335.536z"/>
</g>
<g>
</g>
<g>
</g>
<g>
</g>
<g>
</g>
<g>
</g>
<g>
</g>
<g>
</g>
<g>
</g>
<g>
</g>
<g>
</g>
<g>
</g>
<g>
</g>
<g>
</g>
<g>
</g>
<g>
</g>
</svg>
