<?xml version="1.0" encoding="iso-8859-1"?>
<!-- Generator: Adobe Illustrator 19.0.0, SVG Export Plug-In . SVG Version: 6.00 Build 0)  -->
<svg version="1.1" id="Layer_1" xmlns="http://www.w3.org/2000/svg" xmlns:xlink="http://www.w3.org/1999/xlink" x="0px" y="0px"
	 viewBox="0 0 511.995 511.995" style="enable-background:new 0 0 511.995 511.995;" xml:space="preserve">
<g>
	<path style="fill:#E86F22;" d="M278.145,213.762c0,0,62.051-109.486,136.152-112.688c42.318-1.829,89.861,31.254,89.861,31.254
		s-29.115,26.731-30.128,72.235c-1.388,62.318-37.992,93.788-85.856,95.042c0,0,42.176,40.797,41.012,74.71
		c-1.829,53.29-49.894,76.8-118.596,67.918c0,0,0.177-85.643-39.037-122.75L278.145,213.762z"/>
	<path style="fill:#E86F22;" d="M233.845,213.762c0,0-62.051-109.486-136.152-112.688c-42.318-1.829-89.861,31.254-89.861,31.254
		s29.115,26.731,30.128,72.235c1.388,62.318,37.992,93.788,85.856,95.042c0,0-42.176,40.797-41.012,74.71
		c1.829,53.29,49.894,76.8,118.596,67.918c0,0-0.177-85.643,39.037-122.75L233.845,213.762z"/>
</g>
<path style="fill:#FFE666;" d="M238.973,296.015c0,0-7.064,0.972-17.429,3.824c-20.438,5.622-53.75,18.599-71.084,45.965
	c-13.291,20.982-28.829,26.039-39.528,21.703c-7.095-2.863-12.058-9.864-12.821-19.059c-1.16-13.667,6.928-32.225,31.023-49.413
	c0,0,41.179-24.858,97.938-20.543c3.563,0.272,7.189,0.658,10.877,1.17L238.973,296.015z"/>
<path style="fill:#EDD147;" d="M238.973,296.015c0,0-7.064,0.972-17.429,3.824c-20.438,5.622-53.75,18.599-71.084,45.965
	c-13.291,20.982-28.829,26.039-39.528,21.703c-7.095-2.863-12.058-9.864-12.821-19.059c14.242,2.759,29.936,0.251,52.694-22.141
	c30.135-29.644,58.692-42.392,76.267-47.815c3.563,0.272,7.189,0.658,10.877,1.17L238.973,296.015z"/>
<g>
	<path style="fill:#FFE666;" d="M235.839,245.777c-49.33-57.72-115.984-82.442-139.713-93.508
		c-10.658-4.963-17.544-14.879-19.435-24.628c-3.082-15.747,6.855-31.086,34.868-24.44c4.754,1.128,10.021,2.884,15.83,5.381
		c61.294,26.311,107.384,103.821,107.384,103.821l0.47,14.733l0.115,3.574L235.839,245.777z"/>
	<path style="fill:#FFE666;" d="M235.839,245.777v16.499c-4.984-3.271-10.24-6.395-15.694-9.373
		c-2.748-1.505-5.538-2.967-8.37-4.399c-41.702-21.034-91.951-34.2-119.181-39.696c-17.795-3.584-30.845-18.745-33.917-32.528
		c-2.748-12.424,2.612-23.73,19.937-24.44c0.355-0.01,0.721-0.021,1.087-0.031c7.262-0.115,16.551,1.567,28.097,5.684
		c52.715,18.808,92.745,52.621,113.1,72.495C230.604,239.476,235.839,245.777,235.839,245.777z"/>
	<path style="fill:#FFE666;" d="M237.761,276.559c0,0-6.698-2.006-17.711-4.211c-18.024-3.605-47.616-7.732-78.357-4.43
		c-44.398,4.754-58.974-5.256-60.959-26.749c-0.24-2.487-0.303-5.12-0.219-7.899c0.334-11.786,6.008-17.105,12.267-19.352
		c8.025-2.894,17.021-0.752,17.021-0.752c58.389,10.721,108.356,38.557,122.222,46.791c2.487,1.473,3.814,2.32,3.814,2.32
		L237.761,276.559z"/>
</g>
<path style="fill:#EDD147;" d="M235.839,245.777c-49.33-57.72-115.984-82.442-139.713-93.508
	c-10.658-4.963-17.544-14.879-19.435-24.628c-3.082-15.747,6.855-31.086,34.868-24.44c-5.413,14.284-4.2,32.047,23.343,44.941
	c40.103,18.777,81.742,61.764,100.456,82.568L235.839,245.777z"/>
<path style="fill:#FFE666;" d="M240.436,319.484c0,0-0.731,0.397-2.006,1.202c-1.588,0.993-4.002,2.633-6.875,4.932
	c-7.858,6.29-19.153,17.586-26.237,34.586c-11.379,27.303-25.203,43.353-48.107,33.217c-0.763-0.324-1.526-0.69-2.309-1.087
	c-4.232-2.142-7.367-4.984-9.498-8.349c-9.08-14.315,0.073-37.972,20.47-55.996c28.735-25.381,73.101-31.974,73.101-31.974
	L240.436,319.484z"/>
<g>
	<path style="fill:#EDD147;" d="M237.761,301.741c0,0-1.902,9.268-6.207,23.876c-7.858,6.29-19.153,17.586-26.237,34.586
		c-11.379,27.303-25.203,43.353-48.107,33.217c-0.763-0.324-1.526-0.69-2.309-1.087c-4.232-2.142-7.367-4.984-9.498-8.349
		c14.284-0.731,27.293-6.677,33.917-23.04C198.776,312.88,237.761,301.741,237.761,301.741z"/>
	<path style="fill:#EDD147;" d="M237.761,276.559c0,0-6.698-2.006-17.711-4.211c-18.024-3.605-47.616-7.732-78.357-4.43
		c-44.398,4.754-58.974-5.256-60.959-26.749c-0.24-2.487-0.303-5.12-0.219-7.899c0.334-11.786,6.008-17.105,12.267-19.352
		c1.87,16.844,11.703,33.834,54.847,34.879c31.305,0.763,67.103,7.513,84.396,11.16c2.487,1.473,3.814,2.32,3.814,2.32
		L237.761,276.559z"/>
	<path style="fill:#EDD147;" d="M235.839,245.777v16.499c-4.984-3.271-10.24-6.395-15.694-9.373
		c-2.748-1.505-5.538-2.967-8.37-4.399c-41.702-21.034-91.951-34.2-119.181-39.696c-17.795-3.584-30.845-18.745-33.917-32.528
		c-2.748-12.424,2.612-23.73,19.937-24.44c0.355-0.01,0.721-0.021,1.087-0.031c7.69,11.64,17.032,26.331,26.875,33.949
		c21.755,16.844,79.057,34.471,114.322,44.231C230.604,239.476,235.839,245.777,235.839,245.777z"/>
</g>
<g>
	<path style="fill:#FFE666;" d="M413.659,350.319c-3.26,21.692-30.626,29.424-52.13-4.514
		c-26.122-41.242-88.513-49.789-88.513-49.789l1.024-16.353c11.849-1.651,23.124-1.985,33.625-1.411
		c44.69,2.372,75.191,20.783,75.191,20.783C408.069,317.018,415.76,336.495,413.659,350.319z"/>
	<path style="fill:#FFE666;" d="M431.956,136.93c-3.365,6.322-8.861,11.975-16.091,15.339
		c-23.73,11.065-90.384,35.788-139.713,93.508l1.066-33.374c0,0,4.974-8.37,13.824-20.532c18.098-24.869,52.402-65.62,93.56-83.289
		C431.517,88.436,442.99,116.303,431.956,136.93z"/>
	<path style="fill:#FFE666;" d="M446.824,190.439c-6.102,8.673-15.747,16.018-27.429,18.369
		c-32.758,6.614-98.806,24.315-143.245,53.467v-16.499c0,0,7.387-8.903,20.888-21.452c21.692-20.146,59.173-49.706,107.154-66.832
		C455.403,139.208,462.007,168.914,446.824,190.439z"/>
	<path style="fill:#FFE666;" d="M428.748,251.921c-5.914,13.949-22.288,19.874-58.452,15.997
		c-49.518-5.319-96.068,8.641-96.068,8.641l1.923-14.284c0,0,14.326-9.143,37.271-19.853c22.894-10.689,54.376-22.946,88.764-29.257
		c0,0,28.526-6.781,29.288,20.104C431.684,240.521,430.932,246.769,428.748,251.921z"/>
</g>
<path style="fill:#EDD147;" d="M413.659,350.319c-3.26,21.692-30.626,29.424-52.13-4.514
	c-26.122-41.242-88.513-49.789-88.513-49.789l1.024-16.353c11.849-1.651,23.124-1.985,33.625-1.411
	c10.982,7.67,51.075,45.965,65.703,60.677C385.719,351.343,407.244,350.799,413.659,350.319z"/>
<path style="fill:#FFE666;" d="M361.258,389.732c-1.243,0.961-2.633,1.829-4.169,2.602c-24.294,12.278-38.661-3.918-50.416-32.131
	s-35.119-40.72-35.119-40.72l1.463-23.468c0,0,6.426,0.961,15.987,3.542c15.538,4.201,39.32,12.716,57.114,28.432
	C369.575,348.71,378.154,376.88,361.258,389.732z"/>
<g>
	<path style="fill:#EDD147;" d="M431.956,136.93c-3.365,6.322-8.861,11.975-16.091,15.339
		c-23.73,11.065-90.384,35.788-139.713,93.508l1.066-33.374c0,0,4.974-8.37,13.824-20.532c17.607,3.187,34.555-9.519,67.041-30.323
		C384.496,144.631,415.331,138.873,431.956,136.93z"/>
	<path style="fill:#EDD147;" d="M446.824,190.439c-6.102,8.673-15.747,16.018-27.429,18.369
		c-32.758,6.614-98.806,24.315-143.245,53.467v-16.499c0,0,7.387-8.903,20.888-21.452c15.13-0.909,34.523-4.441,56.017-14.012
		C385.552,195.841,423.92,191.62,446.824,190.439z"/>
	<path style="fill:#EDD147;" d="M428.748,251.921c-5.914,13.949-22.288,19.874-58.452,15.997
		c-49.518-5.319-96.068,8.641-96.068,8.641l1.923-14.284c0,0,14.326-9.143,37.271-19.853c8.547,2.873,16.018,5.705,19.55,7.879
		C343.171,256.581,396.711,246.728,428.748,251.921z"/>
	<path style="fill:#EDD147;" d="M361.258,389.732c-1.243,0.961-2.633,1.829-4.169,2.602c-24.294,12.278-38.661-3.918-50.416-32.131
		s-35.119-40.72-35.119-40.72l1.463-23.468c0,0,6.426,0.961,15.987,3.542c10.564,12.675,22.831,28.902,27.251,40.626
		c8.359,22.162,10.449,30.166,19.498,38.881C339.702,382.867,350.422,386.66,361.258,389.732z"/>
</g>
<path style="fill:#946132;" d="M278.983,290.07c-12.539,24.555-7.837,70.531-8.882,91.805
	c-1.045,21.285-14.106,20.522-14.106,20.522s-13.061,0.763-14.106-20.522c-1.045-21.274,3.657-67.25-8.882-91.805
	c-12.539-24.555,7.983-79.924,7.983-79.924l15.005-2.1l15.005,2.1C270.999,210.146,291.521,265.515,278.983,290.07z"/>
<path style="fill:#7D522A;" d="M255.995,208.045v194.351c0,0-13.061,0.763-14.106-20.522c-1.045-21.274,3.657-67.25-8.882-91.805
	c-12.539-24.555,7.983-79.924,7.983-79.924L255.995,208.045z"/>
<circle style="fill:#946132;" cx="255.995" cy="190.046" r="25.078"/>
<path style="fill:#7D522A;" d="M279.411,199.018c-3.605,9.425-12.727,16.112-23.416,16.112c-13.845,0-25.078-11.233-25.078-25.078
	c0-10.689,6.687-19.822,16.112-23.427c-1.076,2.79-1.661,5.81-1.661,8.965c0,13.855,11.233,25.078,25.078,25.078
	C273.601,200.668,276.632,200.083,279.411,199.018z"/>
<path d="M511.977,131.799c-0.16-2.373-1.39-4.546-3.343-5.905c-0.343-0.238-8.527-5.908-21.146-12.49
	c-3.839-2.002-8.571-0.513-10.572,3.325c-2.002,3.838-0.513,8.571,3.325,10.572c4.664,2.433,8.695,4.743,11.856,6.643
	c-9.355,11.471-25.131,35.841-25.902,70.443c-1.191,53.463-30.434,86.13-78.226,87.382c-0.555,0.015-1.092,0.107-1.618,0.233
	c-3.398-1.969-20.808-11.548-47.09-17.353c9.662-0.301,19.853-0.056,30.195,1.054c29.906,3.211,48.077,0.171,58.924-9.854
	c10.355-9.57,11.195-23.302,10.926-32.799c-0.281-9.951-3.797-16.235-7.488-20.121c15.166-7,25.204-20.851,28.557-32.665
	c3.261-11.489,0.99-21.953-6.231-28.711c-3.551-3.323-9.028-6.394-17.395-7.302c6.569-9.772,8.906-21.759,5.29-32.063
	c4.395,1.126,8.934,2.531,13.612,4.219c4.071,1.47,8.563-0.641,10.032-4.711c1.469-4.071-0.641-8.562-4.711-10.032
	c-17.17-6.196-32.986-9.029-47.014-8.425c-38.924,1.681-74.045,29.9-99.708,58.177c-10.375,10.982-19.222,21.905-26.193,31.215
	c-2.254-9.751-8.845-17.858-17.632-22.163c4.16-32.36,17.884-84.734,45.39-84.734c2.908,0,9.828,0.375,11.272,3.85
	c1.208,2.908-0.593,7.701-2.397,9.514c-3.052,3.068-3.041,8.03,0.027,11.083c3.068,3.052,8.03,3.042,11.083-0.027
	c5.748-5.776,9.721-17.057,5.761-26.585c-2.097-5.045-8.23-13.508-25.745-13.508c-40.44,0-55.027,60.137-59.82,90.608
	c-4.793-30.471-19.381-90.608-59.82-90.608c-17.516,0-23.648,8.464-25.745,13.508c-3.96,9.528,0.013,20.809,5.761,26.585
	c3.052,3.067,8.014,3.079,11.083,0.027c3.068-3.053,3.079-8.015,0.027-11.083c-1.805-1.813-3.606-6.606-2.397-9.514
	c1.444-3.475,8.364-3.85,11.272-3.85c27.506,0,41.23,52.373,45.39,84.734c-8.787,4.305-15.378,12.412-17.632,22.163
	c-6.971-9.309-15.817-20.231-26.189-31.212c-25.664-28.278-60.786-56.499-99.711-58.18C53.605,91.33,5.39,124.48,3.36,125.892
	c-1.953,1.358-3.183,3.531-3.343,5.905c-0.16,2.373,0.766,4.692,2.519,6.301c0.266,0.244,26.665,24.953,27.594,66.636
	c1.24,55.684,30.379,93.128,77.224,101.138c-13.162,15.401-33.253,43.221-32.378,68.709c0.775,22.596,9.47,41.574,25.143,54.882
	c17.502,14.861,42.687,22.468,73.785,22.468c9.017,0,18.536-0.641,28.504-1.929c3.911-0.506,6.837-3.841,6.833-7.786
	c-0.001-0.721,0.246-63.76,24.747-102.421c0.184,7.963,0.086,15.794-0.004,22.799c-0.098,7.652-0.182,14.259,0.084,19.66
	c0.503,10.253,3.529,17.938,8.992,22.845c5.183,4.654,10.714,5.134,12.771,5.134c0.118,0,0.22,0,0.339,0
	c2.056,0,7.589-0.48,12.771-5.134c5.464-4.907,8.49-12.593,8.992-22.845c0.265-5.401,0.181-12.009,0.084-19.66
	c-0.09-7.005-0.188-14.835-0.004-22.799c24.502,38.66,24.748,101.699,24.747,102.418c-0.008,3.946,2.918,7.283,6.833,7.789
	c9.758,1.262,19.138,1.888,28.077,1.888c23.099,0,43.225-4.186,59.147-12.41c3.846-1.985,5.353-6.713,3.367-10.559
	c-1.986-3.846-6.712-5.352-10.559-3.367c-17.879,9.235-42.444,12.546-71.356,9.667c-0.388-9.594-1.677-27.788-5.944-47.977
	c5.659,7.716,11.754,12.607,18.693,15.172c3.438,1.271,7.013,1.905,10.714,1.905c5.997,0,12.318-1.667,18.898-4.991
	c9.639-4.871,15.683-13.279,17.019-23.672c0.122-0.954,0.201-1.923,0.245-2.9c6.124,3.144,11.612,3.999,15.752,3.999
	c1.886,0,3.494-0.177,4.754-0.392c9.362-1.607,16.92-7.86,20.732-16.784c1.543,4.971,2.388,9.857,2.23,14.461
	c-0.461,13.425-4.159,24.947-10.991,34.245c-2.563,3.488-1.813,8.393,1.676,10.956c1.397,1.027,3.023,1.522,4.634,1.522
	c2.408,0,4.786-1.108,6.322-3.197c8.735-11.889,13.454-26.353,14.025-42.989c0.875-25.488-19.217-53.309-32.378-68.709
	c46.845-8.01,75.984-45.453,77.224-101.138c0.922-41.389,27.343-66.404,27.594-66.636
	C511.21,136.491,512.137,134.173,511.977,131.799z M387.696,115.781c20.13-8.64,35.136-8.415,39.165,0.588
	c3.713,8.294-1.842,22.991-14.307,28.802c-2.64,1.231-5.862,2.651-9.591,4.295c-0.56,0.247-1.144,0.505-1.722,0.76
	c-35.218,12.623-64.932,31.798-87.094,49.223c-9.723,7.398-19.429,15.683-28.814,24.98l0.518-8.314
	c3.717-6.238,18.791-30.658,40.595-54.625C343.465,143.561,364.543,125.72,387.696,115.781z M417.742,254.341
	c-7.034,6.502-22.28,8.393-46.612,5.78c-31.268-3.355-61.114,0.626-80.335,4.459c-0.024-0.59-0.044-1.173-0.078-1.774
	c8.372-4.683,20.883-11.225,36.249-17.914c24.095-9.985,48.345-17.231,66.486-21.965c3.351-0.739,6.733-1.43,10.149-2.058
	c0.133-0.024,0.264-0.052,0.395-0.084c2.066-0.49,10.751-1.576,15.5,2.069c2.642,2.028,3.997,5.509,4.142,10.64
	C423.93,243.731,422.055,250.354,417.742,254.341z M445.298,175.987c-2.933,10.334-13.306,22.289-27.454,25.143
	c-4.367,0.881-14.401,3.01-27.729,6.478c-26.218,5.781-50.297,14.582-69.858,23.12c-10.714,4.461-21.41,9.446-31.58,14.981
	c-0.103-0.593-0.21-1.185-0.319-1.774c6.488-6.87,17.992-18.258,33.624-30.726c31.817-24.552,64.246-39.225,85.075-48.42
	c17.388-6.17,30.979-6.844,36.379-1.79C447.393,166.704,446.056,173.316,445.298,175.987z M255.995,172.807
	c9.506,0,17.241,7.734,17.241,17.241c0,9.506-7.734,17.241-17.241,17.241c-9.507,0-17.241-7.734-17.241-17.241
	C238.754,180.542,246.488,172.807,255.995,172.807z M116.248,360.92c-4.916-0.843-8.621-4.716-9.911-10.357
	c-2.427-10.617,3.42-27.977,27.064-44.943c3.231-1.853,40.131-22.283,89.756-19.534c0.046,0.167,0.101,0.324,0.148,0.489
	c0.093,0.329,0.192,0.655,0.292,0.98c0.091,0.294,0.178,0.592,0.274,0.88c0.054,0.163,0.114,0.319,0.17,0.48
	c0.207,0.6,0.425,1.19,0.657,1.771c0.027,0.068,0.05,0.14,0.077,0.208c-14.834,3.62-38.933,11.448-58.967,26.996
	c-0.101,0.078-0.203,0.156-0.304,0.235c-0.647,0.506-1.287,1.021-1.924,1.542c-0.25,0.204-0.498,0.408-0.746,0.613
	c-0.61,0.509-1.214,1.027-1.814,1.551c-0.11,0.096-0.223,0.187-0.331,0.283c-0.097,0.086-0.191,0.174-0.288,0.26
	c-3.185,2.824-6.22,5.872-9.052,9.158c-0.102,0.118-0.203,0.236-0.303,0.354c-0.513,0.602-1.022,1.208-1.52,1.824
	c-0.497,0.612-0.982,1.227-1.458,1.844c-0.113,0.148-0.227,0.295-0.339,0.444c-1.604,2.111-3.077,4.251-4.417,6.407
	C134.815,355.462,124.742,362.378,116.248,360.92z M226.14,216.114l0.518,8.314c-9.385-9.297-19.091-17.582-28.814-24.98
	c-22.162-17.425-51.876-36.6-87.094-49.223c-0.579-0.255-1.162-0.513-1.722-0.76c-3.729-1.644-6.95-3.064-9.591-4.295
	c-12.466-5.811-18.019-20.507-14.307-28.802c2.062-4.606,6.994-6.914,14.016-6.914c6.705,0,15.316,2.105,25.149,6.326
	c23.156,9.94,44.237,27.785,61.259,45.716C207.355,185.464,222.426,209.881,226.14,216.114z M80.254,159.634
	c6.558,0,15.038,1.736,24.683,5.158c20.83,9.195,53.256,23.868,85.071,48.418c15.632,12.469,27.136,23.856,33.624,30.726
	c-0.109,0.589-0.215,1.18-0.319,1.774c-10.171-5.535-20.866-10.52-31.58-14.981c-19.56-8.538-43.64-17.339-69.858-23.12
	c-13.329-3.469-23.363-5.598-27.729-6.478c-14.149-2.854-24.521-14.808-27.454-25.143c-0.759-2.671-2.095-9.283,1.863-12.987
	C70.959,160.749,74.987,159.634,80.254,159.634z M88.35,233.495c0.144-5.111,1.488-8.582,4.106-10.613
	c4.601-3.569,12.801-2.716,15.536-2.096c0.131,0.031,0.262,0.06,0.395,0.084c3.416,0.627,6.799,1.32,10.149,2.058
	c18.14,4.733,42.39,11.979,66.486,21.965c15.365,6.688,27.877,13.23,36.249,17.914c-0.034,0.601-0.053,1.185-0.078,1.774
	c-14.141-2.819-34.027-5.72-56.007-5.72c-7.895,0-16.064,0.374-24.328,1.262c-24.33,2.612-39.577,0.722-46.612-5.78
	C89.934,250.354,88.06,243.731,88.35,233.495z M157.654,349.143c0.11-0.166,0.223-0.329,0.333-0.495
	c2.612-3.877,5.789-7.706,9.421-11.329c0.466-0.461,0.925-0.93,1.401-1.378c0.002-0.002,0.005-0.005,0.008-0.007
	c6.984-6.569,15.031-11.873,23.125-16.133c14.344-7.486,29.065-11.8,38.369-14.024c0.026,0.108,0.055,0.21,0.081,0.32
	c0.092,0.381,0.18,0.773,0.269,1.165c0.126,0.561,0.25,1.131,0.369,1.709c0.075,0.365,0.152,0.728,0.225,1.1
	c0.18,0.926,0.354,1.866,0.516,2.836c0.03,0.179,0.056,0.367,0.086,0.548c0.104,0.645,0.202,1.307,0.299,1.971
	c-8.003,5.443-24.511,18.828-34.071,41.771c-7.356,17.654-14.728,27.638-22.538,30.525c-4.825,1.785-10.422,1.007-17.11-2.374
	c-5.068-2.561-7.862-6.382-8.543-11.682C148.989,366.633,151.927,357.809,157.654,349.143z M45.795,204.388
	c-0.77-34.592-16.538-58.958-25.894-70.433c10.172-6.097,29.355-16.441,50.045-21.751c-3.609,10.302-1.273,22.282,5.294,32.051
	c-8.368,0.907-13.846,3.979-17.395,7.302c-7.221,6.757-9.492,17.222-6.231,28.711c3.354,11.814,13.391,25.665,28.557,32.665
	c-3.691,3.886-7.207,10.17-7.488,20.121c-0.269,9.496,0.572,23.228,10.926,32.799c10.846,10.026,29.02,13.066,58.924,9.854
	c10.343-1.11,20.534-1.354,30.195-1.053c-26.282,5.804-43.691,15.383-47.089,17.352c-0.526-0.126-1.063-0.218-1.617-0.233
	C76.228,290.517,46.985,257.852,45.795,204.388z M110.258,417.518c-12.391-10.522-18.994-25.149-19.623-43.472
	c-0.158-4.598,0.689-9.479,2.235-14.45c3.814,8.919,11.368,15.167,20.727,16.773c1.261,0.216,2.867,0.393,4.754,0.392
	c4.14,0,9.628-0.856,15.752-4c0.044,0.977,0.122,1.946,0.244,2.9c1.335,10.394,7.38,18.801,17.019,23.672
	c6.581,3.326,12.901,4.991,18.898,4.991c3.7,0,7.277-0.634,10.714-1.905c6.939-2.565,13.034-7.456,18.693-15.172
	c-4.267,20.186-5.558,38.38-5.945,47.975C157.5,438.817,128.028,432.607,110.258,417.518z M262.274,381.489
	c-0.453,9.221-3.462,12.776-5.981,13.059c-0.363-0.052-0.256-0.006-0.755,0.024h-0.001c-0.008,0-1.071-0.287-2.01-1.132
	c-1.26-1.132-3.429-4.188-3.811-11.952c-0.241-4.917-0.16-11.3-0.066-18.691c0.177-13.836,0.389-30.665-1.55-46.32l-0.004-0.062
	c-0.01-0.167-0.026-0.333-0.047-0.499c-0.001-0.007-0.002-0.015-0.003-0.022c-0.12-0.948-0.25-1.875-0.383-2.792
	c-0.036-0.245-0.072-0.487-0.109-0.729c-0.116-0.767-0.236-1.525-0.362-2.271c-0.026-0.154-0.05-0.31-0.076-0.462
	c-0.159-0.927-0.326-1.837-0.501-2.73c-0.009-0.046-0.019-0.091-0.027-0.137c-0.177-0.902-0.363-1.785-0.555-2.653
	c-0.005-0.022-0.009-0.043-0.015-0.065c-1.126-5.063-2.52-9.569-4.198-13.578c-0.01-0.026-0.022-0.051-0.032-0.077
	c-0.247-0.586-0.498-1.161-0.758-1.726c-0.054-0.12-0.109-0.241-0.164-0.36c-0.023-0.049-0.046-0.1-0.069-0.149
	c-0.264-0.563-0.533-1.118-0.81-1.66c-0.297-0.58-0.568-1.2-0.824-1.845c-0.021-0.053-0.041-0.109-0.062-0.163
	c-0.036-0.09-0.065-0.186-0.099-0.277c-0.161-0.429-0.308-0.878-0.451-1.334c-0.135-0.438-0.264-0.887-0.385-1.351
	c-0.037-0.141-0.072-0.285-0.108-0.428c-0.272-1.113-0.504-2.296-0.689-3.551c-0.015-0.1-0.05-0.192-0.069-0.292
	c-0.143-1-0.251-2.048-0.338-3.129c-0.003-0.126,0.004-0.252-0.005-0.378c-0.308-4.253-0.193-9.136,0.342-14.512
	c0.002-0.024,0-0.047,0.002-0.071c0.003-0.028,0.012-0.055,0.014-0.084c0.485-4.807,1.311-10.05,2.446-15.583
	c0.054-0.262,0.108-0.523,0.163-0.787c0.165-0.788,0.335-1.581,0.513-2.38c0.203-0.908,0.413-1.824,0.632-2.75
	c0.138-0.584,0.28-1.17,0.423-1.758c0.252-1.029,0.512-2.066,0.785-3.116c0.189-0.73,0.377-1.461,0.575-2.195
	c0.036-0.134,0.049-0.271,0.077-0.405c0.862-3.193,1.74-6.185,2.581-8.878c3.296,1.111,6.818,1.722,10.482,1.722
	c3.667,0,7.191-0.611,10.488-1.723c0.833,2.662,1.702,5.617,2.556,8.77c0.034,0.171,0.053,0.346,0.098,0.515
	c0.197,0.735,0.386,1.465,0.575,2.195c0.272,1.05,0.532,2.087,0.785,3.116c0.143,0.588,0.286,1.174,0.423,1.758
	c0.219,0.926,0.429,1.842,0.632,2.75c0.178,0.799,0.348,1.592,0.513,2.38c0.055,0.263,0.109,0.525,0.163,0.787
	c1.136,5.533,1.961,10.776,2.446,15.583c0.003,0.028,0.01,0.055,0.014,0.084c0.002,0.024,0,0.047,0.002,0.071
	c0.535,5.376,0.65,10.258,0.342,14.512c-0.009,0.126-0.002,0.252-0.005,0.378c-0.087,1.08-0.195,2.129-0.338,3.129
	c-0.019,0.099-0.054,0.191-0.069,0.292c-0.185,1.255-0.417,2.436-0.689,3.548c-0.036,0.144-0.071,0.289-0.109,0.432
	c-0.12,0.463-0.248,0.91-0.382,1.347c-0.146,0.467-0.298,0.927-0.463,1.367c-0.012,0.031-0.023,0.065-0.034,0.096
	c-0.039,0.103-0.075,0.209-0.115,0.31c-0.256,0.647-0.529,1.266-0.825,1.847c-0.277,0.542-0.545,1.097-0.81,1.66
	c-0.023,0.049-0.046,0.1-0.069,0.149c-0.055,0.12-0.11,0.24-0.164,0.36c-0.258,0.565-0.511,1.14-0.758,1.726
	c-0.01,0.026-0.022,0.051-0.032,0.077c-1.678,4.009-3.072,8.515-4.198,13.578c-0.005,0.022-0.009,0.043-0.015,0.065
	c-0.192,0.868-0.378,1.751-0.555,2.653c-0.009,0.046-0.019,0.091-0.027,0.137c-0.174,0.893-0.342,1.804-0.501,2.73
	c-0.026,0.153-0.051,0.309-0.076,0.462c-0.125,0.746-0.246,1.503-0.362,2.271c-0.037,0.242-0.073,0.485-0.109,0.729
	c-0.134,0.917-0.263,1.844-0.383,2.792c-0.001,0.007-0.002,0.015-0.003,0.022c-0.021,0.166-0.037,0.332-0.047,0.499l-0.004,0.062
	c-1.938,15.656-1.726,32.485-1.55,46.32C262.433,370.19,262.515,376.573,262.274,381.489z M362.097,373.663
	c-0.681,5.3-3.475,9.121-8.543,11.682c-6.689,3.379-12.286,4.158-17.11,2.374c-7.811-2.887-15.182-12.871-22.538-30.525
	c-9.559-22.943-26.067-36.328-34.071-41.771c0.097-0.664,0.193-1.327,0.299-1.971c0.029-0.181,0.055-0.368,0.086-0.548
	c0.162-0.97,0.335-1.91,0.516-2.836c0.072-0.372,0.148-0.735,0.225-1.1c0.119-0.579,0.242-1.148,0.369-1.709
	c0.089-0.391,0.177-0.783,0.269-1.165c0.026-0.109,0.054-0.211,0.082-0.32c9.304,2.224,24.024,6.539,38.369,14.024
	c8.095,4.26,16.142,9.564,23.125,16.133c0.002,0.002,0.005,0.005,0.008,0.007c0.476,0.448,0.935,0.918,1.401,1.378
	c3.631,3.623,6.809,7.452,9.421,11.329c0.111,0.165,0.225,0.328,0.333,0.495C360.062,357.809,363.001,366.633,362.097,373.663z
	 M405.652,350.564c-1.289,5.641-4.995,9.513-9.911,10.357c-8.497,1.464-18.567-5.459-27.063-18.512
	c-1.339-2.157-2.813-4.297-4.417-6.407c-0.112-0.149-0.226-0.296-0.339-0.444c-0.475-0.618-0.96-1.233-1.458-1.844
	c-0.498-0.618-1.007-1.224-1.52-1.824c-0.101-0.118-0.202-0.236-0.303-0.354c-2.832-3.285-5.867-6.333-9.052-9.158
	c-0.097-0.087-0.191-0.174-0.288-0.26c-0.109-0.096-0.223-0.187-0.331-0.283c-0.601-0.523-1.204-1.042-1.814-1.551
	c-0.248-0.207-0.497-0.41-0.746-0.613c-0.637-0.521-1.278-1.037-1.924-1.542c-0.101-0.078-0.203-0.157-0.304-0.235
	c-20.033-15.547-44.132-23.376-58.967-26.996c0.027-0.067,0.05-0.14,0.077-0.207c0.233-0.581,0.451-1.173,0.658-1.774
	c0.055-0.16,0.115-0.315,0.169-0.476c0.096-0.288,0.183-0.587,0.274-0.881c0.1-0.325,0.199-0.651,0.292-0.981
	c0.047-0.165,0.103-0.322,0.148-0.489c49.625-2.747,86.53,17.684,89.756,19.534C402.232,322.586,408.079,339.947,405.652,350.564z"
	/>
<g>
</g>
<g>
</g>
<g>
</g>
<g>
</g>
<g>
</g>
<g>
</g>
<g>
</g>
<g>
</g>
<g>
</g>
<g>
</g>
<g>
</g>
<g>
</g>
<g>
</g>
<g>
</g>
<g>
</g>
</svg>
