<?xml version="1.0" encoding="iso-8859-1"?>
<!-- Generator: Adobe Illustrator 19.0.0, SVG Export Plug-In . SVG Version: 6.00 Build 0)  -->
<svg version="1.1" id="Layer_1" xmlns="http://www.w3.org/2000/svg" xmlns:xlink="http://www.w3.org/1999/xlink" x="0px" y="0px"
	 viewBox="0 0 503.467 503.467" style="enable-background:new 0 0 503.467 503.467;" xml:space="preserve">
<g transform="translate(7 1)">
	<path style="fill:#50DD8E;" d="M413.694,339.48L413.694,339.48c-12.8,5.12-32.427,5.12-32.427,5.12c-11.947,0-23.04,0-34.133-0.853
		l0,0c-18.773-17.067-25.6-40.96-25.6-40.96c-8.533-51.2,30.72-69.973,30.72-69.973l0,0
		C371.88,254.147,395.773,290.84,413.694,339.48"/>
	<path style="fill:#E4F2DE;" d="M245.587,54.467c41.813,34.133,16.213,76.8,16.213,76.8c-17.067-17.067-34.133-8.533-34.133-8.533
		s-0.853,23.04,7.68,40.107l-0.853,1.707c-17.92-4.267-35.84-7.68-50.347-7.68c-46.933,0-85.333,12.8-85.333,59.733
		c0,41.813,58.88,87.893,150.187,111.787c17.067,4.267,34.987,8.533,54.613,11.093c13.653,1.707,28.16,3.413,42.667,4.267
		c11.093,0.853,23.04,0.853,34.133,0.853c0,0,19.627,0.853,31.573-4.267h0.853c5.973,15.36,11.093,32.427,15.36,50.347l0,0
		c-12.8,5.12-30.72,5.12-30.72,5.12c-13.653,0-30.72,0-50.347-1.707C236.2,387.267,48.467,353.133,48.467,208.067
		C48.467,88.6,100.52,3.267,185,3.267C218.28,3.267,242.173,24.6,245.587,54.467"/>
	<path style="fill:#FFD0A1;" d="M220.84,267.8c-10.24-68.267,33.28-98.133,33.28-98.133l0,0
		c18.773,5.973,36.693,13.653,52.907,23.04l0,0c0,0-44.373,32.427-35.84,92.16c0,0,8.533,31.573,34.133,52.907v1.707
		c-18.773-2.56-37.547-6.827-54.613-11.093l0.853-1.707C227.667,305.347,220.84,267.8,220.84,267.8"/>
	<path style="fill:#80D6FA;" d="M352.254,231.96c0,0-39.253,18.773-30.72,69.973c0,0,6.827,23.893,25.6,40.96l0,0
		c-14.507-0.853-29.013-2.56-42.667-4.267v-1.707c-25.6-21.333-34.133-52.907-34.133-52.907c-8.533-59.733,35.84-92.16,35.84-92.16
		l0,0c12.8,7.68,23.893,15.36,32.427,23.893C342.867,220.867,347.133,225.987,352.254,231.96L352.254,231.96z"/>
	<g>
		<path style="fill:#FF7474;" d="M347.133,394.093c19.627,0.853,37.547,1.707,50.347,1.707c0,0,17.067,0,30.72-5.12l0,0
			c7.68,31.573,11.947,68.267,11.947,107.52c-68.267-34.133-85.333-68.267-85.333-68.267s-8.533-12.8-8.533-34.133L347.133,394.093z
			"/>
		<path style="fill:#FF7474;" d="M253.267,169.667L253.267,169.667c0,0-42.667,29.867-33.28,98.133c0,0,7.68,37.547,29.867,58.88
			L249,328.387C157.693,304.493,98.813,258.413,98.813,216.6c0-46.933,38.4-59.733,85.333-59.733c14.507,0,32.427,2.56,50.347,7.68
			C241.32,165.4,247.294,167.96,253.267,169.667"/>
	</g>
	<path style="fill:#80D6FA;" d="M193.533,54.467c4.267,0,8.533,4.267,8.533,8.533s-4.267,8.533-8.533,8.533
		c-4.267,0-8.533-4.267-8.533-8.533S189.267,54.467,193.533,54.467"/>
</g>
<path style="fill:#51565F;" d="M448,503.467c-0.853,0-1.707,0-1.707-0.853c-69.12-34.133-86.187-69.12-87.04-69.973
	c-0.853-1.707,0-4.267,1.707-5.973c1.707-0.853,4.267,0,5.973,1.707c0,0,16.213,31.573,76.8,63.147
	c-1.707-133.12-56.32-217.6-85.333-254.293c-8.533,5.12-32.427,23.893-25.6,64c0,2.56-0.853,4.267-3.413,5.12
	c-2.56,0-4.267-0.853-5.12-3.413c-6.827-42.667,17.92-64.853,28.16-71.68c-4.267-5.12-7.68-8.533-10.24-11.093
	c-7.68-7.68-17.92-15.36-29.013-21.333c-8.533,6.827-39.253,36.693-32.427,86.187c0,2.56-1.707,4.267-3.413,5.12
	c-2.56,0-4.267-1.707-5.12-3.413c-6.827-50.347,21.333-81.067,33.28-92.16c-13.653-7.68-29.013-13.653-44.373-18.773
	c-7.68,5.973-38.4,34.133-29.867,93.013c0,2.56-1.707,4.267-3.413,5.12c-2.56,0-4.267-1.707-5.12-3.413
	c-7.68-54.613,17.067-85.333,29.013-97.28c-22.187-6.827-43.52-10.24-59.733-10.24c-55.467,0-81.067,17.92-81.067,55.467
	c0,58.027,118.613,123.733,277.333,123.733c2.56,0,4.267,1.707,4.267,4.267c0,2.56-1.707,4.267-4.267,4.267
	c-163.84,0-285.867-69.973-285.867-132.267c0-42.667,29.013-64,89.6-64c45.227,0,120.32,24.747,157.013,60.587
	c23.893,23.893,103.253,116.907,103.253,285.013c0,1.707-0.853,2.56-1.707,3.413C449.707,503.467,448.854,503.467,448,503.467z
	 M405.333,401.067c-82.773,0-354.133-13.653-354.133-192C51.2,83.627,107.52,0,192,0c21.333,0,39.253,7.68,51.2,23.04
	c6.827,8.533,11.947,19.627,13.653,30.72c41.813,35.84,16.213,80.213,15.36,81.067c-0.853,0.853-1.707,1.707-3.413,1.707
	c-1.707,0-2.56,0-3.413-0.853c-14.507-14.507-29.013-7.68-29.013-7.68c-1.707,0.853-4.267,0-5.973-1.707
	c-1.707-1.707,0-4.267,1.707-5.973c0.853,0,17.067-8.533,34.987,5.12c4.267-10.24,11.947-35.84-10.24-58.88
	c0,5.12-0.853,10.24-1.707,15.36c-0.853,2.56-2.56,3.413-5.12,3.413c-2.56-0.853-3.413-2.56-3.413-5.12
	c1.707-7.68,1.707-15.36,0.853-23.04c0-0.853,0-1.707,0-2.56c-1.707-10.24-5.12-19.627-11.947-27.307
	c-10.24-12.8-26.453-19.627-44.373-19.627c-79.36,0-132.267,80.213-132.267,200.533c0,169.813,264.533,183.467,345.6,183.467
	c2.56,0,4.267,1.707,4.267,4.267C408.747,398.507,407.894,401.067,405.333,401.067z M200.533,76.8c-6.827,0-12.8-5.973-12.8-12.8
	c0-6.827,5.973-12.8,12.8-12.8s12.8,5.973,12.8,12.8C213.333,70.827,207.36,76.8,200.533,76.8z M200.533,59.733
	c-2.56,0-4.267,1.707-4.267,4.267c0,2.56,1.707,4.267,4.267,4.267S204.8,66.56,204.8,64C204.8,61.44,203.094,59.733,200.533,59.733z
	"/>
<g>
</g>
<g>
</g>
<g>
</g>
<g>
</g>
<g>
</g>
<g>
</g>
<g>
</g>
<g>
</g>
<g>
</g>
<g>
</g>
<g>
</g>
<g>
</g>
<g>
</g>
<g>
</g>
<g>
</g>
</svg>
